<svg xmlns="http://www.w3.org/2000/svg" viewBox="0 0 30 17"><symbol id="a" viewBox="0 0 30 17"><path d="M15.829 9.543c-.87-1.454-.347-3.317 1.169-4.164l-1.63-2.724a3.203 3.203 0 0 1-1.585.415c-1.742 0-3.154-1.371-3.154-3.063H7.37a2.936 2.936 0 0 1-.42 1.535C6.08 2.996 4.146 3.49 2.628 2.648L.998 5.372c.469.257.875.634 1.164 1.117.869 1.451.348 3.312-1.161 4.16l1.63 2.723a3.21 3.21 0 0 1 1.578-.41c1.736 0 3.144 1.363 3.153 3.046h3.259a2.93 2.93 0 0 1 .42-1.519c.869-1.451 2.798-1.947 4.315-1.109l1.63-2.724a3.077 3.077 0 0 1-1.157-1.113zm-6.831 1.705c-1.854 0-3.358-1.451-3.358-3.24 0-1.789 1.504-3.24 3.358-3.24s3.358 1.45 3.358 3.24c0 1.79-1.504 3.24-3.358 3.24zM20 5l5 7 5-7z" fill="#666" fill-rule="evenodd"/></symbol><use xlink:href="#a" xmlns:xlink="http://www.w3.org/1999/xlink"/></svg>