<svg xmlns="http://www.w3.org/2000/svg" viewBox="0 0 20 20"><symbol id="a" viewBox="0 0 20 20"><g fill="none" fill-rule="evenodd"><path d="M2.998 7c0-2.398 3.205-4 7-4s7 1.602 7 4v9c0 2.398-3.205 4-7 4s-7-1.602-7-4V7z" fill="#DD5228" fill-rule="nonzero"/><path d="M3.998 7v9c0 1.657 2.686 3 6 3s6-1.343 6-3V7c0-1.657-2.686-3-6-3s-6 1.343-6 3z" fill="#FFF"/><path d="M9.998 11c-3.795 0-7-1.602-7-4 0-2.398 3.205-4 7-4s7 1.602 7 4c0 2.398-3.205 4-7 4z" fill="#DD5228" fill-rule="nonzero"/><path d="M9.998 10c3.314 0 6-1.343 6-3s-2.686-3-6-3-6 1.343-6 3 2.686 3 6 3z" fill="#FFF"/><path d="M15.024 13.437c3.275-.432 3.871-2.924 2.002-2.937l.014-2c2.122.015 3.403 1.864 2.815 3.798-.523 1.72-2.282 2.91-4.83 3.155V17.5l-4.02-3 4.02-3v1.937zm-10.046.01V11.5l4.018 3-4.018 3v-2.044c-2.557-.239-4.32-1.432-4.84-3.161-.583-1.94.735-3.795 2.86-3.795h-.03v2c-.743 0-1.112.531-.905 1.221.256.848 1.243 1.537 2.915 1.727zM6.983 6 10 1l3.019 5h-2.022v2h-2V6H6.983z" fill="#DD5228" fill-rule="nonzero"/></g></symbol><use xlink:href="#a" xmlns:xlink="http://www.w3.org/1999/xlink"/></svg>