<svg xmlns="http://www.w3.org/2000/svg" viewBox="0 0 10 10"><symbol id="a" viewBox="0 0 10 10"><path fill-rule="evenodd" clip-rule="evenodd" d="M1 5c.743-1.484 2.255-2.5 4-2.5S8.257 3.516 9 5c-.743 1.484-2.255 2.5-4 2.5S1.743 6.484 1 5zm4-.797a.75.75 0 1 1-1.5 0 .75.75 0 0 1 1.5 0zm1.972-.377c.47.3.869.701 1.168 1.174-.3.473-.698.874-1.168 1.174a3.661 3.661 0 0 1-3.944 0c-.47-.3-.869-.701-1.168-1.174a3.803 3.803 0 0 1 1.26-1.231 2 2 0 1 0 3.76 0c.03.018.062.037.092.057z" fill="#333"/></symbol><use xlink:href="#a" xmlns:xlink="http://www.w3.org/1999/xlink"/></svg>