<svg xmlns="http://www.w3.org/2000/svg" viewBox="0 0 70 40"><symbol id="a" viewBox="0 0 70 40"><path d="M23 10.5A2.5 2.5 0 0 1 25.5 8h19a2.5 2.5 0 0 1 2.5 2.5v19a2.5 2.5 0 0 1-2.5 2.5h-19a2.5 2.5 0 0 1-2.5-2.5v-19z" fill="#999"/><path fill-rule="evenodd" clip-rule="evenodd" d="M24.333 10.833a1.5 1.5 0 0 1 1.5-1.5h18.334a1.5 1.5 0 0 1 1.5 1.5v6.5H24.333v-6.5zm0 18.334v-2.5h21.334v2.5a1.5 1.5 0 0 1-1.5 1.5H25.833a1.5 1.5 0 0 1-1.5-1.5zm20.334-10.5h-4.334v6.666h1.334v-2.666h3a1 1 0 0 0 1-1v-2a1 1 0 0 0-1-1zm-3 1.333h2.166a.5.5 0 0 1 .5.5v.333a.5.5 0 0 1-.5.5h-2.166V20zM39 18.667h-4v6.666h4v-1.326h-2.667v-1.34l2.667.059v-1.41h-2.667V20H39v-1.333zM31 20h-2v-1.333h5.333V20h-2v5.333H31V20zm-4.5 4h-2.167v1.333h3a1 1 0 0 0 1-1v-2a1 1 0 0 0-1-1h-1.166a.5.5 0 0 1-.5-.5V20.5a.5.5 0 0 1 .5-.5h2.166v-1.333h-3a1 1 0 0 0-1 1v2a1 1 0 0 0 1 1H26.5a.5.5 0 0 1 .5.5v.333a.5.5 0 0 1-.5.5z" fill="#fff"/></symbol><use xlink:href="#a" xmlns:xlink="http://www.w3.org/1999/xlink"/></svg>