<svg xmlns="http://www.w3.org/2000/svg" viewBox="0 0 20 20"><symbol id="a" viewBox="0 0 20 20"><path fill-rule="evenodd" clip-rule="evenodd" d="M7 2h6v4h4v8h-3V9.414a1 1 0 0 0-.293-.707l-3.414-3.414A1 1 0 0 0 9.586 5H7V2zM6 5H3a1 1 0 0 0-1 1v12a1 1 0 0 0 1 1h10a1 1 0 0 0 1-1v-3h3a1 1 0 0 0 1-1V5.414a1 1 0 0 0-.293-.707l-3.414-3.414A1 1 0 0 0 13.586 1H7a1 1 0 0 0-1 1v3zm10.586 0L14 2.414V5h2.586zM9 10V6H3v12h10v-8H9zm1-3.586L12.586 9H10V6.414z" fill="#999"/></symbol><use xlink:href="#a" xmlns:xlink="http://www.w3.org/1999/xlink"/></svg>