ISO-10303-21;
HEADER;
FILE_DESCRIPTION (( 'STEP AP203' ),
    '1' );
FILE_NAME ('REV-21-2163.STEP',
    '2022-04-27T19:44:00',
    ( '' ),
    ( '' ),
    'SwSTEP 2.0',
    'SolidWorks 2022',
    '' );
FILE_SCHEMA (( 'CONFIG_CONTROL_DESIGN' ));
ENDSEC;

DATA;
#8 = ORIENTED_EDGE ( 'NONE', *, *, #1413, .F. );
#26 = VERTEX_POINT ( 'NONE', #7971 );
#38 = LINE ( 'NONE', #7564, #126 );
#115 = EDGE_LOOP ( 'NONE', ( #8448, #9449, #8539, #2599, #2807, #10696, #9755, #1679, #8584, #6515, #1560, #3867, #2864, #2269, #585, #1170, #6148, #9797, #5793, #8981, #4249, #4211, #10292, #5831, #8104, #5432, #3572, #10294, #8518, #4989 ) );
#126 = VECTOR ( 'NONE', #5005, 39.37007874015748143 );
#174 = VECTOR ( 'NONE', #7274, 39.37007874015748143 );
#224 = CIRCLE ( 'NONE', #5948, 0.4774999999999998690 );
#238 = CIRCLE ( 'NONE', #412, 0.4374999999999998890 );
#249 = VERTEX_POINT ( 'NONE', #533 );
#269 = VERTEX_POINT ( 'NONE', #4170 );
#306 = DIRECTION ( 'NONE',  ( 0.7071067811865523467, 0.7071067811865426878, -0.000000000000000000 ) );
#310 = DIRECTION ( 'NONE',  ( 0.7071067811865474617, -0.7071067811865474617, -0.000000000000000000 ) );
#323 = CARTESIAN_POINT ( 'NONE',  ( -0.3749999999999998335, 0.5050000000000000044, 1.500000000000000222 ) );
#325 = DIRECTION ( 'NONE',  ( 0.000000000000000000, 0.000000000000000000, 1.000000000000000000 ) );
#335 = CARTESIAN_POINT ( 'NONE',  ( -0.4949999999999999956, -0.5000000000000000000, 1.500000000000000222 ) );
#340 = EDGE_CURVE ( 'NONE', #10111, #9216, #38, .T. );
#344 = EDGE_CURVE ( 'NONE', #6811, #7795, #10638, .T. );
#354 = FACE_BOUND ( 'NONE', #2967, .T. );
#363 = CARTESIAN_POINT ( 'NONE',  ( 0.3799999999999998934, 0.000000000000000000, 1.500000000000000222 ) );
#387 = VECTOR ( 'NONE', #3827, 39.37007874015748143 );
#398 = EDGE_CURVE ( 'NONE', #4523, #9586, #224, .T. );
#412 = AXIS2_PLACEMENT_3D ( 'NONE', #6436, #10066, #2422 );
#414 = EDGE_CURVE ( 'NONE', #4064, #2509, #10425, .T. );
#417 = LINE ( 'NONE', #6397, #3453 );
#425 = VERTEX_POINT ( 'NONE', #7902 );
#429 = EDGE_CURVE ( 'NONE', #9517, #4585, #7734, .T. );
#443 = CARTESIAN_POINT ( 'NONE',  ( 0.4600000000000002420, -0.9600000000000001865, 1.500000000000000222 ) );
#470 = CARTESIAN_POINT ( 'NONE',  ( -0.2597279144137020768, -0.9327720855862980942, 1.500000000000000222 ) );
#472 = CARTESIAN_POINT ( 'NONE',  ( 0.1925000000000000322, 0.8928740256112637219, 1.500000000000000222 ) );
#477 = VERTEX_POINT ( 'NONE', #9468 );
#485 = CARTESIAN_POINT ( 'NONE',  ( -0.3799999999999998934, 0.000000000000000000, 1.500000000000000222 ) );
#491 = CARTESIAN_POINT ( 'NONE',  ( -0.4599999999999999645, -0.9600000000000001865, 1.500000000000000222 ) );
#493 = EDGE_CURVE ( 'NONE', #700, #26, #3553, .T. );
#500 = CARTESIAN_POINT ( 'NONE',  ( 0.3749999999999998890, -0.005000000000000000971, 1.500000000000000222 ) );
#504 = VECTOR ( 'NONE', #586, 39.37007874015748143 );
#506 = EDGE_CURVE ( 'NONE', #6540, #10224, #8852, .T. );
#533 = CARTESIAN_POINT ( 'NONE',  ( 0.000000000000000000, -0.9949999999999999956, 1.500000000000000222 ) );
#554 = CARTESIAN_POINT ( 'NONE',  ( -0.4599999999999999645, 0.7597279144137017992, 1.500000000000000222 ) );
#585 = ORIENTED_EDGE ( 'NONE', *, *, #7481, .F. );
#586 = DIRECTION ( 'NONE',  ( -0.7071067811865426878, -0.7071067811865523467, 0.000000000000000000 ) );
#599 = AXIS2_PLACEMENT_3D ( 'NONE', #8343, #8175, #7449 );
#618 = DIRECTION ( 'NONE',  ( 0.7071067811865484609, 0.7071067811865464625, 0.000000000000000000 ) );
#663 = CARTESIAN_POINT ( 'NONE',  ( -0.3749999999999998335, 0.5050000000000000044, 1.500000000000000222 ) );
#674 = CARTESIAN_POINT ( 'NONE',  ( 0.3749999999999998335, -0.5050000000000000044, 1.500000000000000222 ) );
#700 = VERTEX_POINT ( 'NONE', #7610 );
#704 = LINE ( 'NONE', #1483, #7620 );
#706 = CARTESIAN_POINT ( 'NONE',  ( 0.4600000000000002420, -0.9600000000000001865, 1.500000000000000222 ) );
#711 = DIRECTION ( 'NONE',  ( -1.000000000000000000, -1.365923996832131609E-16, 0.000000000000000000 ) );
#723 = DIRECTION ( 'NONE',  ( -0.000000000000000000, -1.000000000000000000, -0.000000000000000000 ) );
#759 = VECTOR ( 'NONE', #5035, 39.37007874015748143 );
#773 = EDGE_CURVE ( 'NONE', #3423, #7395, #3491, .T. );
#782 = CARTESIAN_POINT ( 'NONE',  ( -0.004999999999999946328, 1.000000000000000000, 1.500000000000000222 ) );
#792 = VERTEX_POINT ( 'NONE', #7996 );
#806 = VECTOR ( 'NONE', #6059, 39.37007874015748143 );
#812 = LINE ( 'NONE', #9122, #4828 );
#881 = DIRECTION ( 'NONE',  ( 0.000000000000000000, 0.000000000000000000, 1.000000000000000000 ) );
#924 = CARTESIAN_POINT ( 'NONE',  ( 0.5000000000000001110, -1.000000000000000222, 1.500000000000000222 ) );
#938 = VECTOR ( 'NONE', #6851, 39.37007874015748143 );
#944 = AXIS2_PLACEMENT_3D ( 'NONE', #5501, #10618, #7325 );
#946 = CARTESIAN_POINT ( 'NONE',  ( -0.2325000000000000400, -0.9327720855862980942, 1.500000000000000222 ) );
#960 = ORIENTED_EDGE ( 'NONE', *, *, #5818, .F. );
#982 = EDGE_CURVE ( 'NONE', #4337, #5655, #7430, .T. );
#1015 = ORIENTED_EDGE ( 'NONE', *, *, #5295, .T. );
#1018 = DIRECTION ( 'NONE',  ( 0.000000000000000000, 0.000000000000000000, 1.000000000000000000 ) );
#1022 = LINE ( 'NONE', #9462, #5589 );
#1079 = CARTESIAN_POINT ( 'NONE',  ( 0.5000000000000001110, 1.000000000000000000, 1.500000000000000222 ) );
#1089 = CARTESIAN_POINT ( 'NONE',  ( 0.004999999999999910766, 1.000000000000000000, 1.500000000000000222 ) );
#1130 = AXIS2_PLACEMENT_3D ( 'NONE', #9472, #881, #7740 );
#1131 = CARTESIAN_POINT ( 'NONE',  ( 0.5000000000000000000, -0.004999999999999999237, 1.500000000000000222 ) );
#1132 = CARTESIAN_POINT ( 'NONE',  ( -0.5000000000000000000, -1.000000000000000222, 1.500000000000000222 ) );
#1158 = CARTESIAN_POINT ( 'NONE',  ( 0.2457167031797833356, 0.9094258806896043934, 1.500000000000000222 ) );
#1169 = EDGE_CURVE ( 'NONE', #3807, #7823, #7759, .T. );
#1170 = ORIENTED_EDGE ( 'NONE', *, *, #9431, .F. );
#1191 = DIRECTION ( 'NONE',  ( -1.017433273237772548E-15, 1.000000000000000000, -0.000000000000000000 ) );
#1212 = AXIS2_PLACEMENT_3D ( 'NONE', #2485, #10247, #5228 );
#1254 = CARTESIAN_POINT ( 'NONE',  ( -0.1925000000000000044, 0.9599999999999997424, 1.500000000000000222 ) );
#1264 = CARTESIAN_POINT ( 'NONE',  ( -0.5000000000000000000, 0.004999999999999999237, 1.500000000000000222 ) );
#1278 = ORIENTED_EDGE ( 'NONE', *, *, #7096, .T. );
#1282 = ORIENTED_EDGE ( 'NONE', *, *, #6004, .F. );
#1309 = CARTESIAN_POINT ( 'NONE',  ( -0.5000000000000000000, -1.000000000000000222, 1.500000000000000222 ) );
#1316 = VECTOR ( 'NONE', #8925, 39.37007874015748143 );
#1321 = VERTEX_POINT ( 'NONE', #4576 );
#1344 = CARTESIAN_POINT ( 'NONE',  ( 0.3799999999999998934, 0.5000000000000000000, 1.500000000000000222 ) );
#1350 = CARTESIAN_POINT ( 'NONE',  ( -0.2457167031797834744, 0.9094258806896043934, 1.500000000000000222 ) );
#1379 = EDGE_CURVE ( 'NONE', #5974, #792, #3066, .T. );
#1399 = CARTESIAN_POINT ( 'NONE',  ( 0.4327720855862979832, 0.7597279144137017992, 1.500000000000000222 ) );
#1409 = EDGE_CURVE ( 'NONE', #7081, #5564, #2345, .T. );
#1410 = VECTOR ( 'NONE', #4492, 39.37007874015748143 );
#1413 = EDGE_CURVE ( 'NONE', #10330, #1724, #8090, .T. );
#1482 = VECTOR ( 'NONE', #5608, 39.37007874015748854 );
#1483 = CARTESIAN_POINT ( 'NONE',  ( 0.5000000000000001110, -1.000000000000000222, 1.500000000000000222 ) );
#1488 = CARTESIAN_POINT ( 'NONE',  ( -0.2597279144137020768, -0.9600000000000001865, 1.500000000000000222 ) );
#1494 = DIRECTION ( 'NONE',  ( 0.000000000000000000, 0.000000000000000000, 1.000000000000000000 ) );
#1495 = EDGE_CURVE ( 'NONE', #249, #3788, #3466, .T. );
#1521 = EDGE_CURVE ( 'NONE', #7709, #9979, #4194, .T. );
#1544 = AXIS2_PLACEMENT_3D ( 'NONE', #3448, #6740, #2496 );
#1546 = LINE ( 'NONE', #7577, #6253 );
#1555 = CARTESIAN_POINT ( 'NONE',  ( 0.1925000000000000044, 0.9599999999999997424, 1.500000000000000222 ) );
#1560 = ORIENTED_EDGE ( 'NONE', *, *, #493, .F. );
#1579 = VERTEX_POINT ( 'NONE', #782 );
#1592 = VERTEX_POINT ( 'NONE', #10542 );
#1597 = CARTESIAN_POINT ( 'NONE',  ( 0.3750000000000000555, -0.7253469547164992370, 1.500000000000000222 ) );
#1629 = DIRECTION ( 'NONE',  ( -1.000000000000000000, 0.000000000000000000, 0.000000000000000000 ) );
#1653 = VECTOR ( 'NONE', #306, 39.37007874015748143 );
#1656 = DIRECTION ( 'NONE',  ( 0.7071067811865474617, -0.7071067811865474617, 0.000000000000000000 ) );
#1663 = ORIENTED_EDGE ( 'NONE', *, *, #4716, .T. );
#1669 = VECTOR ( 'NONE', #9200, 39.37007874015748854 );
#1679 = ORIENTED_EDGE ( 'NONE', *, *, #8789, .F. );
#1724 = VERTEX_POINT ( 'NONE', #1264 );
#1725 = CARTESIAN_POINT ( 'NONE',  ( 0.000000000000000000, 0.5000000000000000000, 1.500000000000000222 ) );
#1757 = AXIS2_PLACEMENT_3D ( 'NONE', #7732, #10257, #2495 );
#1761 = ORIENTED_EDGE ( 'NONE', *, *, #7789, .F. );
#1768 = DIMENSIONAL_EXPONENTS ( 1.000000000000000000, 0.000000000000000000, 0.000000000000000000, 0.000000000000000000, 0.000000000000000000, 0.000000000000000000, 0.000000000000000000 );
#1787 = ORIENTED_EDGE ( 'NONE', *, *, #3060, .T. );
#1812 = VECTOR ( 'NONE', #4760, 39.37007874015748143 );
#1882 = EDGE_CURVE ( 'NONE', #5695, #7709, #6356, .T. );
#1903 = AXIS2_PLACEMENT_3D ( 'NONE', #2710, #1018, #6110 );
#1911 = CARTESIAN_POINT ( 'NONE',  ( -0.4599999999999999645, 0.7597279144137017992, 1.500000000000000222 ) );
#1914 = CARTESIAN_POINT ( 'NONE',  ( 0.3750000000000001110, -0.7253469547164991260, 1.500000000000000222 ) );
#1930 = LINE ( 'NONE', #5342, #3013 );
#1953 = VERTEX_POINT ( 'NONE', #5010 );
#1955 = ( GEOMETRIC_REPRESENTATION_CONTEXT ( 3 ) GLOBAL_UNCERTAINTY_ASSIGNED_CONTEXT ( ( #2384 ) ) GLOBAL_UNIT_ASSIGNED_CONTEXT ( ( #3820, #7222, #7171 ) ) REPRESENTATION_CONTEXT ( 'NONE', 'WORKASPACE' ) );
#1959 = EDGE_CURVE ( 'NONE', #792, #7531, #6688, .T. );
#1965 = LINE ( 'NONE', #6320, #8978 );
#1989 = DIRECTION ( 'NONE',  ( -0.000000000000000000, -0.000000000000000000, -1.000000000000000000 ) );
#2002 = CIRCLE ( 'NONE', #2539, 0.02722791441370204027 );
#2020 = CARTESIAN_POINT ( 'NONE',  ( 0.000000000000000000, 0.9949999999999999956, 1.500000000000000222 ) );
#2041 = LINE ( 'NONE', #5452, #5876 );
#2044 = CARTESIAN_POINT ( 'NONE',  ( 0.3799999999999998934, -0.5000000000000000000, 1.500000000000000222 ) );
#2051 = DIRECTION ( 'NONE',  ( 0.7071067811865447972, 0.7071067811865500152, -0.000000000000000000 ) );
#2067 = ORIENTED_EDGE ( 'NONE', *, *, #773, .T. );
#2078 = VERTEX_POINT ( 'NONE', #1131 );
#2085 = DIRECTION ( 'NONE',  ( -0.000000000000000000, -1.000000000000000000, -0.000000000000000000 ) );
#2096 = CARTESIAN_POINT ( 'NONE',  ( 0.3750000000000001110, -0.7253469547164991260, 1.500000000000000222 ) );
#2109 = VERTEX_POINT ( 'NONE', #10564 );
#2151 = LINE ( 'NONE', #8013, #2869 );
#2162 = ORIENTED_EDGE ( 'NONE', *, *, #9910, .F. );
#2169 = ORIENTED_EDGE ( 'NONE', *, *, #8566, .F. );
#2170 = LINE ( 'NONE', #9037, #1316 );
#2196 = VECTOR ( 'NONE', #2051, 39.37007874015748854 );
#2200 = CARTESIAN_POINT ( 'NONE',  ( -0.3799999999999998934, 0.5000000000000000000, 1.500000000000000222 ) );
#2208 = VECTOR ( 'NONE', #4446, 39.37007874015748143 );
#2240 = CARTESIAN_POINT ( 'NONE',  ( 0.4600000000000002420, -0.9600000000000001865, 1.500000000000000222 ) );
#2248 = EDGE_CURVE ( 'NONE', #9586, #269, #9295, .T. );
#2262 = EDGE_CURVE ( 'NONE', #5021, #6540, #8321, .T. );
#2269 = ORIENTED_EDGE ( 'NONE', *, *, #4052, .F. );
#2281 = EDGE_LOOP ( 'NONE', ( #3361, #4507, #1663, #4968, #1282, #10168, #10113, #8299, #2067, #1787, #6518, #6610, #6091, #3439, #3602, #4238, #1015, #8, #2169, #4376, #5581, #960, #6162, #8031, #4616, #10282, #1278, #8036 ) );
#2309 = DIRECTION ( 'NONE',  ( 0.7071067811865426878, 0.7071067811865523467, 0.000000000000000000 ) );
#2345 = LINE ( 'NONE', #443, #6513 );
#2367 = CARTESIAN_POINT ( 'NONE',  ( -0.5000000000000000000, -1.000000000000000222, 1.500000000000000222 ) );
#2373 = DIRECTION ( 'NONE',  ( 0.000000000000000000, 0.000000000000000000, 1.000000000000000000 ) );
#2384 = UNCERTAINTY_MEASURE_WITH_UNIT (LENGTH_MEASURE( 1.000000000000000082E-05 ), #3820, 'distance_accuracy_value', 'NONE');
#2386 = VECTOR ( 'NONE', #8395, 39.37007874015748143 );
#2405 = VECTOR ( 'NONE', #5291, 39.37007874015748143 );
#2407 = ORIENTED_EDGE ( 'NONE', *, *, #1409, .F. );
#2422 = DIRECTION ( 'NONE',  ( 1.000000000000000000, 0.000000000000000000, 0.000000000000000000 ) );
#2429 = VERTEX_POINT ( 'NONE', #4420 );
#2473 = CARTESIAN_POINT ( 'NONE',  ( -0.5000000000000000000, -0.5049999999999998934, 1.500000000000000222 ) );
#2485 = CARTESIAN_POINT ( 'NONE',  ( 0.4327720855862980942, -0.7597279144137017992, 1.500000000000000222 ) );
#2495 = DIRECTION ( 'NONE',  ( 1.000000000000000000, 0.000000000000000000, 0.000000000000000000 ) );
#2496 = DIRECTION ( 'NONE',  ( 1.000000000000000000, 0.000000000000000000, 0.000000000000000000 ) );
#2501 = LINE ( 'NONE', #5909, #4240 );
#2509 = VERTEX_POINT ( 'NONE', #8004 );
#2520 = CARTESIAN_POINT ( 'NONE',  ( 0.2597279144137019657, 0.9599999999999997424, 1.500000000000000222 ) );
#2535 = LINE ( 'NONE', #10959, #6076 );
#2539 = AXIS2_PLACEMENT_3D ( 'NONE', #7089, #2852, #6255 );
#2543 = CARTESIAN_POINT ( 'NONE',  ( 0.1925000000000000044, -0.9600000000000001865, 1.500000000000000222 ) );
#2563 = LINE ( 'NONE', #8688, #3959 );
#2599 = ORIENTED_EDGE ( 'NONE', *, *, #2262, .F. );
#2601 = VERTEX_POINT ( 'NONE', #9060 );
#2661 = CARTESIAN_POINT ( 'NONE',  ( 0.4949999999999999956, -0.5000000000000000000, 1.500000000000000222 ) );
#2689 = EDGE_CURVE ( 'NONE', #9282, #4337, #9953, .T. );
#2703 = DIRECTION ( 'NONE',  ( -4.707829777013404992E-17, 1.000000000000000000, 0.000000000000000000 ) );
#2710 = CARTESIAN_POINT ( 'NONE',  ( -0.4327720855862979832, 0.7597279144137017992, 1.500000000000000222 ) );
#2728 = VECTOR ( 'NONE', #3735, 39.37007874015748143 );
#2783 = FACE_BOUND ( 'NONE', #115, .T. );
#2807 = ORIENTED_EDGE ( 'NONE', *, *, #10158, .F. );
#2813 = LINE ( 'NONE', #7819, #4154 );
#2852 = DIRECTION ( 'NONE',  ( 0.000000000000000000, 0.000000000000000000, 1.000000000000000000 ) );
#2860 = VECTOR ( 'NONE', #9900, 39.37007874015748143 );
#2864 = ORIENTED_EDGE ( 'NONE', *, *, #10740, .F. );
#2869 = VECTOR ( 'NONE', #8854, 39.37007874015748143 );
#2903 = VECTOR ( 'NONE', #7965, 39.37007874015748854 );
#2931 = CARTESIAN_POINT ( 'NONE',  ( 0.004999999999999946328, -1.000000000000000000, 1.500000000000000222 ) );
#2937 = LENGTH_MEASURE_WITH_UNIT ( LENGTH_MEASURE( 0.02539999999999999897 ), #5557 );
#2947 = VERTEX_POINT ( 'NONE', #6938 );
#2967 = EDGE_LOOP ( 'NONE', ( #1761, #3897, #9044, #10190, #10559, #10210 ) );
#2989 = CARTESIAN_POINT ( 'NONE',  ( 0.3749999999999998335, -0.5050000000000000044, 1.500000000000000222 ) );
#3004 = VERTEX_POINT ( 'NONE', #5018 );
#3012 = DIRECTION ( 'NONE',  ( -0.7071067811865486830, 0.7071067811865463515, -0.000000000000000000 ) );
#3013 = VECTOR ( 'NONE', #6285, 39.37007874015748143 );
#3033 = CARTESIAN_POINT ( 'NONE',  ( 0.3749999999999999445, 0.4949999999999999956, 1.500000000000000222 ) );
#3060 = EDGE_CURVE ( 'NONE', #7395, #5620, #1546, .T. );
#3066 = LINE ( 'NONE', #491, #9541 );
#3068 = VECTOR ( 'NONE', #7410, 39.37007874015748143 );
#3084 = VECTOR ( 'NONE', #3502, 39.37007874015748854 );
#3090 = CARTESIAN_POINT ( 'NONE',  ( -0.5000000000000000000, -0.4949999999999999956, 1.500000000000000222 ) );
#3174 = CARTESIAN_POINT ( 'NONE',  ( -0.5000000000000000000, 0.5050000000000000044, 1.500000000000000222 ) );
#3183 = CARTESIAN_POINT ( 'NONE',  ( 0.1925000000000000044, -0.9600000000000001865, 1.500000000000000222 ) );
#3188 = VERTEX_POINT ( 'NONE', #7853 );
#3190 = CARTESIAN_POINT ( 'NONE',  ( -0.3749999999999998890, -0.005000000000000134545, 1.500000000000000222 ) );
#3238 = CARTESIAN_POINT ( 'NONE',  ( 0.3799999999999998934, 0.5000000000000000000, 1.500000000000000222 ) );
#3249 = DIRECTION ( 'NONE',  ( -0.7071067811865378028, 0.7071067811865571207, 0.000000000000000000 ) );
#3258 = CARTESIAN_POINT ( 'NONE',  ( -0.4094258806896041714, -0.7457167031797840018, 1.500000000000000222 ) );
#3343 = CARTESIAN_POINT ( 'NONE',  ( 0.3749999999999999445, 0.4949999999999999956, 1.500000000000000222 ) );
#3361 = ORIENTED_EDGE ( 'NONE', *, *, #429, .F. );
#3411 = CARTESIAN_POINT ( 'NONE',  ( -0.3799999999999998934, -0.5000000000000000000, 1.500000000000000222 ) );
#3423 = VERTEX_POINT ( 'NONE', #4054 );
#3426 = AXIS2_PLACEMENT_3D ( 'NONE', #1399, #7431, #4927 );
#3436 = EDGE_CURVE ( 'NONE', #3188, #1321, #8619, .T. );
#3439 = ORIENTED_EDGE ( 'NONE', *, *, #3828, .T. );
#3445 = EDGE_CURVE ( 'NONE', #10224, #9160, #10804, .T. );
#3448 = CARTESIAN_POINT ( 'NONE',  ( 0.000000000000000000, -0.5000000000000000000, 1.500000000000000222 ) );
#3453 = VECTOR ( 'NONE', #9695, 39.37007874015748143 );
#3466 = LINE ( 'NONE', #6813, #1669 );
#3491 = LINE ( 'NONE', #10299, #806 );
#3502 = DIRECTION ( 'NONE',  ( 0.7071067811865474617, -0.7071067811865474617, 0.000000000000000000 ) );
#3553 = LINE ( 'NONE', #3721, #2405 );
#3558 = CARTESIAN_POINT ( 'NONE',  ( 0.000000000000000000, 0.9949999999999999956, 1.500000000000000222 ) );
#3572 = ORIENTED_EDGE ( 'NONE', *, *, #982, .F. );
#3578 = EDGE_CURVE ( 'NONE', #1953, #1592, #9229, .T. );
#3582 = VECTOR ( 'NONE', #618, 39.37007874015748854 );
#3590 = LINE ( 'NONE', #1914, #5764 );
#3602 = ORIENTED_EDGE ( 'NONE', *, *, #5643, .F. );
#3645 = ORIENTED_EDGE ( 'NONE', *, *, #1379, .F. );
#3651 = CARTESIAN_POINT ( 'NONE',  ( 0.5000000000000001110, -1.000000000000000222, 1.500000000000000222 ) );
#3671 = VECTOR ( 'NONE', #3012, 39.37007874015748143 );
#3697 = DIRECTION ( 'NONE',  ( -4.707829777013404992E-17, 1.000000000000000000, 0.000000000000000000 ) );
#3721 = CARTESIAN_POINT ( 'NONE',  ( -0.3749999999999998890, -0.7253469547164995701, 1.500000000000000222 ) );
#3735 = DIRECTION ( 'NONE',  ( -0.7071067811865523467, -0.7071067811865426878, 0.000000000000000000 ) );
#3745 = ADVANCED_FACE ( 'NONE', ( #7122, #2783, #7073, #8008, #10525, #354 ), #3769, .T. );
#3769 = PLANE ( 'NONE',  #10136 );
#3787 = AXIS2_PLACEMENT_3D ( 'NONE', #4126, #5806, #10876 );
#3788 = VERTEX_POINT ( 'NONE', #4768 );
#3798 = VERTEX_POINT ( 'NONE', #8330 );
#3807 = VERTEX_POINT ( 'NONE', #4936 );
#3820 = ( CONVERSION_BASED_UNIT ( 'INCH', #2937 ) LENGTH_UNIT ( ) NAMED_UNIT ( #1768 ) );
#3827 = DIRECTION ( 'NONE',  ( -0.7071067811865390240, 0.7071067811865560104, 0.000000000000000000 ) );
#3828 = EDGE_CURVE ( 'NONE', #9007, #7424, #4043, .T. );
#3867 = ORIENTED_EDGE ( 'NONE', *, *, #8907, .F. );
#3871 = LINE ( 'NONE', #2096, #174 );
#3883 = DIRECTION ( 'NONE',  ( 0.000000000000000000, 0.000000000000000000, 1.000000000000000000 ) );
#3897 = ORIENTED_EDGE ( 'NONE', *, *, #3436, .F. );
#3911 = EDGE_CURVE ( 'NONE', #5084, #7147, #2535, .T. );
#3941 = CARTESIAN_POINT ( 'NONE',  ( 0.3750000000000001110, -0.7253469547164991260, 1.500000000000000222 ) );
#3957 = CIRCLE ( 'NONE', #5927, 0.4375000000000000000 );
#3959 = VECTOR ( 'NONE', #1656, 39.37007874015748854 );
#4032 = VERTEX_POINT ( 'NONE', #3651 );
#4043 = LINE ( 'NONE', #2367, #9063 );
#4052 = EDGE_CURVE ( 'NONE', #4145, #5979, #10609, .T. );
#4054 = CARTESIAN_POINT ( 'NONE',  ( 0.5000000000000000000, 0.5049999999999998934, 1.500000000000000222 ) );
#4064 = VERTEX_POINT ( 'NONE', #4426 );
#4093 = VERTEX_POINT ( 'NONE', #4479 );
#4126 = CARTESIAN_POINT ( 'NONE',  ( 0.2597279144137020768, -0.9327720855862980942, 1.500000000000000222 ) );
#4138 = VERTEX_POINT ( 'NONE', #6594 );
#4145 = VERTEX_POINT ( 'NONE', #3190 );
#4154 = VECTOR ( 'NONE', #4259, 39.37007874015748854 );
#4170 = CARTESIAN_POINT ( 'NONE',  ( 0.4600000000000001310, 0.7597279144137017992, 1.500000000000000222 ) );
#4186 = EDGE_CURVE ( 'NONE', #9160, #4663, #5656, .T. );
#4194 = CIRCLE ( 'NONE', #7398, 0.4774999999999998690 );
#4211 = ORIENTED_EDGE ( 'NONE', *, *, #4790, .F. );
#4238 = ORIENTED_EDGE ( 'NONE', *, *, #414, .F. );
#4240 = VECTOR ( 'NONE', #9363, 39.37007874015748143 );
#4249 = ORIENTED_EDGE ( 'NONE', *, *, #3578, .F. );
#4259 = DIRECTION ( 'NONE',  ( 0.7071067811865378028, -0.7071067811865571207, 0.000000000000000000 ) );
#4285 = LINE ( 'NONE', #6803, #5495 );
#4303 = VERTEX_POINT ( 'NONE', #663 );
#4310 = EDGE_CURVE ( 'NONE', #9890, #2947, #4506, .T. );
#4331 = CIRCLE ( 'NONE', #4671, 0.02722791441370204027 );
#4337 = VERTEX_POINT ( 'NONE', #3238 );
#4342 = CARTESIAN_POINT ( 'NONE',  ( -0.3749999999999999445, -0.4949999999999999956, 1.500000000000000222 ) );
#4376 = ORIENTED_EDGE ( 'NONE', *, *, #10629, .T. );
#4391 = CARTESIAN_POINT ( 'NONE',  ( 0.5000000000000000000, -0.5050000000000000044, 1.500000000000000222 ) );
#4392 = EDGE_CURVE ( 'NONE', #9979, #3188, #8954, .T. );
#4399 = DIRECTION ( 'NONE',  ( -0.000000000000000000, -0.000000000000000000, -1.000000000000000000 ) );
#4420 = CARTESIAN_POINT ( 'NONE',  ( 0.3749999999999998890, 0.005000000000000134545, 1.500000000000000222 ) );
#4422 = VERTEX_POINT ( 'NONE', #6921 );
#4426 = CARTESIAN_POINT ( 'NONE',  ( -0.5000000000000000000, 0.4950000000000000511, 1.500000000000000222 ) );
#4446 = DIRECTION ( 'NONE',  ( -0.7071067811865487940, -0.7071067811865462405, 0.000000000000000000 ) );
#4447 = CARTESIAN_POINT ( 'NONE',  ( 0.000000000000000000, -0.5000000000000000000, 1.500000000000000222 ) );
#4479 = CARTESIAN_POINT ( 'NONE',  ( -0.3799999999999998934, -0.5000000000000000000, 1.500000000000000222 ) );
#4489 = CARTESIAN_POINT ( 'NONE',  ( 0.3750000000000000555, 0.7253469547164992370, 1.500000000000000222 ) );
#4492 = DIRECTION ( 'NONE',  ( -1.000000000000000000, -1.365923996832131609E-16, 0.000000000000000000 ) );
#4498 = DIRECTION ( 'NONE',  ( 1.000000000000000000, 0.000000000000000000, 0.000000000000000000 ) );
#4506 = CIRCLE ( 'NONE', #3787, 0.02722791441370204027 );
#4507 = ORIENTED_EDGE ( 'NONE', *, *, #6342, .F. );
#4519 = DIRECTION ( 'NONE',  ( 0.000000000000000000, 1.000000000000000000, 0.000000000000000000 ) );
#4523 = VERTEX_POINT ( 'NONE', #1158 );
#4549 = CARTESIAN_POINT ( 'NONE',  ( 0.2457167031797833634, -0.9094258806896046154, 1.500000000000000222 ) );
#4570 = CARTESIAN_POINT ( 'NONE',  ( 0.4600000000000002420, 0.7597279144137017992, 1.500000000000000222 ) );
#4576 = CARTESIAN_POINT ( 'NONE',  ( -0.2597279144137020768, 0.9599999999999998535, 1.500000000000000222 ) );
#4585 = VERTEX_POINT ( 'NONE', #10592 );
#4600 = EDGE_CURVE ( 'NONE', #4303, #9985, #7976, .T. );
#4601 = DIRECTION ( 'NONE',  ( -0.7071067811865378028, 0.7071067811865571207, 0.000000000000000000 ) );
#4602 = CIRCLE ( 'NONE', #1212, 0.02722791441370210966 );
#4616 = ORIENTED_EDGE ( 'NONE', *, *, #1495, .F. );
#4645 = DIRECTION ( 'NONE',  ( 1.000000000000000000, -0.000000000000000000, -0.000000000000000000 ) );
#4663 = VERTEX_POINT ( 'NONE', #10916 );
#4671 = AXIS2_PLACEMENT_3D ( 'NONE', #470, #3883, #9071 );
#4710 = CARTESIAN_POINT ( 'NONE',  ( -0.4094258806896045599, 0.7457167031797831136, 1.500000000000000222 ) );
#4716 = EDGE_CURVE ( 'NONE', #8317, #2078, #704, .T. );
#4724 = DIRECTION ( 'NONE',  ( -0.000000000000000000, -1.000000000000000000, -0.000000000000000000 ) );
#4736 = VERTEX_POINT ( 'NONE', #7349 );
#4760 = DIRECTION ( 'NONE',  ( 0.7071067811865523467, 0.7071067811865426878, 0.000000000000000000 ) );
#4766 = LINE ( 'NONE', #8327, #2860 );
#4768 = CARTESIAN_POINT ( 'NONE',  ( -0.004999999999999910766, -1.000000000000000000, 1.500000000000000222 ) );
#4790 = EDGE_CURVE ( 'NONE', #9603, #1953, #4285, .T. );
#4798 = CARTESIAN_POINT ( 'NONE',  ( -0.2597279144137020768, 0.9327720855862978722, 1.500000000000000222 ) );
#4803 = CARTESIAN_POINT ( 'NONE',  ( 0.5000000000000001110, -1.000000000000000222, 1.500000000000000222 ) );
#4828 = VECTOR ( 'NONE', #9352, 39.37007874015748143 );
#4837 = LINE ( 'NONE', #8230, #504 );
#4859 = AXIS2_PLACEMENT_3D ( 'NONE', #4447, #4399, #8801 );
#4869 = EDGE_CURVE ( 'NONE', #4032, #4585, #2501, .T. );
#4903 = DIRECTION ( 'NONE',  ( 0.7071067811865523467, 0.7071067811865426878, -0.000000000000000000 ) );
#4927 = DIRECTION ( 'NONE',  ( 1.000000000000000000, 0.000000000000000000, 0.000000000000000000 ) );
#4936 = CARTESIAN_POINT ( 'NONE',  ( -0.3749999999999998890, 0.4949999999999998290, 1.500000000000000222 ) );
#4968 = ORIENTED_EDGE ( 'NONE', *, *, #6092, .F. );
#4989 = ORIENTED_EDGE ( 'NONE', *, *, #9551, .F. );
#5005 = DIRECTION ( 'NONE',  ( -0.000000000000000000, -1.000000000000000000, -0.000000000000000000 ) );
#5010 = CARTESIAN_POINT ( 'NONE',  ( -0.1925000000000000044, 0.8928740256112638329, 1.500000000000000222 ) );
#5013 = CARTESIAN_POINT ( 'NONE',  ( -0.4949999999999999956, -0.5000000000000000000, 1.500000000000000222 ) );
#5018 = CARTESIAN_POINT ( 'NONE',  ( 0.4949999999999999956, 0.000000000000000000, 1.500000000000000222 ) );
#5021 = VERTEX_POINT ( 'NONE', #2989 );
#5035 = DIRECTION ( 'NONE',  ( -0.000000000000000000, -1.000000000000000000, -0.000000000000000000 ) );
#5073 = DIRECTION ( 'NONE',  ( 0.000000000000000000, -1.000000000000000000, 0.000000000000000000 ) );
#5084 = VERTEX_POINT ( 'NONE', #10794 );
#5098 = CARTESIAN_POINT ( 'NONE',  ( -0.3749999999999998890, -0.7253469547164995701, 1.500000000000000222 ) );
#5127 = LINE ( 'NONE', #7847, #2208 );
#5201 = EDGE_CURVE ( 'NONE', #5564, #2601, #4602, .T. );
#5207 = VERTEX_POINT ( 'NONE', #8616 );
#5228 = DIRECTION ( 'NONE',  ( 1.000000000000000000, 0.000000000000000000, 0.000000000000000000 ) );
#5284 = VECTOR ( 'NONE', #7153, 39.37007874015748854 );
#5291 = DIRECTION ( 'NONE',  ( -0.000000000000000000, -1.000000000000000000, -0.000000000000000000 ) );
#5295 = EDGE_CURVE ( 'NONE', #4064, #1724, #8721, .T. );
#5342 = CARTESIAN_POINT ( 'NONE',  ( -0.1925000000000000044, -0.9600000000000001865, 1.500000000000000222 ) );
#5348 = CARTESIAN_POINT ( 'NONE',  ( 0.1925000000000000044, -0.8928740256112638329, 1.500000000000000222 ) );
#5368 = VERTEX_POINT ( 'NONE', #2931 );
#5432 = ORIENTED_EDGE ( 'NONE', *, *, #5698, .F. );
#5452 = CARTESIAN_POINT ( 'NONE',  ( 0.1925000000000000044, 0.9599999999999997424, 1.500000000000000222 ) );
#5468 = VERTEX_POINT ( 'NONE', #8322 );
#5495 = VECTOR ( 'NONE', #5073, 39.37007874015748143 );
#5498 = ORIENTED_EDGE ( 'NONE', *, *, #5201, .F. );
#5501 = CARTESIAN_POINT ( 'NONE',  ( 0.2597279144137019657, 0.9327720855862978722, 1.500000000000000222 ) );
#5529 = VECTOR ( 'NONE', #4519, 39.37007874015748143 );
#5557 = ( LENGTH_UNIT ( ) NAMED_UNIT ( * ) SI_UNIT ( $, .METRE. ) );
#5564 = VERTEX_POINT ( 'NONE', #8546 );
#5566 = CARTESIAN_POINT ( 'NONE',  ( 0.4094258806896045044, 0.7457167031797831136, 1.500000000000000222 ) );
#5581 = ORIENTED_EDGE ( 'NONE', *, *, #6685, .F. );
#5585 = DIRECTION ( 'NONE',  ( 0.7071067811865390240, -0.7071067811865560104, 0.000000000000000000 ) );
#5589 = VECTOR ( 'NONE', #6903, 39.37007874015748854 );
#5604 = VECTOR ( 'NONE', #8199, 39.37007874015748143 );
#5608 = DIRECTION ( 'NONE',  ( -0.7071067811865474617, 0.7071067811865474617, -0.000000000000000000 ) );
#5620 = VERTEX_POINT ( 'NONE', #5822 );
#5643 = EDGE_CURVE ( 'NONE', #2509, #7424, #8437, .T. );
#5655 = VERTEX_POINT ( 'NONE', #6212 );
#5656 = LINE ( 'NONE', #500, #3582 );
#5687 = DIRECTION ( 'NONE',  ( 0.000000000000000000, 1.000000000000000000, 0.000000000000000000 ) );
#5695 = VERTEX_POINT ( 'NONE', #1911 );
#5698 = EDGE_CURVE ( 'NONE', #5655, #9886, #1965, .T. );
#5764 = VECTOR ( 'NONE', #2703, 39.37007874015748143 );
#5789 = VERTEX_POINT ( 'NONE', #1597 );
#5793 = ORIENTED_EDGE ( 'NONE', *, *, #4600, .F. );
#5806 = DIRECTION ( 'NONE',  ( 0.000000000000000000, 0.000000000000000000, 1.000000000000000000 ) );
#5807 = EDGE_CURVE ( 'NONE', #2947, #7081, #8878, .T. );
#5818 = EDGE_CURVE ( 'NONE', #10111, #6913, #7512, .T. );
#5822 = CARTESIAN_POINT ( 'NONE',  ( 0.004999999999999910766, 1.000000000000000000, 1.500000000000000222 ) );
#5831 = ORIENTED_EDGE ( 'NONE', *, *, #11003, .F. );
#5848 = CARTESIAN_POINT ( 'NONE',  ( -0.2597279144137020768, -0.9600000000000001865, 1.500000000000000222 ) );
#5876 = VECTOR ( 'NONE', #1191, 39.37007874015748143 );
#5909 = CARTESIAN_POINT ( 'NONE',  ( 0.5000000000000001110, -1.000000000000000222, 1.500000000000000222 ) );
#5927 = AXIS2_PLACEMENT_3D ( 'NONE', #7978, #325, #10594 );
#5931 = CIRCLE ( 'NONE', #1130, 0.02722791441370217558 );
#5937 = AXIS2_PLACEMENT_3D ( 'NONE', #4798, #1494, #10821 );
#5948 = AXIS2_PLACEMENT_3D ( 'NONE', #6021, #1989, #4498 );
#5958 = LINE ( 'NONE', #10254, #938 );
#5974 = VERTEX_POINT ( 'NONE', #10317 );
#5979 = VERTEX_POINT ( 'NONE', #4342 );
#5981 = EDGE_CURVE ( 'NONE', #7795, #5974, #5931, .T. );
#5995 = CARTESIAN_POINT ( 'NONE',  ( -0.5000000000000000000, 0.5050000000000000044, 1.500000000000000222 ) );
#5996 = EDGE_CURVE ( 'NONE', #477, #3798, #2563, .T. );
#6004 = EDGE_CURVE ( 'NONE', #8938, #3004, #5127, .T. );
#6021 = CARTESIAN_POINT ( 'NONE',  ( 0.000000000000000000, 0.5000000000000000000, 1.500000000000000222 ) );
#6022 = EDGE_CURVE ( 'NONE', #6882, #5620, #6959, .T. );
#6036 = CARTESIAN_POINT ( 'NONE',  ( 0.5000000000000000000, 0.004999999999999996635, 1.500000000000000222 ) );
#6059 = DIRECTION ( 'NONE',  ( 0.000000000000000000, 1.000000000000000000, 0.000000000000000000 ) );
#6076 = VECTOR ( 'NONE', #1629, 39.37007874015748143 );
#6091 = ORIENTED_EDGE ( 'NONE', *, *, #7780, .T. );
#6092 = EDGE_CURVE ( 'NONE', #3004, #2078, #417, .T. );
#6107 = CIRCLE ( 'NONE', #944, 0.02722791441370197088 );
#6110 = DIRECTION ( 'NONE',  ( 1.000000000000000000, 0.000000000000000000, 0.000000000000000000 ) );
#6148 = ORIENTED_EDGE ( 'NONE', *, *, #1169, .F. );
#6150 = VECTOR ( 'NONE', #5585, 39.37007874015748143 );
#6162 = ORIENTED_EDGE ( 'NONE', *, *, #340, .T. );
#6172 = LINE ( 'NONE', #9568, #7651 );
#6212 = CARTESIAN_POINT ( 'NONE',  ( 0.3749999999999998890, 0.5050000000000001155, 1.500000000000000222 ) );
#6216 = EDGE_LOOP ( 'NONE', ( #2407, #9942, #7983, #8937, #5498 ) );
#6253 = VECTOR ( 'NONE', #711, 39.37007874015748143 );
#6255 = DIRECTION ( 'NONE',  ( 1.000000000000000000, 0.000000000000000000, 0.000000000000000000 ) );
#6257 = CARTESIAN_POINT ( 'NONE',  ( 0.5000000000000001110, 1.000000000000000000, 1.500000000000000222 ) );
#6263 = AXIS2_PLACEMENT_3D ( 'NONE', #10903, #2373, #9963 );
#6285 = DIRECTION ( 'NONE',  ( -0.000000000000000000, -1.000000000000000000, -0.000000000000000000 ) );
#6320 = CARTESIAN_POINT ( 'NONE',  ( 0.3750000000000001110, -0.7253469547164991260, 1.500000000000000222 ) );
#6342 = EDGE_CURVE ( 'NONE', #8317, #9517, #6734, .T. );
#6356 = CIRCLE ( 'NONE', #1903, 0.02722791441370204027 );
#6392 = EDGE_CURVE ( 'NONE', #5368, #249, #1022, .T. );
#6395 = VECTOR ( 'NONE', #4724, 39.37007874015748143 );
#6397 = CARTESIAN_POINT ( 'NONE',  ( 0.5000000000000000000, -0.004999999999999999237, 1.500000000000000222 ) );
#6436 = CARTESIAN_POINT ( 'NONE',  ( 0.000000000000000000, 0.5000000000000000000, 1.500000000000000222 ) );
#6513 = VECTOR ( 'NONE', #7363, 39.37007874015748143 );
#6515 = ORIENTED_EDGE ( 'NONE', *, *, #8545, .F. );
#6518 = ORIENTED_EDGE ( 'NONE', *, *, #6022, .F. );
#6540 = VERTEX_POINT ( 'NONE', #8051 );
#6558 = DIRECTION ( 'NONE',  ( 0.000000000000000000, 1.000000000000000000, 0.000000000000000000 ) );
#6594 = CARTESIAN_POINT ( 'NONE',  ( 0.1925000000000000044, -0.9600000000000001865, 1.500000000000000222 ) );
#6610 = ORIENTED_EDGE ( 'NONE', *, *, #8164, .F. );
#6631 = EDGE_LOOP ( 'NONE', ( #7493, #3645, #10672, #8718, #10304, #8555 ) );
#6644 = EDGE_CURVE ( 'NONE', #9886, #10662, #238, .T. );
#6648 = LINE ( 'NONE', #554, #10927 );
#6665 = CARTESIAN_POINT ( 'NONE',  ( -0.3749999999999998890, 0.005000000000000000971, 1.500000000000000222 ) );
#6671 = VECTOR ( 'NONE', #2309, 39.37007874015748143 );
#6685 = EDGE_CURVE ( 'NONE', #6913, #5468, #7269, .T. );
#6688 = LINE ( 'NONE', #5848, #8493 );
#6734 = LINE ( 'NONE', #2661, #10920 );
#6740 = DIRECTION ( 'NONE',  ( -0.000000000000000000, -0.000000000000000000, -1.000000000000000000 ) );
#6791 = DIRECTION ( 'NONE',  ( -0.7071067811865523467, -0.7071067811865426878, 0.000000000000000000 ) );
#6803 = CARTESIAN_POINT ( 'NONE',  ( -0.1925000000000000044, 0.9599999999999997424, 1.500000000000000222 ) );
#6811 = VERTEX_POINT ( 'NONE', #6890 );
#6813 = CARTESIAN_POINT ( 'NONE',  ( -0.004999999999999910766, -1.000000000000000000, 1.500000000000000222 ) );
#6849 = ORIENTED_EDGE ( 'NONE', *, *, #398, .F. );
#6851 = DIRECTION ( 'NONE',  ( -0.7071067811865523467, -0.7071067811865426878, 0.000000000000000000 ) );
#6875 = LINE ( 'NONE', #3411, #7125 );
#6882 = VERTEX_POINT ( 'NONE', #2020 );
#6890 = CARTESIAN_POINT ( 'NONE',  ( -0.2457167031797836410, -0.9094258806896043934, 1.500000000000000222 ) );
#6903 = DIRECTION ( 'NONE',  ( -0.7071067811865474617, 0.7071067811865474617, 0.000000000000000000 ) );
#6913 = VERTEX_POINT ( 'NONE', #335 );
#6921 = CARTESIAN_POINT ( 'NONE',  ( -0.1925000000000000044, -0.9600000000000001865, 1.500000000000000222 ) );
#6922 = DIRECTION ( 'NONE',  ( 0.7071067811865378028, -0.7071067811865571207, 0.000000000000000000 ) );
#6938 = CARTESIAN_POINT ( 'NONE',  ( 0.2597279144137020768, -0.9600000000000001865, 1.500000000000000222 ) );
#6955 = CARTESIAN_POINT ( 'NONE',  ( -0.4949999999999999956, 0.5000000000000000000, 1.500000000000000222 ) );
#6959 = LINE ( 'NONE', #1089, #2196 );
#7073 = FACE_BOUND ( 'NONE', #6631, .T. );
#7081 = VERTEX_POINT ( 'NONE', #2240 );
#7089 = CARTESIAN_POINT ( 'NONE',  ( -0.2597279144137020768, -0.9327720855862980942, 1.500000000000000222 ) );
#7096 = EDGE_CURVE ( 'NONE', #5368, #4032, #9995, .T. );
#7122 = FACE_OUTER_BOUND ( 'NONE', #2281, .T. );
#7125 = VECTOR ( 'NONE', #6922, 39.37007874015748854 );
#7130 = CARTESIAN_POINT ( 'NONE',  ( 0.4949999999999999956, -0.5000000000000000000, 1.500000000000000222 ) );
#7143 = LINE ( 'NONE', #4570, #5529 );
#7147 = VERTEX_POINT ( 'NONE', #2520 );
#7153 = DIRECTION ( 'NONE',  ( -0.7071067811865474617, 0.7071067811865474617, -0.000000000000000000 ) );
#7154 = VERTEX_POINT ( 'NONE', #946 );
#7171 = ( NAMED_UNIT ( * ) SI_UNIT ( $, .STERADIAN. ) SOLID_ANGLE_UNIT ( ) );
#7173 = CARTESIAN_POINT ( 'NONE',  ( 0.000000000000000000, 0.000000000000000000, 1.500000000000000222 ) );
#7212 = VECTOR ( 'NONE', #4601, 39.37007874015748854 );
#7222 = ( NAMED_UNIT ( * ) PLANE_ANGLE_UNIT ( ) SI_UNIT ( $, .RADIAN. ) );
#7239 = EDGE_LOOP ( 'NONE', ( #10280, #10692, #6849, #2162, #7399 ) );
#7269 = LINE ( 'NONE', #3090, #1482 );
#7274 = DIRECTION ( 'NONE',  ( -4.707829777013404992E-17, 1.000000000000000000, 0.000000000000000000 ) );
#7325 = DIRECTION ( 'NONE',  ( 1.000000000000000000, 0.000000000000000000, 0.000000000000000000 ) );
#7349 = CARTESIAN_POINT ( 'NONE',  ( -0.4599999999999999645, 0.9599999999999997424, 1.500000000000000222 ) );
#7363 = DIRECTION ( 'NONE',  ( 0.000000000000000000, 1.000000000000000000, 0.000000000000000000 ) );
#7395 = VERTEX_POINT ( 'NONE', #6257 );
#7398 = AXIS2_PLACEMENT_3D ( 'NONE', #1725, #8418, #7468 );
#7399 = ORIENTED_EDGE ( 'NONE', *, *, #3911, .F. );
#7400 = LINE ( 'NONE', #1309, #6395 );
#7410 = DIRECTION ( 'NONE',  ( 1.000000000000000000, -0.000000000000000000, -0.000000000000000000 ) );
#7424 = VERTEX_POINT ( 'NONE', #3174 );
#7430 = LINE ( 'NONE', #1344, #10626 );
#7431 = DIRECTION ( 'NONE',  ( 0.000000000000000000, 0.000000000000000000, 1.000000000000000000 ) );
#7449 = DIRECTION ( 'NONE',  ( 1.000000000000000000, 0.000000000000000000, 0.000000000000000000 ) );
#7468 = DIRECTION ( 'NONE',  ( 1.000000000000000000, 0.000000000000000000, 0.000000000000000000 ) );
#7469 = VECTOR ( 'NONE', #4645, 39.37007874015748143 );
#7481 = EDGE_CURVE ( 'NONE', #2109, #4145, #8134, .T. );
#7493 = ORIENTED_EDGE ( 'NONE', *, *, #1959, .F. );
#7497 = EDGE_CURVE ( 'NONE', #8869, #9603, #2170, .T. );
#7512 = LINE ( 'NONE', #5013, #9306 );
#7531 = VERTEX_POINT ( 'NONE', #1488 );
#7564 = CARTESIAN_POINT ( 'NONE',  ( -0.5000000000000000000, -1.000000000000000222, 1.500000000000000222 ) );
#7577 = CARTESIAN_POINT ( 'NONE',  ( 0.5000000000000001110, 1.000000000000000000, 1.500000000000000222 ) );
#7610 = CARTESIAN_POINT ( 'NONE',  ( -0.3749999999999998890, -0.5050000000000001155, 1.500000000000000222 ) );
#7620 = VECTOR ( 'NONE', #5687, 39.37007874015748143 );
#7651 = VECTOR ( 'NONE', #8507, 39.37007874015748143 );
#7709 = VERTEX_POINT ( 'NONE', #4710 );
#7732 = CARTESIAN_POINT ( 'NONE',  ( 0.000000000000000000, 0.5000000000000000000, 1.500000000000000222 ) );
#7734 = LINE ( 'NONE', #4391, #3084 );
#7740 = DIRECTION ( 'NONE',  ( 1.000000000000000000, 0.000000000000000000, 0.000000000000000000 ) );
#7748 = EDGE_CURVE ( 'NONE', #2429, #9282, #3871, .T. );
#7759 = LINE ( 'NONE', #5098, #759 );
#7780 = EDGE_CURVE ( 'NONE', #1579, #9007, #8728, .T. );
#7789 = EDGE_CURVE ( 'NONE', #1321, #4736, #4766, .T. );
#7795 = VERTEX_POINT ( 'NONE', #3258 );
#7819 = CARTESIAN_POINT ( 'NONE',  ( -0.3799999999999998934, 0.5000000000000000000, 1.500000000000000222 ) );
#7823 = VERTEX_POINT ( 'NONE', #6665 );
#7847 = CARTESIAN_POINT ( 'NONE',  ( 0.4949999999999999956, 0.000000000000000000, 1.500000000000000222 ) );
#7853 = CARTESIAN_POINT ( 'NONE',  ( -0.2325000000000001232, 0.9327720855862978722, 1.500000000000000222 ) );
#7861 = CARTESIAN_POINT ( 'NONE',  ( -0.5000000000000000000, 0.9999999999999998890, 1.500000000000000222 ) );
#7902 = CARTESIAN_POINT ( 'NONE',  ( -0.5000000000000000000, -0.004999999999999996635, 1.500000000000000222 ) );
#7949 = LINE ( 'NONE', #3183, #7469 );
#7965 = DIRECTION ( 'NONE',  ( -0.7071067811865484609, -0.7071067811865464625, 0.000000000000000000 ) );
#7971 = CARTESIAN_POINT ( 'NONE',  ( -0.3749999999999998890, -0.7253469547164995701, 1.500000000000000222 ) );
#7976 = LINE ( 'NONE', #323, #2728 );
#7978 = CARTESIAN_POINT ( 'NONE',  ( 0.000000000000000000, -0.5000000000000000000, 1.500000000000000222 ) );
#7983 = ORIENTED_EDGE ( 'NONE', *, *, #4310, .F. );
#7996 = CARTESIAN_POINT ( 'NONE',  ( -0.4599999999999999645, -0.9600000000000001865, 1.500000000000000222 ) );
#8004 = CARTESIAN_POINT ( 'NONE',  ( -0.4949999999999999956, 0.5000000000000000000, 1.500000000000000222 ) );
#8008 = FACE_BOUND ( 'NONE', #7239, .T. );
#8013 = CARTESIAN_POINT ( 'NONE',  ( 0.5000000000000001110, -1.000000000000000222, 1.500000000000000222 ) );
#8031 = ORIENTED_EDGE ( 'NONE', *, *, #10795, .T. );
#8036 = ORIENTED_EDGE ( 'NONE', *, *, #4869, .T. );
#8051 = CARTESIAN_POINT ( 'NONE',  ( 0.3799999999999998934, -0.5000000000000000000, 1.500000000000000222 ) );
#8079 = CARTESIAN_POINT ( 'NONE',  ( 0.3749999999999998890, -0.005000000000000000971, 1.500000000000000222 ) );
#8090 = LINE ( 'NONE', #10654, #3671 );
#8095 = CARTESIAN_POINT ( 'NONE',  ( -0.4949999999999999956, 0.000000000000000000, 1.500000000000000222 ) );
#8104 = ORIENTED_EDGE ( 'NONE', *, *, #6644, .F. );
#8111 = DIRECTION ( 'NONE',  ( 1.000000000000000000, 0.000000000000000000, -0.000000000000000000 ) );
#8134 = LINE ( 'NONE', #485, #6150 );
#8141 = DIRECTION ( 'NONE',  ( -0.000000000000000000, -1.000000000000000000, -0.000000000000000000 ) );
#8164 = EDGE_CURVE ( 'NONE', #1579, #6882, #8574, .T. );
#8173 = VERTEX_POINT ( 'NONE', #5348 );
#8175 = DIRECTION ( 'NONE',  ( 0.000000000000000000, 0.000000000000000000, 1.000000000000000000 ) );
#8199 = DIRECTION ( 'NONE',  ( 1.000000000000000000, -0.000000000000000000, -0.000000000000000000 ) );
#8204 = CIRCLE ( 'NONE', #6263, 0.4375000000000000000 );
#8227 = LINE ( 'NONE', #363, #387 );
#8230 = CARTESIAN_POINT ( 'NONE',  ( -0.3749999999999999445, -0.4949999999999999956, 1.500000000000000222 ) );
#8279 = LINE ( 'NONE', #2543, #9101 );
#8299 = ORIENTED_EDGE ( 'NONE', *, *, #9709, .F. );
#8317 = VERTEX_POINT ( 'NONE', #9907 );
#8321 = LINE ( 'NONE', #674, #1812 );
#8322 = CARTESIAN_POINT ( 'NONE',  ( -0.5000000000000000000, -0.4949999999999999956, 1.500000000000000222 ) );
#8327 = CARTESIAN_POINT ( 'NONE',  ( -0.2597279144137020768, 0.9599999999999997424, 1.500000000000000222 ) );
#8330 = CARTESIAN_POINT ( 'NONE',  ( 0.5000000000000000000, 0.4949999999999999956, 1.500000000000000222 ) );
#8343 = CARTESIAN_POINT ( 'NONE',  ( -0.2597279144137020768, 0.9327720855862978722, 1.500000000000000222 ) );
#8395 = DIRECTION ( 'NONE',  ( -4.707829777013404992E-17, 1.000000000000000000, 0.000000000000000000 ) );
#8418 = DIRECTION ( 'NONE',  ( -0.000000000000000000, -0.000000000000000000, -1.000000000000000000 ) );
#8422 = EDGE_CURVE ( 'NONE', #8938, #3798, #2151, .T. );
#8437 = LINE ( 'NONE', #5995, #5284 );
#8448 = ORIENTED_EDGE ( 'NONE', *, *, #4186, .F. );
#8493 = VECTOR ( 'NONE', #9242, 39.37007874015748143 );
#8507 = DIRECTION ( 'NONE',  ( -0.000000000000000000, -1.000000000000000000, -0.000000000000000000 ) );
#8518 = ORIENTED_EDGE ( 'NONE', *, *, #7748, .F. );
#8526 = EDGE_CURVE ( 'NONE', #4138, #8173, #8279, .T. );
#8539 = ORIENTED_EDGE ( 'NONE', *, *, #506, .F. );
#8545 = EDGE_CURVE ( 'NONE', #26, #5207, #8204, .T. );
#8546 = CARTESIAN_POINT ( 'NONE',  ( 0.4600000000000002420, -0.7597279144137017992, 1.500000000000000222 ) );
#8555 = ORIENTED_EDGE ( 'NONE', *, *, #9106, .F. );
#8566 = EDGE_CURVE ( 'NONE', #425, #10330, #812, .T. );
#8574 = LINE ( 'NONE', #3558, #9093 );
#8584 = ORIENTED_EDGE ( 'NONE', *, *, #10974, .F. );
#8616 = CARTESIAN_POINT ( 'NONE',  ( -0.1924999999999998657, -0.8928740256112639440, 1.500000000000000222 ) );
#8619 = CIRCLE ( 'NONE', #599, 0.02722791441370197088 );
#8659 = CARTESIAN_POINT ( 'NONE',  ( 0.3749999999999998890, -0.4949999999999998290, 1.500000000000000222 ) );
#8687 = EDGE_CURVE ( 'NONE', #1592, #4303, #6172, .T. );
#8688 = CARTESIAN_POINT ( 'NONE',  ( 0.5000000000000000000, 0.4949999999999999956, 1.500000000000000222 ) );
#8718 = ORIENTED_EDGE ( 'NONE', *, *, #344, .F. );
#8721 = LINE ( 'NONE', #1132, #9952 );
#8728 = LINE ( 'NONE', #1079, #1410 );
#8789 = EDGE_CURVE ( 'NONE', #4422, #4138, #7949, .T. );
#8801 = DIRECTION ( 'NONE',  ( 1.000000000000000000, 0.000000000000000000, 0.000000000000000000 ) );
#8852 = LINE ( 'NONE', #2044, #7212 );
#8854 = DIRECTION ( 'NONE',  ( 0.000000000000000000, 1.000000000000000000, 0.000000000000000000 ) );
#8869 = VERTEX_POINT ( 'NONE', #1555 );
#8878 = LINE ( 'NONE', #706, #3068 );
#8907 = EDGE_CURVE ( 'NONE', #4093, #700, #6875, .T. );
#8925 = DIRECTION ( 'NONE',  ( -1.000000000000000000, 0.000000000000000000, 0.000000000000000000 ) );
#8937 = ORIENTED_EDGE ( 'NONE', *, *, #9478, .F. );
#8938 = VERTEX_POINT ( 'NONE', #6036 );
#8954 = CIRCLE ( 'NONE', #5937, 0.02722791441370197088 );
#8978 = VECTOR ( 'NONE', #3697, 39.37007874015748143 );
#8981 = ORIENTED_EDGE ( 'NONE', *, *, #8687, .F. );
#8995 = EDGE_CURVE ( 'NONE', #269, #5084, #7143, .T. );
#9007 = VERTEX_POINT ( 'NONE', #7861 );
#9037 = CARTESIAN_POINT ( 'NONE',  ( 0.1925000000000000044, 0.9599999999999997424, 1.500000000000000222 ) );
#9044 = ORIENTED_EDGE ( 'NONE', *, *, #4392, .F. );
#9060 = CARTESIAN_POINT ( 'NONE',  ( 0.4094258806896045599, -0.7457167031797833356, 1.500000000000000222 ) );
#9063 = VECTOR ( 'NONE', #10679, 39.37007874015748143 );
#9071 = DIRECTION ( 'NONE',  ( 1.000000000000000000, 0.000000000000000000, 0.000000000000000000 ) );
#9093 = VECTOR ( 'NONE', #310, 39.37007874015748854 );
#9101 = VECTOR ( 'NONE', #6558, 39.37007874015748143 );
#9106 = EDGE_CURVE ( 'NONE', #7531, #7154, #2002, .T. );
#9121 = EDGE_CURVE ( 'NONE', #8173, #5789, #3957, .T. );
#9122 = CARTESIAN_POINT ( 'NONE',  ( -0.4949999999999999956, 0.000000000000000000, 1.500000000000000222 ) );
#9160 = VERTEX_POINT ( 'NONE', #8079 );
#9200 = DIRECTION ( 'NONE',  ( -0.7071067811865447972, -0.7071067811865500152, 0.000000000000000000 ) );
#9216 = VERTEX_POINT ( 'NONE', #9811 );
#9229 = CIRCLE ( 'NONE', #1757, 0.4375000000000000000 );
#9241 = VECTOR ( 'NONE', #10194, 39.37007874015748143 );
#9242 = DIRECTION ( 'NONE',  ( 1.000000000000000000, -0.000000000000000000, -0.000000000000000000 ) );
#9282 = VERTEX_POINT ( 'NONE', #3343 );
#9295 = CIRCLE ( 'NONE', #3426, 0.02722791441370217558 );
#9306 = VECTOR ( 'NONE', #4903, 39.37007874015748143 );
#9352 = DIRECTION ( 'NONE',  ( 0.7071067811865487940, 0.7071067811865462405, -0.000000000000000000 ) );
#9363 = DIRECTION ( 'NONE',  ( 0.000000000000000000, 1.000000000000000000, 0.000000000000000000 ) );
#9431 = EDGE_CURVE ( 'NONE', #7823, #2109, #10429, .T. );
#9449 = ORIENTED_EDGE ( 'NONE', *, *, #3445, .F. );
#9462 = CARTESIAN_POINT ( 'NONE',  ( 0.000000000000000000, -0.9949999999999999956, 1.500000000000000222 ) );
#9468 = CARTESIAN_POINT ( 'NONE',  ( 0.4949999999999999956, 0.5000000000000000000, 1.500000000000000222 ) );
#9472 = CARTESIAN_POINT ( 'NONE',  ( -0.4327720855862977611, -0.7597279144137027984, 1.500000000000000222 ) );
#9478 = EDGE_CURVE ( 'NONE', #2601, #9890, #9490, .T. );
#9490 = CIRCLE ( 'NONE', #4859, 0.4775000000000000355 );
#9517 = VERTEX_POINT ( 'NONE', #7130 );
#9541 = VECTOR ( 'NONE', #8141, 39.37007874015748143 );
#9551 = EDGE_CURVE ( 'NONE', #4663, #2429, #8227, .T. );
#9566 = DIRECTION ( 'NONE',  ( -0.000000000000000000, -1.000000000000000000, -0.000000000000000000 ) );
#9568 = CARTESIAN_POINT ( 'NONE',  ( -0.3749999999999998890, -0.7253469547164995701, 1.500000000000000222 ) );
#9586 = VERTEX_POINT ( 'NONE', #5566 );
#9603 = VERTEX_POINT ( 'NONE', #1254 );
#9614 = CARTESIAN_POINT ( 'NONE',  ( -0.3749999999999998890, -0.7253469547164995701, 1.500000000000000222 ) );
#9653 = EDGE_CURVE ( 'NONE', #7154, #6811, #4331, .T. );
#9695 = DIRECTION ( 'NONE',  ( 0.7071067811865486830, -0.7071067811865463515, 0.000000000000000000 ) );
#9709 = EDGE_CURVE ( 'NONE', #3423, #477, #5958, .T. );
#9755 = ORIENTED_EDGE ( 'NONE', *, *, #8526, .F. );
#9797 = ORIENTED_EDGE ( 'NONE', *, *, #10252, .F. );
#9811 = CARTESIAN_POINT ( 'NONE',  ( -0.5000000000000000000, -1.000000000000000222, 1.500000000000000222 ) );
#9886 = VERTEX_POINT ( 'NONE', #4489 );
#9890 = VERTEX_POINT ( 'NONE', #4549 );
#9900 = DIRECTION ( 'NONE',  ( -1.000000000000000000, 0.000000000000000000, 0.000000000000000000 ) );
#9907 = CARTESIAN_POINT ( 'NONE',  ( 0.5000000000000000000, -0.4950000000000000511, 1.500000000000000222 ) );
#9910 = EDGE_CURVE ( 'NONE', #7147, #4523, #6107, .T. );
#9942 = ORIENTED_EDGE ( 'NONE', *, *, #5807, .F. );
#9952 = VECTOR ( 'NONE', #9566, 39.37007874015748143 );
#9953 = LINE ( 'NONE', #3033, #6671 );
#9963 = DIRECTION ( 'NONE',  ( 1.000000000000000000, 0.000000000000000000, 0.000000000000000000 ) );
#9979 = VERTEX_POINT ( 'NONE', #1350 );
#9985 = VERTEX_POINT ( 'NONE', #2200 );
#9995 = LINE ( 'NONE', #4803, #5604 );
#10066 = DIRECTION ( 'NONE',  ( 0.000000000000000000, 0.000000000000000000, 1.000000000000000000 ) );
#10084 = LINE ( 'NONE', #924, #9241 );
#10111 = VERTEX_POINT ( 'NONE', #2473 );
#10113 = ORIENTED_EDGE ( 'NONE', *, *, #5996, .F. );
#10136 = AXIS2_PLACEMENT_3D ( 'NONE', #7173, #10572, #8111 );
#10158 = EDGE_CURVE ( 'NONE', #5789, #5021, #3590, .T. );
#10168 = ORIENTED_EDGE ( 'NONE', *, *, #8422, .T. );
#10190 = ORIENTED_EDGE ( 'NONE', *, *, #1521, .F. );
#10194 = DIRECTION ( 'NONE',  ( 1.000000000000000000, -0.000000000000000000, -0.000000000000000000 ) );
#10210 = ORIENTED_EDGE ( 'NONE', *, *, #10510, .F. );
#10224 = VERTEX_POINT ( 'NONE', #8659 );
#10247 = DIRECTION ( 'NONE',  ( 0.000000000000000000, 0.000000000000000000, 1.000000000000000000 ) );
#10252 = EDGE_CURVE ( 'NONE', #9985, #3807, #2813, .T. );
#10254 = CARTESIAN_POINT ( 'NONE',  ( 0.4949999999999999956, 0.5000000000000000000, 1.500000000000000222 ) );
#10257 = DIRECTION ( 'NONE',  ( 0.000000000000000000, 0.000000000000000000, 1.000000000000000000 ) );
#10280 = ORIENTED_EDGE ( 'NONE', *, *, #8995, .F. );
#10282 = ORIENTED_EDGE ( 'NONE', *, *, #6392, .F. );
#10292 = ORIENTED_EDGE ( 'NONE', *, *, #7497, .F. );
#10294 = ORIENTED_EDGE ( 'NONE', *, *, #2689, .F. );
#10299 = CARTESIAN_POINT ( 'NONE',  ( 0.5000000000000001110, -1.000000000000000222, 1.500000000000000222 ) );
#10304 = ORIENTED_EDGE ( 'NONE', *, *, #9653, .F. );
#10317 = CARTESIAN_POINT ( 'NONE',  ( -0.4599999999999999645, -0.7597279144137027984, 1.500000000000000222 ) );
#10330 = VERTEX_POINT ( 'NONE', #8095 );
#10425 = LINE ( 'NONE', #6955, #1653 );
#10429 = LINE ( 'NONE', #10534, #2903 );
#10510 = EDGE_CURVE ( 'NONE', #4736, #5695, #6648, .T. );
#10525 = FACE_BOUND ( 'NONE', #6216, .T. );
#10534 = CARTESIAN_POINT ( 'NONE',  ( -0.3749999999999998890, 0.005000000000000000971, 1.500000000000000222 ) );
#10542 = CARTESIAN_POINT ( 'NONE',  ( -0.3749999999999998890, 0.7253469547164995701, 1.500000000000000222 ) );
#10559 = ORIENTED_EDGE ( 'NONE', *, *, #1882, .F. );
#10564 = CARTESIAN_POINT ( 'NONE',  ( -0.3799999999999998934, 0.000000000000000000, 1.500000000000000222 ) );
#10572 = DIRECTION ( 'NONE',  ( 0.000000000000000000, -0.000000000000000000, 1.000000000000000000 ) );
#10592 = CARTESIAN_POINT ( 'NONE',  ( 0.5000000000000000000, -0.5050000000000000044, 1.500000000000000222 ) );
#10594 = DIRECTION ( 'NONE',  ( 1.000000000000000000, 0.000000000000000000, 0.000000000000000000 ) );
#10609 = LINE ( 'NONE', #9614, #10873 );
#10618 = DIRECTION ( 'NONE',  ( 0.000000000000000000, 0.000000000000000000, 1.000000000000000000 ) );
#10626 = VECTOR ( 'NONE', #3249, 39.37007874015748854 );
#10629 = EDGE_CURVE ( 'NONE', #425, #5468, #7400, .T. );
#10638 = CIRCLE ( 'NONE', #1544, 0.4775000000000000355 );
#10654 = CARTESIAN_POINT ( 'NONE',  ( -0.5000000000000000000, 0.004999999999999999237, 1.500000000000000222 ) );
#10662 = VERTEX_POINT ( 'NONE', #472 );
#10672 = ORIENTED_EDGE ( 'NONE', *, *, #5981, .F. );
#10679 = DIRECTION ( 'NONE',  ( -0.000000000000000000, -1.000000000000000000, -0.000000000000000000 ) );
#10692 = ORIENTED_EDGE ( 'NONE', *, *, #2248, .F. );
#10696 = ORIENTED_EDGE ( 'NONE', *, *, #9121, .F. );
#10740 = EDGE_CURVE ( 'NONE', #5979, #4093, #4837, .T. );
#10794 = CARTESIAN_POINT ( 'NONE',  ( 0.4600000000000002420, 0.9599999999999997424, 1.500000000000000222 ) );
#10795 = EDGE_CURVE ( 'NONE', #9216, #3788, #10084, .T. );
#10804 = LINE ( 'NONE', #3941, #2386 );
#10821 = DIRECTION ( 'NONE',  ( 1.000000000000000000, 0.000000000000000000, 0.000000000000000000 ) );
#10873 = VECTOR ( 'NONE', #2085, 39.37007874015748143 );
#10876 = DIRECTION ( 'NONE',  ( 1.000000000000000000, 0.000000000000000000, 0.000000000000000000 ) );
#10903 = CARTESIAN_POINT ( 'NONE',  ( 0.000000000000000000, -0.5000000000000000000, 1.500000000000000222 ) );
#10916 = CARTESIAN_POINT ( 'NONE',  ( 0.3799999999999998934, 0.000000000000000000, 1.500000000000000222 ) );
#10920 = VECTOR ( 'NONE', #6791, 39.37007874015748143 );
#10927 = VECTOR ( 'NONE', #723, 39.37007874015748143 );
#10959 = CARTESIAN_POINT ( 'NONE',  ( 0.4600000000000002420, 0.9599999999999997424, 1.500000000000000222 ) );
#10974 = EDGE_CURVE ( 'NONE', #5207, #4422, #1930, .T. );
#11003 = EDGE_CURVE ( 'NONE', #10662, #8869, #2041, .T. );
#11041 = ADVANCED_BREP_SHAPE_REPRESENTATION('', (#3745), #1955);
ENDSEC;
END-ISO-10303-21;
