ISO-10303-21;
HEADER;
FILE_DESCRIPTION (( 'STEP AP203' ),
    '1' );
FILE_NAME ('REV-21-2162.STEP',
    '2022-04-27T20:14:15',
    ( '' ),
    ( '' ),
    'SwSTEP 2.0',
    'SolidWorks 2022',
    '' );
FILE_SCHEMA (( 'CONFIG_CONTROL_DESIGN' ));
ENDSEC;

DATA;
#28 = EDGE_CURVE ( 'NONE', #29568, #25510, #6202, .T. );
#182 = VECTOR ( 'NONE', #18382, 39.37007874015748143 );
#185 = AXIS2_PLACEMENT_3D ( 'NONE', #14102, #4199, #6396 );
#228 = VERTEX_POINT ( 'NONE', #16413 );
#261 = AXIS2_PLACEMENT_3D ( 'NONE', #12184, #28662, #16603 );
#271 = LINE ( 'NONE', #9851, #30458 );
#337 = DIRECTION ( 'NONE',  ( 0.7071067811865412445, 0.7071067811865536790, -0.000000000000000000 ) );
#363 = ORIENTED_EDGE ( 'NONE', *, *, #4231, .F. );
#399 = VERTEX_POINT ( 'NONE', #9950 );
#408 = AXIS2_PLACEMENT_3D ( 'NONE', #13571, #6169, #16237 );
#409 = EDGE_CURVE ( 'NONE', #2001, #2686, #30253, .T. );
#447 = ORIENTED_EDGE ( 'NONE', *, *, #27933, .T. );
#501 = VERTEX_POINT ( 'NONE', #27983 );
#513 = LINE ( 'NONE', #9782, #1152 );
#786 = EDGE_CURVE ( 'NONE', #10920, #7699, #22088, .T. );
#824 = VERTEX_POINT ( 'NONE', #22005 );
#832 = LINE ( 'NONE', #1291, #30783 );
#885 = DIRECTION ( 'NONE',  ( 0.000000000000000000, 1.000000000000000000, 0.000000000000000000 ) );
#970 = VERTEX_POINT ( 'NONE', #10857 );
#978 = ORIENTED_EDGE ( 'NONE', *, *, #23434, .T. );
#1027 = EDGE_CURVE ( 'NONE', #501, #6261, #21041, .T. );
#1152 = VECTOR ( 'NONE', #2560, 39.37007874015748143 );
#1167 = VECTOR ( 'NONE', #337, 39.37007874015748854 );
#1190 = VECTOR ( 'NONE', #24992, 39.37007874015748143 );
#1244 = ORIENTED_EDGE ( 'NONE', *, *, #5279, .T. );
#1291 = CARTESIAN_POINT ( 'NONE',  ( -0.3799999999999999489, -0.5000000000000001110, 0.5000000000000000000 ) );
#1316 = VECTOR ( 'NONE', #4333, 39.37007874015748143 );
#1335 = ORIENTED_EDGE ( 'NONE', *, *, #18265, .F. );
#1363 = VECTOR ( 'NONE', #13306, 39.37007874015748143 );
#1436 = VERTEX_POINT ( 'NONE', #11440 );
#1574 = CARTESIAN_POINT ( 'NONE',  ( 0.5000000000000000000, -0.4950000000000001621, 0.5000000000000000000 ) );
#1641 = DIRECTION ( 'NONE',  ( -9.415659554026809984E-17, 1.000000000000000000, -0.000000000000000000 ) );
#1649 = DIRECTION ( 'NONE',  ( -0.7071067811865435759, 0.7071067811865514585, 0.000000000000000000 ) );
#1710 = LINE ( 'NONE', #11291, #8323 );
#1737 = CARTESIAN_POINT ( 'NONE',  ( 0.4949999999999999956, -5.141172097148480396E-17, 0.5000000000000000000 ) );
#1744 = DIRECTION ( 'NONE',  ( -0.7071067811865523467, 0.7071067811865426878, 0.000000000000000000 ) );
#1822 = DIRECTION ( 'NONE',  ( 0.000000000000000000, 0.000000000000000000, 1.000000000000000000 ) );
#1849 = CARTESIAN_POINT ( 'NONE',  ( -0.4950000000000000511, 0.5000000000000001110, 0.5000000000000000000 ) );
#1875 = VECTOR ( 'NONE', #26672, 39.37007874015748143 );
#1881 = CARTESIAN_POINT ( 'NONE',  ( -0.5000000000000000000, 0.4950000000000003286, 0.5000000000000000000 ) );
#1908 = CARTESIAN_POINT ( 'NONE',  ( 0.4094258806896043934, 0.7457167031797833356, 0.5000000000000000000 ) );
#1936 = VERTEX_POINT ( 'NONE', #19968 );
#2001 = VERTEX_POINT ( 'NONE', #11170 );
#2104 = VERTEX_POINT ( 'NONE', #14207 );
#2144 = CIRCLE ( 'NONE', #21190, 0.4374999999999998890 );
#2170 = CARTESIAN_POINT ( 'NONE',  ( 0.5000000000000000000, 0.4949999999999998845, 0.5000000000000000000 ) );
#2185 = CARTESIAN_POINT ( 'NONE',  ( -0.3749999999999998890, 0.5050000000000001155, 0.5000000000000000000 ) );
#2189 = VERTEX_POINT ( 'NONE', #7752 );
#2229 = LINE ( 'NONE', #14007, #10901 );
#2258 = CARTESIAN_POINT ( 'NONE',  ( 0.1925000000000000322, 0.8959797974644665430, 0.5000000000000000000 ) );
#2300 = CARTESIAN_POINT ( 'NONE',  ( -0.1925000000000000044, -0.8959797974644667651, 0.5000000000000000000 ) );
#2434 = CIRCLE ( 'NONE', #14481, 0.005000000000000014849 );
#2560 = DIRECTION ( 'NONE',  ( -1.000000000000000000, 0.000000000000000000, 0.000000000000000000 ) );
#2564 = VERTEX_POINT ( 'NONE', #19500 );
#2686 = VERTEX_POINT ( 'NONE', #8330 );
#2703 = ORIENTED_EDGE ( 'NONE', *, *, #6532, .F. );
#2705 = EDGE_CURVE ( 'NONE', #9732, #5267, #23088, .T. );
#2737 = CARTESIAN_POINT ( 'NONE',  ( 0.4600000000000001310, -0.9327720855862980942, 0.5000000000000000000 ) );
#2789 = ORIENTED_EDGE ( 'NONE', *, *, #5431, .F. );
#2885 = DIRECTION ( 'NONE',  ( 1.000000000000000000, 0.000000000000000000, 0.000000000000000000 ) );
#2905 = DIRECTION ( 'NONE',  ( -9.415659554026809984E-17, 1.000000000000000000, -0.000000000000000000 ) );
#2927 = LINE ( 'NONE', #12986, #3728 );
#3071 = VECTOR ( 'NONE', #26409, 39.37007874015748143 );
#3104 = VECTOR ( 'NONE', #20883, 39.37007874015748854 );
#3187 = EDGE_CURVE ( 'NONE', #6990, #2189, #30848, .T. );
#3202 = EDGE_CURVE ( 'NONE', #19082, #29591, #9796, .T. );
#3260 = DIRECTION ( 'NONE',  ( -0.000000000000000000, -0.000000000000000000, -1.000000000000000000 ) );
#3394 = VECTOR ( 'NONE', #24236, 39.37007874015748854 );
#3420 = VERTEX_POINT ( 'NONE', #24573 );
#3437 = CARTESIAN_POINT ( 'NONE',  ( -0.3749999999999999445, -0.5050000000000001155, 0.5000000000000000000 ) );
#3444 = VERTEX_POINT ( 'NONE', #27367 );
#3448 = LINE ( 'NONE', #10695, #26588 );
#3467 = DIRECTION ( 'NONE',  ( 1.000000000000000000, 0.000000000000000000, 0.000000000000000000 ) );
#3473 = CARTESIAN_POINT ( 'NONE',  ( -0.3749999999999999445, 0.7253469547164992370, 0.5000000000000000000 ) );
#3500 = DIRECTION ( 'NONE',  ( 1.000000000000000000, 0.000000000000000000, 0.000000000000000000 ) );
#3552 = CARTESIAN_POINT ( 'NONE',  ( 0.3700000000000001066, -0.7239559108396113052, 0.4999999999999973910 ) );
#3579 = CARTESIAN_POINT ( 'NONE',  ( -0.1925000000000000044, 0.9549999999999999600, 0.5000000000000000000 ) );
#3687 = EDGE_CURVE ( 'NONE', #10458, #8852, #7405, .T. );
#3697 = DIRECTION ( 'NONE',  ( 0.7071067811865435759, -0.7071067811865514585, -0.000000000000000000 ) );
#3728 = VECTOR ( 'NONE', #885, 39.37007874015748143 );
#3750 = DIRECTION ( 'NONE',  ( 1.000000000000000000, 0.000000000000000000, -0.000000000000000000 ) );
#3818 = DIRECTION ( 'NONE',  ( -0.000000000000000000, 0.000000000000000000, -1.000000000000000000 ) );
#3880 = EDGE_CURVE ( 'NONE', #19840, #6990, #16197, .T. );
#3888 = EDGE_CURVE ( 'NONE', #13861, #30421, #14960, .T. );
#3908 = CARTESIAN_POINT ( 'NONE',  ( -0.2457167031797832246, 0.9094258806896043934, 0.5000000000000000000 ) );
#3933 = LINE ( 'NONE', #15883, #182 );
#3975 = ORIENTED_EDGE ( 'NONE', *, *, #29057, .F. );
#3983 = DIRECTION ( 'NONE',  ( 0.000000000000000000, -1.000000000000000000, 0.000000000000000000 ) );
#4003 = CARTESIAN_POINT ( 'NONE',  ( -0.2597279144137020213, 0.9327720855862979832, 0.5000000000000000000 ) );
#4004 = LINE ( 'NONE', #11090, #15802 );
#4007 = CARTESIAN_POINT ( 'NONE',  ( -0.4949999999999998845, -0.5000000000000000000, 0.5000000000000000000 ) );
#4043 = VECTOR ( 'NONE', #12311, 39.37007874015748143 );
#4067 = DIRECTION ( 'NONE',  ( -0.000000000000000000, 0.000000000000000000, -1.000000000000000000 ) );
#4078 = EDGE_LOOP ( 'NONE', ( #16865, #4402, #5346, #30828, #10495, #24509, #25491, #11121, #22961, #29877, #21599, #13904, #29390, #20933, #29337, #22293, #24554, #24086, #24914, #6952, #9896, #22618, #8169, #2789, #26033, #14908, #1244, #14341, #8721, #25623, #26528, #19276, #15899, #30282, #23971, #7265, #17527, #20297, #14574, #18401, #21993, #13040 ) );
#4095 = LINE ( 'NONE', #27527, #18932 );
#4125 = EDGE_CURVE ( 'NONE', #824, #8851, #7835, .T. );
#4199 = DIRECTION ( 'NONE',  ( -0.000000000000000000, 0.000000000000000000, -1.000000000000000000 ) );
#4211 = CARTESIAN_POINT ( 'NONE',  ( -0.2597279144137021323, -0.9327720855862980942, 0.5000000000000000000 ) );
#4231 = EDGE_CURVE ( 'NONE', #228, #28706, #27440, .T. );
#4327 = CARTESIAN_POINT ( 'NONE',  ( 0.4600000000000000755, -0.7597279144137019102, 0.5000000000000000000 ) );
#4333 = DIRECTION ( 'NONE',  ( 0.7071067811865523467, -0.7071067811865426878, 0.000000000000000000 ) );
#4348 = CIRCLE ( 'NONE', #261, 0.02722791441370210966 );
#4356 = CARTESIAN_POINT ( 'NONE',  ( -0.2325000000000001232, -0.9327720855862980942, 0.5000000000000000000 ) );
#4363 = FACE_BOUND ( 'NONE', #4078, .T. );
#4402 = ORIENTED_EDGE ( 'NONE', *, *, #23725, .T. );
#4406 = LINE ( 'NONE', #9278, #19417 );
#4425 = VERTEX_POINT ( 'NONE', #4356 );
#4513 = CARTESIAN_POINT ( 'NONE',  ( -0.4600000000000000755, 0.7597279144137021323, 0.5000000000000000000 ) );
#4524 = ORIENTED_EDGE ( 'NONE', *, *, #3202, .T. );
#4527 = CARTESIAN_POINT ( 'NONE',  ( -0.4327720855862985383, -0.9327720855862980942, 0.5000000000000000000 ) );
#4531 = VECTOR ( 'NONE', #15297, 39.37007874015748854 );
#4557 = CARTESIAN_POINT ( 'NONE',  ( 0.5000000000000000000, -1.000000000000000000, 0.5000000000000000000 ) );
#4594 = EDGE_CURVE ( 'NONE', #13861, #22460, #5592, .T. );
#4595 = CIRCLE ( 'NONE', #25703, 0.4374999999999998890 );
#4723 = CARTESIAN_POINT ( 'NONE',  ( 0.5000000000000000000, -1.000000000000000000, 0.5000000000000000000 ) );
#4869 = DIRECTION ( 'NONE',  ( -0.000000000000000000, -1.000000000000000000, -0.000000000000000000 ) );
#4889 = EDGE_CURVE ( 'NONE', #26578, #13453, #5519, .T. );
#4917 = VERTEX_POINT ( 'NONE', #29377 );
#4934 = AXIS2_PLACEMENT_3D ( 'NONE', #30231, #8729, #30852 );
#4958 = ORIENTED_EDGE ( 'NONE', *, *, #18259, .F. );
#4981 = LINE ( 'NONE', #30895, #29638 );
#4989 = DIRECTION ( 'NONE',  ( 1.000000000000000000, 0.000000000000000000, 0.000000000000000000 ) );
#4995 = CARTESIAN_POINT ( 'NONE',  ( -0.4327720855862985383, -0.9600000000000001865, 0.5000000000000000000 ) );
#5016 = EDGE_CURVE ( 'NONE', #29429, #13363, #18390, .T. );
#5064 = VERTEX_POINT ( 'NONE', #23104 );
#5120 = DIRECTION ( 'NONE',  ( 0.000000000000000000, 0.000000000000000000, 1.000000000000000000 ) );
#5145 = VECTOR ( 'NONE', #8180, 39.37007874015748143 );
#5148 = VERTEX_POINT ( 'NONE', #7369 );
#5267 = VERTEX_POINT ( 'NONE', #5785 );
#5279 = EDGE_CURVE ( 'NONE', #27771, #22460, #28864, .T. );
#5346 = ORIENTED_EDGE ( 'NONE', *, *, #29663, .F. );
#5366 = ORIENTED_EDGE ( 'NONE', *, *, #21616, .F. );
#5372 = LINE ( 'NONE', #10408, #3394 );
#5392 = AXIS2_PLACEMENT_3D ( 'NONE', #22647, #29860, #13234 );
#5400 = CARTESIAN_POINT ( 'NONE',  ( 0.5000000000000000000, -0.005000000000000057350, 0.5000000000000000000 ) );
#5417 = AXIS2_PLACEMENT_3D ( 'NONE', #27375, #19707, #27065 );
#5431 = EDGE_CURVE ( 'NONE', #26973, #14385, #1710, .T. );
#5506 = EDGE_CURVE ( 'NONE', #5579, #26259, #28203, .T. );
#5519 = LINE ( 'NONE', #7873, #24936 );
#5536 = ORIENTED_EDGE ( 'NONE', *, *, #14082, .T. );
#5538 = LINE ( 'NONE', #20603, #21509 );
#5579 = VERTEX_POINT ( 'NONE', #4513 );
#5592 = LINE ( 'NONE', #15186, #9419 );
#5632 = DIRECTION ( 'NONE',  ( -0.7071067811865620056, -0.7071067811865330288, 0.000000000000000000 ) );
#5699 = CARTESIAN_POINT ( 'NONE',  ( 0.3799999999999999489, 0.5000000000000001110, 0.5000000000000000000 ) );
#5785 = CARTESIAN_POINT ( 'NONE',  ( 0.4950000000000000511, -0.5000000000000001110, 0.5000000000000000000 ) );
#5870 = VERTEX_POINT ( 'NONE', #8260 );
#5897 = VECTOR ( 'NONE', #16386, 39.37007874015748143 );
#5963 = DIRECTION ( 'NONE',  ( 0.7071067811865450192, 0.7071067811865499042, 0.000000000000000000 ) );
#5997 = ORIENTED_EDGE ( 'NONE', *, *, #13492, .F. );
#6014 = DIRECTION ( 'NONE',  ( 0.7071067811865571207, -0.7071067811865378028, -0.000000000000000000 ) );
#6096 = DIRECTION ( 'NONE',  ( 1.000000000000000000, 0.000000000000000000, 0.000000000000000000 ) );
#6147 = DIRECTION ( 'NONE',  ( -0.7071067811865464625, -0.7071067811865485719, 0.000000000000000000 ) );
#6169 = DIRECTION ( 'NONE',  ( 0.000000000000000000, 0.000000000000000000, 1.000000000000000000 ) );
#6186 = CIRCLE ( 'NONE', #185, 0.005000000000000014849 );
#6202 = CIRCLE ( 'NONE', #16764, 0.4374999999999998890 );
#6261 = VERTEX_POINT ( 'NONE', #5400 );
#6285 = CARTESIAN_POINT ( 'NONE',  ( -0.4949999999999999956, 5.141172097148480396E-17, 0.5000000000000000000 ) );
#6302 = DIRECTION ( 'NONE',  ( 1.000000000000000000, 0.000000000000000000, 0.000000000000000000 ) );
#6333 = CARTESIAN_POINT ( 'NONE',  ( 0.4949999999999998845, 0.5000000000000000000, 0.5000000000000000000 ) );
#6351 = AXIS2_PLACEMENT_3D ( 'NONE', #10052, #26832, #7534 );
#6396 = DIRECTION ( 'NONE',  ( 1.000000000000000000, -2.731847993664255093E-14, 0.000000000000000000 ) );
#6427 = EDGE_CURVE ( 'NONE', #22173, #27225, #25774, .T. );
#6428 = EDGE_CURVE ( 'NONE', #2189, #13473, #4095, .T. );
#6470 = CARTESIAN_POINT ( 'NONE',  ( 0.3749999999999999445, 0.7253469547164992370, 0.5000000000000000000 ) );
#6504 = VECTOR ( 'NONE', #11306, 39.37007874015748143 );
#6505 = DIRECTION ( 'NONE',  ( 1.000000000000000000, 0.000000000000000000, 0.000000000000000000 ) );
#6515 = LINE ( 'NONE', #4007, #29353 );
#6532 = EDGE_CURVE ( 'NONE', #17743, #10519, #19326, .T. );
#6587 = EDGE_CURVE ( 'NONE', #13453, #16205, #29037, .T. );
#6817 = DIRECTION ( 'NONE',  ( 1.000000000000000000, 0.000000000000000000, 0.000000000000000000 ) );
#6836 = CARTESIAN_POINT ( 'NONE',  ( 0.4950000000000000511, -0.5000000000000001110, 0.5000000000000000000 ) );
#6903 = CARTESIAN_POINT ( 'NONE',  ( 0.5000000000000000000, 1.000000000000000000, 0.5000000000000000000 ) );
#6952 = ORIENTED_EDGE ( 'NONE', *, *, #3880, .F. );
#6990 = VERTEX_POINT ( 'NONE', #2185 );
#7001 = EDGE_CURVE ( 'NONE', #3420, #24552, #271, .T. );
#7020 = DIRECTION ( 'NONE',  ( -1.000000000000000000, -1.578699805461514031E-15, -0.000000000000000000 ) );
#7043 = AXIS2_PLACEMENT_3D ( 'NONE', #19804, #21838, #10385 );
#7061 = DIRECTION ( 'NONE',  ( 0.000000000000000000, 1.000000000000000000, 0.000000000000000000 ) );
#7096 = ORIENTED_EDGE ( 'NONE', *, *, #9885, .F. );
#7193 = EDGE_CURVE ( 'NONE', #5064, #17743, #27966, .T. );
#7252 = ORIENTED_EDGE ( 'NONE', *, *, #5506, .F. );
#7265 = ORIENTED_EDGE ( 'NONE', *, *, #11740, .F. );
#7279 = LINE ( 'NONE', #9495, #22808 );
#7367 = CARTESIAN_POINT ( 'NONE',  ( 0.3749999999999998890, -0.4950000000000000511, 0.5000000000000000000 ) );
#7369 = CARTESIAN_POINT ( 'NONE',  ( -0.1952683615819209018, 0.8915054494705176857, 0.5000000000000000000 ) );
#7405 = LINE ( 'NONE', #14485, #5897 );
#7439 = EDGE_CURVE ( 'NONE', #7946, #21784, #28970, .T. );
#7460 = EDGE_LOOP ( 'NONE', ( #20549, #5366, #26713, #20275, #4958, #28894 ) );
#7520 = DIRECTION ( 'NONE',  ( -9.415659554026809984E-17, 1.000000000000000000, -0.000000000000000000 ) );
#7528 = CARTESIAN_POINT ( 'NONE',  ( -0.3749999999999999445, 0.7253469547164992370, 0.5000000000000000000 ) );
#7534 = DIRECTION ( 'NONE',  ( 1.000000000000000000, 0.000000000000000000, 0.000000000000000000 ) );
#7542 = EDGE_CURVE ( 'NONE', #26973, #20121, #21468, .T. );
#7699 = VERTEX_POINT ( 'NONE', #18750 );
#7748 = DIRECTION ( 'NONE',  ( -0.7071067811865450192, -0.7071067811865499042, 0.000000000000000000 ) );
#7752 = CARTESIAN_POINT ( 'NONE',  ( -0.3800000000000000600, 0.5000000000000001110, 0.5000000000000000000 ) );
#7772 = CARTESIAN_POINT ( 'NONE',  ( 0.5000000000000000000, -1.000000000000000000, 0.5000000000000000000 ) );
#7795 = EDGE_CURVE ( 'NONE', #10049, #30327, #5372, .T. );
#7835 = LINE ( 'NONE', #12866, #8139 );
#7873 = CARTESIAN_POINT ( 'NONE',  ( -0.3749999999999999445, -0.5050000000000001155, 0.5000000000000000000 ) );
#7905 = DIRECTION ( 'NONE',  ( -7.893499027307578043E-16, -1.000000000000000000, 0.000000000000000000 ) );
#7930 = CARTESIAN_POINT ( 'NONE',  ( -0.3699999999999998290, -0.7239559108396118603, 0.4999999999999973910 ) );
#7946 = VERTEX_POINT ( 'NONE', #22804 );
#7993 = CARTESIAN_POINT ( 'NONE',  ( -0.5000000000000000000, -0.5049999999999998934, 0.5000000000000000000 ) );
#7997 = CARTESIAN_POINT ( 'NONE',  ( 0.1874999999999999722, 0.9549999999999999600, 0.4999999999999973910 ) );
#8105 = EDGE_CURVE ( 'NONE', #5870, #10049, #16679, .T. );
#8139 = VECTOR ( 'NONE', #5632, 39.37007874015748143 );
#8146 = DIRECTION ( 'NONE',  ( 1.184024854096135770E-15, 1.000000000000000000, -0.000000000000000000 ) );
#8159 = EDGE_CURVE ( 'NONE', #2564, #15648, #12437, .T. );
#8169 = ORIENTED_EDGE ( 'NONE', *, *, #28611, .T. );
#8172 = DIRECTION ( 'NONE',  ( 0.000000000000000000, 0.000000000000000000, 1.000000000000000000 ) );
#8180 = DIRECTION ( 'NONE',  ( -0.7071067811865523467, -0.7071067811865426878, 0.000000000000000000 ) );
#8260 = CARTESIAN_POINT ( 'NONE',  ( 0.3749999999999998890, -0.5050000000000001155, 0.5000000000000000000 ) );
#8323 = VECTOR ( 'NONE', #25118, 39.37007874015748143 );
#8327 = LINE ( 'NONE', #12892, #14746 );
#8330 = CARTESIAN_POINT ( 'NONE',  ( -0.1925000000000000044, -0.9550000000000001821, 0.5000000000000000000 ) );
#8425 = DIRECTION ( 'NONE',  ( 1.000000000000000000, -2.731847993664255093E-14, 0.000000000000000000 ) );
#8465 = CARTESIAN_POINT ( 'NONE',  ( 0.005000000000000046074, 1.000000000000000000, 0.5000000000000000000 ) );
#8671 = EDGE_CURVE ( 'NONE', #29568, #16205, #2434, .T. );
#8677 = EDGE_CURVE ( 'NONE', #11832, #3444, #15165, .T. );
#8721 = ORIENTED_EDGE ( 'NONE', *, *, #3888, .T. );
#8729 = DIRECTION ( 'NONE',  ( 0.000000000000000000, 0.000000000000000000, 1.000000000000000000 ) );
#8777 = FACE_BOUND ( 'NONE', #7460, .T. );
#8795 = CARTESIAN_POINT ( 'NONE',  ( -0.3742774566473989206, 0.7265449965140575728, 0.5000000000000000000 ) );
#8836 = CIRCLE ( 'NONE', #18370, 0.02722791441370204027 );
#8851 = VERTEX_POINT ( 'NONE', #6333 );
#8852 = VERTEX_POINT ( 'NONE', #30205 );
#8913 = ORIENTED_EDGE ( 'NONE', *, *, #20004, .T. );
#8976 = CARTESIAN_POINT ( 'NONE',  ( 0.5000000000000000000, 0.004999999999999946328, 0.5000000000000000000 ) );
#8996 = ORIENTED_EDGE ( 'NONE', *, *, #22167, .F. );
#9058 = DIRECTION ( 'NONE',  ( -0.000000000000000000, -1.000000000000000000, -0.000000000000000000 ) );
#9145 = EDGE_CURVE ( 'NONE', #19082, #501, #5538, .T. );
#9149 = CIRCLE ( 'NONE', #28193, 0.02722791441370197088 );
#9278 = CARTESIAN_POINT ( 'NONE',  ( -0.1925000000000000044, -0.9600000000000001865, 0.5000000000000000000 ) );
#9321 = VERTEX_POINT ( 'NONE', #30943 );
#9416 = LINE ( 'NONE', #12396, #16297 );
#9419 = VECTOR ( 'NONE', #24769, 39.37007874015748143 );
#9495 = CARTESIAN_POINT ( 'NONE',  ( -0.5000000000000000000, 0.4950000000000001621, 0.5000000000000000000 ) );
#9524 = CARTESIAN_POINT ( 'NONE',  ( -0.3750000000000000555, 0.005000000000000035666, 0.5000000000000000000 ) );
#9538 = DIRECTION ( 'NONE',  ( 0.000000000000000000, 0.000000000000000000, 1.000000000000000000 ) );
#9732 = VERTEX_POINT ( 'NONE', #15401 );
#9755 = ORIENTED_EDGE ( 'NONE', *, *, #31005, .F. );
#9782 = CARTESIAN_POINT ( 'NONE',  ( 0.5000000000000000000, 1.000000000000000000, 0.5000000000000000000 ) );
#9796 = LINE ( 'NONE', #16419, #4043 );
#9842 = CARTESIAN_POINT ( 'NONE',  ( 0.1925000000000000044, -0.9550000000000001821, 0.5000000000000000000 ) );
#9851 = CARTESIAN_POINT ( 'NONE',  ( 0.2597279144137019102, 0.9599999999999998535, 0.5000000000000000000 ) );
#9885 = EDGE_CURVE ( 'NONE', #10519, #11102, #8836, .T. );
#9895 = CARTESIAN_POINT ( 'NONE',  ( 0.4600000000000000755, -0.9327720855862980942, 0.5000000000000000000 ) );
#9896 = ORIENTED_EDGE ( 'NONE', *, *, #27127, .T. );
#9950 = CARTESIAN_POINT ( 'NONE',  ( 0.4094258806896046154, -0.7457167031797833356, 0.5000000000000000000 ) );
#9957 = CARTESIAN_POINT ( 'NONE',  ( -0.3800000000000000600, 0.5000000000000001110, 0.5000000000000000000 ) );
#10049 = VERTEX_POINT ( 'NONE', #14894 );
#10051 = CARTESIAN_POINT ( 'NONE',  ( -0.1925000000000000044, 0.8959797974644665430, 0.5000000000000000000 ) );
#10052 = CARTESIAN_POINT ( 'NONE',  ( -0.2597279144137021323, -0.9327720855862980942, 0.5000000000000000000 ) );
#10239 = EDGE_CURVE ( 'NONE', #27225, #18873, #20827, .T. );
#10313 = EDGE_CURVE ( 'NONE', #5267, #2104, #26453, .T. );
#10323 = AXIS2_PLACEMENT_3D ( 'NONE', #7997, #17424, #17576 );
#10385 = DIRECTION ( 'NONE',  ( 1.000000000000000000, 0.000000000000000000, 0.000000000000000000 ) );
#10390 = VERTEX_POINT ( 'NONE', #2300 );
#10408 = CARTESIAN_POINT ( 'NONE',  ( 0.3749999999999998890, -0.4950000000000000511, 0.5000000000000000000 ) );
#10458 = VERTEX_POINT ( 'NONE', #17665 );
#10495 = ORIENTED_EDGE ( 'NONE', *, *, #18188, .F. );
#10499 = VERTEX_POINT ( 'NONE', #13585 );
#10519 = VERTEX_POINT ( 'NONE', #22995 );
#10535 = VECTOR ( 'NONE', #28242, 39.37007874015748143 );
#10678 = VECTOR ( 'NONE', #17133, 39.37007874015748143 );
#10695 = CARTESIAN_POINT ( 'NONE',  ( 0.4949999999999998845, 0.5000000000000000000, 0.5000000000000000000 ) );
#10759 = DIRECTION ( 'NONE',  ( -0.000000000000000000, 0.000000000000000000, -1.000000000000000000 ) );
#10763 = ORIENTED_EDGE ( 'NONE', *, *, #19278, .F. );
#10772 = CARTESIAN_POINT ( 'NONE',  ( -0.4094258806896043934, 0.7457167031797833356, 0.5000000000000000000 ) );
#10830 = CARTESIAN_POINT ( 'NONE',  ( 0.1952683615819209018, 0.8915054494705176857, 0.5000000000000000000 ) );
#10857 = CARTESIAN_POINT ( 'NONE',  ( -0.2457167031797834189, -0.9094258806896046154, 0.5000000000000000000 ) );
#10863 = EDGE_CURVE ( 'NONE', #8851, #29591, #3448, .T. );
#10888 = DIRECTION ( 'NONE',  ( -0.7071067811865474617, -0.7071067811865474617, -0.000000000000000000 ) );
#10901 = VECTOR ( 'NONE', #23578, 39.37007874015748143 );
#10920 = VERTEX_POINT ( 'NONE', #21034 );
#10958 = ORIENTED_EDGE ( 'NONE', *, *, #16354, .F. );
#11048 = AXIS2_PLACEMENT_3D ( 'NONE', #27591, #3260, #25260 );
#11063 = DIRECTION ( 'NONE',  ( 1.000000000000000000, 0.000000000000000000, 0.000000000000000000 ) );
#11090 = CARTESIAN_POINT ( 'NONE',  ( -0.3749999999999999445, -0.005000000000000070360, 0.5000000000000000000 ) );
#11102 = VERTEX_POINT ( 'NONE', #4995 );
#11105 = LINE ( 'NONE', #11417, #14399 );
#11114 = VERTEX_POINT ( 'NONE', #24952 );
#11121 = ORIENTED_EDGE ( 'NONE', *, *, #21377, .T. );
#11170 = CARTESIAN_POINT ( 'NONE',  ( -0.1874999999999999722, -0.9600000000000001865, 0.5000000000000000000 ) );
#11171 = CARTESIAN_POINT ( 'NONE',  ( -0.3749999999999999445, 0.7253469547164992370, 0.5000000000000000000 ) );
#11239 = DIRECTION ( 'NONE',  ( 0.000000000000000000, 0.000000000000000000, 1.000000000000000000 ) );
#11263 = VERTEX_POINT ( 'NONE', #1849 );
#11291 = CARTESIAN_POINT ( 'NONE',  ( -0.1925000000000000044, 0.8928740256112638329, 0.5000000000000000000 ) );
#11306 = DIRECTION ( 'NONE',  ( 0.000000000000000000, 1.000000000000000000, 0.000000000000000000 ) );
#11324 = CARTESIAN_POINT ( 'NONE',  ( -0.4950000000000000511, 0.5000000000000001110, 0.5000000000000000000 ) );
#11337 = ( GEOMETRIC_REPRESENTATION_CONTEXT ( 3 ) GLOBAL_UNCERTAINTY_ASSIGNED_CONTEXT ( ( #29223 ) ) GLOBAL_UNIT_ASSIGNED_CONTEXT ( ( #14218, #21428, #28337 ) ) REPRESENTATION_CONTEXT ( 'NONE', 'WORKASPACE' ) );
#11351 = VERTEX_POINT ( 'NONE', #13791 );
#11359 = CARTESIAN_POINT ( 'NONE',  ( 0.3799999999999999489, 0.000000000000000000, 0.5000000000000000000 ) );
#11378 = CARTESIAN_POINT ( 'NONE',  ( 0.3749999999999999445, 0.7253469547164992370, 0.5000000000000000000 ) );
#11417 = CARTESIAN_POINT ( 'NONE',  ( -0.5000000000000000000, -1.000000000000000000, 0.5000000000000000000 ) );
#11440 = CARTESIAN_POINT ( 'NONE',  ( -0.005000000000000046074, -1.000000000000000000, 0.5000000000000000000 ) );
#11465 = LINE ( 'NONE', #21031, #10535 );
#11577 = CARTESIAN_POINT ( 'NONE',  ( 0.3749999999999999445, 0.5050000000000001155, 0.5000000000000000000 ) );
#11642 = LINE ( 'NONE', #4557, #21998 );
#11727 = CARTESIAN_POINT ( 'NONE',  ( -0.3749999999999998335, -0.7239559108396119713, 0.5000000000000000000 ) );
#11740 = EDGE_CURVE ( 'NONE', #11351, #1936, #23316, .T. );
#11832 = VERTEX_POINT ( 'NONE', #13901 );
#11857 = ( LENGTH_UNIT ( ) NAMED_UNIT ( * ) SI_UNIT ( $, .METRE. ) );
#11897 = ORIENTED_EDGE ( 'NONE', *, *, #7193, .F. );
#11970 = EDGE_CURVE ( 'NONE', #30812, #1436, #29092, .T. );
#11990 = CARTESIAN_POINT ( 'NONE',  ( 0.1952683615819209018, -0.8915054494705179078, 0.5000000000000000000 ) );
#12076 = EDGE_CURVE ( 'NONE', #27495, #5870, #25033, .T. );
#12131 = VERTEX_POINT ( 'NONE', #13717 );
#12184 = CARTESIAN_POINT ( 'NONE',  ( 0.4327720855862979832, 0.9327720855862979832, 0.5000000000000000000 ) );
#12202 = AXIS2_PLACEMENT_3D ( 'NONE', #20010, #17645, #3500 );
#12311 = DIRECTION ( 'NONE',  ( 0.000000000000000000, 1.000000000000000000, 0.000000000000000000 ) );
#12313 = EDGE_CURVE ( 'NONE', #29302, #10499, #21144, .T. );
#12396 = CARTESIAN_POINT ( 'NONE',  ( 0.3749999999999999445, 0.7253469547164992370, 0.5000000000000000000 ) );
#12403 = VERTEX_POINT ( 'NONE', #9524 );
#12437 = CIRCLE ( 'NONE', #29974, 0.02722791441370197088 );
#12491 = AXIS2_PLACEMENT_3D ( 'NONE', #3552, #20366, #8425 );
#12530 = CARTESIAN_POINT ( 'NONE',  ( -0.3749999999999999445, 0.7239559108396111942, 0.5000000000000000000 ) );
#12613 = ORIENTED_EDGE ( 'NONE', *, *, #10313, .F. );
#12848 = VERTEX_POINT ( 'NONE', #14365 );
#12866 = CARTESIAN_POINT ( 'NONE',  ( 0.5000000000000001110, 0.5049999999999998934, 0.5000000000000000000 ) );
#12888 = VECTOR ( 'NONE', #13533, 39.37007874015748854 );
#12892 = CARTESIAN_POINT ( 'NONE',  ( -3.607425381479602844E-18, 0.9949999999999998845, 0.5000000000000000000 ) );
#12909 = EDGE_CURVE ( 'NONE', #7699, #5579, #15303, .T. );
#12973 = ORIENTED_EDGE ( 'NONE', *, *, #15789, .T. );
#12986 = CARTESIAN_POINT ( 'NONE',  ( 0.1925000000000000044, -0.9600000000000001865, 0.5000000000000000000 ) );
#13001 = VERTEX_POINT ( 'NONE', #15278 );
#13029 = CARTESIAN_POINT ( 'NONE',  ( 0.4600000000000000200, 0.9327720855862979832, 0.5000000000000000000 ) );
#13040 = ORIENTED_EDGE ( 'NONE', *, *, #23611, .T. );
#13084 = DIRECTION ( 'NONE',  ( -9.415659554026809984E-17, 1.000000000000000000, -0.000000000000000000 ) );
#13089 = AXIS2_PLACEMENT_3D ( 'NONE', #20551, #30116, #3750 );
#13102 = CARTESIAN_POINT ( 'NONE',  ( 0.3799999999999999489, 0.5000000000000001110, 0.5000000000000000000 ) );
#13234 = DIRECTION ( 'NONE',  ( 1.000000000000000000, 8.195543980992764964E-14, 0.000000000000000000 ) );
#13262 = ORIENTED_EDGE ( 'NONE', *, *, #2705, .F. );
#13306 = DIRECTION ( 'NONE',  ( 0.000000000000000000, 1.000000000000000000, 0.000000000000000000 ) );
#13363 = VERTEX_POINT ( 'NONE', #15390 );
#13380 = ORIENTED_EDGE ( 'NONE', *, *, #27848, .F. );
#13453 = VERTEX_POINT ( 'NONE', #3437 );
#13473 = VERTEX_POINT ( 'NONE', #24656 );
#13492 = EDGE_CURVE ( 'NONE', #12848, #4425, #26118, .T. );
#13510 = ADVANCED_FACE ( 'NONE', ( #27611, #4363, #20861, #23062, #30438, #8777 ), #15708, .T. );
#13533 = DIRECTION ( 'NONE',  ( -0.7071067811865481278, 0.7071067811865469066, 0.000000000000000000 ) );
#13571 = CARTESIAN_POINT ( 'NONE',  ( 0.000000000000000000, -0.5000000000000002220, 0.5000000000000000000 ) );
#13585 = CARTESIAN_POINT ( 'NONE',  ( -0.5000000000000000000, -1.000000000000000000, 0.5000000000000000000 ) );
#13602 = DIRECTION ( 'NONE',  ( 0.000000000000000000, 0.000000000000000000, 1.000000000000000000 ) );
#13636 = CARTESIAN_POINT ( 'NONE',  ( -0.5000000000000000000, -1.000000000000000000, 0.5000000000000000000 ) );
#13644 = EDGE_CURVE ( 'NONE', #22173, #25554, #4981, .T. );
#13717 = CARTESIAN_POINT ( 'NONE',  ( 0.2597279144137016327, -0.9599999999999999645, 0.5000000000000000000 ) );
#13738 = ORIENTED_EDGE ( 'NONE', *, *, #14535, .F. );
#13762 = CARTESIAN_POINT ( 'NONE',  ( 0.000000000000000000, 0.5000000000000000000, 0.5000000000000000000 ) );
#13791 = CARTESIAN_POINT ( 'NONE',  ( 0.3799999999999999489, 0.000000000000000000, 0.5000000000000000000 ) );
#13861 = VERTEX_POINT ( 'NONE', #2258 );
#13873 = CARTESIAN_POINT ( 'NONE',  ( 0.4600000000000000200, 0.9327720855862979832, 0.5000000000000000000 ) );
#13901 = CARTESIAN_POINT ( 'NONE',  ( 0.3749999999999999445, 0.5050000000000001155, 0.5000000000000000000 ) );
#13904 = ORIENTED_EDGE ( 'NONE', *, *, #4889, .F. );
#13923 = CARTESIAN_POINT ( 'NONE',  ( 0.1975000000000000089, -0.8959797974644667651, 0.4999999999999973910 ) );
#13957 = CARTESIAN_POINT ( 'NONE',  ( -0.3742774566473986986, -0.7265449965140582389, 0.5000000000000000000 ) );
#14007 = CARTESIAN_POINT ( 'NONE',  ( -0.1925000000000000044, 0.9599999999999998535, 0.5000000000000000000 ) );
#14038 = CARTESIAN_POINT ( 'NONE',  ( -0.4600000000000004641, -0.7597279144137011331, 0.5000000000000000000 ) );
#14043 = LINE ( 'NONE', #11378, #29443 );
#14082 = EDGE_CURVE ( 'NONE', #14642, #13363, #26560, .T. );
#14102 = CARTESIAN_POINT ( 'NONE',  ( -0.3699999999999999400, 0.7239559108396111942, 0.4999999999999973910 ) );
#14108 = DIRECTION ( 'NONE',  ( 1.000000000000000000, 0.000000000000000000, 0.000000000000000000 ) );
#14146 = VECTOR ( 'NONE', #22448, 39.37007874015748143 );
#14152 = DIRECTION ( 'NONE',  ( 1.000000000000000000, -0.000000000000000000, -0.000000000000000000 ) );
#14207 = CARTESIAN_POINT ( 'NONE',  ( 0.5000000000000000000, -0.5049999999999998934, 0.5000000000000000000 ) );
#14218 = ( CONVERSION_BASED_UNIT ( 'INCH', #16582 ) LENGTH_UNIT ( ) NAMED_UNIT ( #21419 ) );
#14311 = LINE ( 'NONE', #4723, #17914 );
#14316 = CARTESIAN_POINT ( 'NONE',  ( -0.2597279144137020213, 0.9327720855862979832, 0.5000000000000000000 ) );
#14341 = ORIENTED_EDGE ( 'NONE', *, *, #4594, .F. );
#14365 = CARTESIAN_POINT ( 'NONE',  ( -0.2597279144137021323, -0.9600000000000001865, 0.5000000000000000000 ) );
#14385 = VERTEX_POINT ( 'NONE', #10051 );
#14399 = VECTOR ( 'NONE', #20978, 39.37007874015748143 );
#14481 = AXIS2_PLACEMENT_3D ( 'NONE', #7930, #10759, #29892 );
#14485 = CARTESIAN_POINT ( 'NONE',  ( -0.3749999999999999445, 0.7253469547164992370, 0.5000000000000000000 ) );
#14535 = EDGE_CURVE ( 'NONE', #29302, #26526, #27614, .T. );
#14574 = ORIENTED_EDGE ( 'NONE', *, *, #7795, .F. );
#14582 = VERTEX_POINT ( 'NONE', #8465 );
#14642 = VERTEX_POINT ( 'NONE', #1881 );
#14653 = ORIENTED_EDGE ( 'NONE', *, *, #18114, .T. );
#14669 = DIRECTION ( 'NONE',  ( -0.000000000000000000, 0.000000000000000000, -1.000000000000000000 ) );
#14714 = DIRECTION ( 'NONE',  ( 1.000000000000000000, 0.000000000000000000, 0.000000000000000000 ) );
#14726 = VERTEX_POINT ( 'NONE', #3908 );
#14744 = CIRCLE ( 'NONE', #15245, 0.02722791441370204027 );
#14746 = VECTOR ( 'NONE', #5963, 39.37007874015748854 );
#14750 = EDGE_CURVE ( 'NONE', #5148, #25591, #4595, .T. );
#14798 = DIRECTION ( 'NONE',  ( 1.000000000000000000, 0.000000000000000000, 0.000000000000000000 ) );
#14894 = CARTESIAN_POINT ( 'NONE',  ( 0.3800000000000000600, -0.5000000000000001110, 0.5000000000000000000 ) );
#14896 = ORIENTED_EDGE ( 'NONE', *, *, #10863, .F. );
#14908 = ORIENTED_EDGE ( 'NONE', *, *, #18209, .F. );
#14960 = CIRCLE ( 'NONE', #15463, 0.005000000000000014849 );
#15069 = AXIS2_PLACEMENT_3D ( 'NONE', #15566, #8172, #24987 );
#15111 = EDGE_LOOP ( 'NONE', ( #8996, #7096, #2703, #11897, #27391, #1335, #5997 ) );
#15165 = LINE ( 'NONE', #20185, #28986 );
#15186 = CARTESIAN_POINT ( 'NONE',  ( 0.1925000000000000044, 0.9599999999999998535, 0.5000000000000000000 ) );
#15245 = AXIS2_PLACEMENT_3D ( 'NONE', #23563, #20728, #30464 );
#15263 = CARTESIAN_POINT ( 'NONE',  ( 0.5000000000000000000, -1.000000000000000000, 0.5000000000000000000 ) );
#15278 = CARTESIAN_POINT ( 'NONE',  ( 0.5000000000000000000, 1.000000000000000000, 0.5000000000000000000 ) );
#15297 = DIRECTION ( 'NONE',  ( 0.7071067811865474617, 0.7071067811865474617, -0.000000000000000000 ) );
#15303 = LINE ( 'NONE', #17487, #23601 );
#15304 = CARTESIAN_POINT ( 'NONE',  ( -0.3799999999999999489, -0.5000000000000001110, 0.5000000000000000000 ) );
#15335 = VERTEX_POINT ( 'NONE', #26915 );
#15390 = CARTESIAN_POINT ( 'NONE',  ( -0.5000000000000000000, 0.005000000000000057350, 0.5000000000000000000 ) );
#15396 = VERTEX_POINT ( 'NONE', #7772 );
#15401 = CARTESIAN_POINT ( 'NONE',  ( 0.5000000000000000000, -0.4950000000000001621, 0.5000000000000000000 ) );
#15413 = LINE ( 'NONE', #15263, #1190 );
#15421 = LINE ( 'NONE', #11324, #28252 );
#15463 = AXIS2_PLACEMENT_3D ( 'NONE', #22790, #18075, #3467 );
#15470 = CIRCLE ( 'NONE', #408, 0.4374999999999998890 );
#15566 = CARTESIAN_POINT ( 'NONE',  ( 0.2597279144137019102, 0.9327720855862978722, 0.5000000000000000000 ) );
#15642 = VECTOR ( 'NONE', #7748, 39.37007874015748854 );
#15648 = VERTEX_POINT ( 'NONE', #19337 );
#15708 = PLANE ( 'NONE',  #13089 );
#15786 = VERTEX_POINT ( 'NONE', #18998 );
#15789 = EDGE_CURVE ( 'NONE', #15396, #2104, #23388, .T. );
#15802 = VECTOR ( 'NONE', #3697, 39.37007874015748143 );
#15861 = EDGE_CURVE ( 'NONE', #12131, #20579, #11465, .T. );
#15864 = EDGE_CURVE ( 'NONE', #22230, #23681, #28071, .T. );
#15883 = CARTESIAN_POINT ( 'NONE',  ( 0.005000000000000018319, -1.000000000000000000, 0.5000000000000000000 ) );
#15899 = ORIENTED_EDGE ( 'NONE', *, *, #16218, .F. );
#15922 = VERTEX_POINT ( 'NONE', #21488 );
#16112 = DIRECTION ( 'NONE',  ( -0.7071067811865474617, 0.7071067811865474617, 0.000000000000000000 ) );
#16134 = ORIENTED_EDGE ( 'NONE', *, *, #27321, .F. );
#16197 = LINE ( 'NONE', #11171, #24490 );
#16205 = VERTEX_POINT ( 'NONE', #11727 );
#16218 = EDGE_CURVE ( 'NONE', #17460, #11832, #16450, .T. );
#16237 = DIRECTION ( 'NONE',  ( 1.000000000000000000, 0.000000000000000000, 0.000000000000000000 ) );
#16277 = AXIS2_PLACEMENT_3D ( 'NONE', #23102, #19856, #2885 );
#16281 = DIRECTION ( 'NONE',  ( 1.000000000000000000, 0.000000000000000000, 0.000000000000000000 ) );
#16297 = VECTOR ( 'NONE', #7520, 39.37007874015748143 );
#16319 = ORIENTED_EDGE ( 'NONE', *, *, #23331, .F. );
#16350 = LINE ( 'NONE', #23256, #24841 );
#16354 = EDGE_CURVE ( 'NONE', #28706, #3420, #4348, .T. );
#16386 = DIRECTION ( 'NONE',  ( 9.415659554026806287E-17, -1.000000000000000000, 0.000000000000000000 ) );
#16413 = CARTESIAN_POINT ( 'NONE',  ( 0.4599999999999997979, 0.7597279144137019102, 0.5000000000000000000 ) );
#16419 = CARTESIAN_POINT ( 'NONE',  ( 0.5000000000000000000, -1.000000000000000000, 0.5000000000000000000 ) );
#16450 = LINE ( 'NONE', #11577, #17893 );
#16555 = CARTESIAN_POINT ( 'NONE',  ( -0.5000000000000000000, 0.5049999999999998934, 0.5000000000000000000 ) );
#16582 = LENGTH_MEASURE_WITH_UNIT ( LENGTH_MEASURE( 0.02539999999999999897 ), #11857 );
#16603 = DIRECTION ( 'NONE',  ( 1.000000000000000000, 0.000000000000000000, 0.000000000000000000 ) );
#16616 = AXIS2_PLACEMENT_3D ( 'NONE', #4211, #30744, #6096 );
#16649 = CARTESIAN_POINT ( 'NONE',  ( 0.2597279144137019102, 0.9599999999999998535, 0.5000000000000000000 ) );
#16679 = LINE ( 'NONE', #21223, #16955 );
#16682 = CARTESIAN_POINT ( 'NONE',  ( -0.5000000000000000000, -0.004999999999999978420, 0.5000000000000000000 ) );
#16710 = CARTESIAN_POINT ( 'NONE',  ( 0.3750000000000000555, -0.005000000000000035666, 0.5000000000000000000 ) );
#16731 = CIRCLE ( 'NONE', #21735, 0.4774999999999998690 );
#16735 = AXIS2_PLACEMENT_3D ( 'NONE', #19845, #14669, #29404 );
#16758 = ORIENTED_EDGE ( 'NONE', *, *, #5016, .F. );
#16764 = AXIS2_PLACEMENT_3D ( 'NONE', #18446, #11239, #6505 );
#16783 = CARTESIAN_POINT ( 'NONE',  ( -0.4327720855862979832, 0.7597279144137021323, 0.5000000000000000000 ) );
#16827 = ORIENTED_EDGE ( 'NONE', *, *, #30153, .T. );
#16865 = ORIENTED_EDGE ( 'NONE', *, *, #22863, .F. );
#16914 = VECTOR ( 'NONE', #4869, 39.37007874015748143 );
#16955 = VECTOR ( 'NONE', #30635, 39.37007874015748143 );
#16960 = AXIS2_PLACEMENT_3D ( 'NONE', #30512, #3818, #11063 );
#17133 = DIRECTION ( 'NONE',  ( 0.7071067811865464625, 0.7071067811865485719, 0.000000000000000000 ) );
#17401 = CIRCLE ( 'NONE', #6351, 0.02722791441370204027 );
#17424 = DIRECTION ( 'NONE',  ( -0.000000000000000000, 0.000000000000000000, -1.000000000000000000 ) );
#17431 = CARTESIAN_POINT ( 'NONE',  ( -0.5000000000000001110, -0.5049999999999998934, 0.5000000000000000000 ) );
#17460 = VERTEX_POINT ( 'NONE', #13102 );
#17487 = CARTESIAN_POINT ( 'NONE',  ( -0.4599999999999999645, 0.9327720855862979832, 0.5000000000000000000 ) );
#17523 = VECTOR ( 'NONE', #29103, 39.37007874015748143 );
#17527 = ORIENTED_EDGE ( 'NONE', *, *, #28721, .F. );
#17576 = DIRECTION ( 'NONE',  ( 1.000000000000000000, 0.000000000000000000, 0.000000000000000000 ) );
#17645 = DIRECTION ( 'NONE',  ( 0.000000000000000000, -0.000000000000000000, 1.000000000000000000 ) );
#17665 = CARTESIAN_POINT ( 'NONE',  ( -0.3749999999999999445, -0.005000000000000070360, 0.5000000000000000000 ) );
#17692 = CARTESIAN_POINT ( 'NONE',  ( 3.607425381479602844E-18, -0.9949999999999998845, 0.5000000000000000000 ) );
#17720 = LINE ( 'NONE', #27284, #22177 );
#17741 = VERTEX_POINT ( 'NONE', #16710 );
#17743 = VERTEX_POINT ( 'NONE', #14038 );
#17747 = CIRCLE ( 'NONE', #30761, 0.02722791441370197088 );
#17795 = VERTEX_POINT ( 'NONE', #11990 );
#17825 = EDGE_LOOP ( 'NONE', ( #26997, #28304, #20833, #16319, #7252, #24189, #28281 ) );
#17843 = CARTESIAN_POINT ( 'NONE',  ( 0.1925000000000000044, 0.9549999999999999600, 0.5000000000000000000 ) );
#17893 = VECTOR ( 'NONE', #30713, 39.37007874015748854 );
#17914 = VECTOR ( 'NONE', #7061, 39.37007874015748143 );
#18063 = CARTESIAN_POINT ( 'NONE',  ( -0.1952683615819209018, -0.8915054494705179078, 0.5000000000000000000 ) );
#18075 = DIRECTION ( 'NONE',  ( 0.000000000000000000, -0.000000000000000000, 1.000000000000000000 ) );
#18114 = EDGE_CURVE ( 'NONE', #824, #13001, #14311, .T. );
#18187 = CARTESIAN_POINT ( 'NONE',  ( -0.4949999999999999956, 5.141172097148480396E-17, 0.5000000000000000000 ) );
#18188 = EDGE_CURVE ( 'NONE', #2001, #23681, #4406, .T. );
#18209 = EDGE_CURVE ( 'NONE', #27771, #20121, #2229, .T. );
#18229 = DIRECTION ( 'NONE',  ( 0.000000000000000000, 1.000000000000000000, 0.000000000000000000 ) );
#18259 = EDGE_CURVE ( 'NONE', #22640, #23698, #25396, .T. );
#18265 = EDGE_CURVE ( 'NONE', #4425, #970, #17401, .T. );
#18335 = EDGE_CURVE ( 'NONE', #25956, #15335, #11105, .T. );
#18370 = AXIS2_PLACEMENT_3D ( 'NONE', #4527, #18995, #4989 );
#18382 = DIRECTION ( 'NONE',  ( -0.7071067811865426878, 0.7071067811865523467, 0.000000000000000000 ) );
#18390 = LINE ( 'NONE', #6285, #12888 );
#18401 = ORIENTED_EDGE ( 'NONE', *, *, #8105, .F. );
#18446 = CARTESIAN_POINT ( 'NONE',  ( 0.000000000000000000, -0.5000000000000002220, 0.5000000000000000000 ) );
#18564 = VERTEX_POINT ( 'NONE', #21900 );
#18650 = CARTESIAN_POINT ( 'NONE',  ( -0.5000000000000000000, 1.000000000000000000, 0.5000000000000000000 ) );
#18729 = EDGE_CURVE ( 'NONE', #10390, #2686, #30832, .T. );
#18733 = EDGE_CURVE ( 'NONE', #30327, #17741, #14043, .T. );
#18750 = CARTESIAN_POINT ( 'NONE',  ( -0.4600000000000000200, 0.9327720855862979832, 0.5000000000000000000 ) );
#18872 = DIRECTION ( 'NONE',  ( 1.000000000000000000, 0.000000000000000000, 0.000000000000000000 ) );
#18873 = VERTEX_POINT ( 'NONE', #16555 );
#18928 = CARTESIAN_POINT ( 'NONE',  ( -0.4949999999999998845, -0.5000000000000000000, 0.5000000000000000000 ) );
#18932 = VECTOR ( 'NONE', #6014, 39.37007874015748854 );
#18938 = ORIENTED_EDGE ( 'NONE', *, *, #10239, .T. );
#18954 = CIRCLE ( 'NONE', #5392, 0.005000000000000014849 );
#18995 = DIRECTION ( 'NONE',  ( 0.000000000000000000, 0.000000000000000000, 1.000000000000000000 ) );
#18998 = CARTESIAN_POINT ( 'NONE',  ( 0.1925000000000000044, -0.8959797974644667651, 0.5000000000000000000 ) );
#19003 = EDGE_CURVE ( 'NONE', #30529, #3444, #18954, .T. );
#19082 = VERTEX_POINT ( 'NONE', #8976 );
#19137 = DIRECTION ( 'NONE',  ( 0.7071067811865426878, -0.7071067811865523467, 0.000000000000000000 ) );
#19276 = ORIENTED_EDGE ( 'NONE', *, *, #8677, .F. );
#19278 = EDGE_CURVE ( 'NONE', #25956, #29429, #23583, .T. );
#19326 = LINE ( 'NONE', #28881, #16914 );
#19337 = CARTESIAN_POINT ( 'NONE',  ( -0.2597279144137020213, 0.9599999999999998535, 0.5000000000000000000 ) );
#19417 = VECTOR ( 'NONE', #18872, 39.37007874015748143 );
#19493 = AXIS2_PLACEMENT_3D ( 'NONE', #27960, #25621, #23263 );
#19500 = CARTESIAN_POINT ( 'NONE',  ( -0.2325000000000000400, 0.9327720855862979832, 0.5000000000000000000 ) );
#19506 = DIRECTION ( 'NONE',  ( -0.000000000000000000, -0.000000000000000000, -1.000000000000000000 ) );
#19514 = CIRCLE ( 'NONE', #19493, 0.4774999999999998690 );
#19538 = CIRCLE ( 'NONE', #21531, 0.005000000000000014849 );
#19707 = DIRECTION ( 'NONE',  ( -0.000000000000000000, -0.000000000000000000, -1.000000000000000000 ) );
#19804 = CARTESIAN_POINT ( 'NONE',  ( -0.4327720855862979832, 0.9327720855862979832, 0.5000000000000000000 ) );
#19840 = VERTEX_POINT ( 'NONE', #12530 );
#19845 = CARTESIAN_POINT ( 'NONE',  ( -0.1874999999999999722, -0.9550000000000001821, 0.4999999999999973910 ) );
#19856 = DIRECTION ( 'NONE',  ( 0.000000000000000000, 0.000000000000000000, 1.000000000000000000 ) );
#19968 = CARTESIAN_POINT ( 'NONE',  ( 0.3749999999999999445, 0.005000000000000070360, 0.5000000000000000000 ) );
#19991 = ORIENTED_EDGE ( 'NONE', *, *, #7439, .F. );
#20004 = EDGE_CURVE ( 'NONE', #13001, #14582, #513, .T. );
#20010 = CARTESIAN_POINT ( 'NONE',  ( -0.1975000000000000089, 0.8959797974644665430, 0.4999999999999973910 ) );
#20018 = ORIENTED_EDGE ( 'NONE', *, *, #1027, .F. );
#20121 = VERTEX_POINT ( 'NONE', #24715 );
#20131 = DIRECTION ( 'NONE',  ( 0.7071067811865474617, -0.7071067811865474617, -0.000000000000000000 ) );
#20154 = LINE ( 'NONE', #5699, #4531 );
#20185 = CARTESIAN_POINT ( 'NONE',  ( 0.3749999999999999445, 0.7253469547164992370, 0.5000000000000000000 ) );
#20242 = CIRCLE ( 'NONE', #12202, 0.005000000000000014849 );
#20272 = DIRECTION ( 'NONE',  ( 0.7071067811865474617, -0.7071067811865474617, 0.000000000000000000 ) );
#20275 = ORIENTED_EDGE ( 'NONE', *, *, #29036, .F. );
#20297 = ORIENTED_EDGE ( 'NONE', *, *, #18733, .F. );
#20366 = DIRECTION ( 'NONE',  ( -0.000000000000000000, 0.000000000000000000, -1.000000000000000000 ) );
#20384 = EDGE_CURVE ( 'NONE', #970, #5064, #16731, .T. );
#20502 = DIRECTION ( 'NONE',  ( 0.000000000000000000, -0.000000000000000000, 1.000000000000000000 ) );
#20549 = ORIENTED_EDGE ( 'NONE', *, *, #15861, .F. );
#20551 = CARTESIAN_POINT ( 'NONE',  ( 0.000000000000000000, 0.000000000000000000, 0.5000000000000000000 ) );
#20579 = VERTEX_POINT ( 'NONE', #27797 );
#20603 = CARTESIAN_POINT ( 'NONE',  ( 0.5000000000000000000, 0.004999999999999978420, 0.5000000000000000000 ) );
#20605 = EDGE_CURVE ( 'NONE', #11263, #18873, #15421, .T. );
#20618 = VECTOR ( 'NONE', #13084, 39.37007874015748143 );
#20640 = CARTESIAN_POINT ( 'NONE',  ( 0.3749999999999999445, 0.005000000000000070360, 0.5000000000000000000 ) );
#20728 = DIRECTION ( 'NONE',  ( 0.000000000000000000, 0.000000000000000000, 1.000000000000000000 ) );
#20762 = ORIENTED_EDGE ( 'NONE', *, *, #29963, .F. );
#20786 = ORIENTED_EDGE ( 'NONE', *, *, #11970, .F. );
#20827 = LINE ( 'NONE', #20983, #21365 );
#20833 = ORIENTED_EDGE ( 'NONE', *, *, #27602, .F. );
#20861 = FACE_BOUND ( 'NONE', #15111, .T. );
#20865 = DIRECTION ( 'NONE',  ( 1.000000000000000000, 0.000000000000000000, 0.000000000000000000 ) );
#20883 = DIRECTION ( 'NONE',  ( 0.7071067811865481278, -0.7071067811865469066, 0.000000000000000000 ) );
#20933 = ORIENTED_EDGE ( 'NONE', *, *, #3687, .F. );
#20960 = CARTESIAN_POINT ( 'NONE',  ( -0.1975000000000000089, -0.8959797974644667651, 0.4999999999999973910 ) );
#20978 = DIRECTION ( 'NONE',  ( -0.000000000000000000, -1.000000000000000000, -0.000000000000000000 ) );
#20983 = CARTESIAN_POINT ( 'NONE',  ( -0.5000000000000000000, -1.000000000000000000, 0.5000000000000000000 ) );
#21031 = CARTESIAN_POINT ( 'NONE',  ( 0.4327720855862980942, -0.9600000000000001865, 0.5000000000000000000 ) );
#21034 = CARTESIAN_POINT ( 'NONE',  ( -0.4327720855862979832, 0.9599999999999999645, 0.5000000000000000000 ) );
#21041 = LINE ( 'NONE', #1737, #3104 );
#21124 = DIRECTION ( 'NONE',  ( 0.000000000000000000, 0.000000000000000000, 1.000000000000000000 ) );
#21144 = LINE ( 'NONE', #13636, #28144 );
#21147 = VECTOR ( 'NONE', #14108, 39.37007874015748143 );
#21188 = VECTOR ( 'NONE', #8146, 39.37007874015748143 );
#21190 = AXIS2_PLACEMENT_3D ( 'NONE', #13762, #1822, #6817 );
#21223 = CARTESIAN_POINT ( 'NONE',  ( 0.3800000000000000600, -0.5000000000000001110, 0.5000000000000000000 ) );
#21295 = ORIENTED_EDGE ( 'NONE', *, *, #18335, .T. );
#21312 = CARTESIAN_POINT ( 'NONE',  ( -0.005000000000000018319, 1.000000000000000000, 0.5000000000000000000 ) );
#21365 = VECTOR ( 'NONE', #30085, 39.37007874015748143 );
#21377 = EDGE_CURVE ( 'NONE', #10390, #25510, #26785, .T. );
#21419 = DIMENSIONAL_EXPONENTS ( 1.000000000000000000, 0.000000000000000000, 0.000000000000000000, 0.000000000000000000, 0.000000000000000000, 0.000000000000000000, 0.000000000000000000 );
#21423 = VECTOR ( 'NONE', #30629, 39.37007874015748143 );
#21428 = ( NAMED_UNIT ( * ) PLANE_ANGLE_UNIT ( ) SI_UNIT ( $, .RADIAN. ) );
#21468 = CIRCLE ( 'NONE', #16960, 0.005000000000000014849 );
#21488 = CARTESIAN_POINT ( 'NONE',  ( 0.2457167031797826695, -0.9094258806896051706, 0.5000000000000000000 ) );
#21509 = VECTOR ( 'NONE', #6147, 39.37007874015748143 );
#21531 = AXIS2_PLACEMENT_3D ( 'NONE', #13923, #23495, #23338 );
#21599 = ORIENTED_EDGE ( 'NONE', *, *, #6587, .F. );
#21616 = EDGE_CURVE ( 'NONE', #15922, #12131, #22793, .T. );
#21735 = AXIS2_PLACEMENT_3D ( 'NONE', #26701, #19506, #14798 );
#21784 = VERTEX_POINT ( 'NONE', #1908 );
#21838 = DIRECTION ( 'NONE',  ( 0.000000000000000000, 0.000000000000000000, 1.000000000000000000 ) );
#21900 = CARTESIAN_POINT ( 'NONE',  ( 0.3742774566473989761, -0.7265449965140576838, 0.5000000000000000000 ) );
#21920 = CARTESIAN_POINT ( 'NONE',  ( 0.4327720855862979277, 0.7597279144137019102, 0.5000000000000000000 ) );
#21969 = CIRCLE ( 'NONE', #4934, 0.02722791441370204027 );
#21993 = ORIENTED_EDGE ( 'NONE', *, *, #12076, .F. );
#21998 = VECTOR ( 'NONE', #14152, 39.37007874015748143 );
#22005 = CARTESIAN_POINT ( 'NONE',  ( 0.5000000000000000000, 0.5049999999999998934, 0.5000000000000000000 ) );
#22088 = CIRCLE ( 'NONE', #7043, 0.02722791441370204027 );
#22167 = EDGE_CURVE ( 'NONE', #11102, #12848, #30738, .T. );
#22173 = VERTEX_POINT ( 'NONE', #21312 );
#22177 = VECTOR ( 'NONE', #25105, 39.37007874015748143 );
#22230 = VERTEX_POINT ( 'NONE', #9842 );
#22293 = ORIENTED_EDGE ( 'NONE', *, *, #25567, .F. );
#22448 = DIRECTION ( 'NONE',  ( 0.7071067811865620056, 0.7071067811865330288, 0.000000000000000000 ) );
#22460 = VERTEX_POINT ( 'NONE', #17843 );
#22498 = ORIENTED_EDGE ( 'NONE', *, *, #4125, .F. );
#22514 = EDGE_CURVE ( 'NONE', #20579, #22640, #21969, .T. );
#22583 = CIRCLE ( 'NONE', #11048, 0.4774999999999999800 );
#22618 = ORIENTED_EDGE ( 'NONE', *, *, #14750, .F. );
#22640 = VERTEX_POINT ( 'NONE', #2737 );
#22647 = CARTESIAN_POINT ( 'NONE',  ( 0.3699999999999999400, 0.7239559108396115272, 0.4999999999999973910 ) );
#22790 = CARTESIAN_POINT ( 'NONE',  ( 0.1975000000000000366, 0.8959797974644665430, 0.4999999999999973910 ) );
#22793 = CIRCLE ( 'NONE', #16277, 0.02722791441370183557 );
#22804 = CARTESIAN_POINT ( 'NONE',  ( 0.2457167031797832524, 0.9094258806896043934, 0.5000000000000000000 ) );
#22808 = VECTOR ( 'NONE', #28638, 39.37007874015748143 );
#22863 = EDGE_CURVE ( 'NONE', #17795, #18564, #15470, .T. );
#22961 = ORIENTED_EDGE ( 'NONE', *, *, #28, .F. );
#22995 = CARTESIAN_POINT ( 'NONE',  ( -0.4600000000000004641, -0.9327720855862980942, 0.5000000000000000000 ) );
#23015 = DIRECTION ( 'NONE',  ( 1.000000000000000000, 0.000000000000000000, 0.000000000000000000 ) );
#23062 = FACE_BOUND ( 'NONE', #23702, .T. );
#23088 = LINE ( 'NONE', #1574, #5145 );
#23102 = CARTESIAN_POINT ( 'NONE',  ( 0.2597279144137016327, -0.9327720855862984273, 0.5000000000000000000 ) );
#23104 = CARTESIAN_POINT ( 'NONE',  ( -0.4094258806896051150, -0.7457167031797824475, 0.5000000000000000000 ) );
#23132 = LINE ( 'NONE', #11359, #1167 );
#23150 = EDGE_CURVE ( 'NONE', #13473, #12403, #29381, .T. );
#23228 = DIRECTION ( 'NONE',  ( 0.000000000000000000, 0.000000000000000000, 1.000000000000000000 ) );
#23256 = CARTESIAN_POINT ( 'NONE',  ( 0.5000000000000000000, -1.000000000000000000, 0.5000000000000000000 ) );
#23263 = DIRECTION ( 'NONE',  ( 1.000000000000000000, 0.000000000000000000, 0.000000000000000000 ) );
#23316 = LINE ( 'NONE', #20640, #29126 );
#23331 = EDGE_CURVE ( 'NONE', #26259, #14726, #19514, .T. );
#23338 = DIRECTION ( 'NONE',  ( 1.000000000000000000, 0.000000000000000000, 0.000000000000000000 ) );
#23388 = LINE ( 'NONE', #26040, #6504 );
#23434 = EDGE_CURVE ( 'NONE', #11114, #15396, #11642, .T. );
#23495 = DIRECTION ( 'NONE',  ( 0.000000000000000000, -0.000000000000000000, 1.000000000000000000 ) );
#23519 = CARTESIAN_POINT ( 'NONE',  ( -0.5000000000000000000, -0.004999999999999946328, 0.5000000000000000000 ) );
#23563 = CARTESIAN_POINT ( 'NONE',  ( 0.4327720855862980387, -0.7597279144137019102, 0.5000000000000000000 ) );
#23578 = DIRECTION ( 'NONE',  ( -1.000000000000000000, -0.000000000000000000, -0.000000000000000000 ) );
#23583 = LINE ( 'NONE', #16682, #10678 );
#23601 = VECTOR ( 'NONE', #7905, 39.37007874015748143 );
#23611 = EDGE_CURVE ( 'NONE', #27495, #18564, #27022, .T. );
#23681 = VERTEX_POINT ( 'NONE', #25992 );
#23698 = VERTEX_POINT ( 'NONE', #4327 );
#23702 = EDGE_LOOP ( 'NONE', ( #27123, #10958, #363, #16134, #19991, #26738 ) );
#23725 = EDGE_CURVE ( 'NONE', #17795, #15786, #19538, .T. );
#23771 = ORIENTED_EDGE ( 'NONE', *, *, #20605, .F. );
#23971 = ORIENTED_EDGE ( 'NONE', *, *, #30284, .F. );
#24086 = ORIENTED_EDGE ( 'NONE', *, *, #6428, .F. );
#24189 = ORIENTED_EDGE ( 'NONE', *, *, #12909, .F. );
#24236 = DIRECTION ( 'NONE',  ( -0.7071067811865571207, 0.7071067811865378028, 0.000000000000000000 ) );
#24306 = EDGE_CURVE ( 'NONE', #24552, #7946, #29089, .T. );
#24405 = CARTESIAN_POINT ( 'NONE',  ( 3.607425381479602844E-18, -0.9949999999999998845, 0.5000000000000000000 ) );
#24490 = VECTOR ( 'NONE', #29841, 39.37007874015748143 );
#24509 = ORIENTED_EDGE ( 'NONE', *, *, #409, .T. );
#24552 = VERTEX_POINT ( 'NONE', #16649 );
#24554 = ORIENTED_EDGE ( 'NONE', *, *, #23150, .F. );
#24573 = CARTESIAN_POINT ( 'NONE',  ( 0.4327720855862979832, 0.9600000000000001865, 0.5000000000000000000 ) );
#24656 = CARTESIAN_POINT ( 'NONE',  ( -0.3749999999999998890, 0.4950000000000000511, 0.5000000000000000000 ) );
#24660 = EDGE_CURVE ( 'NONE', #399, #15922, #22583, .T. );
#24715 = CARTESIAN_POINT ( 'NONE',  ( -0.1874999999999999722, 0.9599999999999998535, 0.5000000000000000000 ) );
#24769 = DIRECTION ( 'NONE',  ( -5.087166366188852879E-16, 1.000000000000000000, -0.000000000000000000 ) );
#24841 = VECTOR ( 'NONE', #18229, 39.37007874015748143 );
#24914 = ORIENTED_EDGE ( 'NONE', *, *, #3187, .F. );
#24936 = VECTOR ( 'NONE', #20131, 39.37007874015748854 );
#24947 = ORIENTED_EDGE ( 'NONE', *, *, #12313, .T. );
#24952 = CARTESIAN_POINT ( 'NONE',  ( 0.005000000000000018319, -1.000000000000000000, 0.5000000000000000000 ) );
#24987 = DIRECTION ( 'NONE',  ( 1.000000000000000000, 0.000000000000000000, 0.000000000000000000 ) );
#24992 = DIRECTION ( 'NONE',  ( 1.000000000000000000, -0.000000000000000000, -0.000000000000000000 ) );
#25025 = EDGE_CURVE ( 'NONE', #4917, #17460, #20154, .T. );
#25033 = LINE ( 'NONE', #6470, #20618 );
#25105 = DIRECTION ( 'NONE',  ( -1.000000000000000000, 7.893499027307575085E-16, -0.000000000000000000 ) );
#25118 = DIRECTION ( 'NONE',  ( -0.000000000000000000, -1.000000000000000000, -0.000000000000000000 ) );
#25260 = DIRECTION ( 'NONE',  ( 1.000000000000000000, 0.000000000000000000, 0.000000000000000000 ) );
#25396 = LINE ( 'NONE', #9895, #1363 );
#25491 = ORIENTED_EDGE ( 'NONE', *, *, #18729, .F. );
#25510 = VERTEX_POINT ( 'NONE', #18063 );
#25554 = VERTEX_POINT ( 'NONE', #28400 );
#25567 = EDGE_CURVE ( 'NONE', #12403, #9321, #25901, .T. );
#25590 = CARTESIAN_POINT ( 'NONE',  ( 0.000000000000000000, 0.5000000000000000000, 0.5000000000000000000 ) );
#25591 = VERTEX_POINT ( 'NONE', #8795 );
#25595 = CARTESIAN_POINT ( 'NONE',  ( 0.1874999999999999722, -0.9550000000000001821, 0.4999999999999973910 ) );
#25621 = DIRECTION ( 'NONE',  ( -0.000000000000000000, -0.000000000000000000, -1.000000000000000000 ) );
#25623 = ORIENTED_EDGE ( 'NONE', *, *, #27512, .F. );
#25680 = CARTESIAN_POINT ( 'NONE',  ( 0.3750000000000001110, -0.7239559108396115272, 0.5000000000000000000 ) );
#25703 = AXIS2_PLACEMENT_3D ( 'NONE', #25590, #23228, #20865 );
#25774 = LINE ( 'NONE', #6903, #21423 );
#25800 = AXIS2_PLACEMENT_3D ( 'NONE', #20960, #20502, #23015 );
#25817 = CARTESIAN_POINT ( 'NONE',  ( -0.1925000000000000044, -0.8928740256112641660, 0.5000000000000000000 ) );
#25825 = EDGE_CURVE ( 'NONE', #15648, #10920, #17720, .T. );
#25901 = LINE ( 'NONE', #30608, #29178 );
#25956 = VERTEX_POINT ( 'NONE', #23519 );
#25992 = CARTESIAN_POINT ( 'NONE',  ( 0.1874999999999999722, -0.9600000000000001865, 0.5000000000000000000 ) );
#26024 = CARTESIAN_POINT ( 'NONE',  ( -0.4327720855862985383, -0.9600000000000001865, 0.5000000000000000000 ) );
#26025 = DIRECTION ( 'NONE',  ( 1.000000000000000000, 0.000000000000000000, 0.000000000000000000 ) );
#26033 = ORIENTED_EDGE ( 'NONE', *, *, #7542, .T. );
#26036 = EDGE_LOOP ( 'NONE', ( #20786, #3975, #978, #12973, #12613, #13262, #16827, #20018, #27961, #4524, #14896, #22498, #14653, #8913, #13380, #28127, #30515, #18938, #23771, #20762, #5536, #16758, #10763, #21295, #9755, #13738, #24947, #447 ) );
#26040 = CARTESIAN_POINT ( 'NONE',  ( 0.5000000000000000000, -1.000000000000000000, 0.5000000000000000000 ) );
#26073 = AXIS2_PLACEMENT_3D ( 'NONE', #25595, #4067, #30755 );
#26075 = DIRECTION ( 'NONE',  ( 1.000000000000000000, 0.000000000000000000, 0.000000000000000000 ) );
#26118 = CIRCLE ( 'NONE', #16616, 0.02722791441370204027 );
#26202 = DIRECTION ( 'NONE',  ( -0.7071067811865412445, -0.7071067811865536790, -0.000000000000000000 ) );
#26259 = VERTEX_POINT ( 'NONE', #10772 );
#26409 = DIRECTION ( 'NONE',  ( -0.000000000000000000, -1.000000000000000000, -0.000000000000000000 ) );
#26453 = LINE ( 'NONE', #6836, #1316 );
#26507 = VECTOR ( 'NONE', #27021, 39.37007874015748143 );
#26526 = VERTEX_POINT ( 'NONE', #18928 );
#26528 = ORIENTED_EDGE ( 'NONE', *, *, #19003, .T. );
#26560 = LINE ( 'NONE', #27026, #3071 );
#26578 = VERTEX_POINT ( 'NONE', #15304 );
#26588 = VECTOR ( 'NONE', #20272, 39.37007874015748854 );
#26672 = DIRECTION ( 'NONE',  ( 9.415659554026806287E-17, -1.000000000000000000, 0.000000000000000000 ) );
#26692 = CARTESIAN_POINT ( 'NONE',  ( 0.1874999999999999722, 0.9599999999999998535, 0.5000000000000000000 ) );
#26701 = CARTESIAN_POINT ( 'NONE',  ( 0.000000000000000000, -0.5000000000000002220, 0.5000000000000000000 ) );
#26713 = ORIENTED_EDGE ( 'NONE', *, *, #24660, .F. );
#26738 = ORIENTED_EDGE ( 'NONE', *, *, #24306, .F. );
#26785 = CIRCLE ( 'NONE', #25800, 0.005000000000000014849 );
#26832 = DIRECTION ( 'NONE',  ( 0.000000000000000000, 0.000000000000000000, 1.000000000000000000 ) );
#26915 = CARTESIAN_POINT ( 'NONE',  ( -0.5000000000000000000, -0.4949999999999998845, 0.5000000000000000000 ) );
#26973 = VERTEX_POINT ( 'NONE', #3579 );
#26997 = ORIENTED_EDGE ( 'NONE', *, *, #25825, .F. );
#27021 = DIRECTION ( 'NONE',  ( 9.415659554026806287E-17, -1.000000000000000000, 0.000000000000000000 ) );
#27022 = CIRCLE ( 'NONE', #12491, 0.005000000000000014849 );
#27026 = CARTESIAN_POINT ( 'NONE',  ( -0.5000000000000000000, -1.000000000000000000, 0.5000000000000000000 ) );
#27065 = DIRECTION ( 'NONE',  ( 1.000000000000000000, 0.000000000000000000, 0.000000000000000000 ) );
#27123 = ORIENTED_EDGE ( 'NONE', *, *, #7001, .F. );
#27127 = EDGE_CURVE ( 'NONE', #19840, #25591, #6186, .T. );
#27225 = VERTEX_POINT ( 'NONE', #18650 );
#27284 = CARTESIAN_POINT ( 'NONE',  ( -0.4327720855862979832, 0.9599999999999999645, 0.5000000000000000000 ) );
#27321 = EDGE_CURVE ( 'NONE', #21784, #228, #17747, .T. );
#27367 = CARTESIAN_POINT ( 'NONE',  ( 0.3749999999999999445, 0.7239559108396115272, 0.5000000000000000000 ) );
#27375 = CARTESIAN_POINT ( 'NONE',  ( 0.000000000000000000, 0.5000000000000000000, 0.5000000000000000000 ) );
#27391 = ORIENTED_EDGE ( 'NONE', *, *, #20384, .F. );
#27440 = LINE ( 'NONE', #13029, #21188 );
#27471 = AXIS2_PLACEMENT_3D ( 'NONE', #28188, #21124, #16281 );
#27495 = VERTEX_POINT ( 'NONE', #25680 );
#27512 = EDGE_CURVE ( 'NONE', #30529, #30421, #2144, .T. );
#27527 = CARTESIAN_POINT ( 'NONE',  ( -0.3749999999999998890, 0.4950000000000000511, 0.5000000000000000000 ) );
#27591 = CARTESIAN_POINT ( 'NONE',  ( 0.000000000000000000, -0.5000000000000002220, 0.5000000000000000000 ) );
#27602 = EDGE_CURVE ( 'NONE', #14726, #2564, #9149, .T. );
#27611 = FACE_OUTER_BOUND ( 'NONE', #26036, .T. );
#27614 = LINE ( 'NONE', #17431, #14146 );
#27664 = EDGE_CURVE ( 'NONE', #8852, #26578, #832, .T. );
#27709 = AXIS2_PLACEMENT_3D ( 'NONE', #16783, #9538, #26025 );
#27771 = VERTEX_POINT ( 'NONE', #26692 );
#27797 = CARTESIAN_POINT ( 'NONE',  ( 0.4327720855862980942, -0.9600000000000001865, 0.5000000000000000000 ) );
#27848 = EDGE_CURVE ( 'NONE', #25554, #14582, #8327, .T. );
#27933 = EDGE_CURVE ( 'NONE', #10499, #1436, #15413, .T. );
#27960 = CARTESIAN_POINT ( 'NONE',  ( 0.000000000000000000, 0.5000000000000000000, 0.5000000000000000000 ) );
#27961 = ORIENTED_EDGE ( 'NONE', *, *, #9145, .F. );
#27966 = CIRCLE ( 'NONE', #27471, 0.02722791441370204027 );
#27983 = CARTESIAN_POINT ( 'NONE',  ( 0.4949999999999999956, -5.141172097148480396E-17, 0.5000000000000000000 ) );
#28071 = CIRCLE ( 'NONE', #26073, 0.005000000000000014849 );
#28127 = ORIENTED_EDGE ( 'NONE', *, *, #13644, .F. );
#28144 = VECTOR ( 'NONE', #9058, 39.37007874015748143 );
#28188 = CARTESIAN_POINT ( 'NONE',  ( -0.4327720855862984273, -0.7597279144137011331, 0.5000000000000000000 ) );
#28193 = AXIS2_PLACEMENT_3D ( 'NONE', #4003, #13602, #6302 );
#28203 = CIRCLE ( 'NONE', #27709, 0.02722791441370217558 );
#28242 = DIRECTION ( 'NONE',  ( 1.000000000000000000, -7.893499027307549447E-16, -0.000000000000000000 ) );
#28252 = VECTOR ( 'NONE', #1744, 39.37007874015748143 );
#28281 = ORIENTED_EDGE ( 'NONE', *, *, #786, .F. );
#28304 = ORIENTED_EDGE ( 'NONE', *, *, #8159, .F. );
#28337 = ( NAMED_UNIT ( * ) SI_UNIT ( $, .STERADIAN. ) SOLID_ANGLE_UNIT ( ) );
#28400 = CARTESIAN_POINT ( 'NONE',  ( -3.607425381479602844E-18, 0.9949999999999998845, 0.5000000000000000000 ) );
#28611 = EDGE_CURVE ( 'NONE', #5148, #14385, #20242, .T. );
#28638 = DIRECTION ( 'NONE',  ( 0.7071067811865523467, 0.7071067811865426878, 0.000000000000000000 ) );
#28662 = DIRECTION ( 'NONE',  ( 0.000000000000000000, 0.000000000000000000, 1.000000000000000000 ) );
#28706 = VERTEX_POINT ( 'NONE', #13873 );
#28721 = EDGE_CURVE ( 'NONE', #17741, #11351, #23132, .T. );
#28864 = CIRCLE ( 'NONE', #10323, 0.005000000000000014849 );
#28881 = CARTESIAN_POINT ( 'NONE',  ( -0.4600000000000004641, -0.9327720855862980942, 0.5000000000000000000 ) );
#28894 = ORIENTED_EDGE ( 'NONE', *, *, #22514, .F. );
#28947 = VECTOR ( 'NONE', #3983, 39.37007874015748143 );
#28970 = CIRCLE ( 'NONE', #5417, 0.4774999999999998690 );
#28986 = VECTOR ( 'NONE', #2905, 39.37007874015748143 );
#29036 = EDGE_CURVE ( 'NONE', #23698, #399, #14744, .T. );
#29037 = LINE ( 'NONE', #7528, #1875 );
#29057 = EDGE_CURVE ( 'NONE', #11114, #30812, #3933, .T. );
#29089 = CIRCLE ( 'NONE', #15069, 0.02722791441370204027 );
#29092 = LINE ( 'NONE', #24405, #15642 );
#29103 = DIRECTION ( 'NONE',  ( -0.7071067811865523467, -0.7071067811865426878, -0.000000000000000000 ) );
#29126 = VECTOR ( 'NONE', #1649, 39.37007874015748143 );
#29178 = VECTOR ( 'NONE', #26202, 39.37007874015748854 );
#29223 = UNCERTAINTY_MEASURE_WITH_UNIT (LENGTH_MEASURE( 1.000000000000000082E-05 ), #14218, 'distance_accuracy_value', 'NONE');
#29302 = VERTEX_POINT ( 'NONE', #7993 );
#29337 = ORIENTED_EDGE ( 'NONE', *, *, #29816, .F. );
#29353 = VECTOR ( 'NONE', #16112, 39.37007874015748854 );
#29377 = CARTESIAN_POINT ( 'NONE',  ( 0.3749999999999999445, 0.4950000000000000511, 0.5000000000000000000 ) );
#29381 = LINE ( 'NONE', #3473, #26507 );
#29390 = ORIENTED_EDGE ( 'NONE', *, *, #27664, .F. );
#29404 = DIRECTION ( 'NONE',  ( 1.000000000000000000, 0.000000000000000000, 0.000000000000000000 ) );
#29429 = VERTEX_POINT ( 'NONE', #18187 );
#29443 = VECTOR ( 'NONE', #1641, 39.37007874015748143 );
#29568 = VERTEX_POINT ( 'NONE', #13957 );
#29591 = VERTEX_POINT ( 'NONE', #2170 );
#29638 = VECTOR ( 'NONE', #19137, 39.37007874015748143 );
#29663 = EDGE_CURVE ( 'NONE', #22230, #15786, #2927, .T. );
#29816 = EDGE_CURVE ( 'NONE', #9321, #10458, #4004, .T. );
#29841 = DIRECTION ( 'NONE',  ( 9.415659554026806287E-17, -1.000000000000000000, 0.000000000000000000 ) );
#29860 = DIRECTION ( 'NONE',  ( -0.000000000000000000, 0.000000000000000000, -1.000000000000000000 ) );
#29877 = ORIENTED_EDGE ( 'NONE', *, *, #8671, .T. );
#29892 = DIRECTION ( 'NONE',  ( 1.000000000000000000, 0.000000000000000000, 0.000000000000000000 ) );
#29951 = CARTESIAN_POINT ( 'NONE',  ( 0.3742774566473986986, 0.7265449965140577948, 0.5000000000000000000 ) );
#29963 = EDGE_CURVE ( 'NONE', #14642, #11263, #7279, .T. );
#29974 = AXIS2_PLACEMENT_3D ( 'NONE', #14316, #30939, #26075 );
#30085 = DIRECTION ( 'NONE',  ( -0.000000000000000000, -1.000000000000000000, -0.000000000000000000 ) );
#30116 = DIRECTION ( 'NONE',  ( 0.000000000000000000, -0.000000000000000000, 1.000000000000000000 ) );
#30153 = EDGE_CURVE ( 'NONE', #9732, #6261, #16350, .T. );
#30205 = CARTESIAN_POINT ( 'NONE',  ( -0.3749999999999999445, -0.4950000000000000511, 0.5000000000000000000 ) );
#30231 = CARTESIAN_POINT ( 'NONE',  ( 0.4327720855862980942, -0.9327720855862980942, 0.5000000000000000000 ) );
#30253 = CIRCLE ( 'NONE', #16735, 0.005000000000000014849 );
#30282 = ORIENTED_EDGE ( 'NONE', *, *, #25025, .F. );
#30284 = EDGE_CURVE ( 'NONE', #1936, #4917, #9416, .T. );
#30327 = VERTEX_POINT ( 'NONE', #7367 );
#30421 = VERTEX_POINT ( 'NONE', #10830 );
#30438 = FACE_BOUND ( 'NONE', #17825, .T. );
#30458 = VECTOR ( 'NONE', #7020, 39.37007874015748143 );
#30464 = DIRECTION ( 'NONE',  ( 1.000000000000000000, 0.000000000000000000, 0.000000000000000000 ) );
#30512 = CARTESIAN_POINT ( 'NONE',  ( -0.1874999999999999722, 0.9549999999999999600, 0.4999999999999973910 ) );
#30515 = ORIENTED_EDGE ( 'NONE', *, *, #6427, .T. );
#30529 = VERTEX_POINT ( 'NONE', #29951 );
#30608 = CARTESIAN_POINT ( 'NONE',  ( -0.3799999999999999489, 0.000000000000000000, 0.5000000000000000000 ) );
#30629 = DIRECTION ( 'NONE',  ( -1.000000000000000000, 0.000000000000000000, 0.000000000000000000 ) );
#30635 = DIRECTION ( 'NONE',  ( 0.7071067811865523467, 0.7071067811865426878, -0.000000000000000000 ) );
#30713 = DIRECTION ( 'NONE',  ( -0.7071067811865474617, 0.7071067811865474617, 0.000000000000000000 ) );
#30738 = LINE ( 'NONE', #26024, #21147 );
#30744 = DIRECTION ( 'NONE',  ( 0.000000000000000000, 0.000000000000000000, 1.000000000000000000 ) );
#30755 = DIRECTION ( 'NONE',  ( 1.000000000000000000, 0.000000000000000000, 0.000000000000000000 ) );
#30761 = AXIS2_PLACEMENT_3D ( 'NONE', #21920, #5120, #14714 );
#30783 = VECTOR ( 'NONE', #10888, 39.37007874015748854 );
#30812 = VERTEX_POINT ( 'NONE', #17692 );
#30828 = ORIENTED_EDGE ( 'NONE', *, *, #15864, .T. );
#30832 = LINE ( 'NONE', #25817, #28947 );
#30848 = LINE ( 'NONE', #9957, #17523 );
#30852 = DIRECTION ( 'NONE',  ( 1.000000000000000000, 0.000000000000000000, 0.000000000000000000 ) );
#30895 = CARTESIAN_POINT ( 'NONE',  ( -0.005000000000000018319, 1.000000000000000000, 0.5000000000000000000 ) );
#30939 = DIRECTION ( 'NONE',  ( 0.000000000000000000, 0.000000000000000000, 1.000000000000000000 ) );
#30943 = CARTESIAN_POINT ( 'NONE',  ( -0.3799999999999999489, 0.000000000000000000, 0.5000000000000000000 ) );
#31005 = EDGE_CURVE ( 'NONE', #26526, #15335, #6515, .T. );
#31079 = ADVANCED_BREP_SHAPE_REPRESENTATION('', (#13510), #11337);
ENDSEC;
END-ISO-10303-21;
