ISO-10303-21;
HEADER;
FILE_DESCRIPTION (( 'STEP AP203' ),
    '1' );
FILE_NAME ('REV-21-3286.STEP',
    '2023-09-25T18:06:49',
    ( '' ),
    ( '' ),
    'SwSTEP 2.0',
    'SolidWorks 2022',
    '' );
FILE_SCHEMA (( 'CONFIG_CONTROL_DESIGN' ));
ENDSEC;

DATA;
#80 = CARTESIAN_POINT ( 'NONE',  ( -0.7457167110488113204, -0.9094258888808833818, 0.000000000000000000 ) );
#622 = EDGE_CURVE ( 'NONE', #43908, #69327, #150131, .T. );
#917 = ORIENTED_EDGE ( 'NONE', *, *, #95834, .F. );
#1283 = ORIENTED_EDGE ( 'NONE', *, *, #72704, .F. );
#3008 = VERTEX_POINT ( 'NONE', #21969 );
#3439 = DIRECTION ( 'NONE',  ( 0.000000000000000000, -0.000000000000000000, -1.000000000000000000 ) );
#4383 = ORIENTED_EDGE ( 'NONE', *, *, #143622, .F. );
#5905 = ORIENTED_EDGE ( 'NONE', *, *, #169144, .F. );
#6071 = CARTESIAN_POINT ( 'NONE',  ( -0.7239559322432492783, 0.8750000000000001110, 0.000000000000000000 ) );
#6084 = LINE ( 'NONE', #115533, #38935 );
#6104 = VERTEX_POINT ( 'NONE', #92736 );
#6674 = VERTEX_POINT ( 'NONE', #54210 );
#7453 = VERTEX_POINT ( 'NONE', #62784 );
#7454 = ORIENTED_EDGE ( 'NONE', *, *, #171921, .F. );
#7914 = VERTEX_POINT ( 'NONE', #28424 );
#8103 = ORIENTED_EDGE ( 'NONE', *, *, #171776, .T. );
#8142 = ADVANCED_FACE ( 'NONE', ( #45275, #99558, #168186, #70197, #124544, #56872 ), #84402, .F. );
#8589 = ( NAMED_UNIT ( * ) SI_UNIT ( $, .STERADIAN. ) SOLID_ANGLE_UNIT ( ) );
#8697 = CARTESIAN_POINT ( 'NONE',  ( -0.7597279200000000010, -0.9327720899999998316, 0.000000000000000000 ) );
#9101 = EDGE_CURVE ( 'NONE', #157387, #88363, #77009, .T. );
#9407 = VECTOR ( 'NONE', #62138, 39.37007874015748143 );
#9688 = DIRECTION ( 'NONE',  ( 0.000000000000000000, 1.000000000000000000, 0.000000000000000000 ) );
#9905 = VERTEX_POINT ( 'NONE', #83797 );
#11571 = CARTESIAN_POINT ( 'NONE',  ( -0.7239559322432492783, -0.8750000000000001110, 0.000000000000000000 ) );
#11822 = DIRECTION ( 'NONE',  ( 0.000000000000000000, -0.000000000000000000, -1.000000000000000000 ) );
#13017 = DIRECTION ( 'NONE',  ( 0.000000000000000000, 0.000000000000000000, 1.000000000000000000 ) );
#13514 = CARTESIAN_POINT ( 'NONE',  ( -0.5000000080704162242, 0.5000000080704158911, 0.000000000000000000 ) );
#13634 = AXIS2_PLACEMENT_3D ( 'NONE', #142377, #32006, #152230 );
#13661 = CIRCLE ( 'NONE', #121664, 0.4775000000000000355 );
#14781 = CARTESIAN_POINT ( 'NONE',  ( 0.5000000080704162242, 0.5000000080704158911, 0.000000000000000000 ) );
#15428 = DIRECTION ( 'NONE',  ( -0.000000000000000000, 1.000000000000000000, -0.000000000000000000 ) );
#15764 = VERTEX_POINT ( 'NONE', #83562 );
#15841 = DIRECTION ( 'NONE',  ( -1.000000000000000000, 0.000000000000000000, 0.000000000000000000 ) );
#16963 = CARTESIAN_POINT ( 'NONE',  ( -0.8699999999999998845, -0.7239559322432498334, 0.000000000000000000 ) );
#17434 = DIRECTION ( 'NONE',  ( 1.000000000000000000, 0.000000000000000000, 0.000000000000000000 ) );
#18136 = CARTESIAN_POINT ( 'NONE',  ( 0.8749999999999997780, 0.7239559322432498334, 0.000000000000000000 ) );
#18257 = ORIENTED_EDGE ( 'NONE', *, *, #59505, .F. );
#18561 = CARTESIAN_POINT ( 'NONE',  ( -0.9327720899999999427, 0.9327720899999998316, 0.000000000000000000 ) );
#19540 = VERTEX_POINT ( 'NONE', #170989 );
#19560 = VERTEX_POINT ( 'NONE', #159375 );
#19947 = DIRECTION ( 'NONE',  ( -1.000000000000000000, 0.000000000000000000, 0.000000000000000000 ) );
#20108 = CARTESIAN_POINT ( 'NONE',  ( 0.7239559322432492783, 0.8750000000000001110, 0.000000000000000000 ) );
#20247 = VECTOR ( 'NONE', #35992, 39.37007874015748143 );
#20312 = EDGE_CURVE ( 'NONE', #6104, #21564, #87438, .T. );
#21564 = VERTEX_POINT ( 'NONE', #111105 );
#21613 = EDGE_CURVE ( 'NONE', #58606, #163029, #170137, .T. );
#21929 = DIRECTION ( 'NONE',  ( -0.000000000000000000, -1.000000000000000000, -0.000000000000000000 ) );
#21969 = CARTESIAN_POINT ( 'NONE',  ( 0.9094258888808833818, 0.7457167110488114314, 0.000000000000000000 ) );
#22906 = VERTEX_POINT ( 'NONE', #30341 );
#23351 = VERTEX_POINT ( 'NONE', #49435 );
#23706 = AXIS2_PLACEMENT_3D ( 'NONE', #118487, #62420, #159479 );
#23733 = ORIENTED_EDGE ( 'NONE', *, *, #142606, .F. );
#24525 = CARTESIAN_POINT ( 'NONE',  ( 0.9599999999999999645, 0.9327720899999998316, 0.000000000000000000 ) );
#25025 = DIRECTION ( 'NONE',  ( 1.000000000000000000, 0.000000000000000000, 0.000000000000000000 ) );
#25228 = ORIENTED_EDGE ( 'NONE', *, *, #34612, .F. );
#25471 = EDGE_CURVE ( 'NONE', #158106, #23351, #56310, .T. );
#26184 = CARTESIAN_POINT ( 'NONE',  ( -0.7597279200000000010, 0.9327720899999998316, 0.000000000000000000 ) );
#26367 = LINE ( 'NONE', #96607, #46335 );
#26852 = DIRECTION ( 'NONE',  ( 1.000000000000000000, 0.000000000000000000, 0.000000000000000000 ) );
#27146 = ORIENTED_EDGE ( 'NONE', *, *, #622, .T. );
#27169 = AXIS2_PLACEMENT_3D ( 'NONE', #18561, #167223, #45209 );
#27365 = ORIENTED_EDGE ( 'NONE', *, *, #110295, .F. );
#27429 = CARTESIAN_POINT ( 'NONE',  ( 0.5000000080704162242, 0.5000000080704158911, 0.000000000000000000 ) );
#27816 = EDGE_CURVE ( 'NONE', #122769, #19560, #52728, .T. );
#27851 = DIRECTION ( 'NONE',  ( 1.000000000000000000, 0.000000000000000000, 0.000000000000000000 ) );
#28271 = ORIENTED_EDGE ( 'NONE', *, *, #34827, .F. );
#28287 = CIRCLE ( 'NONE', #156187, 0.004999999999999946328 );
#28414 = DIRECTION ( 'NONE',  ( 1.000000000000000000, 0.000000000000000000, 0.000000000000000000 ) );
#28424 = CARTESIAN_POINT ( 'NONE',  ( 0.9327720899999999427, -0.9599999999999998535, 0.000000000000000000 ) );
#28472 = ORIENTED_EDGE ( 'NONE', *, *, #72875, .T. );
#28589 = EDGE_CURVE ( 'NONE', #23351, #19540, #137440, .T. );
#28999 = DIRECTION ( 'NONE',  ( 1.000000000000000000, 0.000000000000000000, 0.000000000000000000 ) );
#29056 = DIRECTION ( 'NONE',  ( 0.000000000000000000, 0.000000000000000000, 1.000000000000000000 ) );
#29491 = CARTESIAN_POINT ( 'NONE',  ( 0.9327720899999999427, 0.9599999999999998535, 0.000000000000000000 ) );
#29885 = CARTESIAN_POINT ( 'NONE',  ( -0.7597279200000000010, -0.9327720899999998316, 0.000000000000000000 ) );
#30211 = AXIS2_PLACEMENT_3D ( 'NONE', #107296, #143916, #146534 );
#30341 = CARTESIAN_POINT ( 'NONE',  ( -0.7457167110488116535, 0.9094258888808832708, 0.000000000000000000 ) );
#31453 = DIRECTION ( 'NONE',  ( -1.000000000000000000, -0.000000000000000000, -0.000000000000000000 ) );
#32006 = DIRECTION ( 'NONE',  ( 0.000000000000000000, -0.000000000000000000, -1.000000000000000000 ) );
#34003 = LINE ( 'NONE', #142635, #76715 );
#34393 = CIRCLE ( 'NONE', #162388, 0.02722791000000002529 );
#34399 = ( NAMED_UNIT ( * ) PLANE_ANGLE_UNIT ( ) SI_UNIT ( $, .RADIAN. ) );
#34612 = EDGE_CURVE ( 'NONE', #96474, #104967, #147255, .T. );
#34827 = EDGE_CURVE ( 'NONE', #64731, #163029, #96255, .T. );
#34911 = CARTESIAN_POINT ( 'NONE',  ( 0.7265450180718369122, -0.8742774565540993859, 0.000000000000000000 ) );
#34941 = VERTEX_POINT ( 'NONE', #152275 );
#35305 = CARTESIAN_POINT ( 'NONE',  ( 0.8749999999999997780, 0.7253469762168995860, 0.000000000000000000 ) );
#35674 = EDGE_CURVE ( 'NONE', #43908, #88363, #101829, .T. );
#35899 = CARTESIAN_POINT ( 'NONE',  ( 0.9327720899999999427, 0.7597279199999998900, 0.000000000000000000 ) );
#35992 = DIRECTION ( 'NONE',  ( -1.000000000000000000, -0.000000000000000000, -0.000000000000000000 ) );
#36624 = CARTESIAN_POINT ( 'NONE',  ( 0.5000000080704162242, -0.5000000080704158911, 0.000000000000000000 ) );
#37145 = AXIS2_PLACEMENT_3D ( 'NONE', #138775, #55981, #28414 );
#37920 = AXIS2_PLACEMENT_3D ( 'NONE', #139148, #44757, #58119 );
#38596 = EDGE_CURVE ( 'NONE', #171348, #153887, #74670, .T. );
#38935 = VECTOR ( 'NONE', #72769, 39.37007874015748143 );
#39295 = CARTESIAN_POINT ( 'NONE',  ( -0.9327720899999999427, -0.9327720899999998316, 0.000000000000000000 ) );
#40112 = AXIS2_PLACEMENT_3D ( 'NONE', #26184, #52860, #161513 );
#40530 = EDGE_LOOP ( 'NONE', ( #54786, #97741, #160990, #130989, #1283, #103665, #4383 ) );
#40560 = DIRECTION ( 'NONE',  ( -0.000000000000000000, 1.000000000000000000, -0.000000000000000000 ) );
#40639 = CARTESIAN_POINT ( 'NONE',  ( -0.5000000080704162242, -0.5000000080704158911, 0.000000000000000000 ) );
#40993 = CIRCLE ( 'NONE', #63759, 0.004999999999999946328 );
#41801 = LINE ( 'NONE', #121097, #99529 );
#42444 = VERTEX_POINT ( 'NONE', #149118 );
#42839 = AXIS2_PLACEMENT_3D ( 'NONE', #29885, #84982, #17434 );
#43611 = CIRCLE ( 'NONE', #23706, 0.02722791000000002529 );
#43830 = EDGE_CURVE ( 'NONE', #104803, #122239, #85780, .T. );
#43908 = VERTEX_POINT ( 'NONE', #46651 );
#44212 = AXIS2_PLACEMENT_3D ( 'NONE', #115991, #102614, #169471 );
#44405 = CARTESIAN_POINT ( 'NONE',  ( -0.8699999999999998845, 0.7239559322432497224, 0.000000000000000000 ) );
#44576 = LINE ( 'NONE', #29491, #118546 );
#44757 = DIRECTION ( 'NONE',  ( 0.000000000000000000, 0.000000000000000000, 1.000000000000000000 ) );
#45209 = DIRECTION ( 'NONE',  ( -1.000000000000000000, 0.000000000000000000, 0.000000000000000000 ) );
#45275 = FACE_BOUND ( 'NONE', #164674, .T. );
#45764 = CARTESIAN_POINT ( 'NONE',  ( -0.9599999999999999645, 0.7597279199999998900, 0.000000000000000000 ) );
#45773 = AXIS2_PLACEMENT_3D ( 'NONE', #130240, #129384, #19947 );
#46156 = ORIENTED_EDGE ( 'NONE', *, *, #112469, .F. );
#46164 = CARTESIAN_POINT ( 'NONE',  ( 0.000000000000000000, 0.000000000000000000, 0.000000000000000000 ) );
#46335 = VECTOR ( 'NONE', #40560, 39.37007874015748143 );
#46651 = CARTESIAN_POINT ( 'NONE',  ( 0.8742774565540989418, 0.7265450180718375783, 0.000000000000000000 ) );
#47248 = CIRCLE ( 'NONE', #30211, 0.4375000000000001665 );
#49435 = CARTESIAN_POINT ( 'NONE',  ( 1.000000000000000000, 0.9999999999999998890, 0.000000000000000000 ) );
#50984 = DIRECTION ( 'NONE',  ( -1.000000000000000000, 0.000000000000000000, 0.000000000000000000 ) );
#51052 = CARTESIAN_POINT ( 'NONE',  ( 0.7457167110488116535, 0.9094258888808830488, 0.000000000000000000 ) );
#52728 = CIRCLE ( 'NONE', #152267, 0.02722791000000002529 );
#52860 = DIRECTION ( 'NONE',  ( 0.000000000000000000, 0.000000000000000000, 1.000000000000000000 ) );
#53022 = EDGE_CURVE ( 'NONE', #58606, #69327, #113668, .T. );
#53111 = DIRECTION ( 'NONE',  ( 0.000000000000000000, 0.000000000000000000, 1.000000000000000000 ) );
#54210 = CARTESIAN_POINT ( 'NONE',  ( -0.9599999999999999645, -0.9327720899999998316, 0.000000000000000000 ) );
#54501 = AXIS2_PLACEMENT_3D ( 'NONE', #16963, #125551, #121382 );
#54786 = ORIENTED_EDGE ( 'NONE', *, *, #95750, .F. );
#55981 = DIRECTION ( 'NONE',  ( 0.000000000000000000, 0.000000000000000000, 1.000000000000000000 ) );
#56310 = LINE ( 'NONE', #69644, #117317 );
#56491 = CIRCLE ( 'NONE', #110499, 0.02722791000000002529 );
#56872 = FACE_OUTER_BOUND ( 'NONE', #97915, .T. );
#57180 = CARTESIAN_POINT ( 'NONE',  ( 0.5000000080704162242, -0.5000000080704158911, 0.000000000000000000 ) );
#57212 = EDGE_LOOP ( 'NONE', ( #27365, #158354, #917, #119531, #147217, #125858 ) );
#58119 = DIRECTION ( 'NONE',  ( 1.000000000000000000, 0.000000000000000000, 0.000000000000000000 ) );
#58181 = EDGE_CURVE ( 'NONE', #19540, #164895, #77027, .T. );
#58381 = CARTESIAN_POINT ( 'NONE',  ( 0.7239559322432492783, -0.8750000000000001110, 0.000000000000000000 ) );
#58606 = VERTEX_POINT ( 'NONE', #87547 );
#59359 = VERTEX_POINT ( 'NONE', #139513 );
#59505 = EDGE_CURVE ( 'NONE', #148046, #78375, #47248, .T. );
#61256 = AXIS2_PLACEMENT_3D ( 'NONE', #69013, #68131, #28999 );
#61829 = EDGE_CURVE ( 'NONE', #104967, #15764, #43611, .T. );
#61989 = VERTEX_POINT ( 'NONE', #80 );
#62138 = DIRECTION ( 'NONE',  ( 1.000000000000000000, -0.000000000000000000, -0.000000000000000000 ) );
#62420 = DIRECTION ( 'NONE',  ( 0.000000000000000000, 0.000000000000000000, 1.000000000000000000 ) );
#62543 = DIRECTION ( 'NONE',  ( -1.000000000000000000, 0.000000000000000000, 0.000000000000000000 ) );
#62784 = CARTESIAN_POINT ( 'NONE',  ( -0.9094258888808833818, -0.7457167110488114314, 0.000000000000000000 ) );
#62813 = CIRCLE ( 'NONE', #42839, 0.02722791000000002529 );
#63292 = VERTEX_POINT ( 'NONE', #51052 );
#63759 = AXIS2_PLACEMENT_3D ( 'NONE', #172998, #11822, #50984 );
#64234 = VECTOR ( 'NONE', #170746, 39.37007874015748143 );
#64731 = VERTEX_POINT ( 'NONE', #34911 );
#67251 = ORIENTED_EDGE ( 'NONE', *, *, #21613, .T. );
#67753 = DIRECTION ( 'NONE',  ( -0.000000000000000000, -0.000000000000000000, -1.000000000000000000 ) );
#68131 = DIRECTION ( 'NONE',  ( 0.000000000000000000, 0.000000000000000000, 1.000000000000000000 ) );
#68843 = CARTESIAN_POINT ( 'NONE',  ( -1.000000000000000000, 0.9999999999999998890, 0.000000000000000000 ) );
#68873 = CARTESIAN_POINT ( 'NONE',  ( 0.9599999999999999645, 0.7597279199999998900, 0.000000000000000000 ) );
#69013 = CARTESIAN_POINT ( 'NONE',  ( -0.5000000080704161132, 0.5000000080704162242, 0.000000000000000000 ) );
#69327 = VERTEX_POINT ( 'NONE', #18136 );
#69644 = CARTESIAN_POINT ( 'NONE',  ( 1.000000000000000000, 0.9999999999999998890, 0.000000000000000000 ) );
#70197 = FACE_BOUND ( 'NONE', #151744, .T. );
#71024 = AXIS2_PLACEMENT_3D ( 'NONE', #46164, #71062, #125429 );
#71062 = DIRECTION ( 'NONE',  ( 0.000000000000000000, 0.000000000000000000, -1.000000000000000000 ) );
#71182 = ORIENTED_EDGE ( 'NONE', *, *, #53022, .F. );
#71878 = CARTESIAN_POINT ( 'NONE',  ( 0.8699999999999998845, -0.7239559322432498334, 0.000000000000000000 ) );
#72357 = VECTOR ( 'NONE', #21929, 39.37007874015748143 );
#72704 = EDGE_CURVE ( 'NONE', #21564, #140599, #111719, .T. );
#72769 = DIRECTION ( 'NONE',  ( 1.000000000000000000, 1.365923996832131609E-16, -0.000000000000000000 ) );
#72875 = EDGE_CURVE ( 'NONE', #148046, #146793, #97055, .T. );
#73269 = CARTESIAN_POINT ( 'NONE',  ( -0.8742774565540992748, 0.7265450180718373563, 0.000000000000000000 ) );
#74607 = DIRECTION ( 'NONE',  ( 0.000000000000000000, -0.000000000000000000, -1.000000000000000000 ) );
#74670 = LINE ( 'NONE', #89782, #93712 );
#74922 = DIRECTION ( 'NONE',  ( -1.000000000000000000, -0.000000000000000000, -0.000000000000000000 ) );
#74982 = VERTEX_POINT ( 'NONE', #121591 );
#75636 = ORIENTED_EDGE ( 'NONE', *, *, #9101, .T. );
#75899 = CARTESIAN_POINT ( 'NONE',  ( -0.7239559322432492783, -0.8700000000000001066, 0.000000000000000000 ) );
#76335 = LINE ( 'NONE', #129798, #9407 );
#76522 = EDGE_CURVE ( 'NONE', #140599, #104803, #132379, .T. );
#76715 = VECTOR ( 'NONE', #74922, 39.37007874015748143 );
#77009 = CIRCLE ( 'NONE', #45773, 0.004999999999999946328 );
#77027 = LINE ( 'NONE', #130475, #72357 );
#78046 = DIRECTION ( 'NONE',  ( -1.000000000000000000, 0.000000000000000000, 0.000000000000000000 ) );
#78375 = VERTEX_POINT ( 'NONE', #91987 );
#78619 = CARTESIAN_POINT ( 'NONE',  ( -0.9327720899999999427, -0.9599999999999998535, 0.000000000000000000 ) );
#79056 = DIRECTION ( 'NONE',  ( 0.000000000000000000, -1.000000000000000000, 0.000000000000000000 ) );
#79800 = CARTESIAN_POINT ( 'NONE',  ( 0.7597279200000000010, 0.9327720899999998316, 0.000000000000000000 ) );
#80449 = CARTESIAN_POINT ( 'NONE',  ( 0.9327720899999999427, 0.9599999999999998535, 0.000000000000000000 ) );
#81320 = EDGE_CURVE ( 'NONE', #64731, #170859, #110904, .T. );
#81439 = EDGE_CURVE ( 'NONE', #6674, #42444, #164974, .T. );
#81536 = DIRECTION ( 'NONE',  ( 1.000000000000000000, 0.000000000000000000, 0.000000000000000000 ) );
#81592 = CIRCLE ( 'NONE', #132855, 0.02722791000000002529 );
#82538 = DIRECTION ( 'NONE',  ( -0.000000000000000000, -0.000000000000000000, -1.000000000000000000 ) );
#83562 = CARTESIAN_POINT ( 'NONE',  ( 0.7597279200000001120, -0.9599999999999998535, 0.000000000000000000 ) );
#83797 = CARTESIAN_POINT ( 'NONE',  ( -0.8749999999999997780, 0.7239559322432497224, 0.000000000000000000 ) );
#84103 = ORIENTED_EDGE ( 'NONE', *, *, #147893, .F. );
#84240 = ORIENTED_EDGE ( 'NONE', *, *, #162980, .F. );
#84325 = CARTESIAN_POINT ( 'NONE',  ( -1.000000000000000000, -1.000000000000000222, 0.000000000000000000 ) );
#84402 = PLANE ( 'NONE',  #71024 );
#84799 = UNCERTAINTY_MEASURE_WITH_UNIT (LENGTH_MEASURE( 1.000000000000000082E-05 ), #116287, 'distance_accuracy_value', 'NONE');
#84982 = DIRECTION ( 'NONE',  ( 0.000000000000000000, 0.000000000000000000, 1.000000000000000000 ) );
#85780 = LINE ( 'NONE', #45764, #101041 );
#86007 = ORIENTED_EDGE ( 'NONE', *, *, #58181, .T. );
#87124 = AXIS2_PLACEMENT_3D ( 'NONE', #27429, #82538, #15841 );
#87354 = EDGE_CURVE ( 'NONE', #9905, #146793, #117277, .T. );
#87384 = VERTEX_POINT ( 'NONE', #6071 );
#87438 = CIRCLE ( 'NONE', #115581, 0.02722791000000002529 );
#87547 = CARTESIAN_POINT ( 'NONE',  ( 0.8749999999999997780, -0.7239559322432499444, 0.000000000000000000 ) );
#88157 = AXIS2_PLACEMENT_3D ( 'NONE', #118571, #141791, #172909 );
#88363 = VERTEX_POINT ( 'NONE', #130182 );
#88387 = EDGE_CURVE ( 'NONE', #7914, #34941, #81592, .T. );
#88789 = EDGE_CURVE ( 'NONE', #61989, #7453, #13661, .T. );
#88828 = EDGE_CURVE ( 'NONE', #59359, #63292, #110208, .T. );
#89579 = CARTESIAN_POINT ( 'NONE',  ( -0.9327720899999999427, 0.9599999999999998535, 0.000000000000000000 ) );
#89782 = CARTESIAN_POINT ( 'NONE',  ( 0.9599999999999999645, 0.7597279199999998900, 0.000000000000000000 ) );
#90073 = ORIENTED_EDGE ( 'NONE', *, *, #81320, .T. );
#90666 = DIRECTION ( 'NONE',  ( 0.000000000000000000, 0.000000000000000000, 1.000000000000000000 ) );
#90907 = VERTEX_POINT ( 'NONE', #80449 );
#91303 = ( LENGTH_UNIT ( ) NAMED_UNIT ( * ) SI_UNIT ( $, .METRE. ) );
#91576 = CARTESIAN_POINT ( 'NONE',  ( -0.9599999999999999645, -0.7597279199999998900, 0.000000000000000000 ) );
#91870 = EDGE_CURVE ( 'NONE', #122239, #118666, #116842, .T. );
#91987 = CARTESIAN_POINT ( 'NONE',  ( -0.7265450180718369122, -0.8742774565540993859, 0.000000000000000000 ) );
#92736 = CARTESIAN_POINT ( 'NONE',  ( -0.7325000099999999792, 0.9327720899999998316, 0.000000000000000000 ) );
#93575 = DIRECTION ( 'NONE',  ( 0.000000000000000000, 0.000000000000000000, 1.000000000000000000 ) );
#93712 = VECTOR ( 'NONE', #9688, 39.37007874015748143 );
#93888 = ORIENTED_EDGE ( 'NONE', *, *, #130888, .F. );
#94072 = DIRECTION ( 'NONE',  ( -0.000000000000000000, -0.000000000000000000, -1.000000000000000000 ) );
#95750 = EDGE_CURVE ( 'NONE', #118666, #22906, #104277, .T. );
#95771 = AXIS2_PLACEMENT_3D ( 'NONE', #13514, #67753, #109605 );
#95834 = EDGE_CURVE ( 'NONE', #90907, #59359, #44576, .T. );
#96255 = CIRCLE ( 'NONE', #130315, 0.4375000000000001665 );
#96474 = VERTEX_POINT ( 'NONE', #160061 );
#96607 = CARTESIAN_POINT ( 'NONE',  ( 0.9599999999999999645, -0.7597279199999998900, 0.000000000000000000 ) );
#97055 = CIRCLE ( 'NONE', #54501, 0.004999999999999946328 );
#97741 = ORIENTED_EDGE ( 'NONE', *, *, #91870, .F. );
#97915 = EDGE_LOOP ( 'NONE', ( #106473, #170262, #86007, #166328 ) );
#98190 = CIRCLE ( 'NONE', #44212, 0.02722791000000002529 );
#99529 = VECTOR ( 'NONE', #149575, 39.37007874015748143 );
#99558 = FACE_BOUND ( 'NONE', #174424, .T. );
#100047 = DIRECTION ( 'NONE',  ( -0.000000000000000000, -1.000000000000000000, -0.000000000000000000 ) );
#101041 = VECTOR ( 'NONE', #100047, 39.37007874015748143 );
#101244 = CARTESIAN_POINT ( 'NONE',  ( -0.7597279200000001120, -0.9599999999999998535, 0.000000000000000000 ) );
#101829 = CIRCLE ( 'NONE', #161628, 0.4375000000000001665 );
#102614 = DIRECTION ( 'NONE',  ( 0.000000000000000000, 0.000000000000000000, 1.000000000000000000 ) );
#103665 = ORIENTED_EDGE ( 'NONE', *, *, #20312, .F. );
#104277 = CIRCLE ( 'NONE', #95771, 0.4774999999999999800 );
#104803 = VERTEX_POINT ( 'NONE', #155596 );
#104967 = VERTEX_POINT ( 'NONE', #133205 );
#105817 = ORIENTED_EDGE ( 'NONE', *, *, #87354, .F. );
#106473 = ORIENTED_EDGE ( 'NONE', *, *, #25471, .T. );
#106694 = LINE ( 'NONE', #91576, #153667 );
#107296 = CARTESIAN_POINT ( 'NONE',  ( -0.5000000080704162242, -0.5000000080704158911, 0.000000000000000000 ) );
#107417 = AXIS2_PLACEMENT_3D ( 'NONE', #79800, #53111, #81536 );
#107513 = AXIS2_PLACEMENT_3D ( 'NONE', #71878, #3439, #152970 );
#108157 = EDGE_CURVE ( 'NONE', #134809, #160258, #146546, .T. );
#108316 = ORIENTED_EDGE ( 'NONE', *, *, #88789, .F. );
#108459 = CARTESIAN_POINT ( 'NONE',  ( -0.8749999999999997780, -0.7239559322432499444, 0.000000000000000000 ) );
#109605 = DIRECTION ( 'NONE',  ( 1.000000000000000000, 0.000000000000000000, 0.000000000000000000 ) );
#110208 = CIRCLE ( 'NONE', #107417, 0.02722791000000002529 );
#110266 = CIRCLE ( 'NONE', #87124, 0.4774999999999999800 );
#110295 = EDGE_CURVE ( 'NONE', #63292, #3008, #110266, .T. );
#110499 = AXIS2_PLACEMENT_3D ( 'NONE', #157554, #90666, #158411 );
#110843 = DIRECTION ( 'NONE',  ( -1.000000000000000000, 0.000000000000000000, 0.000000000000000000 ) );
#110904 = CIRCLE ( 'NONE', #88157, 0.004999999999999946328 );
#110994 = ORIENTED_EDGE ( 'NONE', *, *, #152851, .T. );
#111105 = CARTESIAN_POINT ( 'NONE',  ( -0.7597279200000001120, 0.9599999999999998535, 0.000000000000000000 ) );
#111361 = DIRECTION ( 'NONE',  ( -1.000000000000000000, 0.000000000000000000, 0.000000000000000000 ) );
#111654 = CIRCLE ( 'NONE', #162941, 0.004999999999999946328 );
#111719 = LINE ( 'NONE', #117020, #20247 );
#112469 = EDGE_CURVE ( 'NONE', #125216, #96474, #56491, .T. );
#113668 = LINE ( 'NONE', #35305, #142348 );
#115530 = DIRECTION ( 'NONE',  ( 0.000000000000000000, 0.000000000000000000, 1.000000000000000000 ) );
#115533 = CARTESIAN_POINT ( 'NONE',  ( 1.000000000000000000, -0.9999999999999998890, 0.000000000000000000 ) );
#115581 = AXIS2_PLACEMENT_3D ( 'NONE', #151043, #29056, #124299 );
#115586 = EDGE_CURVE ( 'NONE', #34941, #125216, #26367, .T. );
#115991 = CARTESIAN_POINT ( 'NONE',  ( -0.9327720899999999427, -0.7597279199999998900, 0.000000000000000000 ) );
#116287 = ( CONVERSION_BASED_UNIT ( 'INCH', #133133 ) LENGTH_UNIT ( ) NAMED_UNIT ( #133324 ) );
#116842 = CIRCLE ( 'NONE', #37145, 0.02722791000000002529 );
#116926 = DIRECTION ( 'NONE',  ( -1.000000000000000000, 0.000000000000000000, 0.000000000000000000 ) );
#117020 = CARTESIAN_POINT ( 'NONE',  ( -0.9327720899999999427, 0.9599999999999998535, 0.000000000000000000 ) );
#117277 = LINE ( 'NONE', #143136, #64234 );
#117284 = DIRECTION ( 'NONE',  ( 1.000000000000000000, 0.000000000000000000, 0.000000000000000000 ) );
#117317 = VECTOR ( 'NONE', #15428, 39.37007874015748143 );
#118487 = CARTESIAN_POINT ( 'NONE',  ( 0.7597279200000000010, -0.9327720899999998316, 0.000000000000000000 ) );
#118546 = VECTOR ( 'NONE', #111361, 39.37007874015748143 );
#118571 = CARTESIAN_POINT ( 'NONE',  ( 0.7239559322432492783, -0.8700000000000001066, 0.000000000000000000 ) );
#118666 = VERTEX_POINT ( 'NONE', #137748 );
#119531 = ORIENTED_EDGE ( 'NONE', *, *, #156690, .F. );
#121097 = CARTESIAN_POINT ( 'NONE',  ( -0.7253469762168991419, -0.8750000000000001110, 0.000000000000000000 ) );
#121293 = ORIENTED_EDGE ( 'NONE', *, *, #27816, .F. );
#121382 = DIRECTION ( 'NONE',  ( -1.000000000000000000, 0.000000000000000000, 0.000000000000000000 ) );
#121589 = ORIENTED_EDGE ( 'NONE', *, *, #115586, .F. );
#121591 = CARTESIAN_POINT ( 'NONE',  ( -0.9599999999999999645, -0.7597279199999998900, 0.000000000000000000 ) );
#121664 = AXIS2_PLACEMENT_3D ( 'NONE', #40639, #94072, #78046 );
#121944 = EDGE_CURVE ( 'NONE', #42444, #122769, #168064, .T. );
#122239 = VERTEX_POINT ( 'NONE', #143536 );
#122769 = VERTEX_POINT ( 'NONE', #101244 );
#123108 = DIRECTION ( 'NONE',  ( -0.000000000000000000, -0.000000000000000000, -1.000000000000000000 ) );
#124299 = DIRECTION ( 'NONE',  ( -1.000000000000000000, 0.000000000000000000, 0.000000000000000000 ) );
#124544 = FACE_BOUND ( 'NONE', #40530, .T. );
#125216 = VERTEX_POINT ( 'NONE', #151500 );
#125429 = DIRECTION ( 'NONE',  ( -1.000000000000000000, 0.000000000000000000, -0.000000000000000000 ) );
#125551 = DIRECTION ( 'NONE',  ( 0.000000000000000000, -0.000000000000000000, -1.000000000000000000 ) );
#125858 = ORIENTED_EDGE ( 'NONE', *, *, #154226, .F. );
#125985 = CIRCLE ( 'NONE', #37920, 0.02722791000000002529 );
#127936 = DIRECTION ( 'NONE',  ( 1.000000000000000000, 0.000000000000000000, 0.000000000000000000 ) );
#128065 = DIRECTION ( 'NONE',  ( -1.000000000000000000, 0.000000000000000000, 0.000000000000000000 ) );
#129365 = DIRECTION ( 'NONE',  ( 0.000000000000000000, -0.000000000000000000, -1.000000000000000000 ) );
#129384 = DIRECTION ( 'NONE',  ( 0.000000000000000000, -0.000000000000000000, -1.000000000000000000 ) );
#129388 = DIRECTION ( 'NONE',  ( 0.000000000000000000, 0.000000000000000000, 1.000000000000000000 ) );
#129798 = CARTESIAN_POINT ( 'NONE',  ( 0.9327720899999999427, -0.9599999999999998535, 0.000000000000000000 ) );
#130021 = ORIENTED_EDGE ( 'NONE', *, *, #61829, .F. );
#130182 = CARTESIAN_POINT ( 'NONE',  ( 0.7265450180718369122, 0.8742774565540993859, 0.000000000000000000 ) );
#130240 = CARTESIAN_POINT ( 'NONE',  ( 0.7239559322432492783, 0.8700000000000001066, 0.000000000000000000 ) );
#130315 = AXIS2_PLACEMENT_3D ( 'NONE', #36624, #146998, #25025 );
#130443 = ORIENTED_EDGE ( 'NONE', *, *, #121944, .F. );
#130475 = CARTESIAN_POINT ( 'NONE',  ( -1.000000000000000000, -1.000000000000000222, 0.000000000000000000 ) );
#130888 = EDGE_CURVE ( 'NONE', #7453, #74982, #98190, .T. );
#130989 = ORIENTED_EDGE ( 'NONE', *, *, #76522, .F. );
#131085 = DIRECTION ( 'NONE',  ( 0.000000000000000000, 0.000000000000000000, 1.000000000000000000 ) );
#131121 = DIRECTION ( 'NONE',  ( -1.000000000000000000, 0.000000000000000000, 0.000000000000000000 ) );
#131603 = VERTEX_POINT ( 'NONE', #11571 );
#132145 = CARTESIAN_POINT ( 'NONE',  ( -0.8742774565540989418, -0.7265450180718375783, 0.000000000000000000 ) );
#132379 = CIRCLE ( 'NONE', #27169, 0.02722791000000002529 );
#132855 = AXIS2_PLACEMENT_3D ( 'NONE', #162882, #131085, #62543 );
#133133 = LENGTH_MEASURE_WITH_UNIT ( LENGTH_MEASURE( 0.02539999999999999897 ), #91303 );
#133205 = CARTESIAN_POINT ( 'NONE',  ( 0.7457167110488116535, -0.9094258888808832708, 0.000000000000000000 ) );
#133324 = DIMENSIONAL_EXPONENTS ( 1.000000000000000000, 0.000000000000000000, 0.000000000000000000, 0.000000000000000000, 0.000000000000000000, 0.000000000000000000, 0.000000000000000000 );
#134600 = CARTESIAN_POINT ( 'NONE',  ( 1.000000000000000000, -0.9999999999999998890, 0.000000000000000000 ) );
#134809 = VERTEX_POINT ( 'NONE', #173581 );
#136471 = AXIS2_PLACEMENT_3D ( 'NONE', #39295, #93575, #26852 );
#137440 = LINE ( 'NONE', #68843, #145418 );
#137748 = CARTESIAN_POINT ( 'NONE',  ( -0.9094258888808833818, 0.7457167110488114314, 0.000000000000000000 ) );
#138775 = CARTESIAN_POINT ( 'NONE',  ( -0.9327720899999999427, 0.7597279199999998900, 0.000000000000000000 ) );
#139148 = CARTESIAN_POINT ( 'NONE',  ( 0.9327720899999999427, 0.9327720899999998316, 0.000000000000000000 ) );
#139513 = CARTESIAN_POINT ( 'NONE',  ( 0.7597279200000001120, 0.9599999999999998535, 0.000000000000000000 ) );
#140599 = VERTEX_POINT ( 'NONE', #89579 );
#141097 = ORIENTED_EDGE ( 'NONE', *, *, #35674, .F. );
#141274 = DIRECTION ( 'NONE',  ( -0.000000000000000000, 1.000000000000000000, -0.000000000000000000 ) );
#141791 = DIRECTION ( 'NONE',  ( 0.000000000000000000, -0.000000000000000000, -1.000000000000000000 ) );
#142348 = VECTOR ( 'NONE', #141274, 39.37007874015748143 );
#142377 = CARTESIAN_POINT ( 'NONE',  ( 0.8699999999999998845, 0.7239559322432498334, 0.000000000000000000 ) );
#142606 = EDGE_CURVE ( 'NONE', #131603, #170859, #41801, .T. );
#142635 = CARTESIAN_POINT ( 'NONE',  ( -0.7253469762168991419, 0.8750000000000001110, 0.000000000000000000 ) );
#143136 = CARTESIAN_POINT ( 'NONE',  ( -0.8749999999999997780, 0.7253469762168995860, 0.000000000000000000 ) );
#143536 = CARTESIAN_POINT ( 'NONE',  ( -0.9599999999999999645, 0.7597279199999998900, 0.000000000000000000 ) );
#143622 = EDGE_CURVE ( 'NONE', #22906, #6104, #165346, .T. );
#143916 = DIRECTION ( 'NONE',  ( 0.000000000000000000, 0.000000000000000000, 1.000000000000000000 ) );
#144079 = EDGE_CURVE ( 'NONE', #164895, #158106, #6084, .T. );
#144766 = ( GEOMETRIC_REPRESENTATION_CONTEXT ( 3 ) GLOBAL_UNCERTAINTY_ASSIGNED_CONTEXT ( ( #84799 ) ) GLOBAL_UNIT_ASSIGNED_CONTEXT ( ( #116287, #34399, #8589 ) ) REPRESENTATION_CONTEXT ( 'NONE', 'WORKASPACE' ) );
#145418 = VECTOR ( 'NONE', #31453, 39.37007874015748143 );
#145845 = ORIENTED_EDGE ( 'NONE', *, *, #108157, .F. );
#146534 = DIRECTION ( 'NONE',  ( -1.000000000000000000, 0.000000000000000000, 0.000000000000000000 ) );
#146546 = CIRCLE ( 'NONE', #61256, 0.4375000000000000000 );
#146793 = VERTEX_POINT ( 'NONE', #108459 );
#146998 = DIRECTION ( 'NONE',  ( 0.000000000000000000, 0.000000000000000000, 1.000000000000000000 ) );
#147217 = ORIENTED_EDGE ( 'NONE', *, *, #38596, .F. );
#147255 = CIRCLE ( 'NONE', #170052, 0.4775000000000000355 );
#147893 = EDGE_CURVE ( 'NONE', #19560, #61989, #62813, .T. );
#148046 = VERTEX_POINT ( 'NONE', #132145 );
#149118 = CARTESIAN_POINT ( 'NONE',  ( -0.9327720899999999427, -0.9599999999999998535, 0.000000000000000000 ) );
#149575 = DIRECTION ( 'NONE',  ( 1.000000000000000000, 0.000000000000000000, 0.000000000000000000 ) );
#150131 = CIRCLE ( 'NONE', #13634, 0.004999999999999946328 );
#151043 = CARTESIAN_POINT ( 'NONE',  ( -0.7597279200000000010, 0.9327720899999998316, 0.000000000000000000 ) );
#151500 = CARTESIAN_POINT ( 'NONE',  ( 0.9599999999999999645, -0.7597279199999998900, 0.000000000000000000 ) );
#151744 = EDGE_LOOP ( 'NONE', ( #105817, #8103, #145845, #169384, #84240, #75636, #141097, #27146, #71182, #67251, #28271, #90073, #23733, #110994, #18257, #28472 ) );
#152230 = DIRECTION ( 'NONE',  ( -1.000000000000000000, 0.000000000000000000, 0.000000000000000000 ) );
#152267 = AXIS2_PLACEMENT_3D ( 'NONE', #8697, #115530, #117284 );
#152275 = CARTESIAN_POINT ( 'NONE',  ( 0.9599999999999999645, -0.9327720899999998316, 0.000000000000000000 ) );
#152851 = EDGE_CURVE ( 'NONE', #131603, #78375, #28287, .T. );
#152970 = DIRECTION ( 'NONE',  ( -1.000000000000000000, 0.000000000000000000, 0.000000000000000000 ) );
#153667 = VECTOR ( 'NONE', #79056, 39.37007874015748143 );
#153887 = VERTEX_POINT ( 'NONE', #24525 );
#154226 = EDGE_CURVE ( 'NONE', #3008, #171348, #34393, .T. );
#155596 = CARTESIAN_POINT ( 'NONE',  ( -0.9599999999999999645, 0.9327720899999998316, 0.000000000000000000 ) );
#156098 = VECTOR ( 'NONE', #127936, 39.37007874015748143 );
#156187 = AXIS2_PLACEMENT_3D ( 'NONE', #75899, #129365, #131121 );
#156690 = EDGE_CURVE ( 'NONE', #153887, #90907, #125985, .T. );
#157387 = VERTEX_POINT ( 'NONE', #20108 );
#157521 = ORIENTED_EDGE ( 'NONE', *, *, #81439, .F. );
#157554 = CARTESIAN_POINT ( 'NONE',  ( 0.9327720899999999427, -0.7597279199999998900, 0.000000000000000000 ) );
#158106 = VERTEX_POINT ( 'NONE', #134600 );
#158354 = ORIENTED_EDGE ( 'NONE', *, *, #88828, .F. );
#158411 = DIRECTION ( 'NONE',  ( 1.000000000000000000, 0.000000000000000000, 0.000000000000000000 ) );
#159375 = CARTESIAN_POINT ( 'NONE',  ( -0.7325000099999999792, -0.9327720899999998316, 0.000000000000000000 ) );
#159479 = DIRECTION ( 'NONE',  ( -1.000000000000000000, 0.000000000000000000, 0.000000000000000000 ) );
#160061 = CARTESIAN_POINT ( 'NONE',  ( 0.9094258888808833818, -0.7457167110488117645, 0.000000000000000000 ) );
#160258 = VERTEX_POINT ( 'NONE', #73269 );
#160990 = ORIENTED_EDGE ( 'NONE', *, *, #43830, .F. );
#161513 = DIRECTION ( 'NONE',  ( -1.000000000000000000, 0.000000000000000000, 0.000000000000000000 ) );
#161628 = AXIS2_PLACEMENT_3D ( 'NONE', #14781, #13017, #110843 );
#162388 = AXIS2_PLACEMENT_3D ( 'NONE', #35899, #129388, #116926 );
#162882 = CARTESIAN_POINT ( 'NONE',  ( 0.9327720899999999427, -0.9327720899999998316, 0.000000000000000000 ) );
#162941 = AXIS2_PLACEMENT_3D ( 'NONE', #44405, #74607, #128065 );
#162980 = EDGE_CURVE ( 'NONE', #157387, #87384, #34003, .T. );
#163029 = VERTEX_POINT ( 'NONE', #175493 );
#164674 = EDGE_LOOP ( 'NONE', ( #121589, #168137, #7454, #130021, #25228, #46156 ) );
#164895 = VERTEX_POINT ( 'NONE', #84325 );
#164974 = CIRCLE ( 'NONE', #136471, 0.02722791000000002529 );
#165346 = CIRCLE ( 'NONE', #40112, 0.02722791000000002529 );
#166328 = ORIENTED_EDGE ( 'NONE', *, *, #144079, .T. );
#167223 = DIRECTION ( 'NONE',  ( 0.000000000000000000, 0.000000000000000000, 1.000000000000000000 ) );
#168064 = LINE ( 'NONE', #78619, #156098 );
#168137 = ORIENTED_EDGE ( 'NONE', *, *, #88387, .F. );
#168186 = FACE_BOUND ( 'NONE', #57212, .T. );
#169144 = EDGE_CURVE ( 'NONE', #74982, #6674, #106694, .T. );
#169384 = ORIENTED_EDGE ( 'NONE', *, *, #172915, .T. );
#169471 = DIRECTION ( 'NONE',  ( -1.000000000000000000, 0.000000000000000000, 0.000000000000000000 ) );
#170052 = AXIS2_PLACEMENT_3D ( 'NONE', #57180, #123108, #27851 );
#170137 = CIRCLE ( 'NONE', #107513, 0.004999999999999946328 );
#170262 = ORIENTED_EDGE ( 'NONE', *, *, #28589, .T. );
#170746 = DIRECTION ( 'NONE',  ( 0.000000000000000000, -1.000000000000000000, 0.000000000000000000 ) );
#170859 = VERTEX_POINT ( 'NONE', #58381 );
#170989 = CARTESIAN_POINT ( 'NONE',  ( -1.000000000000000000, 0.9999999999999998890, 0.000000000000000000 ) );
#171348 = VERTEX_POINT ( 'NONE', #68873 );
#171776 = EDGE_CURVE ( 'NONE', #9905, #160258, #111654, .T. );
#171921 = EDGE_CURVE ( 'NONE', #15764, #7914, #76335, .T. );
#172909 = DIRECTION ( 'NONE',  ( -1.000000000000000000, 0.000000000000000000, 0.000000000000000000 ) );
#172915 = EDGE_CURVE ( 'NONE', #134809, #87384, #40993, .T. );
#172998 = CARTESIAN_POINT ( 'NONE',  ( -0.7239559322432492783, 0.8700000000000001066, 0.000000000000000000 ) );
#173581 = CARTESIAN_POINT ( 'NONE',  ( -0.7265450180718370232, 0.8742774565540992748, 0.000000000000000000 ) );
#174424 = EDGE_LOOP ( 'NONE', ( #108316, #84103, #121293, #130443, #157521, #5905, #93888 ) );
#175493 = CARTESIAN_POINT ( 'NONE',  ( 0.8742774565540989418, -0.7265450180718375783, 0.000000000000000000 ) );
#176247 = ADVANCED_BREP_SHAPE_REPRESENTATION('', (#8142), #144766);
ENDSEC;
END-ISO-10303-21;
