<svg xmlns="http://www.w3.org/2000/svg" viewBox="0 0 10 10"><symbol id="a" viewBox="0 0 10 10"><g fill-rule="evenodd" clip-rule="evenodd" fill="#333"><path d="M1.35 5.39c-.061-.122-.183-.251-.365-.387.182-.136.31-.274.382-.413a1.2 1.2 0 0 0 .107-.548v-1.93a.73.73 0 0 1 .174-.496.65.65 0 0 1 .444-.228c.115-.012.19-.033.225-.066a.218.218 0 0 0 .064-.16.22.22 0 0 0-.067-.167C2.269.953 2.203.93 2.113.93c-.298 0-.553.112-.768.336a1.183 1.183 0 0 0-.344.841l.021 1.933a.726.726 0 0 1-.177.497.653.653 0 0 1-.457.223c-.096.01-.165.035-.206.075a.219.219 0 0 0-.062.167c0 .067.02.121.062.16.041.04.11.065.206.075a.654.654 0 0 1 .454.223c.12.135.18.3.18.497v1.934c0 .358.127.659.381.902a.97.97 0 0 0 .71.274c.088 0 .156-.021.2-.064a.213.213 0 0 0 .068-.161.228.228 0 0 0-.07-.166c-.032-.033-.106-.054-.22-.065a.638.638 0 0 1-.44-.22.723.723 0 0 1-.177-.5V5.96c0-.222-.041-.412-.124-.57zm7.301-.78c.061.122.183.251.365.387a1.258 1.258 0 0 0-.38.414 1.2 1.2 0 0 0-.108.548v1.929a.735.735 0 0 1-.175.496.653.653 0 0 1-.443.228c-.115.011-.19.033-.226.065a.218.218 0 0 0-.064.16.22.22 0 0 0 .067.168c.045.042.112.064.201.064.298 0 .553-.112.768-.336.215-.224.323-.504.323-.841V5.958c0-.196.059-.362.177-.496a.653.653 0 0 1 .457-.223c.096-.01.165-.035.206-.075a.219.219 0 0 0 .062-.167.212.212 0 0 0-.062-.16c-.041-.04-.11-.065-.207-.075a.654.654 0 0 1-.453-.223.72.72 0 0 1-.18-.497V2.107a1.2 1.2 0 0 0-.381-.903.97.97 0 0 0-.71-.274c-.088 0-.156.022-.2.065a.213.213 0 0 0-.068.161c0 .065.024.12.07.166.032.033.105.054.22.065a.638.638 0 0 1 .44.22.723.723 0 0 1 .178.5V4.04c0 .222.04.412.123.57z"/><path d="M5 2 2 3.5v3L5 8l3-1.5v-3L5 2zM2.78 3.61 5 4.72l2.22-1.11L5 2.5 2.78 3.61zm4.72.42L5.25 5.154v2.22L7.5 6.25V4.03zM4.75 5.155 2.5 4.03v2.22l2.25 1.125v-2.22z"/></g></symbol><use xlink:href="#a" xmlns:xlink="http://www.w3.org/1999/xlink"/></svg>