<?xml version="1.0" encoding="UTF-8" standalone="no"?><!DOCTYPE svg PUBLIC "-//W3C//DTD SVG 1.1//EN" "http://www.w3.org/Graphics/SVG/1.1/DTD/svg11.dtd"><svg width="100%" height="100%" viewBox="0 0 120 120" version="1.1" xmlns="http://www.w3.org/2000/svg" xmlns:xlink="http://www.w3.org/1999/xlink" xml:space="preserve" xmlns:serif="http://www.serif.com/" style="fill-rule:evenodd;clip-rule:evenodd;stroke-linejoin:round;stroke-miterlimit:2;"><rect id="Selected-icon--expanded-" serif:id="Selected icon (expanded)" x="0" y="0" width="120" height="120" style="fill:none;"/><path d="M58.225,38.796l46.229,-7.015l3.733,24.598l7.738,-1.174l2.95,19.442l-7.738,1.174l3.732,24.598l-99.323,15.071l-3.733,-24.598l-7.814,1.185l-2.95,-19.442l7.814,-1.185l-3.732,-24.598l45.567,-6.914l-0.637,-9.252l-5.676,0.858l-0.75,-4.965l6.08,-0.919l-0.317,-4.591c-4.155,-0.568 -7.361,-4.135 -7.361,-8.445c0,-4.705 3.82,-8.525 8.525,-8.525c4.705,-0 8.524,3.82 8.524,8.525c0,3.518 -2.136,6.541 -5.18,7.842l1.037,4.403l6.217,-0.94l0.75,4.965l-5.811,0.879l2.126,9.023Z" style="fill:#333;"/><path d="M36.435,51.011c9.978,-1.514 19.308,5.358 20.822,15.336c1.514,9.978 -5.358,19.308 -15.336,20.822c-9.978,1.514 -19.308,-5.358 -20.822,-15.336c-1.514,-9.978 5.357,-19.308 15.336,-20.822Z" style="fill:#90cef1;"/><path d="M37.388,57.028c6.63,-1.006 12.829,3.56 13.835,10.189c1.006,6.63 -3.56,12.829 -10.19,13.835c-6.629,1.006 -12.828,-3.56 -13.834,-10.19c-1.006,-6.629 3.56,-12.828 10.189,-13.834Z" style="fill:#1651b0;"/><path d="M36.962,54.486c8.06,-1.223 15.597,4.328 16.82,12.388c1.223,8.06 -4.328,15.597 -12.388,16.82c-8.061,1.223 -15.597,-4.328 -16.82,-12.388c-1.223,-8.06 4.328,-15.597 12.388,-16.82Zm-1.312,4.425c-4.815,1.665 -7.913,6.58 -7.121,11.795c0.891,5.877 6.387,9.925 12.265,9.033c5.877,-0.891 9.925,-6.387 9.033,-12.265c-0.198,-1.307 -0.625,-2.524 -1.233,-3.617c-0.912,1.927 -4.266,2.613 -7.743,1.518c-3.659,-1.153 -6.077,-3.847 -5.394,-6.012c0.049,-0.158 0.114,-0.308 0.193,-0.452Z" style="fill:#fff;"/><path d="M79.424,47.425c8.394,-1.273 16.242,4.507 17.516,12.901c1.273,8.393 -4.507,16.242 -12.901,17.515c-8.393,1.274 -16.242,-4.507 -17.515,-12.9c-1.274,-8.394 4.507,-16.242 12.9,-17.516Z" style="fill:#90cef1;"/><path d="M80.374,53.683c4.939,-0.749 9.558,2.653 10.308,7.592c0.749,4.94 -2.653,9.559 -7.592,10.308c-4.94,0.75 -9.559,-2.652 -10.308,-7.592c-0.75,-4.939 2.652,-9.558 7.592,-10.308Z" style="fill:#1651b0;"/><path d="M79.908,50.364c6.692,-1.015 12.95,3.594 13.966,10.286c1.015,6.693 -3.594,12.951 -10.286,13.966c-6.693,1.016 -12.951,-3.593 -13.966,-10.286c-1.016,-6.692 3.593,-12.95 10.286,-13.966Zm0.867,3.919c-0.089,0.011 -0.178,0.023 -0.267,0.036c-4.51,0.684 -7.616,4.901 -6.931,9.411c0.684,4.51 4.901,7.616 9.41,6.931c4.51,-0.684 7.616,-4.901 6.932,-9.411c-0.152,-1.002 -0.479,-1.934 -0.944,-2.772c-0.568,1.42 -2.964,1.941 -5.449,1.157c-2.556,-0.805 -4.244,-2.686 -3.767,-4.197c0.153,-0.488 0.513,-0.877 1.016,-1.155Z" style="fill:#fff;"/><path d="M54.965,99.905l3.081,-5.785c2.265,1.206 4.858,1.649 7.394,1.264c6.513,-0.988 10.991,-7.068 10.003,-13.58l6.48,-0.984c1.531,10.092 -5.408,19.513 -15.499,21.045c-3.931,0.596 -7.949,-0.091 -11.459,-1.96Z" style="fill:#fff;"/><path d="M24.405,34.636c-5.014,-5.949 -8.036,-13.631 -8.036,-22.012c-0,-3.439 0.509,-6.76 1.455,-9.892l3.83,1.157c-0.836,2.766 -1.285,5.698 -1.285,8.735c-0,7.401 2.669,14.183 7.096,19.437l-3.06,2.575Z" style="fill:#1651b0;"/><path d="M79.47,3.889l3.83,-1.157c0.946,3.132 1.455,6.453 1.455,9.892c-0,8.381 -3.023,16.063 -8.036,22.012l-3.06,-2.575c4.427,-5.254 7.096,-12.036 7.096,-19.437c-0,-3.037 -0.45,-5.969 -1.285,-8.735Z" style="fill:#1651b0;"/><path d="M30.545,29.469c-3.836,-4.553 -6.149,-10.431 -6.149,-16.845c-0,-2.632 0.389,-5.173 1.113,-7.57l3.83,1.157c-0.614,2.031 -0.943,4.183 -0.943,6.413c-0,5.433 1.959,10.413 5.209,14.27l-3.06,2.575Z" style="fill:#1651b0;"/><path d="M75.614,5.054c0.725,2.397 1.114,4.938 1.114,7.57c-0,6.414 -2.313,12.292 -6.149,16.845l-3.06,-2.575c3.25,-3.857 5.209,-8.837 5.209,-14.27c-0,-2.23 -0.33,-4.382 -0.943,-6.413l3.829,-1.157Z" style="fill:#1651b0;"/><path d="M36.788,24.215c-2.64,-3.133 -4.232,-7.178 -4.232,-11.591c-0,-1.811 0.268,-3.56 0.766,-5.209l3.83,1.157c-0.388,1.283 -0.596,2.643 -0.596,4.052c-0,3.433 1.238,6.579 3.291,9.016l-3.059,2.575Z" style="fill:#1651b0;"/><path d="M67.801,7.415c0.499,1.649 0.767,3.398 0.767,5.209c-0,4.413 -1.592,8.458 -4.232,11.591l-3.06,-2.575c2.054,-2.437 3.292,-5.583 3.292,-9.016c-0,-1.409 -0.209,-2.769 -0.596,-4.052l3.829,-1.157Z" style="fill:#1651b0;"/></svg>