<svg xmlns="http://www.w3.org/2000/svg" viewBox="0 0 20 20"><symbol id="a" viewBox="0 0 20 20"><path fill-rule="evenodd" clip-rule="evenodd" d="M4.965 3a2 2 0 1 0-.001 3.999A2 2 0 0 0 4.965 3zm2 13a2 2 0 1 1-3-1.732L4 8c-1.199-.581-2.035-1.693-2.035-3a3 3 0 1 1 6 0c0 1.306-.835 2.417-1.965 3l-.035 4.538a3.958 3.958 0 0 1 2-.538h5c1.102 0 2-.897 2-2v-.27a2 2 0 1 1 2.001.002l-.001.268c0 2.206-1.794 4-4 4h-5c-.597 0-1.134.263-1.501.68.313.352.501.814.501 1.32z" fill="#333"/></symbol><use xlink:href="#a" xmlns:xlink="http://www.w3.org/1999/xlink"/></svg>