ISO-10303-21;
HEADER;
FILE_DESCRIPTION (( 'STEP AP203' ),
    '1' );
FILE_NAME ('REV-21-3288.STEP',
    '2023-09-25T18:08:17',
    ( '' ),
    ( '' ),
    'SwSTEP 2.0',
    'SolidWorks 2022',
    '' );
FILE_SCHEMA (( 'CONFIG_CONTROL_DESIGN' ));
ENDSEC;

DATA;
#85 = ORIENTED_EDGE ( 'NONE', *, *, #45187, .F. );
#564 = LINE ( 'NONE', #12543, #130408 );
#691 = CARTESIAN_POINT ( 'NONE',  ( 0.9327720899999999427, -0.7597279199999998900, 0.000000000000000000 ) );
#872 = CARTESIAN_POINT ( 'NONE',  ( 0.000000000000000000, 0.000000000000000000, 0.000000000000000000 ) );
#934 = ORIENTED_EDGE ( 'NONE', *, *, #80005, .T. );
#1375 = AXIS2_PLACEMENT_3D ( 'NONE', #25076, #89294, #12341 );
#1492 = ( NAMED_UNIT ( * ) PLANE_ANGLE_UNIT ( ) SI_UNIT ( $, .RADIAN. ) );
#1571 = DIRECTION ( 'NONE',  ( -1.000000000000000000, 0.000000000000000000, -0.000000000000000000 ) );
#2344 = ORIENTED_EDGE ( 'NONE', *, *, #12405, .F. );
#2875 = ( LENGTH_UNIT ( ) NAMED_UNIT ( * ) SI_UNIT ( $, .METRE. ) );
#3827 = VECTOR ( 'NONE', #26419, 39.37007874015748143 );
#3918 = EDGE_CURVE ( 'NONE', #84149, #103763, #109734, .T. );
#4727 = CIRCLE ( 'NONE', #6920, 0.4375000000000000000 );
#4759 = CARTESIAN_POINT ( 'NONE',  ( -0.7597279200000001120, -0.9599999999999998535, 0.000000000000000000 ) );
#4979 = DIRECTION ( 'NONE',  ( -0.000000000000000000, -0.000000000000000000, -1.000000000000000000 ) );
#5029 = CARTESIAN_POINT ( 'NONE',  ( -0.7253469762168991419, 0.8750000000000001110, 0.000000000000000000 ) );
#6453 = CIRCLE ( 'NONE', #132735, 0.02722791000000002529 );
#6920 = AXIS2_PLACEMENT_3D ( 'NONE', #47981, #61314, #112884 );
#7149 = VECTOR ( 'NONE', #139414, 39.37007874015748143 );
#7491 = CARTESIAN_POINT ( 'NONE',  ( -0.9327720899999999427, -0.9327720899999998316, 0.000000000000000000 ) );
#7704 = VERTEX_POINT ( 'NONE', #76136 );
#7731 = DIRECTION ( 'NONE',  ( 0.000000000000000000, 0.000000000000000000, 1.000000000000000000 ) );
#9315 = AXIS2_PLACEMENT_3D ( 'NONE', #7491, #81656, #113392 );
#9328 = EDGE_LOOP ( 'NONE', ( #20517, #41305, #31981, #38426, #120543, #86324 ) );
#9607 = CARTESIAN_POINT ( 'NONE',  ( -0.7325000099999999792, -0.9327720899999998316, 0.000000000000000000 ) );
#9808 = LINE ( 'NONE', #53600, #11065 );
#10062 = FACE_BOUND ( 'NONE', #60885, .T. );
#10368 = EDGE_CURVE ( 'NONE', #138376, #29068, #6453, .T. );
#11065 = VECTOR ( 'NONE', #117799, 39.37007874015748143 );
#11860 = CIRCLE ( 'NONE', #50276, 0.4375000000000001665 );
#12341 = DIRECTION ( 'NONE',  ( -1.000000000000000000, 0.000000000000000000, 0.000000000000000000 ) );
#12376 = DIRECTION ( 'NONE',  ( 0.000000000000000000, 0.000000000000000000, 1.000000000000000000 ) );
#12405 = EDGE_CURVE ( 'NONE', #120436, #138376, #95985, .T. );
#12543 = CARTESIAN_POINT ( 'NONE',  ( 0.9327720899999999427, -0.9599999999999998535, 0.000000000000000000 ) );
#12980 = LINE ( 'NONE', #23603, #134189 );
#14357 = CARTESIAN_POINT ( 'NONE',  ( 0.5000000080704162242, -0.5000000080704158911, 0.000000000000000000 ) );
#14597 = VERTEX_POINT ( 'NONE', #27311 );
#14880 = EDGE_CURVE ( 'NONE', #15489, #126746, #32948, .T. );
#15489 = VERTEX_POINT ( 'NONE', #26293 );
#15649 = AXIS2_PLACEMENT_3D ( 'NONE', #872, #108182, #1571 );
#16316 = LINE ( 'NONE', #5029, #44278 );
#16768 = VECTOR ( 'NONE', #127236, 39.37007874015748143 );
#16972 = ORIENTED_EDGE ( 'NONE', *, *, #102194, .F. );
#17150 = CARTESIAN_POINT ( 'NONE',  ( -0.7325000099999999792, 0.9327720899999998316, 0.000000000000000000 ) );
#17173 = ORIENTED_EDGE ( 'NONE', *, *, #59167, .F. );
#17321 = CARTESIAN_POINT ( 'NONE',  ( 1.000000000000000000, -0.9999999999999998890, 0.000000000000000000 ) );
#17332 = CIRCLE ( 'NONE', #93923, 0.02722791000000002529 );
#18330 = CARTESIAN_POINT ( 'NONE',  ( 0.9327720899999999427, 0.7597279199999998900, 0.000000000000000000 ) );
#18541 = VERTEX_POINT ( 'NONE', #24754 );
#19726 = CARTESIAN_POINT ( 'NONE',  ( -0.9327720899999999427, -0.7597279199999998900, 0.000000000000000000 ) );
#19875 = LINE ( 'NONE', #62920, #128396 );
#20003 = VECTOR ( 'NONE', #136481, 39.37007874015748143 );
#20311 = CARTESIAN_POINT ( 'NONE',  ( -0.9599999999999999645, -0.9327720899999998316, 0.000000000000000000 ) );
#20334 = VERTEX_POINT ( 'NONE', #38209 );
#20356 = ORIENTED_EDGE ( 'NONE', *, *, #91926, .F. );
#20517 = ORIENTED_EDGE ( 'NONE', *, *, #45818, .F. );
#21768 = DIRECTION ( 'NONE',  ( 0.000000000000000000, 0.000000000000000000, 1.000000000000000000 ) );
#22011 = CARTESIAN_POINT ( 'NONE',  ( -0.5000000080704162242, -0.5000000080704158911, 0.000000000000000000 ) );
#22088 = CIRCLE ( 'NONE', #73900, 0.02722791000000002529 );
#22627 = CARTESIAN_POINT ( 'NONE',  ( -0.9327720899999999427, 0.9599999999999998535, 0.000000000000000000 ) );
#23603 = CARTESIAN_POINT ( 'NONE',  ( -0.8749999999999997780, 0.7253469762168995860, 0.000000000000000000 ) );
#24536 = EDGE_CURVE ( 'NONE', #7704, #18541, #61022, .T. );
#24572 = DIRECTION ( 'NONE',  ( 0.000000000000000000, 0.000000000000000000, 1.000000000000000000 ) );
#24754 = CARTESIAN_POINT ( 'NONE',  ( 0.9094258888808833818, -0.7457167110488117645, 0.000000000000000000 ) );
#25076 = CARTESIAN_POINT ( 'NONE',  ( -0.5000000080704162242, -0.5000000080704158911, 0.000000000000000000 ) );
#25250 = CARTESIAN_POINT ( 'NONE',  ( -0.9599999999999999645, 0.7597279199999998900, 0.000000000000000000 ) );
#25434 = LINE ( 'NONE', #89650, #35631 );
#26293 = CARTESIAN_POINT ( 'NONE',  ( -0.7457167110488113204, -0.9094258888808833818, 0.000000000000000000 ) );
#26419 = DIRECTION ( 'NONE',  ( -0.000000000000000000, -1.000000000000000000, -0.000000000000000000 ) );
#26593 = ORIENTED_EDGE ( 'NONE', *, *, #59536, .F. );
#26629 = AXIS2_PLACEMENT_3D ( 'NONE', #66755, #66053, #56847 );
#27011 = CIRCLE ( 'NONE', #117145, 0.4775000000000000355 );
#27311 = CARTESIAN_POINT ( 'NONE',  ( 0.9599999999999999645, 0.9327720899999998316, 0.000000000000000000 ) );
#27348 = CIRCLE ( 'NONE', #101697, 0.02722791000000002529 );
#27454 = VERTEX_POINT ( 'NONE', #56661 );
#27655 = ORIENTED_EDGE ( 'NONE', *, *, #90599, .F. );
#28158 = CARTESIAN_POINT ( 'NONE',  ( 0.7597279200000001120, 0.9599999999999998535, 0.000000000000000000 ) );
#28615 = EDGE_CURVE ( 'NONE', #74807, #49571, #22088, .T. );
#29068 = VERTEX_POINT ( 'NONE', #9607 );
#29069 = ORIENTED_EDGE ( 'NONE', *, *, #72536, .T. );
#29100 = EDGE_CURVE ( 'NONE', #71262, #34503, #87458, .T. );
#29470 = CIRCLE ( 'NONE', #101505, 0.02722791000000002529 );
#30254 = CARTESIAN_POINT ( 'NONE',  ( 0.7457167110488116535, 0.9094258888808830488, 0.000000000000000000 ) );
#30364 = LINE ( 'NONE', #95947, #37159 );
#30636 = ORIENTED_EDGE ( 'NONE', *, *, #77765, .F. );
#30834 = CARTESIAN_POINT ( 'NONE',  ( 0.9327720899999999427, 0.9327720899999998316, 0.000000000000000000 ) );
#31981 = ORIENTED_EDGE ( 'NONE', *, *, #138305, .F. );
#32832 = ORIENTED_EDGE ( 'NONE', *, *, #123360, .F. );
#32948 = CIRCLE ( 'NONE', #1375, 0.4775000000000000355 );
#33054 = DIRECTION ( 'NONE',  ( -1.000000000000000000, 0.000000000000000000, 0.000000000000000000 ) );
#33724 = DIRECTION ( 'NONE',  ( -1.000000000000000000, -0.000000000000000000, -0.000000000000000000 ) );
#33923 = CARTESIAN_POINT ( 'NONE',  ( 0.9327720899999999427, 0.9599999999999998535, 0.000000000000000000 ) );
#34503 = VERTEX_POINT ( 'NONE', #74771 );
#34920 = AXIS2_PLACEMENT_3D ( 'NONE', #82967, #125998, #82269 );
#35359 = VECTOR ( 'NONE', #138583, 39.37007874015748143 );
#35510 = AXIS2_PLACEMENT_3D ( 'NONE', #18330, #7731, #115029 );
#35572 = EDGE_CURVE ( 'NONE', #61852, #55867, #19875, .T. );
#35631 = VECTOR ( 'NONE', #47312, 39.37007874015748143 );
#35719 = ORIENTED_EDGE ( 'NONE', *, *, #35572, .F. );
#36146 = VERTEX_POINT ( 'NONE', #86712 );
#37159 = VECTOR ( 'NONE', #73424, 39.37007874015748143 );
#38209 = CARTESIAN_POINT ( 'NONE',  ( 0.9599999999999999645, -0.9327720899999998316, 0.000000000000000000 ) );
#38426 = ORIENTED_EDGE ( 'NONE', *, *, #44175, .F. );
#38867 = DIRECTION ( 'NONE',  ( 1.000000000000000000, 0.000000000000000000, 0.000000000000000000 ) );
#39074 = LINE ( 'NONE', #114545, #16768 );
#39213 = CARTESIAN_POINT ( 'NONE',  ( -0.9327720899999999427, -0.9599999999999998535, 0.000000000000000000 ) );
#39360 = CIRCLE ( 'NONE', #34920, 0.4774999999999999800 );
#40639 = VERTEX_POINT ( 'NONE', #121448 );
#40773 = DIRECTION ( 'NONE',  ( -1.000000000000000000, -0.000000000000000000, -0.000000000000000000 ) );
#40807 = AXIS2_PLACEMENT_3D ( 'NONE', #691, #62848, #84751 );
#41159 = ORIENTED_EDGE ( 'NONE', *, *, #112140, .F. );
#41242 = EDGE_CURVE ( 'NONE', #49657, #90555, #47181, .T. );
#41258 = VERTEX_POINT ( 'NONE', #106362 );
#41305 = ORIENTED_EDGE ( 'NONE', *, *, #86243, .F. );
#41807 = AXIS2_PLACEMENT_3D ( 'NONE', #137323, #52572, #51894 );
#42122 = DIRECTION ( 'NONE',  ( -1.000000000000000000, 0.000000000000000000, 0.000000000000000000 ) );
#42368 = EDGE_CURVE ( 'NONE', #118377, #121947, #11860, .T. );
#42375 = CARTESIAN_POINT ( 'NONE',  ( -0.9327720899999999427, -0.9599999999999998535, 0.000000000000000000 ) );
#42842 = CARTESIAN_POINT ( 'NONE',  ( 0.9094258888808833818, 0.7457167110488114314, 0.000000000000000000 ) );
#43272 = FACE_BOUND ( 'NONE', #69854, .T. );
#43660 = AXIS2_PLACEMENT_3D ( 'NONE', #118436, #21768, #64811 );
#44175 = EDGE_CURVE ( 'NONE', #132897, #136638, #93683, .T. );
#44278 = VECTOR ( 'NONE', #123613, 39.37007874015748143 );
#45187 = EDGE_CURVE ( 'NONE', #75737, #118377, #12980, .T. );
#45818 = EDGE_CURVE ( 'NONE', #20334, #7704, #115083, .T. );
#46464 = CARTESIAN_POINT ( 'NONE',  ( -0.9327720899999999427, 0.7597279199999998900, 0.000000000000000000 ) );
#46592 = CARTESIAN_POINT ( 'NONE',  ( 0.7597279200000001120, -0.9599999999999998535, 0.000000000000000000 ) );
#47181 = LINE ( 'NONE', #90221, #115145 );
#47312 = DIRECTION ( 'NONE',  ( 1.000000000000000000, 0.000000000000000000, 0.000000000000000000 ) );
#47808 = VERTEX_POINT ( 'NONE', #111931 );
#47981 = CARTESIAN_POINT ( 'NONE',  ( -0.5000000080704161132, 0.5000000080704162242, 0.000000000000000000 ) );
#48345 = CARTESIAN_POINT ( 'NONE',  ( -0.9094258888808833818, -0.7457167110488114314, 0.000000000000000000 ) );
#48768 = EDGE_LOOP ( 'NONE', ( #89934, #128669, #126696, #2344, #32832, #105266, #130997 ) );
#49571 = VERTEX_POINT ( 'NONE', #17150 );
#49657 = VERTEX_POINT ( 'NONE', #51734 );
#50276 = AXIS2_PLACEMENT_3D ( 'NONE', #22011, #127195, #55159 );
#51077 = CARTESIAN_POINT ( 'NONE',  ( 1.000000000000000000, 0.9999999999999998890, 0.000000000000000000 ) );
#51734 = CARTESIAN_POINT ( 'NONE',  ( -0.7597279200000001120, 0.9599999999999998535, 0.000000000000000000 ) );
#51894 = DIRECTION ( 'NONE',  ( -1.000000000000000000, 0.000000000000000000, 0.000000000000000000 ) );
#52095 = CIRCLE ( 'NONE', #122009, 0.02722791000000002529 );
#52572 = DIRECTION ( 'NONE',  ( 0.000000000000000000, 0.000000000000000000, 1.000000000000000000 ) );
#53167 = FACE_OUTER_BOUND ( 'NONE', #89759, .T. );
#53600 = CARTESIAN_POINT ( 'NONE',  ( 0.9599999999999999645, 0.7597279199999998900, 0.000000000000000000 ) );
#55150 = ( CONVERSION_BASED_UNIT ( 'INCH', #89010 ) LENGTH_UNIT ( ) NAMED_UNIT ( #117473 ) );
#55159 = DIRECTION ( 'NONE',  ( -1.000000000000000000, 0.000000000000000000, 0.000000000000000000 ) );
#55867 = VERTEX_POINT ( 'NONE', #28158 );
#56661 = CARTESIAN_POINT ( 'NONE',  ( -1.000000000000000000, 0.9999999999999998890, 0.000000000000000000 ) );
#56818 = ORIENTED_EDGE ( 'NONE', *, *, #41242, .F. );
#56847 = DIRECTION ( 'NONE',  ( -1.000000000000000000, 0.000000000000000000, 0.000000000000000000 ) );
#57058 = EDGE_CURVE ( 'NONE', #122727, #74807, #39360, .T. );
#57989 = VERTEX_POINT ( 'NONE', #20311 );
#58826 = DIRECTION ( 'NONE',  ( 1.000000000000000000, 0.000000000000000000, 0.000000000000000000 ) );
#59167 = EDGE_CURVE ( 'NONE', #34503, #131145, #16316, .T. );
#59536 = EDGE_CURVE ( 'NONE', #55867, #113494, #17332, .T. );
#60690 = DIRECTION ( 'NONE',  ( -1.000000000000000000, 0.000000000000000000, 0.000000000000000000 ) );
#60885 = EDGE_LOOP ( 'NONE', ( #85, #27655, #17173, #108380, #41159, #16972, #111631, #86437 ) );
#61022 = CIRCLE ( 'NONE', #40807, 0.02722791000000002529 );
#61314 = DIRECTION ( 'NONE',  ( 0.000000000000000000, 0.000000000000000000, 1.000000000000000000 ) );
#61436 = DIRECTION ( 'NONE',  ( -0.000000000000000000, 1.000000000000000000, -0.000000000000000000 ) );
#61852 = VERTEX_POINT ( 'NONE', #33923 );
#62095 = DIRECTION ( 'NONE',  ( 0.000000000000000000, 0.000000000000000000, 1.000000000000000000 ) );
#62282 = DIRECTION ( 'NONE',  ( 1.000000000000000000, 0.000000000000000000, 0.000000000000000000 ) );
#62848 = DIRECTION ( 'NONE',  ( 0.000000000000000000, 0.000000000000000000, 1.000000000000000000 ) );
#62920 = CARTESIAN_POINT ( 'NONE',  ( 0.9327720899999999427, 0.9599999999999998535, 0.000000000000000000 ) );
#63368 = ORIENTED_EDGE ( 'NONE', *, *, #112611, .T. );
#63834 = CARTESIAN_POINT ( 'NONE',  ( 0.8749999999999997780, 0.7253469762168995860, 0.000000000000000000 ) );
#64441 = UNCERTAINTY_MEASURE_WITH_UNIT (LENGTH_MEASURE( 1.000000000000000082E-05 ), #55150, 'distance_accuracy_value', 'NONE');
#64542 = CARTESIAN_POINT ( 'NONE',  ( 0.7457167110488116535, -0.9094258888808832708, 0.000000000000000000 ) );
#64765 = ORIENTED_EDGE ( 'NONE', *, *, #90955, .F. );
#64811 = DIRECTION ( 'NONE',  ( 1.000000000000000000, 0.000000000000000000, 0.000000000000000000 ) );
#65553 = EDGE_CURVE ( 'NONE', #103763, #122727, #132713, .T. );
#66053 = DIRECTION ( 'NONE',  ( 0.000000000000000000, 0.000000000000000000, 1.000000000000000000 ) );
#66755 = CARTESIAN_POINT ( 'NONE',  ( 0.5000000080704162242, 0.5000000080704158911, 0.000000000000000000 ) );
#66850 = CARTESIAN_POINT ( 'NONE',  ( -1.000000000000000000, 0.9999999999999998890, 0.000000000000000000 ) );
#66886 = DIRECTION ( 'NONE',  ( 0.000000000000000000, 0.000000000000000000, 1.000000000000000000 ) );
#67006 = DIRECTION ( 'NONE',  ( -0.000000000000000000, 1.000000000000000000, -0.000000000000000000 ) );
#67277 = VERTEX_POINT ( 'NONE', #42842 );
#67373 = CARTESIAN_POINT ( 'NONE',  ( -0.9599999999999999645, 0.7597279199999998900, 0.000000000000000000 ) );
#68257 = LINE ( 'NONE', #66850, #77179 );
#69854 = EDGE_LOOP ( 'NONE', ( #124282, #119243, #82319, #20356, #56818, #64765, #87282 ) );
#70376 = EDGE_LOOP ( 'NONE', ( #79360, #26593, #35719, #72897, #30636, #72926 ) );
#71262 = VERTEX_POINT ( 'NONE', #63834 );
#71824 = DIRECTION ( 'NONE',  ( 0.000000000000000000, 0.000000000000000000, 1.000000000000000000 ) );
#72536 = EDGE_CURVE ( 'NONE', #27454, #47808, #30364, .T. );
#72897 = ORIENTED_EDGE ( 'NONE', *, *, #138598, .F. );
#72926 = ORIENTED_EDGE ( 'NONE', *, *, #119576, .F. );
#73424 = DIRECTION ( 'NONE',  ( -0.000000000000000000, -1.000000000000000000, -0.000000000000000000 ) );
#73900 = AXIS2_PLACEMENT_3D ( 'NONE', #88797, #24572, #110671 );
#73922 = DIRECTION ( 'NONE',  ( 1.000000000000000000, 0.000000000000000000, 0.000000000000000000 ) );
#74345 = PLANE ( 'NONE',  #15649 );
#74771 = CARTESIAN_POINT ( 'NONE',  ( 0.7253469762168991419, 0.8750000000000001110, 0.000000000000000000 ) );
#74807 = VERTEX_POINT ( 'NONE', #120314 );
#75292 = AXIS2_PLACEMENT_3D ( 'NONE', #101693, #4979, #126342 );
#75737 = VERTEX_POINT ( 'NONE', #110084 );
#76136 = CARTESIAN_POINT ( 'NONE',  ( 0.9599999999999999645, -0.7597279199999998900, 0.000000000000000000 ) );
#77179 = VECTOR ( 'NONE', #33724, 39.37007874015748143 );
#77506 = DIRECTION ( 'NONE',  ( 1.000000000000000000, -0.000000000000000000, -0.000000000000000000 ) );
#77735 = ( NAMED_UNIT ( * ) SI_UNIT ( $, .STERADIAN. ) SOLID_ANGLE_UNIT ( ) );
#77765 = EDGE_CURVE ( 'NONE', #36146, #14597, #9808, .T. );
#79143 = ( GEOMETRIC_REPRESENTATION_CONTEXT ( 3 ) GLOBAL_UNCERTAINTY_ASSIGNED_CONTEXT ( ( #64441 ) ) GLOBAL_UNIT_ASSIGNED_CONTEXT ( ( #55150, #1492, #77735 ) ) REPRESENTATION_CONTEXT ( 'NONE', 'WORKASPACE' ) );
#79198 = EDGE_CURVE ( 'NONE', #29068, #15489, #29470, .T. );
#79360 = ORIENTED_EDGE ( 'NONE', *, *, #94700, .F. );
#79511 = AXIS2_PLACEMENT_3D ( 'NONE', #136193, #126287, #101643 );
#80005 = EDGE_CURVE ( 'NONE', #47808, #40639, #114012, .T. );
#80394 = CARTESIAN_POINT ( 'NONE',  ( 0.8749999999999997780, 0.7253469762168995860, 0.000000000000000000 ) );
#80911 = ORIENTED_EDGE ( 'NONE', *, *, #135911, .T. );
#81656 = DIRECTION ( 'NONE',  ( 0.000000000000000000, 0.000000000000000000, 1.000000000000000000 ) );
#82269 = DIRECTION ( 'NONE',  ( 1.000000000000000000, 0.000000000000000000, 0.000000000000000000 ) );
#82319 = ORIENTED_EDGE ( 'NONE', *, *, #3918, .F. );
#82967 = CARTESIAN_POINT ( 'NONE',  ( -0.5000000080704162242, 0.5000000080704158911, 0.000000000000000000 ) );
#84149 = VERTEX_POINT ( 'NONE', #102342 );
#84751 = DIRECTION ( 'NONE',  ( 1.000000000000000000, 0.000000000000000000, 0.000000000000000000 ) );
#85455 = VERTEX_POINT ( 'NONE', #100423 );
#86019 = CIRCLE ( 'NONE', #9315, 0.02722791000000002529 );
#86084 = CARTESIAN_POINT ( 'NONE',  ( -0.8749999999999997780, -0.7253469762168995860, 0.000000000000000000 ) );
#86243 = EDGE_CURVE ( 'NONE', #114785, #20334, #27348, .T. );
#86324 = ORIENTED_EDGE ( 'NONE', *, *, #24536, .F. );
#86437 = ORIENTED_EDGE ( 'NONE', *, *, #42368, .F. );
#86663 = CARTESIAN_POINT ( 'NONE',  ( -0.7597279200000000010, 0.9327720899999998316, 0.000000000000000000 ) );
#86712 = CARTESIAN_POINT ( 'NONE',  ( 0.9599999999999999645, 0.7597279199999998900, 0.000000000000000000 ) );
#87282 = ORIENTED_EDGE ( 'NONE', *, *, #28615, .F. );
#87451 = CARTESIAN_POINT ( 'NONE',  ( -0.7597279200000000010, -0.9327720899999998316, 0.000000000000000000 ) );
#87458 = CIRCLE ( 'NONE', #26629, 0.4375000000000001665 );
#87637 = AXIS2_PLACEMENT_3D ( 'NONE', #46464, #122655, #89502 );
#88685 = CIRCLE ( 'NONE', #43660, 0.4375000000000001665 );
#88797 = CARTESIAN_POINT ( 'NONE',  ( -0.7597279200000000010, 0.9327720899999998316, 0.000000000000000000 ) );
#89010 = LENGTH_MEASURE_WITH_UNIT ( LENGTH_MEASURE( 0.02539999999999999897 ), #2875 );
#89294 = DIRECTION ( 'NONE',  ( -0.000000000000000000, -0.000000000000000000, -1.000000000000000000 ) );
#89502 = DIRECTION ( 'NONE',  ( 1.000000000000000000, 0.000000000000000000, 0.000000000000000000 ) );
#89650 = CARTESIAN_POINT ( 'NONE',  ( -0.7253469762168991419, -0.8750000000000001110, 0.000000000000000000 ) );
#89759 = EDGE_LOOP ( 'NONE', ( #80911, #63368, #29069, #934 ) );
#89934 = ORIENTED_EDGE ( 'NONE', *, *, #14880, .F. );
#90221 = CARTESIAN_POINT ( 'NONE',  ( -0.9327720899999999427, 0.9599999999999998535, 0.000000000000000000 ) );
#90555 = VERTEX_POINT ( 'NONE', #22627 );
#90599 = EDGE_CURVE ( 'NONE', #131145, #75737, #4727, .T. );
#90955 = EDGE_CURVE ( 'NONE', #49571, #49657, #52095, .T. );
#91926 = EDGE_CURVE ( 'NONE', #90555, #84149, #117755, .T. );
#93683 = CIRCLE ( 'NONE', #41807, 0.02722791000000002529 );
#93687 = CARTESIAN_POINT ( 'NONE',  ( 0.7597279200000000010, 0.9327720899999998316, 0.000000000000000000 ) );
#93923 = AXIS2_PLACEMENT_3D ( 'NONE', #93687, #71824, #73922 );
#94603 = CARTESIAN_POINT ( 'NONE',  ( -0.9094258888808833818, 0.7457167110488114314, 0.000000000000000000 ) );
#94700 = EDGE_CURVE ( 'NONE', #113494, #67277, #120318, .T. );
#95290 = CARTESIAN_POINT ( 'NONE',  ( 0.9599999999999999645, -0.7597279199999998900, 0.000000000000000000 ) );
#95665 = AXIS2_PLACEMENT_3D ( 'NONE', #19726, #113624, #60690 );
#95947 = CARTESIAN_POINT ( 'NONE',  ( -1.000000000000000000, -1.000000000000000222, 0.000000000000000000 ) );
#95985 = LINE ( 'NONE', #42375, #20003 );
#96306 = CIRCLE ( 'NONE', #35510, 0.02722791000000002529 );
#96881 = FACE_BOUND ( 'NONE', #48768, .T. );
#97093 = VERTEX_POINT ( 'NONE', #113005 );
#98283 = FACE_BOUND ( 'NONE', #9328, .T. );
#98874 = CIRCLE ( 'NONE', #110161, 0.02722791000000002529 );
#100423 = CARTESIAN_POINT ( 'NONE',  ( 0.8749999999999997780, -0.7253469762168996970, 0.000000000000000000 ) );
#101505 = AXIS2_PLACEMENT_3D ( 'NONE', #87451, #127206, #62282 );
#101571 = LINE ( 'NONE', #80394, #110822 );
#101643 = DIRECTION ( 'NONE',  ( -1.000000000000000000, 0.000000000000000000, 0.000000000000000000 ) );
#101693 = CARTESIAN_POINT ( 'NONE',  ( 0.5000000080704162242, 0.5000000080704158911, 0.000000000000000000 ) );
#101697 = AXIS2_PLACEMENT_3D ( 'NONE', #116902, #12376, #42122 );
#102194 = EDGE_CURVE ( 'NONE', #41258, #85455, #88685, .T. );
#102342 = CARTESIAN_POINT ( 'NONE',  ( -0.9599999999999999645, 0.9327720899999998316, 0.000000000000000000 ) );
#102434 = CIRCLE ( 'NONE', #95665, 0.02722791000000002529 );
#102705 = ADVANCED_FACE ( 'NONE', ( #98283, #96881, #117362, #10062, #43272, #53167 ), #74345, .F. );
#103763 = VERTEX_POINT ( 'NONE', #25250 );
#105266 = ORIENTED_EDGE ( 'NONE', *, *, #134438, .F. );
#106362 = CARTESIAN_POINT ( 'NONE',  ( 0.7253469762168991419, -0.8750000000000001110, 0.000000000000000000 ) );
#108182 = DIRECTION ( 'NONE',  ( 0.000000000000000000, 0.000000000000000000, -1.000000000000000000 ) );
#108314 = CARTESIAN_POINT ( 'NONE',  ( -0.7253469762168990309, -0.8750000000000001110, 0.000000000000000000 ) );
#108380 = ORIENTED_EDGE ( 'NONE', *, *, #29100, .F. );
#109706 = DIRECTION ( 'NONE',  ( 0.000000000000000000, -1.000000000000000000, 0.000000000000000000 ) );
#109734 = LINE ( 'NONE', #67373, #3827 );
#110084 = CARTESIAN_POINT ( 'NONE',  ( -0.8749999999999997780, 0.7253469762168995860, 0.000000000000000000 ) );
#110161 = AXIS2_PLACEMENT_3D ( 'NONE', #30834, #119687, #138820 );
#110671 = DIRECTION ( 'NONE',  ( -1.000000000000000000, 0.000000000000000000, 0.000000000000000000 ) );
#110822 = VECTOR ( 'NONE', #67006, 39.37007874015748143 );
#111631 = ORIENTED_EDGE ( 'NONE', *, *, #137986, .F. );
#111896 = CARTESIAN_POINT ( 'NONE',  ( 1.000000000000000000, 0.9999999999999998890, 0.000000000000000000 ) );
#111931 = CARTESIAN_POINT ( 'NONE',  ( -1.000000000000000000, -1.000000000000000222, 0.000000000000000000 ) );
#112140 = EDGE_CURVE ( 'NONE', #85455, #71262, #101571, .T. );
#112611 = EDGE_CURVE ( 'NONE', #128028, #27454, #68257, .T. );
#112884 = DIRECTION ( 'NONE',  ( 1.000000000000000000, 0.000000000000000000, 0.000000000000000000 ) );
#113005 = CARTESIAN_POINT ( 'NONE',  ( -0.9599999999999999645, -0.7597279199999998900, 0.000000000000000000 ) );
#113392 = DIRECTION ( 'NONE',  ( 1.000000000000000000, 0.000000000000000000, 0.000000000000000000 ) );
#113494 = VERTEX_POINT ( 'NONE', #30254 );
#113624 = DIRECTION ( 'NONE',  ( 0.000000000000000000, 0.000000000000000000, 1.000000000000000000 ) );
#114012 = LINE ( 'NONE', #17321, #7149 );
#114545 = CARTESIAN_POINT ( 'NONE',  ( -0.9599999999999999645, -0.7597279199999998900, 0.000000000000000000 ) );
#114785 = VERTEX_POINT ( 'NONE', #130071 );
#115029 = DIRECTION ( 'NONE',  ( -1.000000000000000000, 0.000000000000000000, 0.000000000000000000 ) );
#115035 = CARTESIAN_POINT ( 'NONE',  ( -0.7597279200000000010, -0.9327720899999998316, 0.000000000000000000 ) );
#115083 = LINE ( 'NONE', #95290, #118646 );
#115117 = EDGE_CURVE ( 'NONE', #126746, #97093, #102434, .T. );
#115145 = VECTOR ( 'NONE', #40773, 39.37007874015748143 );
#116902 = CARTESIAN_POINT ( 'NONE',  ( 0.9327720899999999427, -0.9327720899999998316, 0.000000000000000000 ) );
#117145 = AXIS2_PLACEMENT_3D ( 'NONE', #14357, #122366, #58826 );
#117356 = LINE ( 'NONE', #51077, #35359 );
#117362 = FACE_BOUND ( 'NONE', #70376, .T. );
#117473 = DIMENSIONAL_EXPONENTS ( 1.000000000000000000, 0.000000000000000000, 0.000000000000000000, 0.000000000000000000, 0.000000000000000000, 0.000000000000000000, 0.000000000000000000 );
#117755 = CIRCLE ( 'NONE', #79511, 0.02722791000000002529 );
#117799 = DIRECTION ( 'NONE',  ( 0.000000000000000000, 1.000000000000000000, 0.000000000000000000 ) );
#118377 = VERTEX_POINT ( 'NONE', #86084 );
#118436 = CARTESIAN_POINT ( 'NONE',  ( 0.5000000080704162242, -0.5000000080704158911, 0.000000000000000000 ) );
#118646 = VECTOR ( 'NONE', #61436, 39.37007874015748143 );
#119027 = CARTESIAN_POINT ( 'NONE',  ( -0.7253469762168991419, 0.8750000000000001110, 0.000000000000000000 ) );
#119243 = ORIENTED_EDGE ( 'NONE', *, *, #65553, .F. );
#119576 = EDGE_CURVE ( 'NONE', #67277, #36146, #96306, .T. );
#119687 = DIRECTION ( 'NONE',  ( 0.000000000000000000, 0.000000000000000000, 1.000000000000000000 ) );
#120314 = CARTESIAN_POINT ( 'NONE',  ( -0.7457167110488116535, 0.9094258888808832708, 0.000000000000000000 ) );
#120318 = CIRCLE ( 'NONE', #75292, 0.4774999999999999800 );
#120436 = VERTEX_POINT ( 'NONE', #39213 );
#120543 = ORIENTED_EDGE ( 'NONE', *, *, #132983, .F. );
#121448 = CARTESIAN_POINT ( 'NONE',  ( 1.000000000000000000, -0.9999999999999998890, 0.000000000000000000 ) );
#121947 = VERTEX_POINT ( 'NONE', #108314 );
#122009 = AXIS2_PLACEMENT_3D ( 'NONE', #86663, #66886, #33054 );
#122366 = DIRECTION ( 'NONE',  ( -0.000000000000000000, -0.000000000000000000, -1.000000000000000000 ) );
#122655 = DIRECTION ( 'NONE',  ( 0.000000000000000000, 0.000000000000000000, 1.000000000000000000 ) );
#122727 = VERTEX_POINT ( 'NONE', #94603 );
#123360 = EDGE_CURVE ( 'NONE', #57989, #120436, #86019, .T. );
#123613 = DIRECTION ( 'NONE',  ( -1.000000000000000000, -0.000000000000000000, -0.000000000000000000 ) );
#124282 = ORIENTED_EDGE ( 'NONE', *, *, #57058, .F. );
#125060 = DIRECTION ( 'NONE',  ( -1.000000000000000000, 0.000000000000000000, 0.000000000000000000 ) );
#125998 = DIRECTION ( 'NONE',  ( -0.000000000000000000, -0.000000000000000000, -1.000000000000000000 ) );
#126287 = DIRECTION ( 'NONE',  ( 0.000000000000000000, 0.000000000000000000, 1.000000000000000000 ) );
#126342 = DIRECTION ( 'NONE',  ( -1.000000000000000000, 0.000000000000000000, 0.000000000000000000 ) );
#126696 = ORIENTED_EDGE ( 'NONE', *, *, #10368, .F. );
#126746 = VERTEX_POINT ( 'NONE', #48345 );
#127195 = DIRECTION ( 'NONE',  ( 0.000000000000000000, 0.000000000000000000, 1.000000000000000000 ) );
#127206 = DIRECTION ( 'NONE',  ( 0.000000000000000000, 0.000000000000000000, 1.000000000000000000 ) );
#127236 = DIRECTION ( 'NONE',  ( 0.000000000000000000, -1.000000000000000000, 0.000000000000000000 ) );
#128028 = VERTEX_POINT ( 'NONE', #111896 );
#128396 = VECTOR ( 'NONE', #125060, 39.37007874015748143 );
#128669 = ORIENTED_EDGE ( 'NONE', *, *, #79198, .F. );
#130071 = CARTESIAN_POINT ( 'NONE',  ( 0.9327720899999999427, -0.9599999999999998535, 0.000000000000000000 ) );
#130408 = VECTOR ( 'NONE', #77506, 39.37007874015748143 );
#130997 = ORIENTED_EDGE ( 'NONE', *, *, #115117, .F. );
#131145 = VERTEX_POINT ( 'NONE', #119027 );
#132713 = CIRCLE ( 'NONE', #87637, 0.02722791000000002529 );
#132735 = AXIS2_PLACEMENT_3D ( 'NONE', #115035, #62095, #38867 );
#132897 = VERTEX_POINT ( 'NONE', #64542 );
#132983 = EDGE_CURVE ( 'NONE', #18541, #132897, #27011, .T. );
#134189 = VECTOR ( 'NONE', #109706, 39.37007874015748143 );
#134438 = EDGE_CURVE ( 'NONE', #97093, #57989, #39074, .T. );
#135911 = EDGE_CURVE ( 'NONE', #40639, #128028, #117356, .T. );
#136193 = CARTESIAN_POINT ( 'NONE',  ( -0.9327720899999999427, 0.9327720899999998316, 0.000000000000000000 ) );
#136481 = DIRECTION ( 'NONE',  ( 1.000000000000000000, 0.000000000000000000, 0.000000000000000000 ) );
#136638 = VERTEX_POINT ( 'NONE', #46592 );
#137323 = CARTESIAN_POINT ( 'NONE',  ( 0.7597279200000000010, -0.9327720899999998316, 0.000000000000000000 ) );
#137986 = EDGE_CURVE ( 'NONE', #121947, #41258, #25434, .T. );
#138305 = EDGE_CURVE ( 'NONE', #136638, #114785, #564, .T. );
#138376 = VERTEX_POINT ( 'NONE', #4759 );
#138583 = DIRECTION ( 'NONE',  ( -0.000000000000000000, 1.000000000000000000, -0.000000000000000000 ) );
#138598 = EDGE_CURVE ( 'NONE', #14597, #61852, #98874, .T. );
#138820 = DIRECTION ( 'NONE',  ( 1.000000000000000000, 0.000000000000000000, 0.000000000000000000 ) );
#139414 = DIRECTION ( 'NONE',  ( 1.000000000000000000, 1.365923996832131609E-16, -0.000000000000000000 ) );
#139811 = ADVANCED_BREP_SHAPE_REPRESENTATION('', (#102705), #79143);
ENDSEC;
END-ISO-10303-21;
