ISO-10303-21;
HEADER;
FILE_DESCRIPTION (( 'STEP AP203' ),
    '1' );
FILE_NAME ('REV-21-2289.STEP',
    '2022-04-27T20:15:30',
    ( '' ),
    ( '' ),
    'SwSTEP 2.0',
    'SolidWorks 2022',
    '' );
FILE_SCHEMA (( 'CONFIG_CONTROL_DESIGN' ));
ENDSEC;

DATA;
#33 = CARTESIAN_POINT ( 'NONE',  ( -0.4949999999999998845, -0.5000000000000000000, 0.5000000000000000000 ) );
#116 = EDGE_CURVE ( 'NONE', #44082, #123422, #15471, .T. );
#287 = EDGE_CURVE ( 'NONE', #154290, #99353, #156541, .T. );
#316 = DIRECTION ( 'NONE',  ( -0.000000000000000000, 0.000000000000000000, -1.000000000000000000 ) );
#460 = ORIENTED_EDGE ( 'NONE', *, *, #60626, .F. );
#700 = CARTESIAN_POINT ( 'NONE',  ( -0.4327720855862979832, -0.9599999999999999645, 0.5000000000000000000 ) );
#729 = DIRECTION ( 'NONE',  ( -1.000000000000000000, -0.000000000000000000, -0.000000000000000000 ) );
#1014 = AXIS2_PLACEMENT_3D ( 'NONE', #77546, #95524, #93010 );
#1035 = VECTOR ( 'NONE', #104457, 39.37007874015748854 );
#1139 = CIRCLE ( 'NONE', #69804, 0.02722791441370217558 );
#1238 = ORIENTED_EDGE ( 'NONE', *, *, #69757, .T. );
#1342 = VERTEX_POINT ( 'NONE', #127508 );
#1389 = VECTOR ( 'NONE', #154812, 39.37007874015748143 );
#1488 = CARTESIAN_POINT ( 'NONE',  ( -0.1925000000000000044, 0.8928740256112638329, 0.5000000000000000000 ) );
#1837 = EDGE_CURVE ( 'NONE', #57953, #147940, #83872, .T. );
#1888 = DIRECTION ( 'NONE',  ( 0.000000000000000000, -0.000000000000000000, 1.000000000000000000 ) );
#2099 = EDGE_CURVE ( 'NONE', #154247, #99974, #27750, .T. );
#2135 = LINE ( 'NONE', #91730, #35420 );
#2419 = CARTESIAN_POINT ( 'NONE',  ( 0.1952683615819211516, -0.8915054494705176857, 0.5000000000000000000 ) );
#2584 = EDGE_CURVE ( 'NONE', #22026, #88042, #120545, .T. );
#2806 = CIRCLE ( 'NONE', #118234, 0.02722791441370204027 );
#2849 = DIRECTION ( 'NONE',  ( 1.000000000000000000, 0.000000000000000000, 0.000000000000000000 ) );
#2969 = DIMENSIONAL_EXPONENTS ( 1.000000000000000000, 0.000000000000000000, 0.000000000000000000, 0.000000000000000000, 0.000000000000000000, 0.000000000000000000, 0.000000000000000000 );
#3015 = ORIENTED_EDGE ( 'NONE', *, *, #85286, .F. );
#3040 = CIRCLE ( 'NONE', #143337, 0.005000000000000014849 );
#3047 = LINE ( 'NONE', #149430, #141696 );
#3308 = CIRCLE ( 'NONE', #33557, 0.02722791441370197088 );
#3361 = CARTESIAN_POINT ( 'NONE',  ( 0.5000000000000000000, -1.000000000000000000, 0.5000000000000000000 ) );
#3427 = DIRECTION ( 'NONE',  ( 0.000000000000000000, 0.000000000000000000, 1.000000000000000000 ) );
#3470 = CARTESIAN_POINT ( 'NONE',  ( 0.5000000000000000000, -1.000000000000000000, 0.5000000000000000000 ) );
#3882 = VERTEX_POINT ( 'NONE', #168443 );
#3902 = CIRCLE ( 'NONE', #119432, 0.4375000000000000000 );
#4139 = DIRECTION ( 'NONE',  ( -0.000000000000000000, 0.000000000000000000, -1.000000000000000000 ) );
#4358 = AXIS2_PLACEMENT_3D ( 'NONE', #13235, #39108, #131250 );
#4532 = ORIENTED_EDGE ( 'NONE', *, *, #125709, .F. );
#4701 = ORIENTED_EDGE ( 'NONE', *, *, #52615, .F. );
#4873 = ORIENTED_EDGE ( 'NONE', *, *, #86570, .F. );
#4938 = VECTOR ( 'NONE', #124537, 39.37007874015748143 );
#5004 = VERTEX_POINT ( 'NONE', #106369 );
#5005 = AXIS2_PLACEMENT_3D ( 'NONE', #13778, #3427, #68004 );
#5029 = CARTESIAN_POINT ( 'NONE',  ( 0.000000000000000000, 0.5000000000000000000, 0.5000000000000000000 ) );
#5275 = EDGE_CURVE ( 'NONE', #145535, #1342, #127801, .T. );
#5378 = DIRECTION ( 'NONE',  ( 0.000000000000000000, 0.000000000000000000, 1.000000000000000000 ) );
#5769 = CARTESIAN_POINT ( 'NONE',  ( 0.4949999999999998845, 0.5000000000000000000, 0.5000000000000000000 ) );
#5947 = ORIENTED_EDGE ( 'NONE', *, *, #165581, .F. );
#6107 = CARTESIAN_POINT ( 'NONE',  ( 0.000000000000000000, 0.5000000000000000000, 0.5000000000000000000 ) );
#6187 = VERTEX_POINT ( 'NONE', #119541 );
#6192 = EDGE_CURVE ( 'NONE', #144168, #105742, #130808, .T. );
#6624 = LINE ( 'NONE', #59112, #88641 );
#6704 = ORIENTED_EDGE ( 'NONE', *, *, #162849, .T. );
#6987 = EDGE_CURVE ( 'NONE', #105742, #51774, #73209, .T. );
#7298 = DIRECTION ( 'NONE',  ( -1.000000000000000000, -1.578699805461514031E-15, -0.000000000000000000 ) );
#7415 = CARTESIAN_POINT ( 'NONE',  ( 3.734948428837859484E-18, -0.9649999999999998579, 0.5000000000000000000 ) );
#7742 = CARTESIAN_POINT ( 'NONE',  ( -0.4650000000000000244, -0.5000000000000000000, 0.5000000000000000000 ) );
#7872 = LINE ( 'NONE', #137932, #37982 );
#8323 = EDGE_CURVE ( 'NONE', #19932, #15094, #108367, .T. );
#8660 = VECTOR ( 'NONE', #159442, 39.37007874015748854 );
#8819 = ORIENTED_EDGE ( 'NONE', *, *, #37249, .T. );
#9288 = ORIENTED_EDGE ( 'NONE', *, *, #40984, .F. );
#9313 = CIRCLE ( 'NONE', #58812, 0.02722791441370190496 );
#9488 = EDGE_CURVE ( 'NONE', #74841, #54499, #3040, .T. );
#10279 = DIRECTION ( 'NONE',  ( 1.000000000000000000, 7.893499027307575085E-16, 0.000000000000000000 ) );
#10744 = DIRECTION ( 'NONE',  ( -0.000000000000000000, -0.000000000000000000, -1.000000000000000000 ) );
#11086 = CARTESIAN_POINT ( 'NONE',  ( 0.5000000000000000000, -0.4950000000000001621, 0.5000000000000000000 ) );
#11252 = CARTESIAN_POINT ( 'NONE',  ( 0.1952683615819209573, 0.8915054494705177968, 0.5000000000000000000 ) );
#11305 = DIRECTION ( 'NONE',  ( -0.000000000000000000, 0.000000000000000000, -1.000000000000000000 ) );
#11430 = ORIENTED_EDGE ( 'NONE', *, *, #1837, .F. );
#11797 = CARTESIAN_POINT ( 'NONE',  ( -0.4599999999999999645, 0.9327720855862979832, 0.5000000000000000000 ) );
#12455 = EDGE_CURVE ( 'NONE', #43017, #77633, #79535, .T. );
#12530 = VERTEX_POINT ( 'NONE', #98382 );
#12544 = VECTOR ( 'NONE', #35678, 39.37007874015748143 );
#12847 = CARTESIAN_POINT ( 'NONE',  ( -0.4649999999999999689, -3.414809992080329023E-17, 0.5000000000000000000 ) );
#12888 = FACE_BOUND ( 'NONE', #35811, .T. );
#13235 = CARTESIAN_POINT ( 'NONE',  ( 0.000000000000000000, 0.5000000000000000000, 0.5000000000000000000 ) );
#13274 = EDGE_CURVE ( 'NONE', #107178, #141417, #65357, .T. );
#13362 = AXIS2_PLACEMENT_3D ( 'NONE', #84198, #31702, #55800 );
#13445 = ORIENTED_EDGE ( 'NONE', *, *, #94396, .T. );
#13760 = VECTOR ( 'NONE', #117132, 39.37007874015748854 );
#13778 = CARTESIAN_POINT ( 'NONE',  ( -0.2597279144137020213, -0.9327720855862978722, 0.5000000000000000000 ) );
#13903 = VERTEX_POINT ( 'NONE', #77044 );
#13975 = CARTESIAN_POINT ( 'NONE',  ( 0.4550000000000000155, 0.6924999999999997824, 0.5000000000000000000 ) );
#14023 = EDGE_CURVE ( 'NONE', #121805, #114243, #146747, .T. );
#14107 = CIRCLE ( 'NONE', #113171, 0.02722791441370210966 );
#14358 = VERTEX_POINT ( 'NONE', #86992 );
#14520 = LINE ( 'NONE', #68737, #31543 );
#14543 = CIRCLE ( 'NONE', #163054, 0.02722791441370204027 );
#14578 = PLANE ( 'NONE',  #74496 );
#14682 = ORIENTED_EDGE ( 'NONE', *, *, #157826, .F. );
#14722 = ( GEOMETRIC_REPRESENTATION_CONTEXT ( 3 ) GLOBAL_UNCERTAINTY_ASSIGNED_CONTEXT ( ( #32179 ) ) GLOBAL_UNIT_ASSIGNED_CONTEXT ( ( #55365, #42468, #118290 ) ) REPRESENTATION_CONTEXT ( 'NONE', 'WORKASPACE' ) );
#14846 = CARTESIAN_POINT ( 'NONE',  ( -3.607425381479602844E-18, 0.9949999999999998845, 0.5000000000000000000 ) );
#15094 = VERTEX_POINT ( 'NONE', #113020 );
#15211 = DIRECTION ( 'NONE',  ( -1.000000000000000000, 7.893499027307575085E-16, -0.000000000000000000 ) );
#15276 = ORIENTED_EDGE ( 'NONE', *, *, #111338, .F. );
#15471 = LINE ( 'NONE', #43825, #71770 );
#15694 = CARTESIAN_POINT ( 'NONE',  ( -3.607425381479602844E-18, 0.9949999999999998845, 0.5000000000000000000 ) );
#15730 = CARTESIAN_POINT ( 'NONE',  ( -0.3959797974644665985, -0.6974999999999998979, 0.4999999999999973910 ) );
#15903 = ORIENTED_EDGE ( 'NONE', *, *, #28120, .F. );
#15995 = CIRCLE ( 'NONE', #38023, 0.4375000000000000555 );
#16249 = AXIS2_PLACEMENT_3D ( 'NONE', #30960, #36705, #87524 );
#16383 = DIRECTION ( 'NONE',  ( 0.000000000000000000, 0.000000000000000000, 1.000000000000000000 ) );
#16633 = VERTEX_POINT ( 'NONE', #60332 );
#16698 = ORIENTED_EDGE ( 'NONE', *, *, #38492, .F. );
#16738 = LINE ( 'NONE', #95103, #116860 );
#16841 = LINE ( 'NONE', #121047, #78274 );
#17458 = DIRECTION ( 'NONE',  ( 0.000000000000000000, -1.000000000000000000, 0.000000000000000000 ) );
#17468 = CARTESIAN_POINT ( 'NONE',  ( 1.031286998393405252E-16, -0.4999999999999998335, 0.5000000000000000000 ) );
#17872 = CARTESIAN_POINT ( 'NONE',  ( 0.4600000000000000755, 0.4949999999999999956, 0.5000000000000000000 ) );
#18304 = LINE ( 'NONE', #108723, #131288 );
#18331 = EDGE_CURVE ( 'NONE', #145535, #119271, #137609, .T. );
#18346 = VECTOR ( 'NONE', #131083, 39.37007874015748143 );
#18974 = CARTESIAN_POINT ( 'NONE',  ( -0.2597279144137020213, -0.9327720855862978722, 0.5000000000000000000 ) );
#19168 = ORIENTED_EDGE ( 'NONE', *, *, #133330, .F. );
#19194 = EDGE_CURVE ( 'NONE', #104244, #160329, #1139, .T. );
#19262 = CARTESIAN_POINT ( 'NONE',  ( 0.1875000000000002220, -0.9599999999999996314, 0.5000000000000000000 ) );
#19296 = DIRECTION ( 'NONE',  ( 1.000000000000000000, 3.547854537226315778E-16, 0.000000000000000000 ) );
#19535 = CARTESIAN_POINT ( 'NONE',  ( 0.4327720855862979832, -0.9599999999999998535, 0.5000000000000000000 ) );
#19544 = DIRECTION ( 'NONE',  ( -5.087166366188852879E-16, 1.000000000000000000, -0.000000000000000000 ) );
#19884 = CARTESIAN_POINT ( 'NONE',  ( 0.1874999999999999722, 0.9549999999999999600, 0.4999999999999973910 ) );
#19932 = VERTEX_POINT ( 'NONE', #131314 );
#20411 = ORIENTED_EDGE ( 'NONE', *, *, #119147, .F. );
#21677 = CARTESIAN_POINT ( 'NONE',  ( -0.4599999999999998535, 0.4950000000000000511, 0.5000000000000000000 ) );
#21745 = EDGE_CURVE ( 'NONE', #120587, #144168, #141888, .T. );
#21768 = EDGE_CURVE ( 'NONE', #19932, #107178, #60915, .T. );
#22026 = VERTEX_POINT ( 'NONE', #110677 );
#22086 = VECTOR ( 'NONE', #91510, 39.37007874015748143 );
#22165 = DIRECTION ( 'NONE',  ( 0.000000000000000000, 0.000000000000000000, 1.000000000000000000 ) );
#22643 = CARTESIAN_POINT ( 'NONE',  ( 0.1975000000000002587, -0.8959797974644665430, 0.4999999999999973910 ) );
#22842 = ORIENTED_EDGE ( 'NONE', *, *, #51286, .F. );
#23076 = CIRCLE ( 'NONE', #124864, 0.005000000000000014849 );
#23532 = AXIS2_PLACEMENT_3D ( 'NONE', #17468, #5378, #2849 );
#23602 = CARTESIAN_POINT ( 'NONE',  ( 0.4094258806896043934, 0.7457167031797833356, 0.5000000000000000000 ) );
#23882 = CARTESIAN_POINT ( 'NONE',  ( -0.4600000000000000200, -0.005000000000000072962, 0.5000000000000000000 ) );
#24736 = CARTESIAN_POINT ( 'NONE',  ( -0.5000000000000000000, -1.000000000000000000, 0.5000000000000000000 ) );
#24846 = CARTESIAN_POINT ( 'NONE',  ( -0.1874999999999997502, -0.9549999999999997380, 0.4999999999999973910 ) );
#25039 = EDGE_CURVE ( 'NONE', #84066, #34489, #87468, .T. );
#25212 = ORIENTED_EDGE ( 'NONE', *, *, #167759, .F. );
#25429 = VERTEX_POINT ( 'NONE', #165658 );
#25528 = CARTESIAN_POINT ( 'NONE',  ( 0.3959797974644669316, -0.6924999999999997824, 0.5000000000000000000 ) );
#26328 = CARTESIAN_POINT ( 'NONE',  ( -0.1924999999999997546, -0.9599999999999997424, 0.5000000000000000000 ) );
#26622 = DIRECTION ( 'NONE',  ( -1.000000000000000000, -0.000000000000000000, -0.000000000000000000 ) );
#26710 = VECTOR ( 'NONE', #19296, 39.37007874015748143 );
#26847 = CARTESIAN_POINT ( 'NONE',  ( -0.5000000000000000000, 1.000000000000000000, 0.5000000000000000000 ) );
#27013 = CARTESIAN_POINT ( 'NONE',  ( 0.005000000000000018319, -1.000000000000000000, 0.5000000000000000000 ) );
#27132 = VERTEX_POINT ( 'NONE', #55074 );
#27657 = CARTESIAN_POINT ( 'NONE',  ( 3.734948428837859484E-18, -0.9649999999999998579, 0.5000000000000000000 ) );
#27694 = DIRECTION ( 'NONE',  ( 1.000000000000000000, 0.000000000000000000, 0.000000000000000000 ) );
#27750 = LINE ( 'NONE', #64824, #90785 );
#27785 = DIRECTION ( 'NONE',  ( 0.000000000000000000, -0.000000000000000000, 1.000000000000000000 ) );
#27870 = LINE ( 'NONE', #121723, #156139 );
#27986 = LINE ( 'NONE', #26328, #148401 );
#28019 = VERTEX_POINT ( 'NONE', #143070 );
#28120 = EDGE_CURVE ( 'NONE', #72945, #12530, #149658, .T. );
#28327 = CARTESIAN_POINT ( 'NONE',  ( -0.4327720855862979832, 0.7597279144137021323, 0.5000000000000000000 ) );
#28542 = LINE ( 'NONE', #106887, #8660 );
#28712 = LENGTH_MEASURE_WITH_UNIT ( LENGTH_MEASURE( 0.02539999999999999897 ), #67455 );
#28761 = DIRECTION ( 'NONE',  ( -1.000000000000000000, 0.000000000000000000, 0.000000000000000000 ) );
#28948 = EDGE_CURVE ( 'NONE', #139331, #30753, #108411, .T. );
#29086 = VERTEX_POINT ( 'NONE', #157793 );
#29096 = CARTESIAN_POINT ( 'NONE',  ( -0.4327720855862979832, -0.9327720855862978722, 0.5000000000000000000 ) );
#29696 = AXIS2_PLACEMENT_3D ( 'NONE', #116821, #155634, #141862 );
#29868 = DIRECTION ( 'NONE',  ( 0.7071067811865426878, -0.7071067811865523467, 0.000000000000000000 ) );
#30415 = CARTESIAN_POINT ( 'NONE',  ( 0.4327720855862980387, -0.7597279144137017992, 0.5000000000000000000 ) );
#30655 = CARTESIAN_POINT ( 'NONE',  ( -0.1952683615819209850, 0.8915054494705177968, 0.5000000000000000000 ) );
#30753 = VERTEX_POINT ( 'NONE', #35203 );
#30786 = LINE ( 'NONE', #114236, #161319 );
#30889 = CARTESIAN_POINT ( 'NONE',  ( 0.1925000000000000044, 0.9549999999999999600, 0.5000000000000000000 ) );
#30960 = CARTESIAN_POINT ( 'NONE',  ( 1.031286998393405252E-16, -0.4999999999999998335, 0.5000000000000000000 ) );
#31467 = VERTEX_POINT ( 'NONE', #11252 );
#31543 = VECTOR ( 'NONE', #67033, 39.37007874015748143 );
#31702 = DIRECTION ( 'NONE',  ( 0.000000000000000000, 0.000000000000000000, 1.000000000000000000 ) );
#31739 = EDGE_CURVE ( 'NONE', #93142, #44271, #128014, .T. );
#31991 = EDGE_CURVE ( 'NONE', #75856, #151716, #3308, .T. );
#32179 = UNCERTAINTY_MEASURE_WITH_UNIT (LENGTH_MEASURE( 1.000000000000000082E-05 ), #55365, 'distance_accuracy_value', 'NONE');
#32284 = EDGE_CURVE ( 'NONE', #116909, #41448, #50001, .T. );
#32320 = EDGE_CURVE ( 'NONE', #97289, #98559, #70606, .T. );
#32380 = CARTESIAN_POINT ( 'NONE',  ( -0.4600000000000000755, -0.5050000000000001155, 0.5000000000000000000 ) );
#32416 = ORIENTED_EDGE ( 'NONE', *, *, #53808, .F. );
#32713 = DIRECTION ( 'NONE',  ( 1.000000000000000000, 0.000000000000000000, 0.000000000000000000 ) );
#32873 = DIRECTION ( 'NONE',  ( -1.000000000000000000, 0.000000000000000000, 0.000000000000000000 ) );
#32996 = DIRECTION ( 'NONE',  ( 0.000000000000000000, 1.000000000000000000, 0.000000000000000000 ) );
#33001 = VECTOR ( 'NONE', #121807, 39.37007874015748143 );
#33409 = VERTEX_POINT ( 'NONE', #160455 );
#33557 = AXIS2_PLACEMENT_3D ( 'NONE', #156006, #155168, #50916 );
#34389 = ORIENTED_EDGE ( 'NONE', *, *, #69500, .F. );
#34489 = VERTEX_POINT ( 'NONE', #82082 );
#34596 = CIRCLE ( 'NONE', #23532, 0.4375000000000000555 );
#34848 = DIRECTION ( 'NONE',  ( -0.7071067811865667796, -0.7071067811865281438, -0.000000000000000000 ) );
#35020 = ORIENTED_EDGE ( 'NONE', *, *, #12455, .F. );
#35048 = LINE ( 'NONE', #168494, #105109 );
#35203 = CARTESIAN_POINT ( 'NONE',  ( 0.1925000000000002265, -0.8959797974644665430, 0.5000000000000000000 ) );
#35368 = DIRECTION ( 'NONE',  ( 0.000000000000000000, 0.000000000000000000, 1.000000000000000000 ) );
#35420 = VECTOR ( 'NONE', #158037, 39.37007874015748854 );
#35524 = ORIENTED_EDGE ( 'NONE', *, *, #13274, .F. );
#35678 = DIRECTION ( 'NONE',  ( 1.184024854096135770E-15, 1.000000000000000000, -0.000000000000000000 ) );
#35811 = EDGE_LOOP ( 'NONE', ( #108685, #140239, #93484, #143073, #144257, #460 ) );
#36040 = ORIENTED_EDGE ( 'NONE', *, *, #105354, .F. );
#36380 = CARTESIAN_POINT ( 'NONE',  ( -0.5000000000000000000, -0.4949999999999998845, 0.5000000000000000000 ) );
#36705 = DIRECTION ( 'NONE',  ( -0.000000000000000000, -0.000000000000000000, -1.000000000000000000 ) );
#36862 = VECTOR ( 'NONE', #58321, 39.37007874015748143 );
#37249 = EDGE_CURVE ( 'NONE', #39829, #128147, #122102, .T. );
#37415 = VECTOR ( 'NONE', #26622, 39.37007874015748143 );
#37675 = EDGE_CURVE ( 'NONE', #127223, #73122, #16841, .T. );
#37709 = CARTESIAN_POINT ( 'NONE',  ( -0.4550000000000000155, -0.6924999999999998934, 0.5000000000000000000 ) );
#37716 = VERTEX_POINT ( 'NONE', #95201 );
#37982 = VECTOR ( 'NONE', #32873, 39.37007874015748143 );
#38023 = AXIS2_PLACEMENT_3D ( 'NONE', #108447, #55066, #109288 );
#38109 = ORIENTED_EDGE ( 'NONE', *, *, #37675, .F. );
#38208 = CARTESIAN_POINT ( 'NONE',  ( -0.1874999999999999722, 0.9599999999999998535, 0.5000000000000000000 ) );
#38492 = EDGE_CURVE ( 'NONE', #151716, #92906, #144436, .T. );
#38763 = CARTESIAN_POINT ( 'NONE',  ( -0.1924999999999997546, -0.9549999999999997380, 0.5000000000000000000 ) );
#38781 = DIRECTION ( 'NONE',  ( 0.000000000000000000, 0.000000000000000000, 1.000000000000000000 ) );
#38987 = CARTESIAN_POINT ( 'NONE',  ( 0.4600000000000000200, -0.9327720855862978722, 0.5000000000000000000 ) );
#39015 = DIRECTION ( 'NONE',  ( 0.7071067811865481278, -0.7071067811865469066, 0.000000000000000000 ) );
#39096 = AXIS2_PLACEMENT_3D ( 'NONE', #123131, #16383, #32713 );
#39108 = DIRECTION ( 'NONE',  ( 0.000000000000000000, 0.000000000000000000, 1.000000000000000000 ) );
#39129 = ORIENTED_EDGE ( 'NONE', *, *, #142881, .F. );
#39154 = DIRECTION ( 'NONE',  ( 1.000000000000000000, 0.000000000000000000, 0.000000000000000000 ) );
#39266 = VERTEX_POINT ( 'NONE', #152488 );
#39326 = ORIENTED_EDGE ( 'NONE', *, *, #126822, .T. );
#39358 = VERTEX_POINT ( 'NONE', #154186 );
#39472 = DIRECTION ( 'NONE',  ( 1.000000000000000000, 0.000000000000000000, 0.000000000000000000 ) );
#39580 = DIRECTION ( 'NONE',  ( 0.000000000000000000, -0.000000000000000000, 1.000000000000000000 ) );
#39829 = VERTEX_POINT ( 'NONE', #144458 );
#39975 = DIRECTION ( 'NONE',  ( 1.000000000000000000, 0.000000000000000000, 0.000000000000000000 ) );
#40051 = DIRECTION ( 'NONE',  ( 0.000000000000000000, 1.000000000000000000, 0.000000000000000000 ) );
#40135 = CIRCLE ( 'NONE', #4358, 0.4375000000000000555 );
#40337 = DIRECTION ( 'NONE',  ( 0.000000000000000000, -1.000000000000000000, 0.000000000000000000 ) );
#40389 = CARTESIAN_POINT ( 'NONE',  ( 0.4600000000000000200, -0.9327720855862978722, 0.5000000000000000000 ) );
#40984 = EDGE_CURVE ( 'NONE', #48815, #68970, #134931, .T. );
#41148 = CARTESIAN_POINT ( 'NONE',  ( -0.1975000000000000089, 0.8959797974644666541, 0.4999999999999973910 ) );
#41448 = VERTEX_POINT ( 'NONE', #49352 );
#41713 = VECTOR ( 'NONE', #126558, 39.37007874015748143 );
#41867 = LINE ( 'NONE', #53928, #49506 );
#41976 = ORIENTED_EDGE ( 'NONE', *, *, #8323, .T. );
#42335 = VERTEX_POINT ( 'NONE', #57613 );
#42468 = ( NAMED_UNIT ( * ) PLANE_ANGLE_UNIT ( ) SI_UNIT ( $, .RADIAN. ) );
#42877 = LINE ( 'NONE', #79924, #141737 );
#42886 = EDGE_CURVE ( 'NONE', #47106, #66959, #144202, .T. );
#43017 = VERTEX_POINT ( 'NONE', #158743 );
#43095 = CARTESIAN_POINT ( 'NONE',  ( 0.5000000000000000000, 0.5049999999999998934, 0.5000000000000000000 ) );
#43718 = EDGE_CURVE ( 'NONE', #74841, #146584, #42877, .T. );
#43825 = CARTESIAN_POINT ( 'NONE',  ( 0.4600000000000000200, 0.005000000000000072962, 0.5000000000000000000 ) );
#43827 = ORIENTED_EDGE ( 'NONE', *, *, #89189, .F. );
#44066 = VERTEX_POINT ( 'NONE', #78066 );
#44082 = VERTEX_POINT ( 'NONE', #143550 );
#44137 = DIRECTION ( 'NONE',  ( -1.000000000000000000, 0.000000000000000000, 0.000000000000000000 ) );
#44138 = DIRECTION ( 'NONE',  ( 1.000000000000000000, 0.000000000000000000, 0.000000000000000000 ) );
#44271 = VERTEX_POINT ( 'NONE', #153517 );
#44858 = EDGE_CURVE ( 'NONE', #132798, #89546, #14520, .T. );
#45380 = LINE ( 'NONE', #84993, #147174 );
#45467 = VECTOR ( 'NONE', #160474, 39.37007874015748143 );
#45560 = LINE ( 'NONE', #123932, #56440 );
#45653 = DIRECTION ( 'NONE',  ( 0.000000000000000000, 0.000000000000000000, 1.000000000000000000 ) );
#46553 = DIRECTION ( 'NONE',  ( 1.000000000000000000, 0.000000000000000000, 0.000000000000000000 ) );
#47073 = VECTOR ( 'NONE', #78148, 39.37007874015748143 );
#47106 = VERTEX_POINT ( 'NONE', #37709 );
#47173 = CARTESIAN_POINT ( 'NONE',  ( -0.3959797974644668761, 0.6924999999999997824, 0.5000000000000000000 ) );
#47611 = CIRCLE ( 'NONE', #69612, 0.02722791441370204027 );
#47995 = CARTESIAN_POINT ( 'NONE',  ( -0.2597279144137020213, 0.9327720855862979832, 0.5000000000000000000 ) );
#48193 = EDGE_CURVE ( 'NONE', #77633, #57953, #115218, .T. );
#48599 = CARTESIAN_POINT ( 'NONE',  ( 0.2597279144137019102, 0.9599999999999998535, 0.5000000000000000000 ) );
#48815 = VERTEX_POINT ( 'NONE', #137279 );
#49046 = CIRCLE ( 'NONE', #145328, 0.005000000000000014849 );
#49352 = CARTESIAN_POINT ( 'NONE',  ( 0.4599999999999997979, 0.7597279144137019102, 0.5000000000000000000 ) );
#49506 = VECTOR ( 'NONE', #159025, 39.37007874015748143 );
#49910 = CARTESIAN_POINT ( 'NONE',  ( 0.2597279144137021878, -0.9599999999999996314, 0.5000000000000000000 ) );
#49914 = ORIENTED_EDGE ( 'NONE', *, *, #73441, .F. );
#50001 = CIRCLE ( 'NONE', #39096, 0.02722791441370197088 );
#50230 = ORIENTED_EDGE ( 'NONE', *, *, #114453, .F. );
#50681 = CARTESIAN_POINT ( 'NONE',  ( 3.607425381479602844E-18, -0.9949999999999998845, 0.5000000000000000000 ) );
#50750 = CARTESIAN_POINT ( 'NONE',  ( 3.607425381479602844E-18, -0.9949999999999998845, 0.5000000000000000000 ) );
#50916 = DIRECTION ( 'NONE',  ( 1.000000000000000000, 0.000000000000000000, 0.000000000000000000 ) );
#51286 = EDGE_CURVE ( 'NONE', #64666, #58208, #115626, .T. );
#51602 = CARTESIAN_POINT ( 'NONE',  ( -0.4950000000000000511, 0.5000000000000001110, 0.5000000000000000000 ) );
#51622 = CARTESIAN_POINT ( 'NONE',  ( 0.5000000000000000000, -0.005000000000000057350, 0.5000000000000000000 ) );
#51644 = FACE_BOUND ( 'NONE', #61092, .T. );
#51739 = VERTEX_POINT ( 'NONE', #153413 );
#51774 = VERTEX_POINT ( 'NONE', #121383 );
#51938 = CARTESIAN_POINT ( 'NONE',  ( -0.4600000000000000755, -0.5050000000000001155, 0.5000000000000000000 ) );
#52478 = FACE_BOUND ( 'NONE', #79750, .T. );
#52512 = LINE ( 'NONE', #33, #13760 );
#52615 = EDGE_CURVE ( 'NONE', #118693, #72945, #143772, .T. );
#52777 = VECTOR ( 'NONE', #28761, 39.37007874015748143 );
#52970 = DIRECTION ( 'NONE',  ( 1.000000000000000000, 0.000000000000000000, 0.000000000000000000 ) );
#52985 = DIRECTION ( 'NONE',  ( 1.000000000000000000, 3.547854537226315778E-16, 0.000000000000000000 ) );
#53009 = DIRECTION ( 'NONE',  ( 0.7071067811865464625, 0.7071067811865485719, 0.000000000000000000 ) );
#53075 = CARTESIAN_POINT ( 'NONE',  ( 0.4950000000000000511, -0.5000000000000001110, 0.5000000000000000000 ) );
#53173 = AXIS2_PLACEMENT_3D ( 'NONE', #144518, #108228, #67785 );
#53321 = VECTOR ( 'NONE', #127242, 39.37007874015748143 );
#53729 = CARTESIAN_POINT ( 'NONE',  ( -0.3928740256112639995, 0.6924999999999997824, 0.5000000000000000000 ) );
#53750 = VECTOR ( 'NONE', #69372, 39.37007874015748143 );
#53808 = EDGE_CURVE ( 'NONE', #44066, #51739, #41867, .T. );
#53928 = CARTESIAN_POINT ( 'NONE',  ( -3.734948428837859484E-18, 0.9649999999999998579, 0.5000000000000000000 ) );
#54029 = ORIENTED_EDGE ( 'NONE', *, *, #108265, .F. );
#54081 = EDGE_CURVE ( 'NONE', #44271, #93321, #2806, .T. );
#54165 = CARTESIAN_POINT ( 'NONE',  ( 0.000000000000000000, 0.000000000000000000, 0.5000000000000000000 ) );
#54290 = DIRECTION ( 'NONE',  ( 0.000000000000000000, -0.000000000000000000, 1.000000000000000000 ) );
#54499 = VERTEX_POINT ( 'NONE', #30889 );
#54853 = ORIENTED_EDGE ( 'NONE', *, *, #28948, .T. );
#55066 = DIRECTION ( 'NONE',  ( 0.000000000000000000, 0.000000000000000000, 1.000000000000000000 ) );
#55074 = CARTESIAN_POINT ( 'NONE',  ( -0.1952683615819206520, -0.8915054494705177968, 0.5000000000000000000 ) );
#55365 = ( CONVERSION_BASED_UNIT ( 'INCH', #28712 ) LENGTH_UNIT ( ) NAMED_UNIT ( #2969 ) );
#55741 = CARTESIAN_POINT ( 'NONE',  ( 0.4094258806896046154, -0.7457167031797833356, 0.5000000000000000000 ) );
#55752 = VECTOR ( 'NONE', #29868, 39.37007874015748143 );
#55791 = VERTEX_POINT ( 'NONE', #38763 );
#55800 = DIRECTION ( 'NONE',  ( 1.000000000000000000, 0.000000000000000000, 0.000000000000000000 ) );
#56303 = AXIS2_PLACEMENT_3D ( 'NONE', #22643, #100997, #141505 );
#56440 = VECTOR ( 'NONE', #98089, 39.37007874015748143 );
#56596 = DIRECTION ( 'NONE',  ( 0.000000000000000000, 0.000000000000000000, 1.000000000000000000 ) );
#56648 = LINE ( 'NONE', #137597, #82068 );
#57246 = ORIENTED_EDGE ( 'NONE', *, *, #69123, .F. );
#57498 = ORIENTED_EDGE ( 'NONE', *, *, #44858, .F. );
#57513 = DIRECTION ( 'NONE',  ( 1.000000000000000000, 0.000000000000000000, 0.000000000000000000 ) );
#57589 = CARTESIAN_POINT ( 'NONE',  ( 0.5000000000000000000, -1.000000000000000000, 0.5000000000000000000 ) );
#57613 = CARTESIAN_POINT ( 'NONE',  ( 0.4327720855862979832, 0.9600000000000001865, 0.5000000000000000000 ) );
#57883 = DIRECTION ( 'NONE',  ( -0.000000000000000000, 0.000000000000000000, -1.000000000000000000 ) );
#57953 = VERTEX_POINT ( 'NONE', #102991 );
#57992 = CARTESIAN_POINT ( 'NONE',  ( -0.3959797974644665985, -0.6924999999999998934, 0.5000000000000000000 ) );
#58208 = VERTEX_POINT ( 'NONE', #129467 );
#58211 = CARTESIAN_POINT ( 'NONE',  ( -0.4550000000000000155, 0.6924999999999997824, 0.5000000000000000000 ) );
#58321 = DIRECTION ( 'NONE',  ( -0.000000000000000000, -1.000000000000000000, -0.000000000000000000 ) );
#58329 = CARTESIAN_POINT ( 'NONE',  ( 0.4600000000000000755, -0.005000000000000035666, 0.5000000000000000000 ) );
#58400 = EDGE_CURVE ( 'NONE', #6187, #104416, #72377, .T. );
#58746 = CIRCLE ( 'NONE', #1014, 0.005000000000000014849 );
#58812 = AXIS2_PLACEMENT_3D ( 'NONE', #115409, #38781, #87903 );
#59010 = VECTOR ( 'NONE', #150693, 39.37007874015748143 );
#59112 = CARTESIAN_POINT ( 'NONE',  ( 0.5000000000000000000, -1.000000000000000000, 0.5000000000000000000 ) );
#59699 = EDGE_CURVE ( 'NONE', #138251, #138625, #23076, .T. );
#59811 = CIRCLE ( 'NONE', #153427, 0.005000000000000014849 );
#59915 = CARTESIAN_POINT ( 'NONE',  ( -0.5000000000000000000, -0.5049999999999998934, 0.5000000000000000000 ) );
#60054 = VECTOR ( 'NONE', #123813, 39.37007874015748854 );
#60332 = CARTESIAN_POINT ( 'NONE',  ( -0.1874999999999997502, -0.9599999999999997424, 0.5000000000000000000 ) );
#60626 = EDGE_CURVE ( 'NONE', #5004, #150922, #160507, .T. );
#60660 = CIRCLE ( 'NONE', #154268, 0.005000000000000014849 );
#60744 = CARTESIAN_POINT ( 'NONE',  ( 0.4650000000000000244, 0.5000000000000000000, 0.5000000000000000000 ) );
#60810 = CARTESIAN_POINT ( 'NONE',  ( 0.1874999999999999722, 0.9599999999999998535, 0.5000000000000000000 ) );
#60915 = LINE ( 'NONE', #90173, #53321 );
#61092 = EDGE_LOOP ( 'NONE', ( #123945, #72919, #3015, #148626, #93305, #93811, #114289, #43827, #147766, #143663, #163393, #11430, #147985, #35020, #6704, #151163, #143873, #34389, #54853, #50230, #39326, #149929, #156365, #57498, #89197, #1238, #115198, #108644, #39129, #148944, #112393, #65841, #136957, #83664, #110559, #116622, #67876, #5947, #155735, #49914, #157692, #22842, #138484, #162303, #134146, #156651, #141504, #96798, #164007, #133196, #32416, #119448, #158611, #167931, #164438, #115730 ) );
#61214 = AXIS2_PLACEMENT_3D ( 'NONE', #30415, #83773, #44138 );
#61266 = DIRECTION ( 'NONE',  ( 0.7071067811865620056, -0.7071067811865330288, -0.000000000000000000 ) );
#61346 = CARTESIAN_POINT ( 'NONE',  ( 0.5000000000000000000, -1.000000000000000000, 0.5000000000000000000 ) );
#61467 = EDGE_CURVE ( 'NONE', #51774, #103238, #64836, .T. );
#61648 = VERTEX_POINT ( 'NONE', #129244 );
#61934 = AXIS2_PLACEMENT_3D ( 'NONE', #5029, #71319, #57513 );
#61982 = VECTOR ( 'NONE', #62392, 39.37007874015748143 );
#62329 = VERTEX_POINT ( 'NONE', #86494 );
#62392 = DIRECTION ( 'NONE',  ( -0.7071067811865499042, 0.7071067811865451302, 0.000000000000000000 ) );
#62788 = CARTESIAN_POINT ( 'NONE',  ( 0.1925000000000000322, 0.8959797974644665430, 0.5000000000000000000 ) );
#63003 = EDGE_CURVE ( 'NONE', #110348, #62329, #136055, .T. );
#63174 = CARTESIAN_POINT ( 'NONE',  ( -0.4550000000000000155, -0.6875000000000000000, 0.4999999999999973910 ) );
#63444 = LINE ( 'NONE', #11797, #1389 );
#63757 = VECTOR ( 'NONE', #84360, 39.37007874015748143 );
#64057 = ORIENTED_EDGE ( 'NONE', *, *, #72832, .F. );
#64666 = VERTEX_POINT ( 'NONE', #83885 );
#64824 = CARTESIAN_POINT ( 'NONE',  ( 0.4949999999999999956, -5.141172097148480396E-17, 0.5000000000000000000 ) );
#64836 = LINE ( 'NONE', #51938, #1035 );
#65246 = VERTEX_POINT ( 'NONE', #129242 );
#65355 = LINE ( 'NONE', #78303, #37415 );
#65357 = LINE ( 'NONE', #51602, #71707 );
#65401 = FACE_BOUND ( 'NONE', #162577, .T. );
#65579 = ORIENTED_EDGE ( 'NONE', *, *, #21768, .F. );
#65820 = EDGE_CURVE ( 'NONE', #103238, #66959, #30786, .T. );
#65841 = ORIENTED_EDGE ( 'NONE', *, *, #42886, .T. );
#66009 = VERTEX_POINT ( 'NONE', #25528 );
#66635 = DIRECTION ( 'NONE',  ( 0.000000000000000000, 0.000000000000000000, 1.000000000000000000 ) );
#66793 = VERTEX_POINT ( 'NONE', #11086 );
#66934 = VERTEX_POINT ( 'NONE', #91479 );
#66959 = VERTEX_POINT ( 'NONE', #78553 );
#67033 = DIRECTION ( 'NONE',  ( 0.7071067811865499042, -0.7071067811865451302, 0.000000000000000000 ) );
#67455 = ( LENGTH_UNIT ( ) NAMED_UNIT ( * ) SI_UNIT ( $, .METRE. ) );
#67466 = LINE ( 'NONE', #120004, #45467 );
#67688 = DIRECTION ( 'NONE',  ( 0.7071067811865523467, -0.7071067811865426878, 0.000000000000000000 ) );
#67785 = DIRECTION ( 'NONE',  ( 1.000000000000000000, 0.000000000000000000, 0.000000000000000000 ) );
#67834 = DIRECTION ( 'NONE',  ( 1.000000000000000000, 0.000000000000000000, 0.000000000000000000 ) );
#67876 = ORIENTED_EDGE ( 'NONE', *, *, #21745, .F. );
#68004 = DIRECTION ( 'NONE',  ( 1.000000000000000000, 0.000000000000000000, 0.000000000000000000 ) );
#68079 = ORIENTED_EDGE ( 'NONE', *, *, #54081, .F. );
#68203 = DIRECTION ( 'NONE',  ( 0.7071067811865450192, 0.7071067811865499042, 0.000000000000000000 ) );
#68303 = CIRCLE ( 'NONE', #13362, 0.02722791441370210966 );
#68348 = ORIENTED_EDGE ( 'NONE', *, *, #5275, .F. );
#68737 = CARTESIAN_POINT ( 'NONE',  ( -0.004999999999999977553, -0.9599999999999998535, 0.5000000000000000000 ) );
#68970 = VERTEX_POINT ( 'NONE', #14846 );
#69123 = EDGE_CURVE ( 'NONE', #68970, #61648, #97435, .T. );
#69372 = DIRECTION ( 'NONE',  ( 1.000000000000000000, -0.000000000000000000, -0.000000000000000000 ) );
#69500 = EDGE_CURVE ( 'NONE', #139331, #33409, #15995, .T. );
#69561 = CARTESIAN_POINT ( 'NONE',  ( 0.4550000000000000155, 0.6874999999999998890, 0.4999999999999973910 ) );
#69612 = AXIS2_PLACEMENT_3D ( 'NONE', #134491, #71548, #97385 );
#69757 = EDGE_CURVE ( 'NONE', #16633, #55791, #49046, .T. );
#69804 = AXIS2_PLACEMENT_3D ( 'NONE', #28327, #107521, #105839 );
#69824 = AXIS2_PLACEMENT_3D ( 'NONE', #158205, #168583, #155676 );
#70175 = EDGE_CURVE ( 'NONE', #39829, #71992, #106361, .T. );
#70386 = EDGE_CURVE ( 'NONE', #89546, #101055, #165018, .T. );
#70457 = AXIS2_PLACEMENT_3D ( 'NONE', #69561, #4139, #97095 );
#70568 = EDGE_CURVE ( 'NONE', #71992, #15094, #2135, .T. );
#70606 = LINE ( 'NONE', #3470, #63757 );
#70853 = LINE ( 'NONE', #138895, #92224 );
#71137 = DIRECTION ( 'NONE',  ( 0.7071067811865426878, 0.7071067811865523467, -0.000000000000000000 ) );
#71281 = CARTESIAN_POINT ( 'NONE',  ( 0.4650000000000000244, 0.000000000000000000, 0.5000000000000000000 ) );
#71319 = DIRECTION ( 'NONE',  ( -0.000000000000000000, -0.000000000000000000, -1.000000000000000000 ) );
#71548 = DIRECTION ( 'NONE',  ( 0.000000000000000000, 0.000000000000000000, 1.000000000000000000 ) );
#71639 = EDGE_CURVE ( 'NONE', #101055, #137098, #27986, .T. );
#71707 = VECTOR ( 'NONE', #156704, 39.37007874015748143 );
#71770 = VECTOR ( 'NONE', #105902, 39.37007874015748143 );
#71793 = CARTESIAN_POINT ( 'NONE',  ( -0.4600000000000000200, -0.7597279144137019102, 0.5000000000000000000 ) );
#71992 = VERTEX_POINT ( 'NONE', #151925 );
#72087 = DIRECTION ( 'NONE',  ( 1.000000000000000000, -1.578699805461516595E-15, -0.000000000000000000 ) );
#72284 = ORIENTED_EDGE ( 'NONE', *, *, #70568, .F. );
#72377 = CIRCLE ( 'NONE', #77903, 0.005000000000000014849 );
#72832 = EDGE_CURVE ( 'NONE', #125164, #96754, #89453, .T. );
#72845 = VERTEX_POINT ( 'NONE', #90298 );
#72919 = ORIENTED_EDGE ( 'NONE', *, *, #59699, .T. );
#72945 = VERTEX_POINT ( 'NONE', #55741 );
#73122 = VERTEX_POINT ( 'NONE', #5769 );
#73188 = ORIENTED_EDGE ( 'NONE', *, *, #140725, .T. );
#73209 = LINE ( 'NONE', #7742, #41713 );
#73441 = EDGE_CURVE ( 'NONE', #39266, #110348, #166373, .T. );
#73718 = DIRECTION ( 'NONE',  ( 0.7071067811865516806, 0.7071067811865434649, 0.000000000000000000 ) );
#73861 = EDGE_LOOP ( 'NONE', ( #64057, #83094, #118059, #13445, #4532, #19168, #73188, #138891, #150784, #161705, #83550, #38109, #127067, #90341, #57246, #9288, #121624, #109269, #35524, #65579, #41976, #72284, #76422, #8819, #76482, #68348, #113218, #152017 ) );
#74279 = LINE ( 'NONE', #110432, #85877 );
#74496 = AXIS2_PLACEMENT_3D ( 'NONE', #54165, #39580, #92127 );
#74708 = DIRECTION ( 'NONE',  ( -0.000000000000000000, -1.000000000000000000, -0.000000000000000000 ) );
#74841 = VERTEX_POINT ( 'NONE', #60810 );
#74848 = EDGE_CURVE ( 'NONE', #119271, #96754, #6624, .T. );
#75856 = VERTEX_POINT ( 'NONE', #81591 );
#75906 = EDGE_CURVE ( 'NONE', #95009, #140887, #14107, .T. );
#76120 = CARTESIAN_POINT ( 'NONE',  ( 0.4949999999999998845, 0.5000000000000000000, 0.5000000000000000000 ) );
#76422 = ORIENTED_EDGE ( 'NONE', *, *, #70175, .F. );
#76482 = ORIENTED_EDGE ( 'NONE', *, *, #134450, .F. );
#76665 = EDGE_LOOP ( 'NONE', ( #84725, #84997, #148759, #20411, #36040, #25212, #14682 ) );
#77044 = CARTESIAN_POINT ( 'NONE',  ( -0.1924999999999997546, -0.8959797974644666541, 0.5000000000000000000 ) );
#77546 = CARTESIAN_POINT ( 'NONE',  ( 0.3959797974644669316, -0.6974999999999996758, 0.4999999999999973910 ) );
#77633 = VERTEX_POINT ( 'NONE', #93810 );
#77903 = AXIS2_PLACEMENT_3D ( 'NONE', #15730, #27785, #80316 );
#78066 = CARTESIAN_POINT ( 'NONE',  ( -3.734948428837859484E-18, 0.9649999999999998579, 0.5000000000000000000 ) );
#78148 = DIRECTION ( 'NONE',  ( -0.000000000000000000, -1.000000000000000000, -0.000000000000000000 ) );
#78188 = VECTOR ( 'NONE', #103092, 39.37007874015748143 );
#78274 = VECTOR ( 'NONE', #94355, 39.37007874015748143 );
#78303 = CARTESIAN_POINT ( 'NONE',  ( 0.3928740256112639995, 0.6924999999999997824, 0.5000000000000000000 ) );
#78553 = CARTESIAN_POINT ( 'NONE',  ( -0.4600000000000000200, -0.6875000000000000000, 0.5000000000000000000 ) );
#79063 = DIRECTION ( 'NONE',  ( 0.000000000000000000, -0.000000000000000000, 1.000000000000000000 ) );
#79298 = VECTOR ( 'NONE', #53009, 39.37007874015748143 );
#79383 = CARTESIAN_POINT ( 'NONE',  ( -0.1974999999999997591, -0.8959797974644666541, 0.4999999999999973910 ) );
#79535 = LINE ( 'NONE', #80387, #92778 );
#79750 = EDGE_LOOP ( 'NONE', ( #160372, #15276, #15903, #4701, #105889, #68079 ) );
#79902 = CARTESIAN_POINT ( 'NONE',  ( -0.1925000000000000044, 0.9599999999999998535, 0.5000000000000000000 ) );
#79924 = CARTESIAN_POINT ( 'NONE',  ( -0.1925000000000000044, 0.9599999999999998535, 0.5000000000000000000 ) );
#80148 = CARTESIAN_POINT ( 'NONE',  ( -0.004999999999999977553, -0.9599999999999998535, 0.5000000000000000000 ) );
#80165 = VERTEX_POINT ( 'NONE', #162538 );
#80316 = DIRECTION ( 'NONE',  ( 1.000000000000000000, 0.000000000000000000, 0.000000000000000000 ) );
#80368 = EDGE_CURVE ( 'NONE', #137111, #95009, #35048, .T. );
#80387 = CARTESIAN_POINT ( 'NONE',  ( 0.4600000000000000200, 0.6924999999999997824, 0.5000000000000000000 ) );
#80688 = EDGE_CURVE ( 'NONE', #42335, #5004, #165750, .T. );
#81056 = AXIS2_PLACEMENT_3D ( 'NONE', #47995, #22165, #126375 );
#81176 = CIRCLE ( 'NONE', #100489, 0.005000000000000014849 );
#81250 = DIRECTION ( 'NONE',  ( -9.862267125141747252E-17, 1.000000000000000000, -0.000000000000000000 ) );
#81444 = LINE ( 'NONE', #53075, #108565 );
#81591 = CARTESIAN_POINT ( 'NONE',  ( -0.2457167031797832246, 0.9094258806896043934, 0.5000000000000000000 ) );
#81842 = CARTESIAN_POINT ( 'NONE',  ( 0.5000000000000000000, -1.000000000000000000, 0.5000000000000000000 ) );
#82068 = VECTOR ( 'NONE', #161733, 39.37007874015748143 );
#82082 = CARTESIAN_POINT ( 'NONE',  ( 0.4650000000000000244, 0.5000000000000001110, 0.5000000000000000000 ) );
#82401 = EDGE_CURVE ( 'NONE', #66009, #33409, #58746, .T. );
#82487 = LINE ( 'NONE', #71281, #60054 );
#82896 = CARTESIAN_POINT ( 'NONE',  ( 0.1875000000000002220, -0.9549999999999996270, 0.4999999999999973910 ) );
#83094 = ORIENTED_EDGE ( 'NONE', *, *, #143844, .F. );
#83550 = ORIENTED_EDGE ( 'NONE', *, *, #116936, .F. );
#83664 = ORIENTED_EDGE ( 'NONE', *, *, #61467, .F. );
#83773 = DIRECTION ( 'NONE',  ( 0.000000000000000000, 0.000000000000000000, 1.000000000000000000 ) );
#83872 = LINE ( 'NONE', #97646, #33001 );
#83885 = CARTESIAN_POINT ( 'NONE',  ( -0.4600000000000000200, 0.6874999999999998890, 0.5000000000000000000 ) );
#84066 = VERTEX_POINT ( 'NONE', #17872 );
#84131 = EDGE_CURVE ( 'NONE', #125158, #54499, #45380, .T. );
#84181 = VECTOR ( 'NONE', #110120, 39.37007874015748143 );
#84198 = CARTESIAN_POINT ( 'NONE',  ( 0.4327720855862979832, 0.9327720855862979832, 0.5000000000000000000 ) );
#84360 = DIRECTION ( 'NONE',  ( 0.000000000000000000, 1.000000000000000000, 0.000000000000000000 ) );
#84635 = VECTOR ( 'NONE', #40337, 39.37007874015748143 );
#84652 = EDGE_CURVE ( 'NONE', #25429, #86671, #67466, .T. );
#84725 = ORIENTED_EDGE ( 'NONE', *, *, #127314, .F. );
#84780 = EDGE_CURVE ( 'NONE', #29086, #61648, #70853, .T. );
#84993 = CARTESIAN_POINT ( 'NONE',  ( 0.1925000000000000044, 0.9599999999999998535, 0.5000000000000000000 ) );
#84997 = ORIENTED_EDGE ( 'NONE', *, *, #75906, .F. );
#85286 = EDGE_CURVE ( 'NONE', #149540, #138625, #65355, .T. );
#85645 = EDGE_CURVE ( 'NONE', #111645, #104244, #63444, .T. );
#85877 = VECTOR ( 'NONE', #126791, 39.37007874015748143 );
#86110 = LINE ( 'NONE', #111916, #108940 );
#86494 = CARTESIAN_POINT ( 'NONE',  ( -0.4600000000000000755, 0.005000000000000035666, 0.5000000000000000000 ) );
#86570 = EDGE_CURVE ( 'NONE', #160329, #75856, #94874, .T. );
#86671 = VERTEX_POINT ( 'NONE', #163491 );
#86992 = CARTESIAN_POINT ( 'NONE',  ( -0.2457167031797833356, -0.9094258806896043934, 0.5000000000000000000 ) );
#87468 = LINE ( 'NONE', #60744, #139714 );
#87524 = DIRECTION ( 'NONE',  ( 1.000000000000000000, 0.000000000000000000, 0.000000000000000000 ) );
#87595 = VECTOR ( 'NONE', #32996, 39.37007874015748143 );
#87903 = DIRECTION ( 'NONE',  ( 1.000000000000000000, 0.000000000000000000, 0.000000000000000000 ) );
#88042 = VERTEX_POINT ( 'NONE', #81842 );
#88641 = VECTOR ( 'NONE', #111634, 39.37007874015748143 );
#89149 = CARTESIAN_POINT ( 'NONE',  ( 0.4599999999999998535, -0.4950000000000000511, 0.5000000000000000000 ) );
#89189 = EDGE_CURVE ( 'NONE', #123422, #84066, #27870, .T. );
#89197 = ORIENTED_EDGE ( 'NONE', *, *, #130065, .F. );
#89453 = LINE ( 'NONE', #50681, #99177 );
#89546 = VERTEX_POINT ( 'NONE', #27657 );
#89934 = VERTEX_POINT ( 'NONE', #159033 );
#90173 = CARTESIAN_POINT ( 'NONE',  ( -0.5000000000000000000, 0.4950000000000001621, 0.5000000000000000000 ) );
#90215 = EDGE_CURVE ( 'NONE', #150922, #116909, #170036, .T. );
#90298 = CARTESIAN_POINT ( 'NONE',  ( 0.5000000000000000000, -0.5049999999999998934, 0.5000000000000000000 ) );
#90341 = ORIENTED_EDGE ( 'NONE', *, *, #84780, .T. );
#90506 = CIRCLE ( 'NONE', #16249, 0.4775000000000000355 );
#90611 = LINE ( 'NONE', #159440, #18346 );
#90624 = VECTOR ( 'NONE', #143760, 39.37007874015748143 );
#90636 = VERTEX_POINT ( 'NONE', #26847 );
#90745 = CARTESIAN_POINT ( 'NONE',  ( 0.4600000000000000200, 0.9327720855862979832, 0.5000000000000000000 ) );
#90785 = VECTOR ( 'NONE', #39015, 39.37007874015748854 );
#91034 = LINE ( 'NONE', #143609, #91088 );
#91088 = VECTOR ( 'NONE', #15211, 39.37007874015748143 );
#91271 = FACE_BOUND ( 'NONE', #76665, .T. );
#91415 = CARTESIAN_POINT ( 'NONE',  ( -0.3959797974644668761, 0.6974999999999996758, 0.4999999999999973910 ) );
#91479 = CARTESIAN_POINT ( 'NONE',  ( 0.1925000000000002265, -0.9549999999999996270, 0.5000000000000000000 ) );
#91510 = DIRECTION ( 'NONE',  ( 0.000000000000000000, 1.000000000000000000, 0.000000000000000000 ) );
#91526 = DIRECTION ( 'NONE',  ( 0.000000000000000000, -1.000000000000000000, 0.000000000000000000 ) );
#91730 = CARTESIAN_POINT ( 'NONE',  ( -0.4949999999999999956, 5.141172097148480396E-17, 0.5000000000000000000 ) );
#91989 = DIRECTION ( 'NONE',  ( -0.000000000000000000, 0.000000000000000000, -1.000000000000000000 ) );
#92021 = LINE ( 'NONE', #79902, #105989 );
#92127 = DIRECTION ( 'NONE',  ( 1.000000000000000000, 0.000000000000000000, -0.000000000000000000 ) );
#92224 = VECTOR ( 'NONE', #44137, 39.37007874015748143 );
#92472 = DIRECTION ( 'NONE',  ( -0.7071067811865426878, 0.7071067811865523467, 0.000000000000000000 ) );
#92772 = EDGE_CURVE ( 'NONE', #47106, #104416, #74279, .T. );
#92778 = VECTOR ( 'NONE', #132095, 39.37007874015748143 );
#92906 = VERTEX_POINT ( 'NONE', #154373 );
#93010 = DIRECTION ( 'NONE',  ( 1.000000000000000000, 0.000000000000000000, 0.000000000000000000 ) );
#93142 = VERTEX_POINT ( 'NONE', #49910 );
#93171 = VECTOR ( 'NONE', #73718, 39.37007874015748143 );
#93305 = ORIENTED_EDGE ( 'NONE', *, *, #84652, .F. );
#93321 = VERTEX_POINT ( 'NONE', #40389 );
#93337 = CARTESIAN_POINT ( 'NONE',  ( 0.4327720855862979832, -0.9327720855862978722, 0.5000000000000000000 ) );
#93484 = ORIENTED_EDGE ( 'NONE', *, *, #169327, .F. );
#93695 = DIRECTION ( 'NONE',  ( -1.000000000000000000, -0.000000000000000000, -0.000000000000000000 ) );
#93810 = CARTESIAN_POINT ( 'NONE',  ( 0.4599999999999998535, -0.5050000000000000044, 0.5000000000000000000 ) );
#93811 = ORIENTED_EDGE ( 'NONE', *, *, #94100, .F. );
#94100 = EDGE_CURVE ( 'NONE', #34489, #25429, #28542, .T. );
#94355 = DIRECTION ( 'NONE',  ( -0.7071067811865620056, -0.7071067811865330288, 0.000000000000000000 ) );
#94396 = EDGE_CURVE ( 'NONE', #88042, #72845, #160103, .T. );
#94874 = CIRCLE ( 'NONE', #61934, 0.4774999999999998690 );
#95009 = VERTEX_POINT ( 'NONE', #133253 );
#95103 = CARTESIAN_POINT ( 'NONE',  ( 0.1925000000000002265, -0.9599999999999996314, 0.5000000000000000000 ) );
#95201 = CARTESIAN_POINT ( 'NONE',  ( 0.4600000000000000200, 0.9327720855862979832, 0.5000000000000000000 ) );
#95270 = VECTOR ( 'NONE', #92472, 39.37007874015748143 );
#95524 = DIRECTION ( 'NONE',  ( 0.000000000000000000, -0.000000000000000000, 1.000000000000000000 ) );
#95783 = ORIENTED_EDGE ( 'NONE', *, *, #31991, .F. );
#95891 = AXIS2_PLACEMENT_3D ( 'NONE', #91415, #54290, #106837 );
#96754 = VERTEX_POINT ( 'NONE', #117385 );
#96798 = ORIENTED_EDGE ( 'NONE', *, *, #287, .F. );
#97095 = DIRECTION ( 'NONE',  ( 1.000000000000000000, 0.000000000000000000, 0.000000000000000000 ) );
#97289 = VERTEX_POINT ( 'NONE', #136031 );
#97385 = DIRECTION ( 'NONE',  ( 1.000000000000000000, 0.000000000000000000, 0.000000000000000000 ) );
#97435 = LINE ( 'NONE', #15694, #136942 );
#97626 = EDGE_CURVE ( 'NONE', #168497, #99353, #108445, .T. );
#97646 = CARTESIAN_POINT ( 'NONE',  ( 0.4599999999999998535, -0.4950000000000000511, 0.5000000000000000000 ) );
#98089 = DIRECTION ( 'NONE',  ( 0.000000000000000000, 1.000000000000000000, 0.000000000000000000 ) );
#98373 = DIRECTION ( 'NONE',  ( 1.000000000000000000, 0.000000000000000000, 0.000000000000000000 ) );
#98382 = CARTESIAN_POINT ( 'NONE',  ( 0.2457167031797835577, -0.9094258806896043934, 0.5000000000000000000 ) );
#98559 = VERTEX_POINT ( 'NONE', #128478 );
#98672 = CARTESIAN_POINT ( 'NONE',  ( -0.005000000000000018319, 1.000000000000000000, 0.5000000000000000000 ) );
#98881 = EDGE_CURVE ( 'NONE', #125158, #31467, #81176, .T. );
#99082 = EDGE_CURVE ( 'NONE', #146584, #44066, #136543, .T. );
#99177 = VECTOR ( 'NONE', #104878, 39.37007874015748854 );
#99353 = VERTEX_POINT ( 'NONE', #145045 );
#99567 = CARTESIAN_POINT ( 'NONE',  ( 0.004999999999999977553, 0.9599999999999998535, 0.5000000000000000000 ) );
#99665 = CARTESIAN_POINT ( 'NONE',  ( -0.4094258806896043934, 0.7457167031797833356, 0.5000000000000000000 ) );
#99824 = ORIENTED_EDGE ( 'NONE', *, *, #19194, .F. );
#99974 = VERTEX_POINT ( 'NONE', #51622 );
#100489 = AXIS2_PLACEMENT_3D ( 'NONE', #115134, #153958, #167693 );
#100997 = DIRECTION ( 'NONE',  ( 0.000000000000000000, -0.000000000000000000, 1.000000000000000000 ) );
#101055 = VERTEX_POINT ( 'NONE', #117109 );
#102166 = EDGE_CURVE ( 'NONE', #147940, #119500, #90611, .T. );
#102991 = CARTESIAN_POINT ( 'NONE',  ( 0.4650000000000000244, -0.5000000000000001110, 0.5000000000000000000 ) );
#103092 = DIRECTION ( 'NONE',  ( 0.7071067811865434649, -0.7071067811865515695, -0.000000000000000000 ) );
#103238 = VERTEX_POINT ( 'NONE', #32380 );
#103264 = CARTESIAN_POINT ( 'NONE',  ( 0.5000000000000000000, -0.4950000000000001621, 0.5000000000000000000 ) );
#103580 = CARTESIAN_POINT ( 'NONE',  ( -0.4600000000000000200, 0.6924999999999997824, 0.5000000000000000000 ) );
#103637 = CARTESIAN_POINT ( 'NONE',  ( -0.5000000000000001110, -0.5049999999999998934, 0.5000000000000000000 ) );
#104040 = DIRECTION ( 'NONE',  ( 1.000000000000000000, 0.000000000000000000, 0.000000000000000000 ) );
#104186 = CARTESIAN_POINT ( 'NONE',  ( -0.4599999999999998535, 0.4950000000000000511, 0.5000000000000000000 ) );
#104244 = VERTEX_POINT ( 'NONE', #111593 );
#104416 = VERTEX_POINT ( 'NONE', #57992 );
#104457 = DIRECTION ( 'NONE',  ( 0.7071067811865378028, -0.7071067811865571207, -0.000000000000000000 ) );
#104730 = CARTESIAN_POINT ( 'NONE',  ( -0.5000000000000000000, -1.000000000000000000, 0.5000000000000000000 ) );
#104828 = VECTOR ( 'NONE', #61266, 39.37007874015748143 );
#104878 = DIRECTION ( 'NONE',  ( -0.7071067811865450192, -0.7071067811865499042, 0.000000000000000000 ) );
#105109 = VECTOR ( 'NONE', #155603, 39.37007874015748143 );
#105354 = EDGE_CURVE ( 'NONE', #14358, #39358, #90506, .T. );
#105742 = VERTEX_POINT ( 'NONE', #152877 );
#105839 = DIRECTION ( 'NONE',  ( 1.000000000000000000, 0.000000000000000000, 0.000000000000000000 ) );
#105889 = ORIENTED_EDGE ( 'NONE', *, *, #162236, .F. );
#105902 = DIRECTION ( 'NONE',  ( -0.7071067811865434649, 0.7071067811865515695, 0.000000000000000000 ) );
#105989 = VECTOR ( 'NONE', #729, 39.37007874015748143 );
#106051 = CARTESIAN_POINT ( 'NONE',  ( -0.2325000000000000400, 0.9327720855862979832, 0.5000000000000000000 ) );
#106361 = LINE ( 'NONE', #145166, #79298 );
#106369 = CARTESIAN_POINT ( 'NONE',  ( 0.2597279144137019102, 0.9599999999999998535, 0.5000000000000000000 ) );
#106837 = DIRECTION ( 'NONE',  ( 1.000000000000000000, 0.000000000000000000, 0.000000000000000000 ) );
#106887 = CARTESIAN_POINT ( 'NONE',  ( 0.4600000000000000755, 0.5050000000000001155, 0.5000000000000000000 ) );
#107178 = VERTEX_POINT ( 'NONE', #162182 );
#107189 = LINE ( 'NONE', #134767, #26710 );
#107521 = DIRECTION ( 'NONE',  ( 0.000000000000000000, 0.000000000000000000, 1.000000000000000000 ) );
#108228 = DIRECTION ( 'NONE',  ( 0.000000000000000000, 0.000000000000000000, 1.000000000000000000 ) );
#108265 = EDGE_CURVE ( 'NONE', #92906, #89934, #91034, .T. );
#108367 = LINE ( 'NONE', #122161, #118062 );
#108411 = CIRCLE ( 'NONE', #56303, 0.005000000000000014849 );
#108445 = CIRCLE ( 'NONE', #119401, 0.005000000000000014849 );
#108447 = CARTESIAN_POINT ( 'NONE',  ( 1.031286998393405252E-16, -0.4999999999999998335, 0.5000000000000000000 ) );
#108565 = VECTOR ( 'NONE', #67688, 39.37007874015748143 );
#108608 = EDGE_CURVE ( 'NONE', #13903, #27132, #154557, .T. );
#108644 = ORIENTED_EDGE ( 'NONE', *, *, #108608, .T. );
#108685 = ORIENTED_EDGE ( 'NONE', *, *, #80688, .F. );
#108723 = CARTESIAN_POINT ( 'NONE',  ( -0.1924999999999997546, -0.8928740256112637219, 0.5000000000000000000 ) );
#108940 = VECTOR ( 'NONE', #10279, 39.37007874015748143 );
#109269 = ORIENTED_EDGE ( 'NONE', *, *, #160248, .T. );
#109288 = DIRECTION ( 'NONE',  ( 1.000000000000000000, 0.000000000000000000, 0.000000000000000000 ) );
#109349 = CARTESIAN_POINT ( 'NONE',  ( 0.4600000000000000200, -0.7597279144137017992, 0.5000000000000000000 ) );
#110120 = DIRECTION ( 'NONE',  ( 1.000000000000000000, -0.000000000000000000, -0.000000000000000000 ) );
#110348 = VERTEX_POINT ( 'NONE', #104186 );
#110432 = CARTESIAN_POINT ( 'NONE',  ( -0.4600000000000000200, -0.6924999999999998934, 0.5000000000000000000 ) );
#110559 = ORIENTED_EDGE ( 'NONE', *, *, #6987, .F. );
#110657 = CARTESIAN_POINT ( 'NONE',  ( 0.4600000000000001310, -0.6924999999999997824, 0.5000000000000000000 ) );
#110677 = CARTESIAN_POINT ( 'NONE',  ( 0.005000000000000018319, -1.000000000000000000, 0.5000000000000000000 ) );
#111338 = EDGE_CURVE ( 'NONE', #12530, #93142, #9313, .T. );
#111593 = CARTESIAN_POINT ( 'NONE',  ( -0.4600000000000000755, 0.7597279144137021323, 0.5000000000000000000 ) );
#111634 = DIRECTION ( 'NONE',  ( 1.000000000000000000, -0.000000000000000000, -0.000000000000000000 ) );
#111645 = VERTEX_POINT ( 'NONE', #149786 );
#111916 = CARTESIAN_POINT ( 'NONE',  ( -0.4327720855862979832, -0.9599999999999999645, 0.5000000000000000000 ) );
#111991 = DIRECTION ( 'NONE',  ( -0.000000000000000000, 0.000000000000000000, -1.000000000000000000 ) );
#112393 = ORIENTED_EDGE ( 'NONE', *, *, #92772, .F. );
#113020 = CARTESIAN_POINT ( 'NONE',  ( -0.5000000000000000000, 0.005000000000000057350, 0.5000000000000000000 ) );
#113156 = LINE ( 'NONE', #90745, #12544 );
#113171 = AXIS2_PLACEMENT_3D ( 'NONE', #29096, #56596, #67834 );
#113218 = ORIENTED_EDGE ( 'NONE', *, *, #18331, .T. );
#113220 = CARTESIAN_POINT ( 'NONE',  ( 0.004999999999999977553, 0.9599999999999998535, 0.5000000000000000000 ) );
#113471 = EDGE_CURVE ( 'NONE', #138251, #31467, #3902, .T. );
#114236 = CARTESIAN_POINT ( 'NONE',  ( -0.4600000000000000200, 0.6924999999999997824, 0.5000000000000000000 ) );
#114243 = VERTEX_POINT ( 'NONE', #58211 );
#114289 = ORIENTED_EDGE ( 'NONE', *, *, #25039, .F. );
#114453 = EDGE_CURVE ( 'NONE', #66934, #30753, #16738, .T. );
#115134 = CARTESIAN_POINT ( 'NONE',  ( 0.1975000000000000366, 0.8959797974644665430, 0.4999999999999973910 ) );
#115198 = ORIENTED_EDGE ( 'NONE', *, *, #158496, .F. );
#115218 = LINE ( 'NONE', #128170, #134540 );
#115409 = CARTESIAN_POINT ( 'NONE',  ( 0.2597279144137021878, -0.9327720855862976501, 0.5000000000000000000 ) );
#115626 = LINE ( 'NONE', #103580, #129853 );
#115730 = ORIENTED_EDGE ( 'NONE', *, *, #98881, .T. );
#115888 = VECTOR ( 'NONE', #72087, 39.37007874015748143 );
#116509 = CARTESIAN_POINT ( 'NONE',  ( -0.1925000000000000044, 0.9549999999999999600, 0.5000000000000000000 ) );
#116622 = ORIENTED_EDGE ( 'NONE', *, *, #6192, .F. );
#116821 = CARTESIAN_POINT ( 'NONE',  ( -0.4327720855862979832, -0.7597279144137019102, 0.5000000000000000000 ) );
#116860 = VECTOR ( 'NONE', #40051, 39.37007874015748143 );
#116909 = VERTEX_POINT ( 'NONE', #23602 );
#116936 = EDGE_CURVE ( 'NONE', #73122, #98559, #139051, .T. );
#117109 = CARTESIAN_POINT ( 'NONE',  ( 0.005000000000000008778, -0.9599999999999998535, 0.5000000000000000000 ) );
#117132 = DIRECTION ( 'NONE',  ( -0.7071067811865474617, 0.7071067811865474617, 0.000000000000000000 ) );
#117368 = CARTESIAN_POINT ( 'NONE',  ( 0.4949999999999999956, -5.141172097148480396E-17, 0.5000000000000000000 ) );
#117385 = CARTESIAN_POINT ( 'NONE',  ( -0.005000000000000046074, -1.000000000000000000, 0.5000000000000000000 ) );
#117778 = DIRECTION ( 'NONE',  ( 0.7071067811865667796, 0.7071067811865281438, -0.000000000000000000 ) );
#118059 = ORIENTED_EDGE ( 'NONE', *, *, #2584, .T. );
#118062 = VECTOR ( 'NONE', #135098, 39.37007874015748143 );
#118234 = AXIS2_PLACEMENT_3D ( 'NONE', #93337, #66635, #39975 );
#118290 = ( NAMED_UNIT ( * ) SI_UNIT ( $, .STERADIAN. ) SOLID_ANGLE_UNIT ( ) );
#118618 = ORIENTED_EDGE ( 'NONE', *, *, #122908, .F. );
#118693 = VERTEX_POINT ( 'NONE', #109349 );
#119119 = DIRECTION ( 'NONE',  ( 1.000000000000000000, 0.000000000000000000, 0.000000000000000000 ) );
#119147 = EDGE_CURVE ( 'NONE', #39358, #137111, #156236, .T. );
#119271 = VERTEX_POINT ( 'NONE', #104730 );
#119401 = AXIS2_PLACEMENT_3D ( 'NONE', #41148, #79063, #39472 );
#119432 = AXIS2_PLACEMENT_3D ( 'NONE', #6107, #35368, #46553 );
#119448 = ORIENTED_EDGE ( 'NONE', *, *, #99082, .F. );
#119500 = VERTEX_POINT ( 'NONE', #58329 );
#119541 = CARTESIAN_POINT ( 'NONE',  ( -0.3915054494705177413, -0.6952683615819207352, 0.5000000000000000000 ) );
#120004 = CARTESIAN_POINT ( 'NONE',  ( 0.4600000000000000200, 0.6924999999999997824, 0.5000000000000000000 ) );
#120545 = LINE ( 'NONE', #57589, #84181 );
#120587 = VERTEX_POINT ( 'NONE', #12847 );
#121047 = CARTESIAN_POINT ( 'NONE',  ( 0.5000000000000001110, 0.5049999999999998934, 0.5000000000000000000 ) );
#121383 = CARTESIAN_POINT ( 'NONE',  ( -0.4650000000000000244, -0.5000000000000001110, 0.5000000000000000000 ) );
#121543 = AXIS2_PLACEMENT_3D ( 'NONE', #79383, #1888, #27694 );
#121561 = EDGE_CURVE ( 'NONE', #127223, #29086, #168129, .T. );
#121624 = ORIENTED_EDGE ( 'NONE', *, *, #157644, .T. );
#121626 = CARTESIAN_POINT ( 'NONE',  ( 0.3959797974644667096, 0.6924999999999997824, 0.5000000000000000000 ) );
#121723 = CARTESIAN_POINT ( 'NONE',  ( 0.4600000000000000200, 0.6924999999999997824, 0.5000000000000000000 ) );
#121805 = VERTEX_POINT ( 'NONE', #47173 );
#121807 = DIRECTION ( 'NONE',  ( -0.7071067811865620056, 0.7071067811865330288, 0.000000000000000000 ) );
#122102 = LINE ( 'NONE', #122951, #36862 );
#122161 = CARTESIAN_POINT ( 'NONE',  ( -0.5000000000000000000, -1.000000000000000000, 0.5000000000000000000 ) );
#122326 = CARTESIAN_POINT ( 'NONE',  ( -0.2597279144137020213, -0.9599999999999998535, 0.5000000000000000000 ) );
#122908 = EDGE_CURVE ( 'NONE', #89934, #111645, #47611, .T. );
#122951 = CARTESIAN_POINT ( 'NONE',  ( -0.5000000000000000000, -1.000000000000000000, 0.5000000000000000000 ) );
#123131 = CARTESIAN_POINT ( 'NONE',  ( 0.4327720855862979277, 0.7597279144137019102, 0.5000000000000000000 ) );
#123422 = VERTEX_POINT ( 'NONE', #161271 );
#123813 = DIRECTION ( 'NONE',  ( 0.7071067811865412445, 0.7071067811865536790, -0.000000000000000000 ) );
#123932 = CARTESIAN_POINT ( 'NONE',  ( 0.5000000000000000000, -1.000000000000000000, 0.5000000000000000000 ) );
#123945 = ORIENTED_EDGE ( 'NONE', *, *, #113471, .F. );
#124077 = VECTOR ( 'NONE', #161696, 39.37007874015748854 );
#124345 = VECTOR ( 'NONE', #158421, 39.37007874015748143 );
#124537 = DIRECTION ( 'NONE',  ( -0.7071067811865464625, -0.7071067811865485719, 0.000000000000000000 ) );
#124864 = AXIS2_PLACEMENT_3D ( 'NONE', #142587, #166722, #126229 );
#125026 = CARTESIAN_POINT ( 'NONE',  ( -0.5000000000000000000, 0.5049999999999998934, 0.5000000000000000000 ) );
#125158 = VERTEX_POINT ( 'NONE', #62788 );
#125164 = VERTEX_POINT ( 'NONE', #50750 );
#125485 = CARTESIAN_POINT ( 'NONE',  ( -0.4650000000000000244, 0.000000000000000000, 0.5000000000000000000 ) );
#125709 = EDGE_CURVE ( 'NONE', #80165, #72845, #81444, .T. );
#125801 = EDGE_CURVE ( 'NONE', #66009, #65246, #152025, .T. );
#126229 = DIRECTION ( 'NONE',  ( 1.000000000000000000, 0.000000000000000000, 0.000000000000000000 ) );
#126232 = CARTESIAN_POINT ( 'NONE',  ( 0.5000000000000000000, 0.004999999999999978420, 0.5000000000000000000 ) );
#126375 = DIRECTION ( 'NONE',  ( 1.000000000000000000, 0.000000000000000000, 0.000000000000000000 ) );
#126558 = DIRECTION ( 'NONE',  ( -0.7071067811865426878, -0.7071067811865523467, -0.000000000000000000 ) );
#126717 = EDGE_CURVE ( 'NONE', #168497, #3882, #40135, .T. );
#126791 = DIRECTION ( 'NONE',  ( 1.000000000000000000, 0.000000000000000000, 0.000000000000000000 ) );
#126822 = EDGE_CURVE ( 'NONE', #66934, #137098, #147346, .T. );
#127067 = ORIENTED_EDGE ( 'NONE', *, *, #121561, .T. );
#127223 = VERTEX_POINT ( 'NONE', #43095 );
#127242 = DIRECTION ( 'NONE',  ( 0.7071067811865523467, 0.7071067811865426878, 0.000000000000000000 ) );
#127261 = CARTESIAN_POINT ( 'NONE',  ( -0.4600000000000000200, -0.005000000000000072962, 0.5000000000000000000 ) );
#127314 = EDGE_CURVE ( 'NONE', #140887, #159834, #86110, .T. );
#127508 = CARTESIAN_POINT ( 'NONE',  ( -0.4949999999999998845, -0.5000000000000000000, 0.5000000000000000000 ) );
#127801 = LINE ( 'NONE', #103637, #164318 );
#128014 = LINE ( 'NONE', #19535, #115888 );
#128147 = VERTEX_POINT ( 'NONE', #36380 );
#128170 = CARTESIAN_POINT ( 'NONE',  ( 0.4650000000000000799, -0.5000000000000001110, 0.5000000000000000000 ) );
#128478 = CARTESIAN_POINT ( 'NONE',  ( 0.5000000000000000000, 0.4949999999999998845, 0.5000000000000000000 ) );
#129242 = CARTESIAN_POINT ( 'NONE',  ( 0.4550000000000001266, -0.6924999999999997824, 0.5000000000000000000 ) );
#129244 = CARTESIAN_POINT ( 'NONE',  ( 0.005000000000000046074, 1.000000000000000000, 0.5000000000000000000 ) );
#129467 = CARTESIAN_POINT ( 'NONE',  ( -0.4599999999999998535, 0.5050000000000000044, 0.5000000000000000000 ) );
#129853 = VECTOR ( 'NONE', #91526, 39.37007874015748143 );
#130065 = EDGE_CURVE ( 'NONE', #16633, #132798, #107189, .T. );
#130808 = LINE ( 'NONE', #145412, #84635 );
#131083 = DIRECTION ( 'NONE',  ( -9.862267125141747252E-17, 1.000000000000000000, -0.000000000000000000 ) );
#131250 = DIRECTION ( 'NONE',  ( 1.000000000000000000, 0.000000000000000000, 0.000000000000000000 ) );
#131288 = VECTOR ( 'NONE', #17458, 39.37007874015748143 );
#131314 = CARTESIAN_POINT ( 'NONE',  ( -0.5000000000000000000, 0.4950000000000003286, 0.5000000000000000000 ) );
#131373 = DIRECTION ( 'NONE',  ( -0.000000000000000000, 0.000000000000000000, -1.000000000000000000 ) );
#132095 = DIRECTION ( 'NONE',  ( -9.862267125141747252E-17, 1.000000000000000000, -0.000000000000000000 ) );
#132798 = VERTEX_POINT ( 'NONE', #80148 );
#132817 = EDGE_CURVE ( 'NONE', #121805, #3882, #170203, .T. );
#133196 = ORIENTED_EDGE ( 'NONE', *, *, #142002, .F. );
#133253 = CARTESIAN_POINT ( 'NONE',  ( -0.4600000000000000200, -0.9327720855862978722, 0.5000000000000000000 ) );
#133330 = EDGE_CURVE ( 'NONE', #66793, #80165, #168732, .T. );
#133675 = CIRCLE ( 'NONE', #70457, 0.005000000000000014849 );
#134146 = ORIENTED_EDGE ( 'NONE', *, *, #132817, .T. );
#134450 = EDGE_CURVE ( 'NONE', #1342, #128147, #52512, .T. );
#134491 = CARTESIAN_POINT ( 'NONE',  ( -0.4327720855862979832, 0.9327720855862979832, 0.5000000000000000000 ) );
#134540 = VECTOR ( 'NONE', #117778, 39.37007874015748854 );
#134767 = CARTESIAN_POINT ( 'NONE',  ( -0.1924999999999997546, -0.9599999999999997424, 0.5000000000000000000 ) );
#134931 = LINE ( 'NONE', #98672, #55752 );
#135098 = DIRECTION ( 'NONE',  ( -0.000000000000000000, -1.000000000000000000, -0.000000000000000000 ) );
#136031 = CARTESIAN_POINT ( 'NONE',  ( 0.5000000000000000000, 0.004999999999999946328, 0.5000000000000000000 ) );
#136055 = LINE ( 'NONE', #163623, #59010 );
#136360 = CIRCLE ( 'NONE', #158392, 0.005000000000000014849 );
#136543 = LINE ( 'NONE', #113220, #61982 );
#136704 = LINE ( 'NONE', #125485, #124077 );
#136942 = VECTOR ( 'NONE', #68203, 39.37007874015748854 );
#136957 = ORIENTED_EDGE ( 'NONE', *, *, #65820, .F. );
#137098 = VERTEX_POINT ( 'NONE', #19262 );
#137111 = VERTEX_POINT ( 'NONE', #71793 );
#137279 = CARTESIAN_POINT ( 'NONE',  ( -0.005000000000000018319, 1.000000000000000000, 0.5000000000000000000 ) );
#137597 = CARTESIAN_POINT ( 'NONE',  ( -0.5000000000000000000, -1.000000000000000000, 0.5000000000000000000 ) );
#137609 = LINE ( 'NONE', #24736, #168817 );
#137932 = CARTESIAN_POINT ( 'NONE',  ( 0.5000000000000000000, 1.000000000000000000, 0.5000000000000000000 ) );
#138251 = VERTEX_POINT ( 'NONE', #164869 );
#138346 = VERTEX_POINT ( 'NONE', #38208 );
#138484 = ORIENTED_EDGE ( 'NONE', *, *, #158603, .T. );
#138625 = VERTEX_POINT ( 'NONE', #121626 );
#138891 = ORIENTED_EDGE ( 'NONE', *, *, #2099, .F. );
#138895 = CARTESIAN_POINT ( 'NONE',  ( 0.5000000000000000000, 1.000000000000000000, 0.5000000000000000000 ) );
#139051 = LINE ( 'NONE', #76120, #166806 );
#139195 = LINE ( 'NONE', #126232, #4938 );
#139331 = VERTEX_POINT ( 'NONE', #2419 );
#139714 = VECTOR ( 'NONE', #71137, 39.37007874015748143 );
#140239 = ORIENTED_EDGE ( 'NONE', *, *, #160169, .F. );
#140725 = EDGE_CURVE ( 'NONE', #66793, #99974, #45560, .T. );
#140887 = VERTEX_POINT ( 'NONE', #700 );
#141417 = VERTEX_POINT ( 'NONE', #125026 );
#141504 = ORIENTED_EDGE ( 'NONE', *, *, #97626, .T. );
#141505 = DIRECTION ( 'NONE',  ( 1.000000000000000000, 0.000000000000000000, 0.000000000000000000 ) );
#141696 = VECTOR ( 'NONE', #34848, 39.37007874015748854 );
#141737 = VECTOR ( 'NONE', #93695, 39.37007874015748143 );
#141862 = DIRECTION ( 'NONE',  ( 1.000000000000000000, 0.000000000000000000, 0.000000000000000000 ) );
#141888 = LINE ( 'NONE', #23882, #78188 );
#142002 = EDGE_CURVE ( 'NONE', #51739, #138346, #92021, .T. );
#142443 = DIRECTION ( 'NONE',  ( 0.7071067811865620056, 0.7071067811865330288, 0.000000000000000000 ) );
#142468 = DIRECTION ( 'NONE',  ( -0.000000000000000000, 0.000000000000000000, -1.000000000000000000 ) );
#142523 = EDGE_CURVE ( 'NONE', #58208, #39266, #3047, .T. );
#142587 = CARTESIAN_POINT ( 'NONE',  ( 0.3959797974644667096, 0.6974999999999996758, 0.4999999999999973910 ) );
#142682 = EDGE_CURVE ( 'NONE', #154290, #138346, #136360, .T. );
#142881 = EDGE_CURVE ( 'NONE', #6187, #27132, #34596, .T. );
#143070 = CARTESIAN_POINT ( 'NONE',  ( -0.2324999999999999845, -0.9327720855862978722, 0.5000000000000000000 ) );
#143073 = ORIENTED_EDGE ( 'NONE', *, *, #32284, .F. );
#143269 = EDGE_CURVE ( 'NONE', #149540, #86671, #133675, .T. );
#143337 = AXIS2_PLACEMENT_3D ( 'NONE', #19884, #111991, #166285 );
#143382 = CARTESIAN_POINT ( 'NONE',  ( 0.000000000000000000, 0.5000000000000000000, 0.5000000000000000000 ) );
#143550 = CARTESIAN_POINT ( 'NONE',  ( 0.4649999999999999689, 3.414809992080329023E-17, 0.5000000000000000000 ) );
#143609 = CARTESIAN_POINT ( 'NONE',  ( -0.4327720855862979832, 0.9599999999999999645, 0.5000000000000000000 ) );
#143663 = ORIENTED_EDGE ( 'NONE', *, *, #160197, .F. );
#143760 = DIRECTION ( 'NONE',  ( -0.7071067811865523467, -0.7071067811865426878, 0.000000000000000000 ) );
#143772 = CIRCLE ( 'NONE', #61214, 0.02722791441370197088 );
#143844 = EDGE_CURVE ( 'NONE', #22026, #125164, #145851, .T. );
#143873 = ORIENTED_EDGE ( 'NONE', *, *, #82401, .T. );
#144168 = VERTEX_POINT ( 'NONE', #127261 );
#144202 = CIRCLE ( 'NONE', #168903, 0.005000000000000014849 );
#144257 = ORIENTED_EDGE ( 'NONE', *, *, #90215, .F. );
#144436 = CIRCLE ( 'NONE', #81056, 0.02722791441370197088 );
#144458 = CARTESIAN_POINT ( 'NONE',  ( -0.5000000000000000000, -0.004999999999999946328, 0.5000000000000000000 ) );
#144518 = CARTESIAN_POINT ( 'NONE',  ( 0.2597279144137019102, 0.9327720855862978722, 0.5000000000000000000 ) );
#145045 = CARTESIAN_POINT ( 'NONE',  ( -0.1925000000000000044, 0.8959797974644666541, 0.5000000000000000000 ) );
#145166 = CARTESIAN_POINT ( 'NONE',  ( -0.5000000000000000000, -0.004999999999999978420, 0.5000000000000000000 ) );
#145295 = CIRCLE ( 'NONE', #5005, 0.02722791441370204027 );
#145328 = AXIS2_PLACEMENT_3D ( 'NONE', #24846, #91989, #104040 );
#145412 = CARTESIAN_POINT ( 'NONE',  ( -0.4600000000000000200, 0.6924999999999997824, 0.5000000000000000000 ) );
#145535 = VERTEX_POINT ( 'NONE', #59915 );
#145560 = EDGE_CURVE ( 'NONE', #97289, #154247, #139195, .T. );
#145851 = LINE ( 'NONE', #27013, #95270 );
#146584 = VERTEX_POINT ( 'NONE', #99567 );
#146747 = LINE ( 'NONE', #53729, #52777 );
#147174 = VECTOR ( 'NONE', #19544, 39.37007874015748143 );
#147346 = CIRCLE ( 'NONE', #158406, 0.005000000000000014849 );
#147766 = ORIENTED_EDGE ( 'NONE', *, *, #116, .F. );
#147940 = VERTEX_POINT ( 'NONE', #89149 );
#147985 = ORIENTED_EDGE ( 'NONE', *, *, #48193, .F. );
#148211 = DIRECTION ( 'NONE',  ( 1.000000000000000000, 0.000000000000000000, 0.000000000000000000 ) );
#148401 = VECTOR ( 'NONE', #52985, 39.37007874015748143 );
#148626 = ORIENTED_EDGE ( 'NONE', *, *, #143269, .T. );
#148759 = ORIENTED_EDGE ( 'NONE', *, *, #80368, .F. );
#148944 = ORIENTED_EDGE ( 'NONE', *, *, #58400, .T. );
#149149 = VECTOR ( 'NONE', #7298, 39.37007874015748143 );
#149430 = CARTESIAN_POINT ( 'NONE',  ( -0.4650000000000000799, 0.5000000000000001110, 0.5000000000000000000 ) );
#149540 = VERTEX_POINT ( 'NONE', #13975 );
#149658 = CIRCLE ( 'NONE', #69824, 0.4775000000000000355 );
#149786 = CARTESIAN_POINT ( 'NONE',  ( -0.4600000000000000200, 0.9327720855862979832, 0.5000000000000000000 ) );
#149929 = ORIENTED_EDGE ( 'NONE', *, *, #71639, .F. );
#150693 = DIRECTION ( 'NONE',  ( 0.000000000000000000, -1.000000000000000000, 0.000000000000000000 ) );
#150784 = ORIENTED_EDGE ( 'NONE', *, *, #145560, .F. );
#150922 = VERTEX_POINT ( 'NONE', #155362 );
#151163 = ORIENTED_EDGE ( 'NONE', *, *, #125801, .F. );
#151298 = ORIENTED_EDGE ( 'NONE', *, *, #85645, .F. );
#151716 = VERTEX_POINT ( 'NONE', #106051 );
#151925 = CARTESIAN_POINT ( 'NONE',  ( -0.4949999999999999956, 5.141172097148480396E-17, 0.5000000000000000000 ) );
#152017 = ORIENTED_EDGE ( 'NONE', *, *, #74848, .T. );
#152025 = LINE ( 'NONE', #110657, #53750 );
#152140 = ADVANCED_FACE ( 'NONE', ( #169661, #51644, #91271, #12888, #65401, #52478 ), #14578, .T. );
#152488 = CARTESIAN_POINT ( 'NONE',  ( -0.4650000000000000244, 0.5000000000000001110, 0.5000000000000000000 ) );
#152630 = CARTESIAN_POINT ( 'NONE',  ( -0.4550000000000000155, 0.6874999999999998890, 0.4999999999999973910 ) );
#152877 = CARTESIAN_POINT ( 'NONE',  ( -0.4600000000000000755, -0.4949999999999999956, 0.5000000000000000000 ) );
#153413 = CARTESIAN_POINT ( 'NONE',  ( -0.005000000000000008778, 0.9599999999999998535, 0.5000000000000000000 ) );
#153427 = AXIS2_PLACEMENT_3D ( 'NONE', #152630, #11305, #153486 );
#153486 = DIRECTION ( 'NONE',  ( 1.000000000000000000, 0.000000000000000000, 0.000000000000000000 ) );
#153517 = CARTESIAN_POINT ( 'NONE',  ( 0.4327720855862979832, -0.9599999999999998535, 0.5000000000000000000 ) );
#153676 = DIRECTION ( 'NONE',  ( 0.7071067811865474617, -0.7071067811865474617, 0.000000000000000000 ) );
#153958 = DIRECTION ( 'NONE',  ( 0.000000000000000000, -0.000000000000000000, 1.000000000000000000 ) );
#154186 = CARTESIAN_POINT ( 'NONE',  ( -0.4094258806896043934, -0.7457167031797831136, 0.5000000000000000000 ) );
#154247 = VERTEX_POINT ( 'NONE', #117368 );
#154268 = AXIS2_PLACEMENT_3D ( 'NONE', #158066, #131373, #52970 );
#154290 = VERTEX_POINT ( 'NONE', #116509 );
#154373 = CARTESIAN_POINT ( 'NONE',  ( -0.2597279144137020213, 0.9599999999999998535, 0.5000000000000000000 ) );
#154557 = CIRCLE ( 'NONE', #121543, 0.005000000000000014849 );
#154812 = DIRECTION ( 'NONE',  ( -7.893499027307578043E-16, -1.000000000000000000, 0.000000000000000000 ) );
#155168 = DIRECTION ( 'NONE',  ( 0.000000000000000000, 0.000000000000000000, 1.000000000000000000 ) );
#155362 = CARTESIAN_POINT ( 'NONE',  ( 0.2457167031797832524, 0.9094258806896043934, 0.5000000000000000000 ) );
#155603 = DIRECTION ( 'NONE',  ( -0.000000000000000000, -1.000000000000000000, -0.000000000000000000 ) );
#155634 = DIRECTION ( 'NONE',  ( 0.000000000000000000, 0.000000000000000000, 1.000000000000000000 ) );
#155676 = DIRECTION ( 'NONE',  ( 1.000000000000000000, 0.000000000000000000, 0.000000000000000000 ) );
#155735 = ORIENTED_EDGE ( 'NONE', *, *, #63003, .F. );
#156006 = CARTESIAN_POINT ( 'NONE',  ( -0.2597279144137020213, 0.9327720855862979832, 0.5000000000000000000 ) );
#156139 = VECTOR ( 'NONE', #81250, 39.37007874015748143 );
#156236 = CIRCLE ( 'NONE', #29696, 0.02722791441370204027 );
#156241 = CARTESIAN_POINT ( 'NONE',  ( -0.1874999999999999722, 0.9549999999999999600, 0.4999999999999973910 ) );
#156272 = AXIS2_PLACEMENT_3D ( 'NONE', #143382, #10744, #39154 );
#156365 = ORIENTED_EDGE ( 'NONE', *, *, #70386, .F. );
#156541 = LINE ( 'NONE', #1488, #47073 );
#156651 = ORIENTED_EDGE ( 'NONE', *, *, #126717, .F. );
#156704 = DIRECTION ( 'NONE',  ( -0.7071067811865523467, 0.7071067811865426878, 0.000000000000000000 ) );
#156978 = LINE ( 'NONE', #38987, #22086 );
#157644 = EDGE_CURVE ( 'NONE', #48815, #90636, #7872, .T. );
#157692 = ORIENTED_EDGE ( 'NONE', *, *, #142523, .F. );
#157793 = CARTESIAN_POINT ( 'NONE',  ( 0.5000000000000000000, 1.000000000000000000, 0.5000000000000000000 ) );
#157826 = EDGE_CURVE ( 'NONE', #159834, #28019, #145295, .T. );
#158037 = DIRECTION ( 'NONE',  ( -0.7071067811865481278, 0.7071067811865469066, 0.000000000000000000 ) );
#158066 = CARTESIAN_POINT ( 'NONE',  ( 0.4550000000000001266, -0.6874999999999996669, 0.4999999999999973910 ) );
#158205 = CARTESIAN_POINT ( 'NONE',  ( 1.031286998393405252E-16, -0.4999999999999998335, 0.5000000000000000000 ) );
#158392 = AXIS2_PLACEMENT_3D ( 'NONE', #156241, #142468, #119119 );
#158406 = AXIS2_PLACEMENT_3D ( 'NONE', #82896, #57883, #98373 );
#158421 = DIRECTION ( 'NONE',  ( 0.000000000000000000, 1.000000000000000000, 0.000000000000000000 ) );
#158496 = EDGE_CURVE ( 'NONE', #13903, #55791, #18304, .T. );
#158603 = EDGE_CURVE ( 'NONE', #64666, #114243, #59811, .T. );
#158611 = ORIENTED_EDGE ( 'NONE', *, *, #43718, .F. );
#158743 = CARTESIAN_POINT ( 'NONE',  ( 0.4600000000000001310, -0.6874999999999996669, 0.5000000000000000000 ) );
#159025 = DIRECTION ( 'NONE',  ( -0.7071067811865516806, -0.7071067811865434649, 0.000000000000000000 ) );
#159033 = CARTESIAN_POINT ( 'NONE',  ( -0.4327720855862979832, 0.9599999999999999645, 0.5000000000000000000 ) );
#159440 = CARTESIAN_POINT ( 'NONE',  ( 0.4600000000000000200, 0.6924999999999997824, 0.5000000000000000000 ) );
#159442 = DIRECTION ( 'NONE',  ( -0.7071067811865378028, 0.7071067811865571207, 0.000000000000000000 ) );
#159834 = VERTEX_POINT ( 'NONE', #122326 );
#160103 = LINE ( 'NONE', #3361, #124345 );
#160169 = EDGE_CURVE ( 'NONE', #37716, #42335, #68303, .T. );
#160197 = EDGE_CURVE ( 'NONE', #119500, #44082, #82487, .T. );
#160248 = EDGE_CURVE ( 'NONE', #90636, #141417, #56648, .T. );
#160329 = VERTEX_POINT ( 'NONE', #99665 );
#160372 = ORIENTED_EDGE ( 'NONE', *, *, #31739, .F. );
#160455 = CARTESIAN_POINT ( 'NONE',  ( 0.3915054494705180743, -0.6952683615819206242, 0.5000000000000000000 ) );
#160474 = DIRECTION ( 'NONE',  ( -9.862267125141747252E-17, 1.000000000000000000, -0.000000000000000000 ) );
#160507 = CIRCLE ( 'NONE', #53173, 0.02722791441370204027 );
#161271 = CARTESIAN_POINT ( 'NONE',  ( 0.4600000000000000200, 0.005000000000000072962, 0.5000000000000000000 ) );
#161319 = VECTOR ( 'NONE', #166796, 39.37007874015748143 );
#161696 = DIRECTION ( 'NONE',  ( -0.7071067811865412445, -0.7071067811865536790, -0.000000000000000000 ) );
#161705 = ORIENTED_EDGE ( 'NONE', *, *, #32320, .T. );
#161733 = DIRECTION ( 'NONE',  ( -0.000000000000000000, -1.000000000000000000, -0.000000000000000000 ) );
#162182 = CARTESIAN_POINT ( 'NONE',  ( -0.4950000000000000511, 0.5000000000000001110, 0.5000000000000000000 ) );
#162236 = EDGE_CURVE ( 'NONE', #93321, #118693, #156978, .T. );
#162303 = ORIENTED_EDGE ( 'NONE', *, *, #14023, .F. );
#162538 = CARTESIAN_POINT ( 'NONE',  ( 0.4950000000000000511, -0.5000000000000001110, 0.5000000000000000000 ) );
#162577 = EDGE_LOOP ( 'NONE', ( #54029, #16698, #95783, #4873, #99824, #151298, #118618 ) );
#162849 = EDGE_CURVE ( 'NONE', #43017, #65246, #60660, .T. );
#163054 = AXIS2_PLACEMENT_3D ( 'NONE', #18974, #45653, #148211 );
#163393 = ORIENTED_EDGE ( 'NONE', *, *, #102166, .F. );
#163491 = CARTESIAN_POINT ( 'NONE',  ( 0.4600000000000000200, 0.6874999999999998890, 0.5000000000000000000 ) );
#163623 = CARTESIAN_POINT ( 'NONE',  ( -0.4600000000000000200, 0.6924999999999997824, 0.5000000000000000000 ) );
#164007 = ORIENTED_EDGE ( 'NONE', *, *, #142682, .T. );
#164318 = VECTOR ( 'NONE', #142443, 39.37007874015748143 );
#164438 = ORIENTED_EDGE ( 'NONE', *, *, #84131, .F. );
#164869 = CARTESIAN_POINT ( 'NONE',  ( 0.3915054494705179633, 0.6952683615819206242, 0.5000000000000000000 ) );
#165018 = LINE ( 'NONE', #7415, #93171 );
#165581 = EDGE_CURVE ( 'NONE', #62329, #120587, #136704, .T. );
#165658 = CARTESIAN_POINT ( 'NONE',  ( 0.4600000000000000755, 0.5050000000000001155, 0.5000000000000000000 ) );
#165750 = LINE ( 'NONE', #48599, #149149 );
#166285 = DIRECTION ( 'NONE',  ( 1.000000000000000000, 0.000000000000000000, 0.000000000000000000 ) );
#166373 = LINE ( 'NONE', #21677, #104828 );
#166722 = DIRECTION ( 'NONE',  ( 0.000000000000000000, -0.000000000000000000, 1.000000000000000000 ) );
#166796 = DIRECTION ( 'NONE',  ( 0.000000000000000000, -1.000000000000000000, 0.000000000000000000 ) );
#166806 = VECTOR ( 'NONE', #153676, 39.37007874015748854 );
#167693 = DIRECTION ( 'NONE',  ( 1.000000000000000000, 0.000000000000000000, 0.000000000000000000 ) );
#167759 = EDGE_CURVE ( 'NONE', #28019, #14358, #14543, .T. );
#167931 = ORIENTED_EDGE ( 'NONE', *, *, #9488, .T. );
#168129 = LINE ( 'NONE', #61346, #87595 );
#168443 = CARTESIAN_POINT ( 'NONE',  ( -0.3915054494705180188, 0.6952683615819206242, 0.5000000000000000000 ) );
#168494 = CARTESIAN_POINT ( 'NONE',  ( -0.4600000000000000200, -0.9327720855862978722, 0.5000000000000000000 ) );
#168497 = VERTEX_POINT ( 'NONE', #30655 );
#168583 = DIRECTION ( 'NONE',  ( -0.000000000000000000, -0.000000000000000000, -1.000000000000000000 ) );
#168732 = LINE ( 'NONE', #103264, #90624 );
#168817 = VECTOR ( 'NONE', #74708, 39.37007874015748143 );
#168903 = AXIS2_PLACEMENT_3D ( 'NONE', #63174, #316, #169991 );
#169327 = EDGE_CURVE ( 'NONE', #41448, #37716, #113156, .T. );
#169661 = FACE_OUTER_BOUND ( 'NONE', #73861, .T. );
#169991 = DIRECTION ( 'NONE',  ( 1.000000000000000000, 0.000000000000000000, 0.000000000000000000 ) );
#170036 = CIRCLE ( 'NONE', #156272, 0.4774999999999998690 );
#170203 = CIRCLE ( 'NONE', #95891, 0.005000000000000014849 );
#170491 = ADVANCED_BREP_SHAPE_REPRESENTATION('', (#152140), #14722);
ENDSEC;
END-ISO-10303-21;
