ISO-10303-21;
HEADER;
FILE_DESCRIPTION (( 'STEP AP203' ),
    '1' );
FILE_NAME ('REV-21-2161.STEP',
    '2022-04-27T20:04:08',
    ( '' ),
    ( '' ),
    'SwSTEP 2.0',
    'SolidWorks 2022',
    '' );
FILE_SCHEMA (( 'CONFIG_CONTROL_DESIGN' ));
ENDSEC;

DATA;
#42 = VERTEX_POINT ( 'NONE', #15249 );
#94 = CARTESIAN_POINT ( 'NONE',  ( 0.4327720855862979832, -0.9599999999999998535, 0.5000000000000000000 ) );
#113 = ORIENTED_EDGE ( 'NONE', *, *, #1388, .F. );
#185 = ORIENTED_EDGE ( 'NONE', *, *, #4722, .F. );
#254 = CIRCLE ( 'NONE', #12906, 0.4375000000000000555 );
#374 = CIRCLE ( 'NONE', #14457, 0.02722791441370197088 );
#631 = AXIS2_PLACEMENT_3D ( 'NONE', #16584, #26501, #21305 );
#650 = CIRCLE ( 'NONE', #21589, 0.02722791441370197088 );
#669 = DIRECTION ( 'NONE',  ( 0.000000000000000000, 0.000000000000000000, 1.000000000000000000 ) );
#712 = EDGE_CURVE ( 'NONE', #1770, #22190, #7579, .T. );
#723 = DIRECTION ( 'NONE',  ( -1.000000000000000000, 0.000000000000000000, 0.000000000000000000 ) );
#774 = EDGE_CURVE ( 'NONE', #4942, #29335, #10921, .T. );
#815 = ORIENTED_EDGE ( 'NONE', *, *, #17746, .T. );
#840 = CARTESIAN_POINT ( 'NONE',  ( 0.2457167031797835577, -0.9094258806896043934, 0.5000000000000000000 ) );
#920 = VECTOR ( 'NONE', #11902, 39.37007874015748143 );
#951 = VECTOR ( 'NONE', #25867, 39.37007874015748143 );
#964 = CIRCLE ( 'NONE', #23353, 0.02722791441370204027 );
#988 = LINE ( 'NONE', #17305, #23829 );
#1157 = VERTEX_POINT ( 'NONE', #25506 );
#1185 = VERTEX_POINT ( 'NONE', #14336 );
#1283 = DIRECTION ( 'NONE',  ( 0.000000000000000000, 0.000000000000000000, 1.000000000000000000 ) );
#1304 = VERTEX_POINT ( 'NONE', #10672 );
#1320 = EDGE_CURVE ( 'NONE', #29851, #17917, #6242, .T. );
#1353 = ORIENTED_EDGE ( 'NONE', *, *, #19986, .F. );
#1388 = EDGE_CURVE ( 'NONE', #2171, #3674, #1684, .T. );
#1398 = FACE_BOUND ( 'NONE', #26112, .T. );
#1414 = CARTESIAN_POINT ( 'NONE',  ( -0.4600000000000000200, 0.9327720855862979832, 0.5000000000000000000 ) );
#1415 = ORIENTED_EDGE ( 'NONE', *, *, #28166, .F. );
#1420 = CARTESIAN_POINT ( 'NONE',  ( 0.4327720855862979832, 0.9327720855862979832, 0.5000000000000000000 ) );
#1466 = DIRECTION ( 'NONE',  ( 0.000000000000000000, -1.000000000000000000, 0.000000000000000000 ) );
#1559 = AXIS2_PLACEMENT_3D ( 'NONE', #24013, #7822, #10281 );
#1640 = CARTESIAN_POINT ( 'NONE',  ( -0.5000000000000000000, -1.000000000000000000, 0.5000000000000000000 ) );
#1684 = LINE ( 'NONE', #29438, #18338 );
#1770 = VERTEX_POINT ( 'NONE', #22951 );
#1774 = ORIENTED_EDGE ( 'NONE', *, *, #3912, .F. );
#1866 = ORIENTED_EDGE ( 'NONE', *, *, #9284, .F. );
#2075 = CARTESIAN_POINT ( 'NONE',  ( -0.4600000000000000200, -0.9327720855862978722, 0.5000000000000000000 ) );
#2171 = VERTEX_POINT ( 'NONE', #20615 );
#2223 = CARTESIAN_POINT ( 'NONE',  ( -0.5000000000000000000, 1.000000000000000000, 0.5000000000000000000 ) );
#2232 = VECTOR ( 'NONE', #28056, 39.37007874015748143 );
#2240 = CARTESIAN_POINT ( 'NONE',  ( -0.3928740256112639995, 0.6924999999999997824, 0.5000000000000000000 ) );
#2424 = ( GEOMETRIC_REPRESENTATION_CONTEXT ( 3 ) GLOBAL_UNCERTAINTY_ASSIGNED_CONTEXT ( ( #8212 ) ) GLOBAL_UNIT_ASSIGNED_CONTEXT ( ( #3968, #15409, #6250 ) ) REPRESENTATION_CONTEXT ( 'NONE', 'WORKASPACE' ) );
#2476 = DIRECTION ( 'NONE',  ( 0.000000000000000000, 0.000000000000000000, 1.000000000000000000 ) );
#2605 = ORIENTED_EDGE ( 'NONE', *, *, #19719, .T. );
#2629 = DIRECTION ( 'NONE',  ( 0.000000000000000000, 1.000000000000000000, 0.000000000000000000 ) );
#2674 = CARTESIAN_POINT ( 'NONE',  ( 0.4600000000000000200, 0.6924999999999997824, 0.5000000000000000000 ) );
#2685 = AXIS2_PLACEMENT_3D ( 'NONE', #21390, #12100, #9661 );
#2733 = DIRECTION ( 'NONE',  ( 1.000000000000000000, -0.000000000000000000, -0.000000000000000000 ) );
#2777 = VERTEX_POINT ( 'NONE', #23602 );
#2785 = LINE ( 'NONE', #23229, #25776 );
#2790 = CARTESIAN_POINT ( 'NONE',  ( 0.5000000000000000000, -1.000000000000000000, 0.5000000000000000000 ) );
#2861 = VECTOR ( 'NONE', #4396, 39.37007874015748143 );
#2888 = DIRECTION ( 'NONE',  ( 1.000000000000000000, 0.000000000000000000, 0.000000000000000000 ) );
#2971 = EDGE_CURVE ( 'NONE', #4851, #19396, #23698, .T. );
#2981 = CARTESIAN_POINT ( 'NONE',  ( -0.1924999999999997546, -0.9599999999999997424, 0.5000000000000000000 ) );
#3268 = VERTEX_POINT ( 'NONE', #11120 );
#3269 = EDGE_CURVE ( 'NONE', #6703, #6908, #13389, .T. );
#3298 = VERTEX_POINT ( 'NONE', #23148 );
#3299 = CIRCLE ( 'NONE', #30090, 0.02722791441370204027 );
#3351 = LINE ( 'NONE', #17371, #17767 );
#3374 = VERTEX_POINT ( 'NONE', #22707 );
#3375 = ORIENTED_EDGE ( 'NONE', *, *, #774, .T. );
#3448 = LINE ( 'NONE', #29224, #9827 );
#3541 = CARTESIAN_POINT ( 'NONE',  ( 0.000000000000000000, 0.5000000000000000000, 0.5000000000000000000 ) );
#3593 = CARTESIAN_POINT ( 'NONE',  ( 0.5000000000000000000, 0.5049999999999998934, 0.5000000000000000000 ) );
#3607 = DIRECTION ( 'NONE',  ( 0.000000000000000000, 0.000000000000000000, 1.000000000000000000 ) );
#3612 = EDGE_CURVE ( 'NONE', #6860, #19129, #374, .T. );
#3660 = ORIENTED_EDGE ( 'NONE', *, *, #7314, .F. );
#3665 = EDGE_CURVE ( 'NONE', #13112, #12514, #18399, .T. );
#3674 = VERTEX_POINT ( 'NONE', #13503 );
#3753 = CARTESIAN_POINT ( 'NONE',  ( 0.4600000000000001310, -0.6924999999999997824, 0.5000000000000000000 ) );
#3873 = CARTESIAN_POINT ( 'NONE',  ( -0.1924999999999997546, -0.8928740256112638329, 0.5000000000000000000 ) );
#3878 = VERTEX_POINT ( 'NONE', #840 );
#3912 = EDGE_CURVE ( 'NONE', #1157, #26652, #3299, .T. );
#3950 = DIRECTION ( 'NONE',  ( -0.000000000000000000, -0.000000000000000000, -1.000000000000000000 ) );
#3964 = ORIENTED_EDGE ( 'NONE', *, *, #19658, .F. );
#3968 = ( CONVERSION_BASED_UNIT ( 'INCH', #4128 ) LENGTH_UNIT ( ) NAMED_UNIT ( #13553 ) );
#4070 = CARTESIAN_POINT ( 'NONE',  ( 0.4950000000000000511, -0.5000000000000001110, 0.5000000000000000000 ) );
#4076 = DIRECTION ( 'NONE',  ( 1.000000000000000000, 0.000000000000000000, 0.000000000000000000 ) );
#4107 = ORIENTED_EDGE ( 'NONE', *, *, #24714, .F. );
#4128 = LENGTH_MEASURE_WITH_UNIT ( LENGTH_MEASURE( 0.02539999999999999897 ), #13113 );
#4207 = EDGE_CURVE ( 'NONE', #19129, #3878, #21292, .T. );
#4295 = CARTESIAN_POINT ( 'NONE',  ( 0.4327720855862979277, 0.7597279144137019102, 0.5000000000000000000 ) );
#4311 = EDGE_CURVE ( 'NONE', #10421, #29335, #12187, .T. );
#4345 = VERTEX_POINT ( 'NONE', #26671 );
#4396 = DIRECTION ( 'NONE',  ( -1.000000000000000000, 7.893499027307575085E-16, -0.000000000000000000 ) );
#4464 = VERTEX_POINT ( 'NONE', #15978 );
#4478 = LINE ( 'NONE', #11206, #8534 );
#4486 = EDGE_CURVE ( 'NONE', #20810, #10421, #18716, .T. );
#4608 = VECTOR ( 'NONE', #19257, 39.37007874015748143 );
#4722 = EDGE_CURVE ( 'NONE', #9743, #29818, #28473, .T. );
#4728 = EDGE_CURVE ( 'NONE', #7982, #28847, #28629, .T. );
#4798 = VERTEX_POINT ( 'NONE', #8466 );
#4847 = CARTESIAN_POINT ( 'NONE',  ( 1.031286998393405252E-16, -0.4999999999999998335, 0.5000000000000000000 ) );
#4851 = VERTEX_POINT ( 'NONE', #24655 );
#4855 = VERTEX_POINT ( 'NONE', #3753 );
#4916 = LINE ( 'NONE', #25972, #27723 );
#4942 = VERTEX_POINT ( 'NONE', #2223 );
#5112 = DIRECTION ( 'NONE',  ( 1.000000000000000000, -0.000000000000000000, -0.000000000000000000 ) );
#5156 = LINE ( 'NONE', #21629, #11801 );
#5159 = VERTEX_POINT ( 'NONE', #3873 );
#5185 = CARTESIAN_POINT ( 'NONE',  ( -0.2597279144137020213, -0.9599999999999998535, 0.5000000000000000000 ) );
#5268 = LINE ( 'NONE', #23885, #21005 );
#5378 = CARTESIAN_POINT ( 'NONE',  ( -0.5000000000000000000, 0.4950000000000000511, 0.5000000000000000000 ) );
#5406 = CARTESIAN_POINT ( 'NONE',  ( -0.4949999999999998845, -0.5000000000000000000, 0.5000000000000000000 ) );
#5480 = ORIENTED_EDGE ( 'NONE', *, *, #3612, .F. );
#5499 = DIRECTION ( 'NONE',  ( -0.000000000000000000, -1.000000000000000000, -0.000000000000000000 ) );
#5579 = EDGE_CURVE ( 'NONE', #25584, #20410, #25310, .T. );
#5610 = VERTEX_POINT ( 'NONE', #7261 );
#5612 = CARTESIAN_POINT ( 'NONE',  ( -0.4950000000000000511, 0.5000000000000001110, 0.5000000000000000000 ) );
#5633 = ORIENTED_EDGE ( 'NONE', *, *, #27731, .F. );
#5651 = CARTESIAN_POINT ( 'NONE',  ( 0.1925000000000002265, -0.9599999999999996314, 0.5000000000000000000 ) );
#5665 = DIRECTION ( 'NONE',  ( -0.7071067811865620056, -0.7071067811865330288, 0.000000000000000000 ) );
#5679 = VECTOR ( 'NONE', #21144, 39.37007874015748143 );
#5687 = EDGE_CURVE ( 'NONE', #22190, #12765, #19894, .T. );
#5797 = VERTEX_POINT ( 'NONE', #8165 );
#5816 = DIRECTION ( 'NONE',  ( 0.000000000000000000, 0.000000000000000000, 1.000000000000000000 ) );
#5953 = EDGE_CURVE ( 'NONE', #9980, #25767, #27252, .T. );
#5956 = CARTESIAN_POINT ( 'NONE',  ( 0.5000000000000000000, 1.000000000000000000, 0.5000000000000000000 ) );
#5960 = DIRECTION ( 'NONE',  ( 0.000000000000000000, 0.000000000000000000, 1.000000000000000000 ) );
#6053 = EDGE_CURVE ( 'NONE', #4855, #14107, #18542, .T. );
#6057 = EDGE_CURVE ( 'NONE', #3298, #29818, #18688, .T. );
#6097 = EDGE_CURVE ( 'NONE', #3374, #1157, #23124, .T. );
#6126 = ORIENTED_EDGE ( 'NONE', *, *, #18395, .T. );
#6209 = VECTOR ( 'NONE', #24084, 39.37007874015748143 );
#6234 = EDGE_CURVE ( 'NONE', #20524, #27761, #988, .T. );
#6242 = LINE ( 'NONE', #17681, #8096 );
#6250 = ( NAMED_UNIT ( * ) SI_UNIT ( $, .STERADIAN. ) SOLID_ANGLE_UNIT ( ) );
#6446 = ORIENTED_EDGE ( 'NONE', *, *, #18238, .T. );
#6659 = VECTOR ( 'NONE', #15946, 39.37007874015748143 );
#6703 = VERTEX_POINT ( 'NONE', #17559 );
#6860 = VERTEX_POINT ( 'NONE', #9466 );
#6908 = VERTEX_POINT ( 'NONE', #5185 );
#6974 = ORIENTED_EDGE ( 'NONE', *, *, #17987, .F. );
#7027 = CARTESIAN_POINT ( 'NONE',  ( -0.4094258806896043934, -0.7457167031797831136, 0.5000000000000000000 ) );
#7125 = VECTOR ( 'NONE', #25306, 39.37007874015748143 );
#7179 = ORIENTED_EDGE ( 'NONE', *, *, #11278, .F. );
#7261 = CARTESIAN_POINT ( 'NONE',  ( -0.1924999999999997546, -0.9599999999999997424, 0.5000000000000000000 ) );
#7298 = VERTEX_POINT ( 'NONE', #5406 );
#7314 = EDGE_CURVE ( 'NONE', #5610, #14191, #26760, .T. );
#7321 = ORIENTED_EDGE ( 'NONE', *, *, #28597, .F. );
#7422 = CARTESIAN_POINT ( 'NONE',  ( 0.4949999999999999956, -5.141172097148480396E-17, 0.5000000000000000000 ) );
#7456 = EDGE_CURVE ( 'NONE', #1304, #5159, #14704, .T. );
#7471 = DIRECTION ( 'NONE',  ( 1.000000000000000000, 0.000000000000000000, 0.000000000000000000 ) );
#7490 = ORIENTED_EDGE ( 'NONE', *, *, #24872, .T. );
#7579 = CIRCLE ( 'NONE', #24644, 0.02722791441370204027 );
#7742 = VERTEX_POINT ( 'NONE', #8249 );
#7783 = CARTESIAN_POINT ( 'NONE',  ( -0.1925000000000000044, 0.8928740256112638329, 0.5000000000000000000 ) );
#7802 = EDGE_LOOP ( 'NONE', ( #22623, #13897, #9910, #1866, #18641, #22332, #9982, #25240, #3660, #12453, #23961, #24372, #21482, #17694, #27610, #18394 ) );
#7822 = DIRECTION ( 'NONE',  ( 0.000000000000000000, 0.000000000000000000, 1.000000000000000000 ) );
#7888 = AXIS2_PLACEMENT_3D ( 'NONE', #13889, #23207, #7471 );
#7942 = DIRECTION ( 'NONE',  ( 0.7071067811865469066, 0.7071067811865479058, 0.000000000000000000 ) );
#7967 = VECTOR ( 'NONE', #25840, 39.37007874015748854 );
#7982 = VERTEX_POINT ( 'NONE', #28509 );
#8029 = DIRECTION ( 'NONE',  ( -0.000000000000000000, -1.000000000000000000, -0.000000000000000000 ) );
#8031 = VERTEX_POINT ( 'NONE', #21478 );
#8096 = VECTOR ( 'NONE', #13104, 39.37007874015748143 );
#8165 = CARTESIAN_POINT ( 'NONE',  ( -0.1925000000000000044, 0.8928740256112638329, 0.5000000000000000000 ) );
#8212 = UNCERTAINTY_MEASURE_WITH_UNIT (LENGTH_MEASURE( 1.000000000000000082E-05 ), #3968, 'distance_accuracy_value', 'NONE');
#8237 = ORIENTED_EDGE ( 'NONE', *, *, #4486, .F. );
#8240 = FACE_BOUND ( 'NONE', #18340, .T. );
#8249 = CARTESIAN_POINT ( 'NONE',  ( 3.607425381479602844E-18, -0.9949999999999998845, 0.5000000000000000000 ) );
#8307 = DIRECTION ( 'NONE',  ( 1.000000000000000000, 0.000000000000000000, 0.000000000000000000 ) );
#8313 = DIRECTION ( 'NONE',  ( 0.000000000000000000, 0.000000000000000000, 1.000000000000000000 ) );
#8364 = CARTESIAN_POINT ( 'NONE',  ( -0.2325000000000000400, 0.9327720855862979832, 0.5000000000000000000 ) );
#8458 = LINE ( 'NONE', #17777, #25971 );
#8466 = CARTESIAN_POINT ( 'NONE',  ( -0.005000000000000046074, -1.000000000000000000, 0.5000000000000000000 ) );
#8518 = ORIENTED_EDGE ( 'NONE', *, *, #4207, .F. );
#8534 = VECTOR ( 'NONE', #27954, 39.37007874015748143 );
#8556 = CARTESIAN_POINT ( 'NONE',  ( 0.000000000000000000, 0.000000000000000000, 0.5000000000000000000 ) );
#8562 = VERTEX_POINT ( 'NONE', #2075 );
#8563 = CARTESIAN_POINT ( 'NONE',  ( -0.005000000000000018319, 1.000000000000000000, 0.5000000000000000000 ) );
#8602 = DIRECTION ( 'NONE',  ( 0.000000000000000000, 0.000000000000000000, 1.000000000000000000 ) );
#8801 = CARTESIAN_POINT ( 'NONE',  ( 0.3928740256112641105, -0.6924999999999997824, 0.5000000000000000000 ) );
#8822 = CARTESIAN_POINT ( 'NONE',  ( -0.4327720855862979832, 0.9599999999999999645, 0.5000000000000000000 ) );
#8910 = CARTESIAN_POINT ( 'NONE',  ( 0.4949999999999998845, 0.5000000000000000000, 0.5000000000000000000 ) );
#8932 = VERTEX_POINT ( 'NONE', #25491 );
#8978 = CIRCLE ( 'NONE', #18243, 0.02722791441370217558 );
#8984 = DIRECTION ( 'NONE',  ( 1.184024854096135770E-15, 1.000000000000000000, -0.000000000000000000 ) );
#9000 = VECTOR ( 'NONE', #7942, 39.37007874015748854 );
#9006 = CARTESIAN_POINT ( 'NONE',  ( 0.4949999999999998845, 0.5000000000000000000, 0.5000000000000000000 ) );
#9157 = CARTESIAN_POINT ( 'NONE',  ( 0.5000000000000000000, -1.000000000000000000, 0.5000000000000000000 ) );
#9269 = DIRECTION ( 'NONE',  ( -0.000000000000000000, -0.000000000000000000, -1.000000000000000000 ) );
#9284 = EDGE_CURVE ( 'NONE', #14107, #29183, #13541, .T. );
#9293 = VECTOR ( 'NONE', #18582, 39.37007874015748143 );
#9385 = DIRECTION ( 'NONE',  ( -0.000000000000000000, -0.000000000000000000, -1.000000000000000000 ) );
#9454 = AXIS2_PLACEMENT_3D ( 'NONE', #4295, #11161, #18326 );
#9466 = CARTESIAN_POINT ( 'NONE',  ( 0.4600000000000000200, -0.7597279144137017992, 0.5000000000000000000 ) );
#9513 = CARTESIAN_POINT ( 'NONE',  ( -0.4327720855862979832, -0.7597279144137019102, 0.5000000000000000000 ) );
#9548 = DIRECTION ( 'NONE',  ( -0.7071067811865481278, 0.7071067811865469066, 0.000000000000000000 ) );
#9564 = CARTESIAN_POINT ( 'NONE',  ( -0.4999999999999999445, 0.4950000000000000511, 0.5000000000000000000 ) );
#9661 = DIRECTION ( 'NONE',  ( 1.000000000000000000, 0.000000000000000000, 0.000000000000000000 ) );
#9701 = AXIS2_PLACEMENT_3D ( 'NONE', #4847, #9269, #9723 );
#9702 = LINE ( 'NONE', #18998, #28809 );
#9723 = DIRECTION ( 'NONE',  ( 1.000000000000000000, 0.000000000000000000, 0.000000000000000000 ) );
#9743 = VERTEX_POINT ( 'NONE', #13954 );
#9827 = VECTOR ( 'NONE', #1466, 39.37007874015748143 );
#9910 = ORIENTED_EDGE ( 'NONE', *, *, #15081, .F. );
#9980 = VERTEX_POINT ( 'NONE', #12862 );
#9982 = ORIENTED_EDGE ( 'NONE', *, *, #5953, .F. );
#10024 = CARTESIAN_POINT ( 'NONE',  ( -3.607425381479602844E-18, 0.9949999999999998845, 0.5000000000000000000 ) );
#10026 = DIRECTION ( 'NONE',  ( 0.000000000000000000, 0.000000000000000000, 1.000000000000000000 ) );
#10028 = CARTESIAN_POINT ( 'NONE',  ( -0.4600000000000000200, -0.6924999999999998934, 0.5000000000000000000 ) );
#10281 = DIRECTION ( 'NONE',  ( 1.000000000000000000, 0.000000000000000000, 0.000000000000000000 ) );
#10421 = VERTEX_POINT ( 'NONE', #13133 );
#10438 = VECTOR ( 'NONE', #25128, 39.37007874015748143 );
#10596 = CARTESIAN_POINT ( 'NONE',  ( 0.005000000000000018319, -1.000000000000000000, 0.5000000000000000000 ) );
#10672 = CARTESIAN_POINT ( 'NONE',  ( -0.3928740256112638329, -0.6924999999999998934, 0.5000000000000000000 ) );
#10694 = ORIENTED_EDGE ( 'NONE', *, *, #21967, .F. );
#10703 = DIRECTION ( 'NONE',  ( -1.000000000000000000, 0.000000000000000000, 0.000000000000000000 ) );
#10776 = VERTEX_POINT ( 'NONE', #29705 );
#10809 = VERTEX_POINT ( 'NONE', #1640 );
#10838 = CIRCLE ( 'NONE', #7888, 0.02722791441370190496 );
#10898 = EDGE_CURVE ( 'NONE', #3268, #19330, #17712, .T. );
#10921 = LINE ( 'NONE', #15479, #28538 );
#10955 = LINE ( 'NONE', #29558, #18619 );
#11031 = ORIENTED_EDGE ( 'NONE', *, *, #12703, .F. );
#11072 = DIRECTION ( 'NONE',  ( -0.000000000000000000, -1.000000000000000000, -0.000000000000000000 ) );
#11092 = LINE ( 'NONE', #26648, #21841 );
#11120 = CARTESIAN_POINT ( 'NONE',  ( -0.4094258806896043934, 0.7457167031797833356, 0.5000000000000000000 ) );
#11161 = DIRECTION ( 'NONE',  ( 0.000000000000000000, 0.000000000000000000, 1.000000000000000000 ) );
#11173 = EDGE_CURVE ( 'NONE', #8562, #6703, #22597, .T. );
#11185 = DIRECTION ( 'NONE',  ( -0.7071067811865450192, -0.7071067811865499042, 0.000000000000000000 ) );
#11206 = CARTESIAN_POINT ( 'NONE',  ( -0.5000000000000001110, -0.5049999999999998934, 0.5000000000000000000 ) );
#11278 = EDGE_CURVE ( 'NONE', #14384, #4345, #18375, .T. );
#11330 = EDGE_LOOP ( 'NONE', ( #22558, #20584, #8518, #5480, #20137, #1774 ) );
#11433 = CARTESIAN_POINT ( 'NONE',  ( -0.2597279144137020213, 0.9599999999999998535, 0.5000000000000000000 ) );
#11686 = EDGE_CURVE ( 'NONE', #7298, #29161, #26405, .T. );
#11799 = EDGE_CURVE ( 'NONE', #8932, #30016, #16492, .T. );
#11801 = VECTOR ( 'NONE', #8029, 39.37007874015748143 );
#11829 = VECTOR ( 'NONE', #723, 39.37007874015748143 );
#11853 = CARTESIAN_POINT ( 'NONE',  ( -0.4600000000000000755, 0.7597279144137021323, 0.5000000000000000000 ) );
#11902 = DIRECTION ( 'NONE',  ( -0.7071067811865426878, 0.7071067811865523467, 0.000000000000000000 ) );
#11922 = ORIENTED_EDGE ( 'NONE', *, *, #11173, .F. );
#11946 = CIRCLE ( 'NONE', #24619, 0.02722791441370210966 );
#11983 = CARTESIAN_POINT ( 'NONE',  ( 0.3928740256112639440, 0.6924999999999997824, 0.5000000000000000000 ) );
#12006 = AXIS2_PLACEMENT_3D ( 'NONE', #15649, #14617, #2888 );
#12074 = DIRECTION ( 'NONE',  ( -0.7071067811865474617, 0.7071067811865474617, 0.000000000000000000 ) );
#12100 = DIRECTION ( 'NONE',  ( 0.000000000000000000, 0.000000000000000000, 1.000000000000000000 ) );
#12187 = LINE ( 'NONE', #5612, #6209 );
#12277 = CARTESIAN_POINT ( 'NONE',  ( -0.4327720855862979832, 0.9599999999999999645, 0.5000000000000000000 ) );
#12286 = VECTOR ( 'NONE', #5499, 39.37007874015748143 );
#12453 = ORIENTED_EDGE ( 'NONE', *, *, #26293, .F. );
#12503 = LINE ( 'NONE', #26832, #17472 );
#12514 = VERTEX_POINT ( 'NONE', #21722 );
#12536 = LINE ( 'NONE', #21695, #9000 );
#12539 = ORIENTED_EDGE ( 'NONE', *, *, #28382, .F. );
#12569 = VECTOR ( 'NONE', #19324, 39.37007874015748854 );
#12664 = VERTEX_POINT ( 'NONE', #22622 );
#12678 = FACE_OUTER_BOUND ( 'NONE', #17575, .T. );
#12703 = EDGE_CURVE ( 'NONE', #7742, #4798, #15293, .T. );
#12751 = EDGE_CURVE ( 'NONE', #3674, #1185, #11946, .T. );
#12765 = VERTEX_POINT ( 'NONE', #7027 );
#12862 = CARTESIAN_POINT ( 'NONE',  ( 0.1925000000000002265, -0.8928740256112636109, 0.5000000000000000000 ) );
#12896 = DIRECTION ( 'NONE',  ( 1.000000000000000000, 0.000000000000000000, 0.000000000000000000 ) );
#12906 = AXIS2_PLACEMENT_3D ( 'NONE', #3541, #5816, #12989 );
#12944 = DIRECTION ( 'NONE',  ( -0.7071067811865378028, -0.7071067811865571207, 0.000000000000000000 ) );
#12982 = LINE ( 'NONE', #5956, #27004 );
#12989 = DIRECTION ( 'NONE',  ( 1.000000000000000000, 0.000000000000000000, 0.000000000000000000 ) );
#13059 = CARTESIAN_POINT ( 'NONE',  ( 1.031286998393405252E-16, -0.4999999999999998335, 0.5000000000000000000 ) );
#13104 = DIRECTION ( 'NONE',  ( -7.893499027307578043E-16, -1.000000000000000000, 0.000000000000000000 ) );
#13112 = VERTEX_POINT ( 'NONE', #25035 );
#13113 = ( LENGTH_UNIT ( ) NAMED_UNIT ( * ) SI_UNIT ( $, .METRE. ) );
#13133 = CARTESIAN_POINT ( 'NONE',  ( -0.4950000000000000511, 0.5000000000000001110, 0.5000000000000000000 ) );
#13136 = DIRECTION ( 'NONE',  ( 1.000000000000000000, 0.000000000000000000, 0.000000000000000000 ) );
#13148 = CARTESIAN_POINT ( 'NONE',  ( 0.005000000000000046074, 1.000000000000000000, 0.5000000000000000000 ) );
#13225 = ORIENTED_EDGE ( 'NONE', *, *, #10898, .F. );
#13279 = ORIENTED_EDGE ( 'NONE', *, *, #26688, .F. );
#13330 = CARTESIAN_POINT ( 'NONE',  ( -0.4999999999999999445, 0.5049999999999998934, 0.5000000000000000000 ) );
#13342 = DIRECTION ( 'NONE',  ( 1.000000000000000000, 0.000000000000000000, 0.000000000000000000 ) );
#13389 = LINE ( 'NONE', #25602, #25186 );
#13503 = CARTESIAN_POINT ( 'NONE',  ( 0.4600000000000000200, 0.9327720855862979832, 0.5000000000000000000 ) );
#13541 = LINE ( 'NONE', #22859, #21030 );
#13553 = DIMENSIONAL_EXPONENTS ( 1.000000000000000000, 0.000000000000000000, 0.000000000000000000, 0.000000000000000000, 0.000000000000000000, 0.000000000000000000, 0.000000000000000000 );
#13717 = AXIS2_PLACEMENT_3D ( 'NONE', #22335, #8602, #17922 );
#13729 = CIRCLE ( 'NONE', #1559, 0.02722791441370204027 );
#13760 = CIRCLE ( 'NONE', #631, 0.02722791441370204027 );
#13809 = CARTESIAN_POINT ( 'NONE',  ( -0.5000000000000000000, -0.4949999999999998845, 0.5000000000000000000 ) );
#13822 = VERTEX_POINT ( 'NONE', #16841 );
#13889 = CARTESIAN_POINT ( 'NONE',  ( 0.2597279144137021878, -0.9327720855862976501, 0.5000000000000000000 ) );
#13897 = ORIENTED_EDGE ( 'NONE', *, *, #16951, .F. );
#13898 = ORIENTED_EDGE ( 'NONE', *, *, #19797, .T. );
#13953 = CARTESIAN_POINT ( 'NONE',  ( 0.4094258806896046154, -0.7457167031797833356, 0.5000000000000000000 ) );
#13954 = CARTESIAN_POINT ( 'NONE',  ( -3.607425381479602844E-18, 0.9949999999999998845, 0.5000000000000000000 ) );
#13993 = AXIS2_PLACEMENT_3D ( 'NONE', #26789, #3607, #12896 );
#14107 = VERTEX_POINT ( 'NONE', #21529 );
#14147 = ORIENTED_EDGE ( 'NONE', *, *, #5687, .F. );
#14191 = VERTEX_POINT ( 'NONE', #5651 );
#14309 = LINE ( 'NONE', #19353, #22015 );
#14336 = CARTESIAN_POINT ( 'NONE',  ( 0.4327720855862979832, 0.9600000000000001865, 0.5000000000000000000 ) );
#14384 = VERTEX_POINT ( 'NONE', #9006 );
#14457 = AXIS2_PLACEMENT_3D ( 'NONE', #19909, #29226, #8307 );
#14586 = LINE ( 'NONE', #10028, #5679 );
#14617 = DIRECTION ( 'NONE',  ( -0.000000000000000000, -0.000000000000000000, -1.000000000000000000 ) );
#14704 = CIRCLE ( 'NONE', #13717, 0.4375000000000000555 );
#14709 = DIRECTION ( 'NONE',  ( 1.000000000000000000, 3.547854537226315778E-16, 0.000000000000000000 ) );
#14723 = EDGE_CURVE ( 'NONE', #27761, #12514, #18719, .T. );
#14821 = LINE ( 'NONE', #24285, #18915 );
#14968 = ORIENTED_EDGE ( 'NONE', *, *, #20926, .F. );
#14975 = EDGE_CURVE ( 'NONE', #42, #1304, #14586, .T. );
#15056 = AXIS2_PLACEMENT_3D ( 'NONE', #13059, #8313, #4076 );
#15081 = EDGE_CURVE ( 'NONE', #29183, #29766, #29095, .T. );
#15206 = CARTESIAN_POINT ( 'NONE',  ( -0.4949999999999998845, -0.5000000000000000000, 0.5000000000000000000 ) );
#15249 = CARTESIAN_POINT ( 'NONE',  ( -0.4600000000000000200, -0.6924999999999998934, 0.5000000000000000000 ) );
#15293 = LINE ( 'NONE', #25075, #18749 );
#15383 = CARTESIAN_POINT ( 'NONE',  ( 1.031286998393405252E-16, -0.4999999999999998335, 0.5000000000000000000 ) );
#15409 = ( NAMED_UNIT ( * ) PLANE_ANGLE_UNIT ( ) SI_UNIT ( $, .RADIAN. ) );
#15415 = VERTEX_POINT ( 'NONE', #22079 );
#15479 = CARTESIAN_POINT ( 'NONE',  ( -0.5000000000000000000, -1.000000000000000000, 0.5000000000000000000 ) );
#15649 = CARTESIAN_POINT ( 'NONE',  ( 0.000000000000000000, 0.5000000000000000000, 0.5000000000000000000 ) );
#15671 = LINE ( 'NONE', #22701, #11829 );
#15754 = AXIS2_PLACEMENT_3D ( 'NONE', #16104, #9385, #21118 );
#15818 = VERTEX_POINT ( 'NONE', #3593 );
#15878 = CARTESIAN_POINT ( 'NONE',  ( -0.2597279144137020213, 0.9327720855862979832, 0.5000000000000000000 ) );
#15894 = ORIENTED_EDGE ( 'NONE', *, *, #20707, .F. );
#15930 = ORIENTED_EDGE ( 'NONE', *, *, #6234, .T. );
#15946 = DIRECTION ( 'NONE',  ( 0.7071067811865523467, -0.7071067811865426878, 0.000000000000000000 ) );
#15978 = CARTESIAN_POINT ( 'NONE',  ( -0.4949999999999999956, 5.141172097148480396E-17, 0.5000000000000000000 ) );
#16055 = ORIENTED_EDGE ( 'NONE', *, *, #4311, .F. );
#16087 = EDGE_CURVE ( 'NONE', #30016, #5797, #26118, .T. );
#16104 = CARTESIAN_POINT ( 'NONE',  ( 0.000000000000000000, 0.5000000000000000000, 0.5000000000000000000 ) );
#16466 = EDGE_CURVE ( 'NONE', #25767, #4855, #14309, .T. );
#16492 = LINE ( 'NONE', #21211, #24580 );
#16549 = DIRECTION ( 'NONE',  ( -1.000000000000000000, 0.000000000000000000, 0.000000000000000000 ) );
#16584 = CARTESIAN_POINT ( 'NONE',  ( 0.2597279144137019102, 0.9327720855862978722, 0.5000000000000000000 ) );
#16763 = EDGE_CURVE ( 'NONE', #25013, #23394, #15671, .T. );
#16829 = DIRECTION ( 'NONE',  ( 1.000000000000000000, 0.000000000000000000, 0.000000000000000000 ) );
#16841 = CARTESIAN_POINT ( 'NONE',  ( 0.2597279144137019102, 0.9599999999999998535, 0.5000000000000000000 ) );
#16951 = EDGE_CURVE ( 'NONE', #29766, #8932, #8458, .T. );
#17111 = CARTESIAN_POINT ( 'NONE',  ( -0.5000000000000000000, -1.000000000000000000, 0.5000000000000000000 ) );
#17180 = DIRECTION ( 'NONE',  ( -0.7071067811865469066, -0.7071067811865479058, 0.000000000000000000 ) );
#17235 = ORIENTED_EDGE ( 'NONE', *, *, #22888, .F. );
#17240 = AXIS2_PLACEMENT_3D ( 'NONE', #25098, #22334, #24470 );
#17281 = CARTESIAN_POINT ( 'NONE',  ( 0.5000000000000000000, -0.005000000000000057350, 0.5000000000000000000 ) );
#17305 = CARTESIAN_POINT ( 'NONE',  ( 0.5000000000000000000, -1.000000000000000000, 0.5000000000000000000 ) );
#17371 = CARTESIAN_POINT ( 'NONE',  ( 0.2597279144137019102, 0.9599999999999998535, 0.5000000000000000000 ) );
#17433 = DIRECTION ( 'NONE',  ( 0.000000000000000000, 0.000000000000000000, 1.000000000000000000 ) );
#17472 = VECTOR ( 'NONE', #12944, 39.37007874015748854 );
#17559 = CARTESIAN_POINT ( 'NONE',  ( -0.4327720855862979832, -0.9599999999999999645, 0.5000000000000000000 ) );
#17575 = EDGE_LOOP ( 'NONE', ( #11031, #12539, #15930, #22310, #28688, #7321, #2605, #18261, #29180, #24569, #7179, #1415, #6446, #28273, #185, #14968, #13898, #3375, #16055, #8237, #815, #10694, #23665, #6126, #29456, #15894, #28084, #7490 ) );
#17681 = CARTESIAN_POINT ( 'NONE',  ( -0.4599999999999999645, 0.9327720855862979832, 0.5000000000000000000 ) );
#17694 = ORIENTED_EDGE ( 'NONE', *, *, #16763, .F. );
#17712 = CIRCLE ( 'NONE', #15754, 0.4774999999999998690 );
#17746 = EDGE_CURVE ( 'NONE', #20810, #8031, #17826, .T. );
#17767 = VECTOR ( 'NONE', #21812, 39.37007874015748143 );
#17777 = CARTESIAN_POINT ( 'NONE',  ( 0.1925000000000000044, 0.9599999999999998535, 0.5000000000000000000 ) );
#17826 = LINE ( 'NONE', #17111, #24048 );
#17917 = VERTEX_POINT ( 'NONE', #11853 );
#17922 = DIRECTION ( 'NONE',  ( 1.000000000000000000, 0.000000000000000000, 0.000000000000000000 ) );
#17976 = DIRECTION ( 'NONE',  ( 1.000000000000000000, 7.893499027307575085E-16, 0.000000000000000000 ) );
#17987 = EDGE_CURVE ( 'NONE', #20410, #29851, #20656, .T. );
#18238 = EDGE_CURVE ( 'NONE', #15818, #3298, #25414, .T. );
#18243 = AXIS2_PLACEMENT_3D ( 'NONE', #25833, #2476, #28408 );
#18261 = ORIENTED_EDGE ( 'NONE', *, *, #27965, .F. );
#18326 = DIRECTION ( 'NONE',  ( 1.000000000000000000, 0.000000000000000000, 0.000000000000000000 ) );
#18338 = VECTOR ( 'NONE', #8984, 39.37007874015748143 );
#18340 = EDGE_LOOP ( 'NONE', ( #29615, #11922, #4107, #19178, #14147, #22737, #13279 ) );
#18375 = LINE ( 'NONE', #8910, #7967 );
#18394 = ORIENTED_EDGE ( 'NONE', *, *, #16087, .F. );
#18395 = EDGE_CURVE ( 'NONE', #12664, #29161, #19291, .T. );
#18399 = LINE ( 'NONE', #4070, #6659 );
#18407 = CARTESIAN_POINT ( 'NONE',  ( 0.5000000000000000000, 1.000000000000000000, 0.5000000000000000000 ) );
#18431 = DIRECTION ( 'NONE',  ( 0.7071067811865378028, 0.7071067811865571207, 0.000000000000000000 ) );
#18436 = ORIENTED_EDGE ( 'NONE', *, *, #2971, .F. );
#18542 = LINE ( 'NONE', #2674, #951 );
#18582 = DIRECTION ( 'NONE',  ( -0.000000000000000000, -1.000000000000000000, -0.000000000000000000 ) );
#18619 = VECTOR ( 'NONE', #19781, 39.37007874015748143 );
#18641 = ORIENTED_EDGE ( 'NONE', *, *, #6053, .F. );
#18688 = LINE ( 'NONE', #18407, #28706 );
#18716 = LINE ( 'NONE', #9564, #21828 );
#18719 = LINE ( 'NONE', #23151, #7125 );
#18725 = ORIENTED_EDGE ( 'NONE', *, *, #12751, .F. );
#18749 = VECTOR ( 'NONE', #11185, 39.37007874015748854 );
#18761 = LINE ( 'NONE', #9157, #2232 );
#18797 = DIRECTION ( 'NONE',  ( 0.000000000000000000, 1.000000000000000000, 0.000000000000000000 ) );
#18817 = EDGE_CURVE ( 'NONE', #12664, #4464, #12536, .T. );
#18915 = VECTOR ( 'NONE', #5665, 39.37007874015748143 );
#18998 = CARTESIAN_POINT ( 'NONE',  ( -0.4600000000000000200, 0.6924999999999997824, 0.5000000000000000000 ) );
#19129 = VERTEX_POINT ( 'NONE', #13953 );
#19178 = ORIENTED_EDGE ( 'NONE', *, *, #29606, .F. );
#19257 = DIRECTION ( 'NONE',  ( 0.000000000000000000, 1.000000000000000000, 0.000000000000000000 ) );
#19291 = LINE ( 'NONE', #26014, #26039 );
#19324 = DIRECTION ( 'NONE',  ( 0.7071067811865450192, 0.7071067811865499042, 0.000000000000000000 ) );
#19326 = DIRECTION ( 'NONE',  ( 1.000000000000000000, 0.000000000000000000, 0.000000000000000000 ) );
#19330 = VERTEX_POINT ( 'NONE', #21268 );
#19353 = CARTESIAN_POINT ( 'NONE',  ( 0.4600000000000001310, -0.6924999999999997824, 0.5000000000000000000 ) );
#19375 = CARTESIAN_POINT ( 'NONE',  ( -0.4600000000000000200, -0.7597279144137019102, 0.5000000000000000000 ) );
#19396 = VERTEX_POINT ( 'NONE', #26752 );
#19469 = CARTESIAN_POINT ( 'NONE',  ( 0.5000000000000001110, 0.005000000000000039135, 0.5000000000000000000 ) );
#19658 = EDGE_CURVE ( 'NONE', #17917, #3268, #8978, .T. );
#19669 = VECTOR ( 'NONE', #12074, 39.37007874015748854 );
#19696 = DIRECTION ( 'NONE',  ( 0.000000000000000000, -0.000000000000000000, 1.000000000000000000 ) );
#19719 = EDGE_CURVE ( 'NONE', #10776, #25038, #23682, .T. );
#19781 = DIRECTION ( 'NONE',  ( 1.000000000000000000, -0.000000000000000000, -0.000000000000000000 ) );
#19797 = EDGE_CURVE ( 'NONE', #15415, #4942, #12982, .T. );
#19873 = ADVANCED_FACE ( 'NONE', ( #12678, #22294, #8240, #29467, #1398, #21988 ), #19990, .T. );
#19894 = CIRCLE ( 'NONE', #9701, 0.4775000000000000355 );
#19909 = CARTESIAN_POINT ( 'NONE',  ( 0.4327720855862980387, -0.7597279144137017992, 0.5000000000000000000 ) );
#19986 = EDGE_CURVE ( 'NONE', #19396, #2171, #22613, .T. );
#19990 = PLANE ( 'NONE',  #28942 );
#20137 = ORIENTED_EDGE ( 'NONE', *, *, #26886, .F. );
#20175 = DIRECTION ( 'NONE',  ( 1.000000000000000000, 0.000000000000000000, 0.000000000000000000 ) );
#20205 = EDGE_CURVE ( 'NONE', #1185, #13822, #3351, .T. );
#20410 = VERTEX_POINT ( 'NONE', #12277 );
#20524 = VERTEX_POINT ( 'NONE', #10596 );
#20558 = DIRECTION ( 'NONE',  ( -1.000000000000000000, -0.000000000000000000, -0.000000000000000000 ) );
#20584 = ORIENTED_EDGE ( 'NONE', *, *, #22293, .F. );
#20592 = ORIENTED_EDGE ( 'NONE', *, *, #1320, .F. );
#20615 = CARTESIAN_POINT ( 'NONE',  ( 0.4599999999999997979, 0.7597279144137019102, 0.5000000000000000000 ) );
#20627 = AXIS2_PLACEMENT_3D ( 'NONE', #21765, #10026, #19326 );
#20656 = CIRCLE ( 'NONE', #20627, 0.02722791441370204027 );
#20707 = EDGE_CURVE ( 'NONE', #2777, #7298, #4478, .T. );
#20793 = EDGE_CURVE ( 'NONE', #24396, #25584, #29495, .T. );
#20810 = VERTEX_POINT ( 'NONE', #5378 );
#20842 = VECTOR ( 'NONE', #17180, 39.37007874015748854 );
#20867 = LINE ( 'NONE', #30190, #9293 );
#20926 = EDGE_CURVE ( 'NONE', #15415, #9743, #24431, .T. );
#20928 = EDGE_CURVE ( 'NONE', #5797, #25013, #254, .T. );
#21005 = VECTOR ( 'NONE', #9548, 39.37007874015748854 );
#21030 = VECTOR ( 'NONE', #20558, 39.37007874015748143 );
#21038 = CARTESIAN_POINT ( 'NONE',  ( 0.005000000000000018319, -1.000000000000000000, 0.5000000000000000000 ) );
#21118 = DIRECTION ( 'NONE',  ( 1.000000000000000000, 0.000000000000000000, 0.000000000000000000 ) );
#21144 = DIRECTION ( 'NONE',  ( 1.000000000000000000, 0.000000000000000000, 0.000000000000000000 ) );
#21211 = CARTESIAN_POINT ( 'NONE',  ( -0.1925000000000000044, 0.9599999999999998535, 0.5000000000000000000 ) );
#21268 = CARTESIAN_POINT ( 'NONE',  ( -0.2457167031797832246, 0.9094258806896043934, 0.5000000000000000000 ) );
#21292 = CIRCLE ( 'NONE', #27172, 0.4775000000000000355 );
#21305 = DIRECTION ( 'NONE',  ( 1.000000000000000000, 0.000000000000000000, 0.000000000000000000 ) );
#21390 = CARTESIAN_POINT ( 'NONE',  ( -0.2597279144137020213, 0.9327720855862979832, 0.5000000000000000000 ) );
#21456 = CARTESIAN_POINT ( 'NONE',  ( 0.5000000000000000000, -1.000000000000000000, 0.5000000000000000000 ) );
#21478 = CARTESIAN_POINT ( 'NONE',  ( -0.5000000000000000000, 0.005000000000000057350, 0.5000000000000000000 ) );
#21482 = ORIENTED_EDGE ( 'NONE', *, *, #21999, .F. );
#21529 = CARTESIAN_POINT ( 'NONE',  ( 0.4600000000000000200, 0.6924999999999997824, 0.5000000000000000000 ) );
#21589 = AXIS2_PLACEMENT_3D ( 'NONE', #15878, #5960, #13136 );
#21607 = ORIENTED_EDGE ( 'NONE', *, *, #20793, .F. );
#21629 = CARTESIAN_POINT ( 'NONE',  ( -0.4600000000000000200, -0.9327720855862978722, 0.5000000000000000000 ) );
#21695 = CARTESIAN_POINT ( 'NONE',  ( -0.5000000000000001110, -0.005000000000000039135, 0.5000000000000000000 ) );
#21722 = CARTESIAN_POINT ( 'NONE',  ( 0.4999999999999999445, -0.5049999999999998934, 0.5000000000000000000 ) );
#21765 = CARTESIAN_POINT ( 'NONE',  ( -0.4327720855862979832, 0.9327720855862979832, 0.5000000000000000000 ) );
#21812 = DIRECTION ( 'NONE',  ( -1.000000000000000000, -1.578699805461514031E-15, -0.000000000000000000 ) );
#21828 = VECTOR ( 'NONE', #18431, 39.37007874015748854 );
#21838 = DIRECTION ( 'NONE',  ( -0.000000000000000000, -1.000000000000000000, -0.000000000000000000 ) );
#21841 = VECTOR ( 'NONE', #24822, 39.37007874015748854 );
#21847 = DIRECTION ( 'NONE',  ( 1.000000000000000000, 0.000000000000000000, -0.000000000000000000 ) );
#21967 = EDGE_CURVE ( 'NONE', #4464, #8031, #5268, .T. );
#21988 = FACE_BOUND ( 'NONE', #11330, .T. );
#21999 = EDGE_CURVE ( 'NONE', #23394, #42, #9702, .T. );
#22015 = VECTOR ( 'NONE', #2733, 39.37007874015748143 );
#22079 = CARTESIAN_POINT ( 'NONE',  ( -0.005000000000000018319, 1.000000000000000000, 0.5000000000000000000 ) );
#22190 = VERTEX_POINT ( 'NONE', #27485 );
#22293 = EDGE_CURVE ( 'NONE', #3878, #3374, #10838, .T. );
#22294 = FACE_BOUND ( 'NONE', #7802, .T. );
#22310 = ORIENTED_EDGE ( 'NONE', *, *, #14723, .T. );
#22332 = ORIENTED_EDGE ( 'NONE', *, *, #16466, .F. );
#22334 = DIRECTION ( 'NONE',  ( 0.000000000000000000, 0.000000000000000000, 1.000000000000000000 ) );
#22335 = CARTESIAN_POINT ( 'NONE',  ( 1.031286998393405252E-16, -0.4999999999999998335, 0.5000000000000000000 ) );
#22553 = DIRECTION ( 'NONE',  ( 1.000000000000000000, 0.000000000000000000, 0.000000000000000000 ) );
#22558 = ORIENTED_EDGE ( 'NONE', *, *, #6097, .F. );
#22597 = CIRCLE ( 'NONE', #17240, 0.02722791441370210966 );
#22613 = CIRCLE ( 'NONE', #9454, 0.02722791441370197088 );
#22622 = CARTESIAN_POINT ( 'NONE',  ( -0.5000000000000000000, -0.005000000000000083371, 0.5000000000000000000 ) );
#22623 = ORIENTED_EDGE ( 'NONE', *, *, #11799, .F. );
#22701 = CARTESIAN_POINT ( 'NONE',  ( -0.3928740256112639995, 0.6924999999999997824, 0.5000000000000000000 ) );
#22707 = CARTESIAN_POINT ( 'NONE',  ( 0.2597279144137021878, -0.9599999999999996314, 0.5000000000000000000 ) );
#22737 = ORIENTED_EDGE ( 'NONE', *, *, #712, .F. );
#22859 = CARTESIAN_POINT ( 'NONE',  ( 0.3928740256112639995, 0.6924999999999997824, 0.5000000000000000000 ) );
#22888 = EDGE_CURVE ( 'NONE', #19330, #24396, #650, .T. );
#22951 = CARTESIAN_POINT ( 'NONE',  ( -0.2324999999999999845, -0.9327720855862978722, 0.5000000000000000000 ) );
#23124 = LINE ( 'NONE', #94, #30173 );
#23148 = CARTESIAN_POINT ( 'NONE',  ( 0.5000000000000000000, 1.000000000000000000, 0.5000000000000000000 ) );
#23151 = CARTESIAN_POINT ( 'NONE',  ( 0.5000000000000000000, -1.000000000000000000, 0.5000000000000000000 ) );
#23207 = DIRECTION ( 'NONE',  ( 0.000000000000000000, 0.000000000000000000, 1.000000000000000000 ) );
#23229 = CARTESIAN_POINT ( 'NONE',  ( 0.4600000000000000200, -0.9327720855862978722, 0.5000000000000000000 ) );
#23353 = AXIS2_PLACEMENT_3D ( 'NONE', #9513, #669, #16829 );
#23394 = VERTEX_POINT ( 'NONE', #26319 );
#23602 = CARTESIAN_POINT ( 'NONE',  ( -0.5000000000000000000, -0.5049999999999998934, 0.5000000000000000000 ) );
#23665 = ORIENTED_EDGE ( 'NONE', *, *, #18817, .F. );
#23682 = LINE ( 'NONE', #2790, #4608 );
#23698 = CIRCLE ( 'NONE', #12006, 0.4774999999999998690 );
#23829 = VECTOR ( 'NONE', #5112, 39.37007874015748143 );
#23885 = CARTESIAN_POINT ( 'NONE',  ( -0.4949999999999999956, 5.141172097148480396E-17, 0.5000000000000000000 ) );
#23961 = ORIENTED_EDGE ( 'NONE', *, *, #7456, .F. );
#24013 = CARTESIAN_POINT ( 'NONE',  ( -0.2597279144137020213, -0.9327720855862978722, 0.5000000000000000000 ) );
#24048 = VECTOR ( 'NONE', #21838, 39.37007874015748143 );
#24084 = DIRECTION ( 'NONE',  ( -0.7071067811865523467, 0.7071067811865426878, 0.000000000000000000 ) );
#24257 = ORIENTED_EDGE ( 'NONE', *, *, #5579, .F. );
#24285 = CARTESIAN_POINT ( 'NONE',  ( 0.5000000000000001110, 0.5049999999999998934, 0.5000000000000000000 ) );
#24372 = ORIENTED_EDGE ( 'NONE', *, *, #14975, .F. );
#24396 = VERTEX_POINT ( 'NONE', #8364 );
#24431 = LINE ( 'NONE', #8563, #28987 );
#24456 = CARTESIAN_POINT ( 'NONE',  ( 0.4600000000000000200, -0.9327720855862978722, 0.5000000000000000000 ) );
#24470 = DIRECTION ( 'NONE',  ( 1.000000000000000000, 0.000000000000000000, 0.000000000000000000 ) );
#24569 = ORIENTED_EDGE ( 'NONE', *, *, #27265, .T. );
#24580 = VECTOR ( 'NONE', #25959, 39.37007874015748143 );
#24608 = EDGE_CURVE ( 'NONE', #2777, #10809, #20867, .T. );
#24619 = AXIS2_PLACEMENT_3D ( 'NONE', #1420, #17433, #20175 );
#24644 = AXIS2_PLACEMENT_3D ( 'NONE', #29981, #25114, #13342 );
#24655 = CARTESIAN_POINT ( 'NONE',  ( 0.2457167031797832524, 0.9094258806896043934, 0.5000000000000000000 ) );
#24714 = EDGE_CURVE ( 'NONE', #28521, #8562, #5156, .T. );
#24822 = DIRECTION ( 'NONE',  ( 0.7071067811865481278, -0.7071067811865469066, 0.000000000000000000 ) );
#24872 = EDGE_CURVE ( 'NONE', #10809, #4798, #10955, .T. );
#25013 = VERTEX_POINT ( 'NONE', #2240 );
#25035 = CARTESIAN_POINT ( 'NONE',  ( 0.4950000000000000511, -0.5000000000000001110, 0.5000000000000000000 ) );
#25038 = VERTEX_POINT ( 'NONE', #17281 );
#25075 = CARTESIAN_POINT ( 'NONE',  ( 3.607425381479602844E-18, -0.9949999999999998845, 0.5000000000000000000 ) );
#25098 = CARTESIAN_POINT ( 'NONE',  ( -0.4327720855862979832, -0.9327720855862978722, 0.5000000000000000000 ) );
#25114 = DIRECTION ( 'NONE',  ( 0.000000000000000000, 0.000000000000000000, 1.000000000000000000 ) );
#25128 = DIRECTION ( 'NONE',  ( 0.000000000000000000, 1.000000000000000000, 0.000000000000000000 ) );
#25186 = VECTOR ( 'NONE', #17976, 39.37007874015748143 );
#25240 = ORIENTED_EDGE ( 'NONE', *, *, #26820, .F. );
#25271 = CARTESIAN_POINT ( 'NONE',  ( 0.5000000000000000000, -1.000000000000000000, 0.5000000000000000000 ) );
#25306 = DIRECTION ( 'NONE',  ( 0.000000000000000000, 1.000000000000000000, 0.000000000000000000 ) );
#25310 = LINE ( 'NONE', #8822, #2861 );
#25414 = LINE ( 'NONE', #25271, #10438 );
#25491 = CARTESIAN_POINT ( 'NONE',  ( 0.1925000000000000044, 0.9599999999999998535, 0.5000000000000000000 ) );
#25498 = LINE ( 'NONE', #21038, #920 );
#25506 = CARTESIAN_POINT ( 'NONE',  ( 0.4327720855862979832, -0.9599999999999998535, 0.5000000000000000000 ) );
#25516 = CARTESIAN_POINT ( 'NONE',  ( -0.1925000000000000044, 0.9599999999999998535, 0.5000000000000000000 ) );
#25584 = VERTEX_POINT ( 'NONE', #11433 );
#25602 = CARTESIAN_POINT ( 'NONE',  ( -0.4327720855862979832, -0.9599999999999999645, 0.5000000000000000000 ) );
#25763 = ORIENTED_EDGE ( 'NONE', *, *, #20205, .F. );
#25767 = VERTEX_POINT ( 'NONE', #8801 );
#25776 = VECTOR ( 'NONE', #2629, 39.37007874015748143 );
#25833 = CARTESIAN_POINT ( 'NONE',  ( -0.4327720855862979832, 0.7597279144137021323, 0.5000000000000000000 ) );
#25840 = DIRECTION ( 'NONE',  ( 0.7071067811865474617, -0.7071067811865474617, 0.000000000000000000 ) );
#25867 = DIRECTION ( 'NONE',  ( -9.862267125141747252E-17, 1.000000000000000000, -0.000000000000000000 ) );
#25959 = DIRECTION ( 'NONE',  ( -1.000000000000000000, -0.000000000000000000, -0.000000000000000000 ) );
#25971 = VECTOR ( 'NONE', #26634, 39.37007874015748143 );
#25972 = CARTESIAN_POINT ( 'NONE',  ( 0.1925000000000002265, -0.9599999999999996314, 0.5000000000000000000 ) );
#26014 = CARTESIAN_POINT ( 'NONE',  ( -0.5000000000000000000, -1.000000000000000000, 0.5000000000000000000 ) );
#26039 = VECTOR ( 'NONE', #26164, 39.37007874015748143 );
#26112 = EDGE_LOOP ( 'NONE', ( #24257, #21607, #17235, #13225, #3964, #20592, #6974 ) );
#26118 = LINE ( 'NONE', #7783, #12286 );
#26164 = DIRECTION ( 'NONE',  ( -0.000000000000000000, -1.000000000000000000, -0.000000000000000000 ) );
#26293 = EDGE_CURVE ( 'NONE', #5159, #5610, #3448, .T. );
#26295 = CARTESIAN_POINT ( 'NONE',  ( 0.1925000000000000600, 0.8928740256112637219, 0.5000000000000000000 ) );
#26319 = CARTESIAN_POINT ( 'NONE',  ( -0.4600000000000000200, 0.6924999999999997824, 0.5000000000000000000 ) );
#26405 = LINE ( 'NONE', #15206, #19669 );
#26501 = DIRECTION ( 'NONE',  ( 0.000000000000000000, 0.000000000000000000, 1.000000000000000000 ) );
#26604 = CARTESIAN_POINT ( 'NONE',  ( 0.4327720855862979832, -0.9327720855862978722, 0.5000000000000000000 ) );
#26634 = DIRECTION ( 'NONE',  ( -5.087166366188852879E-16, 1.000000000000000000, -0.000000000000000000 ) );
#26648 = CARTESIAN_POINT ( 'NONE',  ( 0.4949999999999999956, -5.141172097148480396E-17, 0.5000000000000000000 ) );
#26652 = VERTEX_POINT ( 'NONE', #24456 );
#26671 = CARTESIAN_POINT ( 'NONE',  ( 0.5000000000000000000, 0.4949999999999998845, 0.5000000000000000000 ) );
#26688 = EDGE_CURVE ( 'NONE', #6908, #1770, #13729, .T. );
#26752 = CARTESIAN_POINT ( 'NONE',  ( 0.4094258806896043934, 0.7457167031797833356, 0.5000000000000000000 ) );
#26760 = LINE ( 'NONE', #2981, #28793 );
#26789 = CARTESIAN_POINT ( 'NONE',  ( 0.000000000000000000, 0.5000000000000000000, 0.5000000000000000000 ) );
#26820 = EDGE_CURVE ( 'NONE', #14191, #9980, #4916, .T. );
#26832 = CARTESIAN_POINT ( 'NONE',  ( 0.4999999999999999445, -0.4950000000000000511, 0.5000000000000000000 ) );
#26886 = EDGE_CURVE ( 'NONE', #26652, #6860, #2785, .T. );
#27004 = VECTOR ( 'NONE', #10703, 39.37007874015748143 );
#27172 = AXIS2_PLACEMENT_3D ( 'NONE', #15383, #3950, #22553 );
#27188 = DIRECTION ( 'NONE',  ( 0.7071067811865426878, -0.7071067811865523467, 0.000000000000000000 ) );
#27252 = CIRCLE ( 'NONE', #15056, 0.4375000000000000555 );
#27265 = EDGE_CURVE ( 'NONE', #7982, #4345, #18761, .T. );
#27485 = CARTESIAN_POINT ( 'NONE',  ( -0.2457167031797833356, -0.9094258806896043934, 0.5000000000000000000 ) );
#27610 = ORIENTED_EDGE ( 'NONE', *, *, #20928, .F. );
#27723 = VECTOR ( 'NONE', #18797, 39.37007874015748143 );
#27731 = EDGE_CURVE ( 'NONE', #13822, #4851, #13760, .T. );
#27761 = VERTEX_POINT ( 'NONE', #21456 );
#27954 = DIRECTION ( 'NONE',  ( 0.7071067811865620056, 0.7071067811865330288, 0.000000000000000000 ) );
#27965 = EDGE_CURVE ( 'NONE', #28847, #25038, #11092, .T. );
#27984 = DIRECTION ( 'NONE',  ( 1.000000000000000000, -1.578699805461516595E-15, -0.000000000000000000 ) );
#28056 = DIRECTION ( 'NONE',  ( 0.000000000000000000, 1.000000000000000000, 0.000000000000000000 ) );
#28084 = ORIENTED_EDGE ( 'NONE', *, *, #24608, .T. );
#28166 = EDGE_CURVE ( 'NONE', #15818, #14384, #14821, .T. );
#28273 = ORIENTED_EDGE ( 'NONE', *, *, #6057, .T. );
#28299 = DIRECTION ( 'NONE',  ( 0.000000000000000000, -1.000000000000000000, 0.000000000000000000 ) );
#28382 = EDGE_CURVE ( 'NONE', #20524, #7742, #25498, .T. );
#28408 = DIRECTION ( 'NONE',  ( 1.000000000000000000, 0.000000000000000000, 0.000000000000000000 ) );
#28473 = LINE ( 'NONE', #10024, #12569 );
#28509 = CARTESIAN_POINT ( 'NONE',  ( 0.5000000000000000000, 0.005000000000000083371, 0.5000000000000000000 ) );
#28521 = VERTEX_POINT ( 'NONE', #19375 );
#28538 = VECTOR ( 'NONE', #11072, 39.37007874015748143 );
#28597 = EDGE_CURVE ( 'NONE', #10776, #13112, #12503, .T. );
#28629 = LINE ( 'NONE', #19469, #20842 );
#28688 = ORIENTED_EDGE ( 'NONE', *, *, #3665, .F. );
#28706 = VECTOR ( 'NONE', #16549, 39.37007874015748143 );
#28793 = VECTOR ( 'NONE', #14709, 39.37007874015748143 );
#28809 = VECTOR ( 'NONE', #28299, 39.37007874015748143 );
#28847 = VERTEX_POINT ( 'NONE', #7422 );
#28942 = AXIS2_PLACEMENT_3D ( 'NONE', #8556, #19696, #21847 );
#28987 = VECTOR ( 'NONE', #27188, 39.37007874015748143 );
#29095 = CIRCLE ( 'NONE', #13993, 0.4375000000000000000 );
#29161 = VERTEX_POINT ( 'NONE', #13809 );
#29180 = ORIENTED_EDGE ( 'NONE', *, *, #4728, .F. );
#29183 = VERTEX_POINT ( 'NONE', #11983 );
#29192 = DIRECTION ( 'NONE',  ( 1.000000000000000000, 0.000000000000000000, 0.000000000000000000 ) );
#29224 = CARTESIAN_POINT ( 'NONE',  ( -0.1924999999999997546, -0.8928740256112637219, 0.5000000000000000000 ) );
#29226 = DIRECTION ( 'NONE',  ( 0.000000000000000000, 0.000000000000000000, 1.000000000000000000 ) );
#29335 = VERTEX_POINT ( 'NONE', #13330 );
#29438 = CARTESIAN_POINT ( 'NONE',  ( 0.4600000000000000200, 0.9327720855862979832, 0.5000000000000000000 ) );
#29456 = ORIENTED_EDGE ( 'NONE', *, *, #11686, .F. );
#29467 = FACE_BOUND ( 'NONE', #29950, .T. );
#29495 = CIRCLE ( 'NONE', #2685, 0.02722791441370197088 );
#29558 = CARTESIAN_POINT ( 'NONE',  ( 0.5000000000000000000, -1.000000000000000000, 0.5000000000000000000 ) );
#29606 = EDGE_CURVE ( 'NONE', #12765, #28521, #964, .T. );
#29615 = ORIENTED_EDGE ( 'NONE', *, *, #3269, .F. );
#29705 = CARTESIAN_POINT ( 'NONE',  ( 0.5000000000000000000, -0.4950000000000000511, 0.5000000000000000000 ) );
#29766 = VERTEX_POINT ( 'NONE', #26295 );
#29818 = VERTEX_POINT ( 'NONE', #13148 );
#29851 = VERTEX_POINT ( 'NONE', #1414 );
#29950 = EDGE_LOOP ( 'NONE', ( #25763, #18725, #113, #1353, #18436, #5633 ) );
#29981 = CARTESIAN_POINT ( 'NONE',  ( -0.2597279144137020213, -0.9327720855862978722, 0.5000000000000000000 ) );
#30016 = VERTEX_POINT ( 'NONE', #25516 );
#30090 = AXIS2_PLACEMENT_3D ( 'NONE', #26604, #1283, #29192 );
#30173 = VECTOR ( 'NONE', #27984, 39.37007874015748143 );
#30190 = CARTESIAN_POINT ( 'NONE',  ( -0.5000000000000000000, -1.000000000000000000, 0.5000000000000000000 ) );
#30197 = ADVANCED_BREP_SHAPE_REPRESENTATION('', (#19873), #2424);
ENDSEC;
END-ISO-10303-21;
