ISO-10303-21;
HEADER;
FILE_DESCRIPTION (( 'STEP AP203' ),
    '1' );
FILE_NAME ('REV-21-2160.STEP',
    '2022-04-27T20:03:40',
    ( '' ),
    ( '' ),
    'SwSTEP 2.0',
    'SolidWorks 2022',
    '' );
FILE_SCHEMA (( 'CONFIG_CONTROL_DESIGN' ));
ENDSEC;

DATA;
#162 = VECTOR ( 'NONE', #27916, 39.37007874015748143 );
#374 = EDGE_CURVE ( 'NONE', #4088, #32399, #17963, .T. );
#880 = DIRECTION ( 'NONE',  ( 1.000000000000000000, 0.000000000000000000, 0.000000000000000000 ) );
#951 = CARTESIAN_POINT ( 'NONE',  ( 0.4599999999999998535, 0.2597279144137017437, 0.5000000000000000000 ) );
#1028 = EDGE_CURVE ( 'NONE', #16513, #33035, #25034, .T. );
#1086 = VERTEX_POINT ( 'NONE', #43288 );
#1393 = ORIENTED_EDGE ( 'NONE', *, *, #51077, .F. );
#1610 = CARTESIAN_POINT ( 'NONE',  ( -0.1924999999999999489, 0.3959797974644665985, 0.5000000000000000000 ) );
#1611 = ORIENTED_EDGE ( 'NONE', *, *, #24228, .T. );
#1644 = AXIS2_PLACEMENT_3D ( 'NONE', #29825, #21023, #38904 );
#1746 = LINE ( 'NONE', #54843, #53822 );
#1803 = EDGE_CURVE ( 'NONE', #22862, #31284, #34308, .T. );
#1917 = EDGE_CURVE ( 'NONE', #10405, #2845, #24391, .T. );
#1931 = CARTESIAN_POINT ( 'NONE',  ( 0.4327720855862983718, -0.4327720855862981497, 0.5000000000000000000 ) );
#1980 = DIRECTION ( 'NONE',  ( 1.000000000000000000, 0.000000000000000000, 0.000000000000000000 ) );
#2031 = DIRECTION ( 'NONE',  ( -0.000000000000000000, 0.000000000000000000, -1.000000000000000000 ) );
#2074 = CIRCLE ( 'NONE', #5810, 0.02722791441370197088 );
#2196 = DIRECTION ( 'NONE',  ( -1.000000000000000000, 0.000000000000000000, 0.000000000000000000 ) );
#2327 = DIRECTION ( 'NONE',  ( 0.000000000000000000, 1.000000000000000000, 0.000000000000000000 ) );
#2453 = VERTEX_POINT ( 'NONE', #25490 );
#2540 = VERTEX_POINT ( 'NONE', #40708 );
#2696 = LINE ( 'NONE', #37901, #27501 );
#2758 = DIRECTION ( 'NONE',  ( 0.000000000000000000, 0.000000000000000000, 1.000000000000000000 ) );
#2845 = VERTEX_POINT ( 'NONE', #55201 );
#2867 = DIRECTION ( 'NONE',  ( 1.000000000000000000, 0.000000000000000000, 0.000000000000000000 ) );
#3118 = CARTESIAN_POINT ( 'NONE',  ( -0.5000000000000000000, -0.005000000000001742634, 0.5000000000000000000 ) );
#3146 = CIRCLE ( 'NONE', #5966, 0.4775000000000000355 );
#3352 = DIRECTION ( 'NONE',  ( 1.000000000000000000, 0.000000000000000000, 0.000000000000000000 ) );
#3365 = DIRECTION ( 'NONE',  ( 0.7071067811865507924, -0.7071067811865442421, 0.000000000000000000 ) );
#3449 = VERTEX_POINT ( 'NONE', #20805 );
#3453 = CARTESIAN_POINT ( 'NONE',  ( 0.4327720855862983718, -0.4599999999999997979, 0.5000000000000000000 ) );
#3616 = DIRECTION ( 'NONE',  ( 0.000000000000000000, 0.000000000000000000, 1.000000000000000000 ) );
#3624 = CARTESIAN_POINT ( 'NONE',  ( -0.1925000000000000322, -0.4550000000000000155, 0.5000000000000000000 ) );
#3704 = LINE ( 'NONE', #3118, #55097 );
#3861 = ORIENTED_EDGE ( 'NONE', *, *, #49010, .F. );
#3893 = CARTESIAN_POINT ( 'NONE',  ( -0.1925000000000000322, 0.4600000000000000200, 0.5000000000000000000 ) );
#3952 = CARTESIAN_POINT ( 'NONE',  ( 0.5000000000000001110, -0.5000000000000000000, 0.5000000000000000000 ) );
#4088 = VERTEX_POINT ( 'NONE', #33813 );
#4209 = VERTEX_POINT ( 'NONE', #35294 );
#4300 = VERTEX_POINT ( 'NONE', #13572 );
#4311 = ORIENTED_EDGE ( 'NONE', *, *, #5183, .T. );
#4325 = VERTEX_POINT ( 'NONE', #4484 );
#4372 = CARTESIAN_POINT ( 'NONE',  ( -0.4950000000000000511, -1.731890688108830521E-15, 0.5000000000000000000 ) );
#4420 = ORIENTED_EDGE ( 'NONE', *, *, #1028, .F. );
#4450 = AXIS2_PLACEMENT_3D ( 'NONE', #26587, #18624, #40925 );
#4452 = EDGE_CURVE ( 'NONE', #39579, #34679, #11616, .T. );
#4484 = CARTESIAN_POINT ( 'NONE',  ( 0.4999999999999999445, 0.005000000000005234632, 0.5000000000000000000 ) );
#4745 = VERTEX_POINT ( 'NONE', #27507 );
#4765 = CARTESIAN_POINT ( 'NONE',  ( -0.2597279144137016882, 0.4327720855862983163, 0.5000000000000000000 ) );
#4783 = ORIENTED_EDGE ( 'NONE', *, *, #35965, .F. );
#5041 = AXIS2_PLACEMENT_3D ( 'NONE', #5934, #5637, #23534 );
#5123 = AXIS2_PLACEMENT_3D ( 'NONE', #15670, #33546, #51430 );
#5183 = EDGE_CURVE ( 'NONE', #55660, #26254, #6892, .T. );
#5349 = DIRECTION ( 'NONE',  ( 0.000000000000000000, 0.000000000000000000, 1.000000000000000000 ) );
#5370 = FACE_BOUND ( 'NONE', #30313, .T. );
#5458 = VERTEX_POINT ( 'NONE', #23253 );
#5604 = ORIENTED_EDGE ( 'NONE', *, *, #14972, .F. );
#5637 = DIRECTION ( 'NONE',  ( 0.000000000000000000, 0.000000000000000000, 1.000000000000000000 ) );
#5650 = CARTESIAN_POINT ( 'NONE',  ( 0.1925000000000000322, -0.4550000000000000155, 0.5000000000000000000 ) );
#5810 = AXIS2_PLACEMENT_3D ( 'NONE', #47414, #38021, #15747 );
#5812 = CARTESIAN_POINT ( 'NONE',  ( -0.4549999999999999045, 0.1925000000000000600, 0.5000000000000000000 ) );
#5907 = EDGE_LOOP ( 'NONE', ( #47125, #22406, #18044, #26731, #7002, #14273, #41267 ) );
#5914 = LINE ( 'NONE', #3453, #40485 );
#5932 = EDGE_CURVE ( 'NONE', #48198, #37130, #1746, .T. );
#5934 = CARTESIAN_POINT ( 'NONE',  ( -0.4327720855862982607, -0.2597279144137017992, 0.5000000000000000000 ) );
#5966 = AXIS2_PLACEMENT_3D ( 'NONE', #41418, #37301, #15019 );
#6261 = CARTESIAN_POINT ( 'NONE',  ( 0.5000000000000001110, -0.5000000000000000000, 0.5000000000000000000 ) );
#6286 = CARTESIAN_POINT ( 'NONE',  ( -0.1974999999999999811, 0.3959797974644665985, 0.4999999999999973910 ) );
#6353 = VECTOR ( 'NONE', #55469, 39.37007874015748143 );
#6421 = EDGE_CURVE ( 'NONE', #32423, #39579, #35313, .T. );
#6514 = CARTESIAN_POINT ( 'NONE',  ( 0.1952683615819208740, -0.3915054494705177968, 0.5000000000000000000 ) );
#6533 = VERTEX_POINT ( 'NONE', #44972 );
#6879 = CARTESIAN_POINT ( 'NONE',  ( 0.2597279144137017992, -0.4327720855862983163, 0.5000000000000000000 ) );
#6892 = CIRCLE ( 'NONE', #24699, 0.005000000000000014849 );
#6914 = AXIS2_PLACEMENT_3D ( 'NONE', #50577, #10401, #28305 );
#6957 = DIRECTION ( 'NONE',  ( 0.000000000000000000, 0.000000000000000000, 1.000000000000000000 ) );
#7002 = ORIENTED_EDGE ( 'NONE', *, *, #38229, .F. );
#7035 = DIRECTION ( 'NONE',  ( 1.000000000000000000, 0.000000000000000000, 0.000000000000000000 ) );
#7044 = VERTEX_POINT ( 'NONE', #45490 );
#7262 = VECTOR ( 'NONE', #34784, 39.37007874015748143 );
#7396 = DIRECTION ( 'NONE',  ( 0.000000000000000000, -0.000000000000000000, 1.000000000000000000 ) );
#7619 = AXIS2_PLACEMENT_3D ( 'NONE', #27101, #13308, #43843 );
#7703 = AXIS2_PLACEMENT_3D ( 'NONE', #23153, #41034, #31381 );
#7764 = DIRECTION ( 'NONE',  ( 1.000000000000000000, 0.000000000000000000, 0.000000000000000000 ) );
#8107 = AXIS2_PLACEMENT_3D ( 'NONE', #36441, #19124, #9452 );
#8197 = EDGE_CURVE ( 'NONE', #2453, #27887, #46442, .T. );
#8252 = ORIENTED_EDGE ( 'NONE', *, *, #1917, .F. );
#8276 = DIRECTION ( 'NONE',  ( 0.000000000000000000, 0.000000000000000000, 1.000000000000000000 ) );
#8302 = CARTESIAN_POINT ( 'NONE',  ( -0.1925000000000000322, -0.4600000000000000200, 0.5000000000000000000 ) );
#8536 = CARTESIAN_POINT ( 'NONE',  ( -0.1952683615819208740, 0.3915054494705177968, 0.5000000000000000000 ) );
#8735 = CIRCLE ( 'NONE', #17158, 0.005000000000000014849 );
#8798 = DIRECTION ( 'NONE',  ( 0.000000000000000000, -0.000000000000000000, 1.000000000000000000 ) );
#9026 = EDGE_CURVE ( 'NONE', #49699, #32399, #37618, .T. );
#9038 = ORIENTED_EDGE ( 'NONE', *, *, #54124, .F. );
#9080 = AXIS2_PLACEMENT_3D ( 'NONE', #28229, #40558, #22964 );
#9313 = CARTESIAN_POINT ( 'NONE',  ( -0.4950000000000000511, -1.731890688108830521E-15, 0.5000000000000000000 ) );
#9372 = CIRCLE ( 'NONE', #56171, 0.4774999999999999800 );
#9452 = DIRECTION ( 'NONE',  ( 1.000000000000000000, 0.000000000000000000, 0.000000000000000000 ) );
#9656 = CIRCLE ( 'NONE', #31233, 0.4775000000000000355 );
#9874 = EDGE_LOOP ( 'NONE', ( #19884, #4420, #24844, #23460, #28490, #23802 ) );
#9996 = VECTOR ( 'NONE', #35857, 39.37007874015748143 );
#10020 = CARTESIAN_POINT ( 'NONE',  ( 3.607425381479602844E-18, -0.4950000000000000511, 0.5000000000000000000 ) );
#10106 = CARTESIAN_POINT ( 'NONE',  ( 0.1875000000000000278, 0.4600000000000000200, 0.5000000000000000000 ) );
#10219 = DIRECTION ( 'NONE',  ( 1.000000000000000000, -0.000000000000000000, -0.000000000000000000 ) );
#10312 = CARTESIAN_POINT ( 'NONE',  ( 0.5000000000000001110, -0.5000000000000000000, 0.5000000000000000000 ) );
#10347 = CARTESIAN_POINT ( 'NONE',  ( 0.4327720855862982607, 0.4327720855862983163, 0.5000000000000000000 ) );
#10401 = DIRECTION ( 'NONE',  ( -0.000000000000000000, 0.000000000000000000, -1.000000000000000000 ) );
#10405 = VERTEX_POINT ( 'NONE', #53017 );
#10747 = LINE ( 'NONE', #36860, #43246 );
#10752 = ORIENTED_EDGE ( 'NONE', *, *, #57875, .T. );
#10777 = CARTESIAN_POINT ( 'NONE',  ( -0.2597279144137016327, -0.4600000000000000755, 0.5000000000000000000 ) );
#11002 = DIRECTION ( 'NONE',  ( 0.000000000000000000, 0.000000000000000000, 1.000000000000000000 ) );
#11182 = AXIS2_PLACEMENT_3D ( 'NONE', #18567, #27097, #49349 );
#11187 = EDGE_CURVE ( 'NONE', #22872, #31284, #35285, .T. );
#11383 = VERTEX_POINT ( 'NONE', #12956 );
#11616 = CIRCLE ( 'NONE', #40691, 0.02722791441370193619 );
#11656 = VECTOR ( 'NONE', #31622, 39.37007874015748143 );
#11756 = EDGE_CURVE ( 'NONE', #32838, #57664, #12334, .T. );
#11854 = CARTESIAN_POINT ( 'NONE',  ( -0.3959797974644664875, 0.1925000000000000877, 0.5000000000000000000 ) );
#11956 = EDGE_CURVE ( 'NONE', #46506, #17556, #41590, .T. );
#12166 = LINE ( 'NONE', #16869, #42049 );
#12224 = DIRECTION ( 'NONE',  ( -1.000000000000000000, 0.000000000000000000, 0.000000000000000000 ) );
#12296 = CIRCLE ( 'NONE', #23519, 0.4375000000000000000 );
#12310 = ORIENTED_EDGE ( 'NONE', *, *, #40383, .F. );
#12334 = CIRCLE ( 'NONE', #39529, 0.005000000000000014849 );
#12356 = CARTESIAN_POINT ( 'NONE',  ( -0.3959797974644664875, -0.1925000000000000877, 0.5000000000000000000 ) );
#12515 = DIRECTION ( 'NONE',  ( 0.7071067811865416886, 0.7071067811865531239, 0.000000000000000000 ) );
#12563 = VECTOR ( 'NONE', #52893, 39.37007874015748143 );
#12594 = CARTESIAN_POINT ( 'NONE',  ( -0.4327720855862981497, -0.4600000000000000755, 0.5000000000000000000 ) );
#12670 = VERTEX_POINT ( 'NONE', #25235 );
#12725 = CIRCLE ( 'NONE', #53000, 0.4375000000000000000 );
#12918 = CARTESIAN_POINT ( 'NONE',  ( -0.3959797974644664875, -0.1975000000000001199, 0.4999999999999973910 ) );
#12956 = CARTESIAN_POINT ( 'NONE',  ( 0.004999999999999990563, 0.5000000000000000000, 0.5000000000000000000 ) );
#13252 = LINE ( 'NONE', #10020, #162 );
#13272 = EDGE_CURVE ( 'NONE', #49699, #4745, #37127, .T. );
#13308 = DIRECTION ( 'NONE',  ( 0.000000000000000000, 0.000000000000000000, 1.000000000000000000 ) );
#13319 = CARTESIAN_POINT ( 'NONE',  ( -0.4549999999999999045, 0.1875000000000000555, 0.4999999999999973910 ) );
#13572 = CARTESIAN_POINT ( 'NONE',  ( -0.5000000000000000000, -0.5000000000000000000, 0.5000000000000000000 ) );
#13654 = ORIENTED_EDGE ( 'NONE', *, *, #54599, .F. );
#13901 = ( CONVERSION_BASED_UNIT ( 'INCH', #35617 ) LENGTH_UNIT ( ) NAMED_UNIT ( #35852 ) );
#14033 = EDGE_CURVE ( 'NONE', #31095, #57073, #13252, .T. );
#14273 = ORIENTED_EDGE ( 'NONE', *, *, #36179, .F. );
#14383 = CIRCLE ( 'NONE', #34984, 0.02722791441370193619 );
#14736 = EDGE_CURVE ( 'NONE', #53453, #16513, #5914, .T. );
#14781 = EDGE_CURVE ( 'NONE', #17556, #37278, #56251, .T. );
#14972 = EDGE_CURVE ( 'NONE', #39189, #12670, #50350, .T. );
#15019 = DIRECTION ( 'NONE',  ( 1.000000000000000000, 0.000000000000000000, 0.000000000000000000 ) );
#15028 = DIRECTION ( 'NONE',  ( 0.000000000000000000, 0.000000000000000000, 1.000000000000000000 ) );
#15276 = UNCERTAINTY_MEASURE_WITH_UNIT (LENGTH_MEASURE( 1.000000000000000082E-05 ), #13901, 'distance_accuracy_value', 'NONE');
#15407 = CARTESIAN_POINT ( 'NONE',  ( -0.4327720855862983163, 0.4327720855862982607, 0.5000000000000000000 ) );
#15608 = VECTOR ( 'NONE', #20690, 39.37007874015748143 );
#15670 = CARTESIAN_POINT ( 'NONE',  ( -0.4327720855862981497, -0.4327720855862983718, 0.5000000000000000000 ) );
#15684 = VECTOR ( 'NONE', #31765, 39.37007874015748143 );
#15733 = DIRECTION ( 'NONE',  ( -0.000000000000000000, -1.000000000000000000, -0.000000000000000000 ) );
#15747 = DIRECTION ( 'NONE',  ( 1.000000000000000000, 0.000000000000000000, 0.000000000000000000 ) );
#16026 = CARTESIAN_POINT ( 'NONE',  ( -0.4599999999999999645, -0.1925000000000000600, 0.5000000000000000000 ) );
#16048 = LINE ( 'NONE', #51529, #53430 );
#16353 = CIRCLE ( 'NONE', #31359, 0.005000000000000014849 );
#16417 = CARTESIAN_POINT ( 'NONE',  ( 0.3959797974644664875, -0.1975000000000001199, 0.4999999999999973910 ) );
#16450 = CIRCLE ( 'NONE', #24877, 0.005000000000000014849 );
#16513 = VERTEX_POINT ( 'NONE', #50572 );
#16746 = EDGE_CURVE ( 'NONE', #4209, #37278, #21806, .T. );
#16869 = CARTESIAN_POINT ( 'NONE',  ( -0.004999999999999996635, 0.5000000000000000000, 0.5000000000000000000 ) );
#16891 = EDGE_CURVE ( 'NONE', #3449, #10405, #36969, .T. );
#17158 = AXIS2_PLACEMENT_3D ( 'NONE', #13319, #47939, #7764 );
#17313 = CARTESIAN_POINT ( 'NONE',  ( 0.3915054494705177413, 0.1952683615819210405, 0.5000000000000000000 ) );
#17337 = ORIENTED_EDGE ( 'NONE', *, *, #43113, .T. );
#17447 = DIRECTION ( 'NONE',  ( 0.000000000000000000, 1.000000000000000000, 0.000000000000000000 ) );
#17482 = DIRECTION ( 'NONE',  ( 1.000000000000000000, 0.000000000000000000, 0.000000000000000000 ) );
#17556 = VERTEX_POINT ( 'NONE', #48914 );
#17836 = CARTESIAN_POINT ( 'NONE',  ( 0.5000000000000001110, 0.5000000000000000000, 0.5000000000000000000 ) );
#17963 = LINE ( 'NONE', #8302, #29564 );
#18044 = ORIENTED_EDGE ( 'NONE', *, *, #24313, .F. );
#18106 = CIRCLE ( 'NONE', #46204, 0.02722791441370170026 );
#18164 = CARTESIAN_POINT ( 'NONE',  ( -0.3915054494705177413, 0.1952683615819210405, 0.5000000000000000000 ) );
#18417 = EDGE_LOOP ( 'NONE', ( #13654, #17337, #36534, #41247, #49191, #49494, #19483, #39154, #49536, #42771, #9038, #43653, #39955, #29807, #48330, #23174, #4783, #22497, #31166, #4311, #54730, #31255, #54723, #18577, #50446, #10752, #43432, #22067, #12310, #38204, #23844, #46426 ) );
#18427 = ORIENTED_EDGE ( 'NONE', *, *, #19759, .F. );
#18461 = VECTOR ( 'NONE', #47112, 39.37007874015748143 );
#18547 = CARTESIAN_POINT ( 'NONE',  ( 0.3959797974644664875, -0.1925000000000000877, 0.5000000000000000000 ) );
#18567 = CARTESIAN_POINT ( 'NONE',  ( -0.1974999999999999811, -0.3959797974644665985, 0.4999999999999973910 ) );
#18577 = ORIENTED_EDGE ( 'NONE', *, *, #1803, .T. );
#18624 = DIRECTION ( 'NONE',  ( 0.000000000000000000, -0.000000000000000000, 1.000000000000000000 ) );
#18645 = CARTESIAN_POINT ( 'NONE',  ( 0.000000000000000000, 0.000000000000000000, 0.5000000000000000000 ) );
#18786 = ORIENTED_EDGE ( 'NONE', *, *, #4452, .F. );
#18794 = EDGE_CURVE ( 'NONE', #37347, #11383, #42699, .T. );
#19124 = DIRECTION ( 'NONE',  ( -0.000000000000000000, 0.000000000000000000, -1.000000000000000000 ) );
#19163 = DIRECTION ( 'NONE',  ( -0.000000000000000000, 0.000000000000000000, -1.000000000000000000 ) );
#19475 = VECTOR ( 'NONE', #31948, 39.37007874015748143 );
#19483 = ORIENTED_EDGE ( 'NONE', *, *, #374, .F. );
#19759 = EDGE_CURVE ( 'NONE', #4325, #4209, #10747, .T. );
#19805 = DIRECTION ( 'NONE',  ( 1.000000000000000000, 0.000000000000000000, 0.000000000000000000 ) );
#19854 = EDGE_CURVE ( 'NONE', #34679, #57958, #27312, .T. );
#19884 = ORIENTED_EDGE ( 'NONE', *, *, #51976, .F. );
#19930 = DIRECTION ( 'NONE',  ( 0.000000000000000000, -0.000000000000000000, 1.000000000000000000 ) );
#19976 = DIRECTION ( 'NONE',  ( 1.000000000000000000, 0.000000000000000000, 0.000000000000000000 ) );
#20046 = DIRECTION ( 'NONE',  ( -0.000000000000000000, 0.000000000000000000, -1.000000000000000000 ) );
#20263 = EDGE_CURVE ( 'NONE', #20953, #25796, #16450, .T. );
#20292 = DIRECTION ( 'NONE',  ( 1.000000000000000000, 0.000000000000000000, -0.000000000000000000 ) );
#20408 = DIRECTION ( 'NONE',  ( 0.000000000000000000, 0.000000000000000000, 1.000000000000000000 ) );
#20618 = DIRECTION ( 'NONE',  ( 1.017433273237770576E-15, 1.000000000000000000, -0.000000000000000000 ) );
#20653 = EDGE_CURVE ( 'NONE', #32838, #39146, #12725, .T. );
#20690 = DIRECTION ( 'NONE',  ( 0.7071067811865507924, 0.7071067811865442421, 0.000000000000000000 ) );
#20755 = EDGE_CURVE ( 'NONE', #39907, #27887, #31621, .T. );
#20760 = AXIS2_PLACEMENT_3D ( 'NONE', #45959, #37424, #45681 );
#20805 = CARTESIAN_POINT ( 'NONE',  ( -0.2324999999999998457, 0.4327720855862983163, 0.5000000000000000000 ) );
#20953 = VERTEX_POINT ( 'NONE', #41854 );
#21023 = DIRECTION ( 'NONE',  ( 0.000000000000000000, 0.000000000000000000, 1.000000000000000000 ) );
#21243 = DIRECTION ( 'NONE',  ( -1.000000000000000000, 0.000000000000000000, 0.000000000000000000 ) );
#21305 = CARTESIAN_POINT ( 'NONE',  ( 0.2457167031797830858, -0.4094258806896046710, 0.5000000000000000000 ) );
#21365 = DIRECTION ( 'NONE',  ( 1.000000000000000000, 3.946749513653773244E-16, -0.000000000000000000 ) );
#21426 = CARTESIAN_POINT ( 'NONE',  ( 0.4094258806896048930, -0.2457167031797830581, 0.5000000000000000000 ) );
#21447 = AXIS2_PLACEMENT_3D ( 'NONE', #56951, #7396, #20292 );
#21503 = CIRCLE ( 'NONE', #11182, 0.005000000000000014849 );
#21707 = EDGE_CURVE ( 'NONE', #42886, #4745, #48427, .T. );
#21764 = DIRECTION ( 'NONE',  ( 1.000000000000000000, 0.000000000000000000, 0.000000000000000000 ) );
#21806 = LINE ( 'NONE', #49052, #12563 );
#21883 = CARTESIAN_POINT ( 'NONE',  ( 0.000000000000000000, 0.000000000000000000, 0.5000000000000000000 ) );
#22067 = ORIENTED_EDGE ( 'NONE', *, *, #11756, .T. );
#22095 = LINE ( 'NONE', #22388, #15684 );
#22127 = CARTESIAN_POINT ( 'NONE',  ( 0.000000000000000000, 0.000000000000000000, 0.5000000000000000000 ) );
#22388 = CARTESIAN_POINT ( 'NONE',  ( -0.4599999999999997979, -0.4327720855862983718, 0.5000000000000000000 ) );
#22406 = ORIENTED_EDGE ( 'NONE', *, *, #37796, .F. );
#22424 = ( NAMED_UNIT ( * ) SI_UNIT ( $, .STERADIAN. ) SOLID_ANGLE_UNIT ( ) );
#22473 = ORIENTED_EDGE ( 'NONE', *, *, #42089, .F. );
#22497 = ORIENTED_EDGE ( 'NONE', *, *, #48108, .T. );
#22642 = VECTOR ( 'NONE', #42721, 39.37007874015748143 );
#22648 = VERTEX_POINT ( 'NONE', #35066 );
#22666 = DIRECTION ( 'NONE',  ( -1.000000000000000000, 0.000000000000000000, 0.000000000000000000 ) );
#22711 = LINE ( 'NONE', #3952, #31925 );
#22779 = DIRECTION ( 'NONE',  ( -1.017433273237770576E-15, 1.000000000000000000, 0.000000000000000000 ) );
#22810 = CARTESIAN_POINT ( 'NONE',  ( -0.4599999999999999645, 0.1925000000000000600, 0.5000000000000000000 ) );
#22862 = VERTEX_POINT ( 'NONE', #10106 );
#22872 = VERTEX_POINT ( 'NONE', #23885 );
#22964 = DIRECTION ( 'NONE',  ( 1.000000000000000000, 0.000000000000000000, 0.000000000000000000 ) );
#23152 = CARTESIAN_POINT ( 'NONE',  ( -0.1925000000000000322, -0.4600000000000000200, 0.5000000000000000000 ) );
#23153 = CARTESIAN_POINT ( 'NONE',  ( 0.1875000000000000278, -0.4550000000000000155, 0.4999999999999973910 ) );
#23174 = ORIENTED_EDGE ( 'NONE', *, *, #35694, .T. );
#23186 = CARTESIAN_POINT ( 'NONE',  ( 0.4549999999999999045, -0.1875000000000000555, 0.4999999999999973910 ) );
#23200 = EDGE_CURVE ( 'NONE', #20953, #26254, #44093, .T. );
#23253 = CARTESIAN_POINT ( 'NONE',  ( -0.4600000000000000200, 0.2597279144137016882, 0.5000000000000000000 ) );
#23460 = ORIENTED_EDGE ( 'NONE', *, *, #30753, .F. );
#23489 = CARTESIAN_POINT ( 'NONE',  ( -0.4600000000000000200, 0.4327720855862982607, 0.5000000000000000000 ) );
#23519 = AXIS2_PLACEMENT_3D ( 'NONE', #48455, #8276, #21764 );
#23531 = CARTESIAN_POINT ( 'NONE',  ( -0.4599999999999997979, -0.4327720855862983718, 0.5000000000000000000 ) );
#23534 = DIRECTION ( 'NONE',  ( -1.000000000000000000, 0.000000000000000000, 0.000000000000000000 ) );
#23769 = CIRCLE ( 'NONE', #5123, 0.02722791441370170026 );
#23802 = ORIENTED_EDGE ( 'NONE', *, *, #54863, .F. );
#23844 = ORIENTED_EDGE ( 'NONE', *, *, #5932, .F. );
#23885 = CARTESIAN_POINT ( 'NONE',  ( 0.1924999999999999489, 0.3959797974644665985, 0.5000000000000000000 ) );
#23907 = CARTESIAN_POINT ( 'NONE',  ( 0.4599999999999999645, -0.1875000000000000555, 0.5000000000000000000 ) );
#23928 = DIRECTION ( 'NONE',  ( 1.000000000000000000, 0.000000000000000000, 0.000000000000000000 ) );
#24141 = FACE_OUTER_BOUND ( 'NONE', #37285, .T. );
#24162 = CARTESIAN_POINT ( 'NONE',  ( -0.4599999999999997979, -0.2597279144137017992, 0.5000000000000000000 ) );
#24173 = CIRCLE ( 'NONE', #50373, 0.005000000000000014849 );
#24228 = EDGE_CURVE ( 'NONE', #22648, #11383, #43817, .T. );
#24296 = CARTESIAN_POINT ( 'NONE',  ( -0.2597279144137016327, -0.4327720855862984273, 0.5000000000000000000 ) );
#24313 = EDGE_CURVE ( 'NONE', #29354, #41576, #22095, .T. );
#24315 = VERTEX_POINT ( 'NONE', #18547 );
#24391 = LINE ( 'NONE', #47258, #6353 );
#24470 = VERTEX_POINT ( 'NONE', #54611 );
#24542 = AXIS2_PLACEMENT_3D ( 'NONE', #6879, #2758, #2196 );
#24699 = AXIS2_PLACEMENT_3D ( 'NONE', #6286, #25057, #42938 );
#24728 = CIRCLE ( 'NONE', #6914, 0.005000000000000014849 );
#24844 = ORIENTED_EDGE ( 'NONE', *, *, #14736, .F. );
#24877 = AXIS2_PLACEMENT_3D ( 'NONE', #34109, #20046, #47325 );
#25022 = VECTOR ( 'NONE', #31915, 39.37007874015748143 );
#25034 = CIRCLE ( 'NONE', #40038, 0.02722791441370163087 );
#25057 = DIRECTION ( 'NONE',  ( 0.000000000000000000, -0.000000000000000000, 1.000000000000000000 ) );
#25235 = CARTESIAN_POINT ( 'NONE',  ( 0.4599999999999998535, 0.4327720855862983163, 0.5000000000000000000 ) );
#25290 = FACE_BOUND ( 'NONE', #5907, .T. );
#25490 = CARTESIAN_POINT ( 'NONE',  ( -0.5000000000000000000, 0.5000000000000000000, 0.5000000000000000000 ) );
#25613 = CARTESIAN_POINT ( 'NONE',  ( 0.004999999999999996635, -0.5000000000000000000, 0.5000000000000000000 ) );
#25796 = VERTEX_POINT ( 'NONE', #31713 );
#26006 = CARTESIAN_POINT ( 'NONE',  ( 0.004999999999999996635, -0.5000000000000000000, 0.5000000000000000000 ) );
#26009 = CARTESIAN_POINT ( 'NONE',  ( -0.4327720855862981497, -0.4600000000000000755, 0.5000000000000000000 ) );
#26254 = VERTEX_POINT ( 'NONE', #1610 );
#26406 = AXIS2_PLACEMENT_3D ( 'NONE', #18645, #41810, #23928 );
#26492 = EDGE_CURVE ( 'NONE', #46761, #42511, #21503, .T. );
#26587 = CARTESIAN_POINT ( 'NONE',  ( -0.3959797974644664875, 0.1975000000000001199, 0.4999999999999973910 ) );
#26657 = EDGE_CURVE ( 'NONE', #5458, #7044, #44949, .T. );
#26689 = EDGE_CURVE ( 'NONE', #12670, #32423, #51489, .T. );
#26731 = ORIENTED_EDGE ( 'NONE', *, *, #36823, .F. );
#26836 = ( NAMED_UNIT ( * ) PLANE_ANGLE_UNIT ( ) SI_UNIT ( $, .RADIAN. ) );
#26982 = LINE ( 'NONE', #23152, #19475 );
#27068 = VECTOR ( 'NONE', #37062, 39.37007874015748143 );
#27097 = DIRECTION ( 'NONE',  ( 0.000000000000000000, -0.000000000000000000, 1.000000000000000000 ) );
#27101 = CARTESIAN_POINT ( 'NONE',  ( 0.000000000000000000, 0.000000000000000000, 0.5000000000000000000 ) );
#27312 = CIRCLE ( 'NONE', #20760, 0.4775000000000000355 );
#27347 = VERTEX_POINT ( 'NONE', #5812 );
#27363 = CIRCLE ( 'NONE', #24542, 0.02722791441370187027 );
#27404 = CARTESIAN_POINT ( 'NONE',  ( -0.5000000000000000000, -0.5000000000000000000, 0.5000000000000000000 ) );
#27501 = VECTOR ( 'NONE', #46438, 39.37007874015748143 );
#27502 = EDGE_CURVE ( 'NONE', #22862, #25796, #16048, .T. );
#27506 = VECTOR ( 'NONE', #21243, 39.37007874015748143 );
#27507 = CARTESIAN_POINT ( 'NONE',  ( 0.1924999999999999489, -0.3959797974644665985, 0.5000000000000000000 ) );
#27682 = FACE_BOUND ( 'NONE', #43905, .T. );
#27887 = VERTEX_POINT ( 'NONE', #48163 );
#27916 = DIRECTION ( 'NONE',  ( -0.7071067811865507924, -0.7071067811865442421, 0.000000000000000000 ) );
#28031 = CIRCLE ( 'NONE', #53305, 0.005000000000000014849 );
#28229 = CARTESIAN_POINT ( 'NONE',  ( 0.1974999999999999811, -0.3959797974644665985, 0.4999999999999973910 ) );
#28243 = DIRECTION ( 'NONE',  ( 0.000000000000000000, 0.000000000000000000, 1.000000000000000000 ) );
#28305 = DIRECTION ( 'NONE',  ( 1.000000000000000000, 0.000000000000000000, 0.000000000000000000 ) );
#28490 = ORIENTED_EDGE ( 'NONE', *, *, #35693, .F. );
#28618 = ORIENTED_EDGE ( 'NONE', *, *, #14781, .T. );
#28771 = CIRCLE ( 'NONE', #4450, 0.005000000000000014849 );
#28902 = CARTESIAN_POINT ( 'NONE',  ( 0.2597279144137017992, -0.4599999999999998535, 0.5000000000000000000 ) );
#29176 = EDGE_CURVE ( 'NONE', #4325, #22648, #22711, .T. );
#29354 = VERTEX_POINT ( 'NONE', #24162 );
#29534 = DIRECTION ( 'NONE',  ( 1.000000000000000000, -5.087166366188852879E-16, 0.000000000000000000 ) );
#29554 = CARTESIAN_POINT ( 'NONE',  ( -0.2597279144137016327, -0.4327720855862984273, 0.5000000000000000000 ) );
#29564 = VECTOR ( 'NONE', #43807, 39.37007874015748143 );
#29619 = DIRECTION ( 'NONE',  ( 1.000000000000000000, 0.000000000000000000, 0.000000000000000000 ) );
#29807 = ORIENTED_EDGE ( 'NONE', *, *, #37860, .T. );
#29825 = CARTESIAN_POINT ( 'NONE',  ( 0.4327720855862982607, 0.2597279144137016882, 0.5000000000000000000 ) );
#30298 = CARTESIAN_POINT ( 'NONE',  ( 0.4327720855862982607, 0.4600000000000000200, 0.5000000000000000000 ) );
#30313 = EDGE_LOOP ( 'NONE', ( #36530, #43534, #5604, #22473, #32962, #18786 ) );
#30353 = EDGE_CURVE ( 'NONE', #48865, #46311, #31044, .T. );
#30404 = CARTESIAN_POINT ( 'NONE',  ( -0.5000000000000000000, -0.5000000000000000000, 0.5000000000000000000 ) );
#30542 = VECTOR ( 'NONE', #36298, 39.37007874015748143 );
#30579 = ORIENTED_EDGE ( 'NONE', *, *, #16746, .F. );
#30631 = EDGE_CURVE ( 'NONE', #42886, #24470, #52640, .T. );
#30649 = CIRCLE ( 'NONE', #52179, 0.02722791441370187027 );
#30753 = EDGE_CURVE ( 'NONE', #37482, #53453, #27363, .T. );
#30888 = CARTESIAN_POINT ( 'NONE',  ( 0.1925000000000000322, 0.4600000000000000200, 0.5000000000000000000 ) );
#30911 = CARTESIAN_POINT ( 'NONE',  ( -0.1952683615819208740, -0.3915054494705177968, 0.5000000000000000000 ) );
#31017 = ORIENTED_EDGE ( 'NONE', *, *, #14033, .F. );
#31044 = CIRCLE ( 'NONE', #44157, 0.02722791441370193619 );
#31095 = VERTEX_POINT ( 'NONE', #33227 );
#31098 = DIRECTION ( 'NONE',  ( 1.000000000000000000, 0.000000000000000000, 0.000000000000000000 ) );
#31166 = ORIENTED_EDGE ( 'NONE', *, *, #52507, .F. );
#31233 = AXIS2_PLACEMENT_3D ( 'NONE', #22127, #35608, #3352 );
#31255 = ORIENTED_EDGE ( 'NONE', *, *, #20263, .T. );
#31284 = VERTEX_POINT ( 'NONE', #53142 );
#31359 = AXIS2_PLACEMENT_3D ( 'NONE', #23186, #2031, #880 );
#31381 = DIRECTION ( 'NONE',  ( 1.000000000000000000, 0.000000000000000000, 0.000000000000000000 ) );
#31621 = LINE ( 'NONE', #9313, #30542 );
#31622 = DIRECTION ( 'NONE',  ( 0.000000000000000000, -1.000000000000000000, 0.000000000000000000 ) );
#31713 = CARTESIAN_POINT ( 'NONE',  ( -0.1875000000000000278, 0.4600000000000000200, 0.5000000000000000000 ) );
#31765 = DIRECTION ( 'NONE',  ( -0.000000000000000000, -1.000000000000000000, -0.000000000000000000 ) );
#31915 = DIRECTION ( 'NONE',  ( -1.000000000000000000, 0.000000000000000000, 0.000000000000000000 ) );
#31925 = VECTOR ( 'NONE', #17447, 39.37007874015748143 );
#31948 = DIRECTION ( 'NONE',  ( -1.017433273237770576E-15, -1.000000000000000000, -0.000000000000000000 ) );
#32187 = DIRECTION ( 'NONE',  ( -0.000000000000000000, 1.000000000000000000, -0.000000000000000000 ) );
#32320 = VECTOR ( 'NONE', #32384, 39.37007874015748143 );
#32384 = DIRECTION ( 'NONE',  ( -0.000000000000000000, -1.000000000000000000, -0.000000000000000000 ) );
#32399 = VERTEX_POINT ( 'NONE', #34669 );
#32423 = VERTEX_POINT ( 'NONE', #30298 );
#32439 = VECTOR ( 'NONE', #38079, 39.37007874015748143 );
#32501 = CARTESIAN_POINT ( 'NONE',  ( 0.4600000000000000755, -0.4327720855862981497, 0.5000000000000000000 ) );
#32755 = VERTEX_POINT ( 'NONE', #51912 );
#32801 = VERTEX_POINT ( 'NONE', #21426 );
#32833 = CARTESIAN_POINT ( 'NONE',  ( 0.4599999999999999645, 0.1925000000000000600, 0.5000000000000000000 ) );
#32838 = VERTEX_POINT ( 'NONE', #17313 );
#32962 = ORIENTED_EDGE ( 'NONE', *, *, #19854, .F. );
#33017 = CARTESIAN_POINT ( 'NONE',  ( 0.1974999999999999811, 0.3959797974644665985, 0.4999999999999973910 ) );
#33032 = VERTEX_POINT ( 'NONE', #18164 );
#33035 = VERTEX_POINT ( 'NONE', #44197 );
#33227 = CARTESIAN_POINT ( 'NONE',  ( 3.607425381479602844E-18, -0.4950000000000000511, 0.5000000000000000000 ) );
#33400 = VERTEX_POINT ( 'NONE', #55135 );
#33546 = DIRECTION ( 'NONE',  ( 0.000000000000000000, 0.000000000000000000, 1.000000000000000000 ) );
#33619 = LINE ( 'NONE', #26006, #18461 );
#33813 = CARTESIAN_POINT ( 'NONE',  ( -0.1875000000000000278, -0.4600000000000000200, 0.5000000000000000000 ) );
#34109 = CARTESIAN_POINT ( 'NONE',  ( -0.1875000000000000278, 0.4550000000000000155, 0.4999999999999973910 ) );
#34147 = DIRECTION ( 'NONE',  ( 1.000000000000000000, 0.000000000000000000, 0.000000000000000000 ) );
#34290 = CARTESIAN_POINT ( 'NONE',  ( 0.3959797974644664875, 0.1975000000000001199, 0.4999999999999973910 ) );
#34308 = CIRCLE ( 'NONE', #8107, 0.005000000000000014849 );
#34522 = CARTESIAN_POINT ( 'NONE',  ( 0.3959797974644664875, 0.1925000000000000877, 0.5000000000000000000 ) );
#34544 = DIRECTION ( 'NONE',  ( 0.000000000000000000, 1.000000000000000000, 0.000000000000000000 ) );
#34669 = CARTESIAN_POINT ( 'NONE',  ( 0.1875000000000000278, -0.4600000000000000200, 0.5000000000000000000 ) );
#34679 = VERTEX_POINT ( 'NONE', #42238 );
#34742 = CARTESIAN_POINT ( 'NONE',  ( 0.4094258806896047820, 0.2457167031797830581, 0.5000000000000000000 ) );
#34784 = DIRECTION ( 'NONE',  ( 1.000000000000000000, 0.000000000000000000, 0.000000000000000000 ) );
#34854 = CARTESIAN_POINT ( 'NONE',  ( 0.4599999999999999645, 0.1875000000000000555, 0.5000000000000000000 ) );
#34881 = VECTOR ( 'NONE', #32187, 39.37007874015748143 );
#34984 = AXIS2_PLACEMENT_3D ( 'NONE', #24296, #42177, #1980 );
#35066 = CARTESIAN_POINT ( 'NONE',  ( 0.5000000000000001110, 0.5000000000000000000, 0.5000000000000000000 ) );
#35225 = ORIENTED_EDGE ( 'NONE', *, *, #29176, .T. );
#35285 = LINE ( 'NONE', #30888, #36543 );
#35294 = CARTESIAN_POINT ( 'NONE',  ( 0.4950000000000000511, 5.188457213563532030E-15, 0.5000000000000000000 ) );
#35313 = LINE ( 'NONE', #53192, #27506 );
#35366 = VECTOR ( 'NONE', #48199, 39.37007874015748143 );
#35532 = CARTESIAN_POINT ( 'NONE',  ( 0.2597279144137016882, 0.4600000000000000200, 0.5000000000000000000 ) );
#35559 = EDGE_CURVE ( 'NONE', #2845, #53041, #18106, .T. );
#35608 = DIRECTION ( 'NONE',  ( -0.000000000000000000, -0.000000000000000000, -1.000000000000000000 ) );
#35617 = LENGTH_MEASURE_WITH_UNIT ( LENGTH_MEASURE( 0.02539999999999999897 ), #53498 );
#35659 = AXIS2_PLACEMENT_3D ( 'NONE', #38553, #51746, #52629 );
#35693 = EDGE_CURVE ( 'NONE', #32801, #37482, #9656, .T. );
#35694 = EDGE_CURVE ( 'NONE', #33400, #27347, #8735, .T. );
#35838 = VECTOR ( 'NONE', #34544, 39.37007874015748143 );
#35852 = DIMENSIONAL_EXPONENTS ( 1.000000000000000000, 0.000000000000000000, 0.000000000000000000, 0.000000000000000000, 0.000000000000000000, 0.000000000000000000, 0.000000000000000000 );
#35857 = DIRECTION ( 'NONE',  ( 1.017433273237770576E-15, -1.000000000000000000, 0.000000000000000000 ) );
#35965 = EDGE_CURVE ( 'NONE', #43576, #27347, #2696, .T. );
#36012 = VERTEX_POINT ( 'NONE', #45145 );
#36052 = AXIS2_PLACEMENT_3D ( 'NONE', #4765, #5349, #22666 );
#36179 = EDGE_CURVE ( 'NONE', #46311, #36012, #14383, .T. );
#36298 = DIRECTION ( 'NONE',  ( -0.7071067811865466846, 0.7071067811865483499, 0.000000000000000000 ) );
#36441 = CARTESIAN_POINT ( 'NONE',  ( 0.1875000000000000278, 0.4550000000000000155, 0.4999999999999973910 ) );
#36476 = LINE ( 'NONE', #46437, #38447 );
#36530 = ORIENTED_EDGE ( 'NONE', *, *, #6421, .F. );
#36534 = ORIENTED_EDGE ( 'NONE', *, *, #30631, .F. );
#36543 = VECTOR ( 'NONE', #20618, 39.37007874015748143 );
#36570 = CIRCLE ( 'NONE', #35659, 0.005000000000000014849 );
#36756 = DIRECTION ( 'NONE',  ( 0.000000000000000000, -1.000000000000000000, 0.000000000000000000 ) );
#36823 = EDGE_CURVE ( 'NONE', #37628, #29354, #36913, .T. );
#36860 = CARTESIAN_POINT ( 'NONE',  ( 0.4999999999999999445, 0.005000000000005234632, 0.5000000000000000000 ) );
#36873 = CARTESIAN_POINT ( 'NONE',  ( 0.5000000000000001110, -0.004999999999994752566, 0.5000000000000000000 ) );
#36889 = LINE ( 'NONE', #32501, #37538 );
#36913 = CIRCLE ( 'NONE', #5041, 0.02722791441370190496 );
#36969 = CIRCLE ( 'NONE', #36052, 0.02722791441370187027 );
#37011 = CARTESIAN_POINT ( 'NONE',  ( 0.2597279144137016882, 0.4327720855862984273, 0.5000000000000000000 ) );
#37062 = DIRECTION ( 'NONE',  ( 1.000000000000000000, -0.000000000000000000, -0.000000000000000000 ) );
#37127 = LINE ( 'NONE', #41527, #49540 );
#37130 = VERTEX_POINT ( 'NONE', #34854 );
#37278 = VERTEX_POINT ( 'NONE', #36873 );
#37285 = EDGE_LOOP ( 'NONE', ( #49772, #3861, #52650, #51479, #31017, #42372, #48651, #28618, #30579, #18427, #35225, #1611, #48533, #41403, #53687, #46088 ) );
#37301 = DIRECTION ( 'NONE',  ( -0.000000000000000000, -0.000000000000000000, -1.000000000000000000 ) );
#37302 = EDGE_CURVE ( 'NONE', #33400, #56153, #54471, .T. );
#37347 = VERTEX_POINT ( 'NONE', #50067 );
#37424 = DIRECTION ( 'NONE',  ( -0.000000000000000000, -0.000000000000000000, -1.000000000000000000 ) );
#37482 = VERTEX_POINT ( 'NONE', #21305 );
#37538 = VECTOR ( 'NONE', #45983, 39.37007874015748143 );
#37608 = ORIENTED_EDGE ( 'NONE', *, *, #35559, .F. );
#37618 = CIRCLE ( 'NONE', #7703, 0.005000000000000014849 );
#37628 = VERTEX_POINT ( 'NONE', #40919 );
#37796 = EDGE_CURVE ( 'NONE', #41576, #43320, #23769, .T. );
#37860 = EDGE_CURVE ( 'NONE', #6533, #56153, #24728, .T. );
#37901 = CARTESIAN_POINT ( 'NONE',  ( -0.4599999999999999645, 0.1925000000000000600, 0.5000000000000000000 ) );
#38021 = DIRECTION ( 'NONE',  ( 0.000000000000000000, 0.000000000000000000, 1.000000000000000000 ) );
#38079 = DIRECTION ( 'NONE',  ( -1.000000000000000000, 5.087166366188852879E-16, 0.000000000000000000 ) );
#38154 = DIRECTION ( 'NONE',  ( 0.000000000000000000, 0.000000000000000000, 1.000000000000000000 ) );
#38204 = ORIENTED_EDGE ( 'NONE', *, *, #44107, .T. );
#38218 = CIRCLE ( 'NONE', #47619, 0.005000000000000014849 );
#38229 = EDGE_CURVE ( 'NONE', #36012, #37628, #3146, .T. );
#38447 = VECTOR ( 'NONE', #36756, 39.37007874015748143 );
#38505 = EDGE_CURVE ( 'NONE', #48198, #32755, #16353, .T. );
#38553 = CARTESIAN_POINT ( 'NONE',  ( -0.1875000000000000278, -0.4550000000000000155, 0.4999999999999973910 ) );
#38589 = DIRECTION ( 'NONE',  ( 1.000000000000000000, 0.000000000000000000, 0.000000000000000000 ) );
#38904 = DIRECTION ( 'NONE',  ( -1.000000000000000000, 0.000000000000000000, 0.000000000000000000 ) );
#39146 = VERTEX_POINT ( 'NONE', #45553 );
#39154 = ORIENTED_EDGE ( 'NONE', *, *, #53565, .T. );
#39189 = VERTEX_POINT ( 'NONE', #951 );
#39194 = LINE ( 'NONE', #26009, #7262 );
#39529 = AXIS2_PLACEMENT_3D ( 'NONE', #34290, #52189, #7035 );
#39579 = VERTEX_POINT ( 'NONE', #35532 );
#39907 = VERTEX_POINT ( 'NONE', #4372 );
#39955 = ORIENTED_EDGE ( 'NONE', *, *, #42021, .F. );
#40038 = AXIS2_PLACEMENT_3D ( 'NONE', #1931, #20408, #38589 );
#40148 = LINE ( 'NONE', #17836, #25022 );
#40383 = EDGE_CURVE ( 'NONE', #1086, #57664, #55685, .T. );
#40394 = VERTEX_POINT ( 'NONE', #45754 );
#40485 = VECTOR ( 'NONE', #21365, 39.37007874015748143 );
#40558 = DIRECTION ( 'NONE',  ( 0.000000000000000000, -0.000000000000000000, 1.000000000000000000 ) );
#40691 = AXIS2_PLACEMENT_3D ( 'NONE', #37011, #50205, #2867 );
#40708 = CARTESIAN_POINT ( 'NONE',  ( -0.2457167031797829193, 0.4094258806896046710, 0.5000000000000000000 ) );
#40866 = FACE_BOUND ( 'NONE', #18417, .T. );
#40889 = EDGE_CURVE ( 'NONE', #50321, #4300, #52669, .T. );
#40919 = CARTESIAN_POINT ( 'NONE',  ( -0.4094258806896048375, -0.2457167031797829471, 0.5000000000000000000 ) );
#40925 = DIRECTION ( 'NONE',  ( 1.000000000000000000, 0.000000000000000000, 0.000000000000000000 ) );
#41034 = DIRECTION ( 'NONE',  ( -0.000000000000000000, 0.000000000000000000, -1.000000000000000000 ) );
#41151 = FACE_BOUND ( 'NONE', #9874, .T. );
#41247 = ORIENTED_EDGE ( 'NONE', *, *, #21707, .T. );
#41267 = ORIENTED_EDGE ( 'NONE', *, *, #30353, .F. );
#41403 = ORIENTED_EDGE ( 'NONE', *, *, #44894, .F. );
#41418 = CARTESIAN_POINT ( 'NONE',  ( 0.000000000000000000, 0.000000000000000000, 0.5000000000000000000 ) );
#41458 = EDGE_CURVE ( 'NONE', #2540, #3449, #30649, .T. );
#41527 = CARTESIAN_POINT ( 'NONE',  ( 0.1925000000000000322, -0.4600000000000000200, 0.5000000000000000000 ) );
#41576 = VERTEX_POINT ( 'NONE', #23531 );
#41590 = LINE ( 'NONE', #50390, #56326 );
#41795 = EDGE_CURVE ( 'NONE', #40394, #2453, #40148, .T. );
#41810 = DIRECTION ( 'NONE',  ( 0.000000000000000000, 0.000000000000000000, 1.000000000000000000 ) );
#41854 = CARTESIAN_POINT ( 'NONE',  ( -0.1925000000000000322, 0.4550000000000000155, 0.5000000000000000000 ) );
#42021 = EDGE_CURVE ( 'NONE', #6533, #55723, #57078, .T. );
#42029 = EDGE_CURVE ( 'NONE', #43320, #48865, #39194, .T. );
#42049 = VECTOR ( 'NONE', #3365, 39.37007874015748143 );
#42058 = CARTESIAN_POINT ( 'NONE',  ( -0.2324999999999997069, -0.4327720855862984273, 0.5000000000000000000 ) );
#42089 = EDGE_CURVE ( 'NONE', #57958, #39189, #47534, .T. );
#42135 = AXIS2_PLACEMENT_3D ( 'NONE', #46125, #15028, #56363 );
#42177 = DIRECTION ( 'NONE',  ( 0.000000000000000000, 0.000000000000000000, 1.000000000000000000 ) );
#42238 = CARTESIAN_POINT ( 'NONE',  ( 0.2457167031797831414, 0.4094258806896050595, 0.5000000000000000000 ) );
#42372 = ORIENTED_EDGE ( 'NONE', *, *, #47924, .F. );
#42394 = DIRECTION ( 'NONE',  ( 0.000000000000000000, -0.000000000000000000, 1.000000000000000000 ) );
#42511 = VERTEX_POINT ( 'NONE', #30911 );
#42699 = LINE ( 'NONE', #52067, #15608 );
#42721 = DIRECTION ( 'NONE',  ( 1.000000000000000000, 5.087166366188852879E-16, -0.000000000000000000 ) );
#42771 = ORIENTED_EDGE ( 'NONE', *, *, #26492, .T. );
#42886 = VERTEX_POINT ( 'NONE', #6514 );
#42902 = ORIENTED_EDGE ( 'NONE', *, *, #26657, .F. );
#42938 = DIRECTION ( 'NONE',  ( 1.000000000000000000, 0.000000000000000000, 0.000000000000000000 ) );
#43113 = EDGE_CURVE ( 'NONE', #24315, #24470, #38218, .T. );
#43246 = VECTOR ( 'NONE', #49756, 39.37007874015748143 );
#43288 = CARTESIAN_POINT ( 'NONE',  ( 0.4549999999999999045, 0.1925000000000000600, 0.5000000000000000000 ) );
#43320 = VERTEX_POINT ( 'NONE', #12594 );
#43326 = DIRECTION ( 'NONE',  ( 1.000000000000000000, 0.000000000000000000, 0.000000000000000000 ) );
#43432 = ORIENTED_EDGE ( 'NONE', *, *, #20653, .F. );
#43534 = ORIENTED_EDGE ( 'NONE', *, *, #26689, .F. );
#43576 = VERTEX_POINT ( 'NONE', #11854 );
#43653 = ORIENTED_EDGE ( 'NONE', *, *, #45810, .T. );
#43807 = DIRECTION ( 'NONE',  ( 1.000000000000000000, 0.000000000000000000, 0.000000000000000000 ) );
#43817 = LINE ( 'NONE', #56702, #35366 );
#43843 = DIRECTION ( 'NONE',  ( 1.000000000000000000, 0.000000000000000000, 0.000000000000000000 ) );
#43905 = EDGE_LOOP ( 'NONE', ( #56447, #37608, #8252, #47453, #44186, #1393, #42902 ) );
#44093 = LINE ( 'NONE', #3893, #9996 );
#44107 = EDGE_CURVE ( 'NONE', #1086, #37130, #24173, .T. );
#44157 = AXIS2_PLACEMENT_3D ( 'NONE', #29554, #6957, #43326 );
#44186 = ORIENTED_EDGE ( 'NONE', *, *, #41458, .F. );
#44197 = CARTESIAN_POINT ( 'NONE',  ( 0.4600000000000000755, -0.4327720855862981497, 0.5000000000000000000 ) );
#44306 = EDGE_CURVE ( 'NONE', #46761, #55390, #26982, .T. );
#44894 = EDGE_CURVE ( 'NONE', #40394, #37347, #12166, .T. );
#44949 = CIRCLE ( 'NONE', #42135, 0.02722791441370197088 );
#44972 = CARTESIAN_POINT ( 'NONE',  ( -0.4549999999999999045, -0.1925000000000000600, 0.5000000000000000000 ) );
#45145 = CARTESIAN_POINT ( 'NONE',  ( -0.2457167031797830858, -0.4094258806896050595, 0.5000000000000000000 ) );
#45212 = EDGE_CURVE ( 'NONE', #4300, #57073, #54371, .T. );
#45361 = CARTESIAN_POINT ( 'NONE',  ( -0.5000000000000000000, -0.005000000000001742634, 0.5000000000000000000 ) );
#45490 = CARTESIAN_POINT ( 'NONE',  ( -0.4094258806896048930, 0.2457167031797831136, 0.5000000000000000000 ) );
#45553 = CARTESIAN_POINT ( 'NONE',  ( 0.1952683615819208740, 0.3915054494705177968, 0.5000000000000000000 ) );
#45681 = DIRECTION ( 'NONE',  ( 1.000000000000000000, 0.000000000000000000, 0.000000000000000000 ) );
#45754 = CARTESIAN_POINT ( 'NONE',  ( -0.004999999999999996635, 0.5000000000000000000, 0.5000000000000000000 ) );
#45810 = EDGE_CURVE ( 'NONE', #49290, #55723, #28031, .T. );
#45959 = CARTESIAN_POINT ( 'NONE',  ( 0.000000000000000000, 0.000000000000000000, 0.5000000000000000000 ) );
#45983 = DIRECTION ( 'NONE',  ( -3.946749513653773738E-16, 1.000000000000000000, 0.000000000000000000 ) );
#46088 = ORIENTED_EDGE ( 'NONE', *, *, #8197, .T. );
#46125 = CARTESIAN_POINT ( 'NONE',  ( -0.4327720855862983163, 0.2597279144137016882, 0.5000000000000000000 ) );
#46148 = VERTEX_POINT ( 'NONE', #52363 );
#46204 = AXIS2_PLACEMENT_3D ( 'NONE', #15407, #11002, #34147 );
#46311 = VERTEX_POINT ( 'NONE', #42058 );
#46401 = CARTESIAN_POINT ( 'NONE',  ( 0.000000000000000000, 0.000000000000000000, 0.5000000000000000000 ) );
#46426 = ORIENTED_EDGE ( 'NONE', *, *, #38505, .T. );
#46437 = CARTESIAN_POINT ( 'NONE',  ( -0.4600000000000000200, 0.4327720855862982607, 0.5000000000000000000 ) );
#46438 = DIRECTION ( 'NONE',  ( -1.000000000000000000, -5.087166366188852879E-16, -0.000000000000000000 ) );
#46442 = LINE ( 'NONE', #27404, #32320 );
#46489 = CARTESIAN_POINT ( 'NONE',  ( -0.3915054494705177413, -0.1952683615819210405, 0.5000000000000000000 ) );
#46506 = VERTEX_POINT ( 'NONE', #25613 );
#46761 = VERTEX_POINT ( 'NONE', #54311 );
#47112 = DIRECTION ( 'NONE',  ( -0.7071067811865507924, 0.7071067811865442421, 0.000000000000000000 ) );
#47125 = ORIENTED_EDGE ( 'NONE', *, *, #42029, .F. );
#47218 = CARTESIAN_POINT ( 'NONE',  ( -0.004999999999999990563, -0.5000000000000000000, 0.5000000000000000000 ) );
#47258 = CARTESIAN_POINT ( 'NONE',  ( -0.4327720855862983163, 0.4599999999999998535, 0.5000000000000000000 ) );
#47325 = DIRECTION ( 'NONE',  ( 1.000000000000000000, 0.000000000000000000, 0.000000000000000000 ) );
#47414 = CARTESIAN_POINT ( 'NONE',  ( 0.4327720855862983163, -0.2597279144137016327, 0.5000000000000000000 ) );
#47453 = ORIENTED_EDGE ( 'NONE', *, *, #16891, .F. );
#47534 = CIRCLE ( 'NONE', #1644, 0.02722791441370190496 );
#47619 = AXIS2_PLACEMENT_3D ( 'NONE', #16417, #19930, #29619 );
#47859 = PLANE ( 'NONE',  #21447 );
#47924 = EDGE_CURVE ( 'NONE', #46506, #31095, #33619, .T. );
#47939 = DIRECTION ( 'NONE',  ( -0.000000000000000000, 0.000000000000000000, -1.000000000000000000 ) );
#48108 = EDGE_CURVE ( 'NONE', #43576, #33032, #28771, .T. );
#48163 = CARTESIAN_POINT ( 'NONE',  ( -0.5000000000000000000, 0.004999999999998244564, 0.5000000000000000000 ) );
#48198 = VERTEX_POINT ( 'NONE', #23907 );
#48199 = DIRECTION ( 'NONE',  ( -1.000000000000000000, 0.000000000000000000, 0.000000000000000000 ) );
#48202 = CARTESIAN_POINT ( 'NONE',  ( -0.2597279144137016882, 0.4327720855862983163, 0.5000000000000000000 ) );
#48330 = ORIENTED_EDGE ( 'NONE', *, *, #37302, .F. );
#48427 = CIRCLE ( 'NONE', #9080, 0.005000000000000014849 );
#48455 = CARTESIAN_POINT ( 'NONE',  ( 0.000000000000000000, 0.000000000000000000, 0.5000000000000000000 ) );
#48533 = ORIENTED_EDGE ( 'NONE', *, *, #18794, .F. );
#48651 = ORIENTED_EDGE ( 'NONE', *, *, #11956, .T. );
#48765 = DIRECTION ( 'NONE',  ( -1.000000000000000000, 0.000000000000000000, 0.000000000000000000 ) );
#48865 = VERTEX_POINT ( 'NONE', #10777 );
#48914 = CARTESIAN_POINT ( 'NONE',  ( 0.5000000000000001110, -0.5000000000000000000, 0.5000000000000000000 ) );
#49010 = EDGE_CURVE ( 'NONE', #50321, #39907, #3704, .T. );
#49052 = CARTESIAN_POINT ( 'NONE',  ( 0.4950000000000000511, 5.188457213563532030E-15, 0.5000000000000000000 ) );
#49191 = ORIENTED_EDGE ( 'NONE', *, *, #13272, .F. );
#49290 = VERTEX_POINT ( 'NONE', #46489 );
#49349 = DIRECTION ( 'NONE',  ( 1.000000000000000000, 0.000000000000000000, 0.000000000000000000 ) );
#49494 = ORIENTED_EDGE ( 'NONE', *, *, #9026, .T. );
#49536 = ORIENTED_EDGE ( 'NONE', *, *, #44306, .F. );
#49540 = VECTOR ( 'NONE', #22779, 39.37007874015748143 );
#49699 = VERTEX_POINT ( 'NONE', #5650 );
#49749 = ADVANCED_FACE ( 'NONE', ( #24141, #27682, #40866, #5370, #41151, #25290 ), #47859, .T. );
#49756 = DIRECTION ( 'NONE',  ( -0.7071067811865368036, -0.7071067811865582309, 0.000000000000000000 ) );
#49772 = ORIENTED_EDGE ( 'NONE', *, *, #20755, .F. );
#50055 = CARTESIAN_POINT ( 'NONE',  ( 0.4599999999999998535, 0.4327720855862983163, 0.5000000000000000000 ) );
#50067 = CARTESIAN_POINT ( 'NONE',  ( -3.607425381479602844E-18, 0.4950000000000000511, 0.5000000000000000000 ) );
#50205 = DIRECTION ( 'NONE',  ( 0.000000000000000000, 0.000000000000000000, 1.000000000000000000 ) );
#50252 = DIRECTION ( 'NONE',  ( 1.000000000000000000, 0.000000000000000000, 0.000000000000000000 ) );
#50321 = VERTEX_POINT ( 'NONE', #45361 );
#50340 = VECTOR ( 'NONE', #29534, 39.37007874015748143 );
#50350 = LINE ( 'NONE', #50055, #34881 );
#50373 = AXIS2_PLACEMENT_3D ( 'NONE', #55511, #19163, #50252 );
#50390 = CARTESIAN_POINT ( 'NONE',  ( 0.5000000000000001110, -0.5000000000000000000, 0.5000000000000000000 ) );
#50446 = ORIENTED_EDGE ( 'NONE', *, *, #11187, .F. );
#50572 = CARTESIAN_POINT ( 'NONE',  ( 0.4327720855862983718, -0.4599999999999997979, 0.5000000000000000000 ) );
#50577 = CARTESIAN_POINT ( 'NONE',  ( -0.4549999999999999045, -0.1875000000000000555, 0.4999999999999973910 ) );
#50807 = DIRECTION ( 'NONE',  ( 1.000000000000000000, 0.000000000000000000, 0.000000000000000000 ) );
#51009 = AXIS2_PLACEMENT_3D ( 'NONE', #33017, #42394, #19805 );
#51077 = EDGE_CURVE ( 'NONE', #7044, #2540, #9372, .T. );
#51223 = CARTESIAN_POINT ( 'NONE',  ( 0.4599999999999999645, -0.1925000000000000600, 0.5000000000000000000 ) );
#51430 = DIRECTION ( 'NONE',  ( 1.000000000000000000, 0.000000000000000000, 0.000000000000000000 ) );
#51479 = ORIENTED_EDGE ( 'NONE', *, *, #45212, .T. );
#51489 = CIRCLE ( 'NONE', #56148, 0.02722791441370163087 );
#51529 = CARTESIAN_POINT ( 'NONE',  ( 0.1925000000000000322, 0.4600000000000000200, 0.5000000000000000000 ) );
#51638 = CIRCLE ( 'NONE', #7619, 0.4375000000000000000 );
#51746 = DIRECTION ( 'NONE',  ( -0.000000000000000000, 0.000000000000000000, -1.000000000000000000 ) );
#51912 = CARTESIAN_POINT ( 'NONE',  ( 0.4549999999999999045, -0.1925000000000000600, 0.5000000000000000000 ) );
#51974 = CIRCLE ( 'NONE', #51009, 0.005000000000000014849 );
#51976 = EDGE_CURVE ( 'NONE', #33035, #46148, #36889, .T. );
#52067 = CARTESIAN_POINT ( 'NONE',  ( -3.607425381479602844E-18, 0.4950000000000000511, 0.5000000000000000000 ) );
#52179 = AXIS2_PLACEMENT_3D ( 'NONE', #48202, #3616, #48765 );
#52189 = DIRECTION ( 'NONE',  ( 0.000000000000000000, -0.000000000000000000, 1.000000000000000000 ) );
#52363 = CARTESIAN_POINT ( 'NONE',  ( 0.4600000000000000200, -0.2597279144137016327, 0.5000000000000000000 ) );
#52507 = EDGE_CURVE ( 'NONE', #55660, #33032, #51638, .T. );
#52629 = DIRECTION ( 'NONE',  ( 1.000000000000000000, 0.000000000000000000, 0.000000000000000000 ) );
#52640 = CIRCLE ( 'NONE', #26406, 0.4375000000000000000 );
#52650 = ORIENTED_EDGE ( 'NONE', *, *, #40889, .T. );
#52669 = LINE ( 'NONE', #30404, #56821 );
#52893 = DIRECTION ( 'NONE',  ( 0.7071067811865516806, -0.7071067811865433539, 0.000000000000000000 ) );
#53000 = AXIS2_PLACEMENT_3D ( 'NONE', #46401, #38154, #19976 );
#53017 = CARTESIAN_POINT ( 'NONE',  ( -0.2597279144137016882, 0.4599999999999998535, 0.5000000000000000000 ) );
#53041 = VERTEX_POINT ( 'NONE', #23489 );
#53142 = CARTESIAN_POINT ( 'NONE',  ( 0.1925000000000000322, 0.4550000000000000155, 0.5000000000000000000 ) );
#53192 = CARTESIAN_POINT ( 'NONE',  ( 0.4327720855862982607, 0.4600000000000000200, 0.5000000000000000000 ) );
#53305 = AXIS2_PLACEMENT_3D ( 'NONE', #12918, #8798, #31098 );
#53430 = VECTOR ( 'NONE', #12224, 39.37007874015748143 );
#53453 = VERTEX_POINT ( 'NONE', #28902 );
#53498 = ( LENGTH_UNIT ( ) NAMED_UNIT ( * ) SI_UNIT ( $, .METRE. ) );
#53565 = EDGE_CURVE ( 'NONE', #4088, #55390, #36570, .T. );
#53687 = ORIENTED_EDGE ( 'NONE', *, *, #41795, .T. );
#53767 = EDGE_CURVE ( 'NONE', #53041, #5458, #36476, .T. );
#53822 = VECTOR ( 'NONE', #2327, 39.37007874015748143 );
#53918 = CARTESIAN_POINT ( 'NONE',  ( -0.4599999999999999645, -0.1875000000000000555, 0.5000000000000000000 ) );
#54124 = EDGE_CURVE ( 'NONE', #49290, #42511, #12296, .T. );
#54311 = CARTESIAN_POINT ( 'NONE',  ( -0.1924999999999999489, -0.3959797974644665985, 0.5000000000000000000 ) );
#54371 = LINE ( 'NONE', #6261, #27068 );
#54471 = LINE ( 'NONE', #22810, #11656 );
#54599 = EDGE_CURVE ( 'NONE', #24315, #32755, #57074, .T. );
#54611 = CARTESIAN_POINT ( 'NONE',  ( 0.3915054494705177413, -0.1952683615819210405, 0.5000000000000000000 ) );
#54723 = ORIENTED_EDGE ( 'NONE', *, *, #27502, .F. );
#54730 = ORIENTED_EDGE ( 'NONE', *, *, #23200, .F. );
#54843 = CARTESIAN_POINT ( 'NONE',  ( 0.4599999999999999645, -0.1925000000000000600, 0.5000000000000000000 ) );
#54863 = EDGE_CURVE ( 'NONE', #46148, #32801, #2074, .T. );
#55097 = VECTOR ( 'NONE', #12515, 39.37007874015748854 );
#55135 = CARTESIAN_POINT ( 'NONE',  ( -0.4599999999999999645, 0.1875000000000000555, 0.5000000000000000000 ) );
#55201 = CARTESIAN_POINT ( 'NONE',  ( -0.4327720855862983163, 0.4599999999999998535, 0.5000000000000000000 ) );
#55390 = VERTEX_POINT ( 'NONE', #3624 );
#55469 = DIRECTION ( 'NONE',  ( -1.000000000000000000, -0.000000000000000000, -0.000000000000000000 ) );
#55511 = CARTESIAN_POINT ( 'NONE',  ( 0.4549999999999999045, 0.1875000000000000555, 0.4999999999999973910 ) );
#55660 = VERTEX_POINT ( 'NONE', #8536 );
#55685 = LINE ( 'NONE', #32833, #32439 );
#55723 = VERTEX_POINT ( 'NONE', #12356 );
#56148 = AXIS2_PLACEMENT_3D ( 'NONE', #10347, #28243, #50807 );
#56153 = VERTEX_POINT ( 'NONE', #53918 );
#56171 = AXIS2_PLACEMENT_3D ( 'NONE', #21883, #57946, #17482 );
#56251 = LINE ( 'NONE', #10312, #35838 );
#56326 = VECTOR ( 'NONE', #10219, 39.37007874015748143 );
#56363 = DIRECTION ( 'NONE',  ( 1.000000000000000000, 0.000000000000000000, 0.000000000000000000 ) );
#56447 = ORIENTED_EDGE ( 'NONE', *, *, #53767, .F. );
#56702 = CARTESIAN_POINT ( 'NONE',  ( 0.5000000000000001110, 0.5000000000000000000, 0.5000000000000000000 ) );
#56821 = VECTOR ( 'NONE', #15733, 39.37007874015748143 );
#56951 = CARTESIAN_POINT ( 'NONE',  ( 0.000000000000000000, 0.000000000000000000, 0.5000000000000000000 ) );
#57073 = VERTEX_POINT ( 'NONE', #47218 );
#57074 = LINE ( 'NONE', #51223, #22642 );
#57078 = LINE ( 'NONE', #16026, #50340 );
#57602 = ( GEOMETRIC_REPRESENTATION_CONTEXT ( 3 ) GLOBAL_UNCERTAINTY_ASSIGNED_CONTEXT ( ( #15276 ) ) GLOBAL_UNIT_ASSIGNED_CONTEXT ( ( #13901, #26836, #22424 ) ) REPRESENTATION_CONTEXT ( 'NONE', 'WORKASPACE' ) );
#57664 = VERTEX_POINT ( 'NONE', #34522 );
#57875 = EDGE_CURVE ( 'NONE', #22872, #39146, #51974, .T. );
#57946 = DIRECTION ( 'NONE',  ( -0.000000000000000000, -0.000000000000000000, -1.000000000000000000 ) );
#57958 = VERTEX_POINT ( 'NONE', #34742 );
#58075 = ADVANCED_BREP_SHAPE_REPRESENTATION('', (#49749), #57602);
ENDSEC;
END-ISO-10303-21;
