ISO-10303-21;
HEADER;
/* Generated by software containing ST-Developer
 * from STEP Tools, Inc. (www.steptools.com) 
 */
/* OPTION: using custom renumber hook */

FILE_DESCRIPTION(
/* description */ ('STEP AP242',
'CAx-IF Rec.Pracs.---Representation and Presentation of Product Manufa
cturing Information (PMI)---4.0---2014-10-13',
'CAx-IF Rec.Pracs.---3D Tessellated Geometry---0.4---2014-09-14','2;1'),

/* implementation_level */ '2;1');

FILE_NAME(
/* name */ '66d5dd2bb6f4531cd4941b46',
/* time_stamp */ '2024-09-02T15:43:39Z',
/* author */ (''),
/* organization */ (''),
/* preprocessor_version */ 'ST-DEVELOPER v20',
/* originating_system */ '  ',
/* authorisation */ '  ');

FILE_SCHEMA (('AP242_MANAGED_MODEL_BASED_3D_ENGINEERING_MIM_LF { 1 0 10303 442 1 1 4 }'));
ENDSEC;

DATA;
#10=SHAPE_REPRESENTATION_RELATIONSHIP('','',#659,#11);
#11=ADVANCED_BREP_SHAPE_REPRESENTATION('',(#657),#1091);
#12=CYLINDRICAL_SURFACE('',#717,0.0017272);
#13=CYLINDRICAL_SURFACE('',#718,0.0017272);
#14=CYLINDRICAL_SURFACE('',#719,0.0017272);
#15=CYLINDRICAL_SURFACE('',#720,0.0017272);
#16=CYLINDRICAL_SURFACE('',#721,0.0017272);
#17=CYLINDRICAL_SURFACE('',#722,0.0017272);
#18=CYLINDRICAL_SURFACE('',#723,0.0017272);
#19=CYLINDRICAL_SURFACE('',#724,0.0017272);
#20=CYLINDRICAL_SURFACE('',#725,0.0017272);
#21=CYLINDRICAL_SURFACE('',#726,0.0017272);
#22=CYLINDRICAL_SURFACE('',#727,0.0017272);
#23=CYLINDRICAL_SURFACE('',#728,0.0017272);
#24=CYLINDRICAL_SURFACE('',#729,0.0017272);
#25=CYLINDRICAL_SURFACE('',#730,0.0017272);
#26=CYLINDRICAL_SURFACE('',#731,0.0017272);
#27=CYLINDRICAL_SURFACE('',#732,0.0017272);
#28=CYLINDRICAL_SURFACE('',#733,0.0017272);
#29=CYLINDRICAL_SURFACE('',#734,0.0017272);
#30=CYLINDRICAL_SURFACE('',#735,0.0017272);
#31=CYLINDRICAL_SURFACE('',#736,0.0017272);
#32=CYLINDRICAL_SURFACE('',#737,0.0017272);
#33=CYLINDRICAL_SURFACE('',#738,0.0017272);
#34=CYLINDRICAL_SURFACE('',#739,0.0017272);
#35=LINE('',#948,#59);
#36=LINE('',#951,#60);
#37=LINE('',#953,#61);
#38=LINE('',#955,#62);
#39=LINE('',#957,#63);
#40=LINE('',#960,#64);
#41=LINE('',#962,#65);
#42=LINE('',#964,#66);
#43=LINE('',#966,#67);
#44=LINE('',#968,#68);
#45=LINE('',#969,#69);
#46=LINE('',#993,#70);
#47=LINE('',#995,#71);
#48=LINE('',#997,#72);
#49=LINE('',#999,#73);
#50=LINE('',#1001,#74);
#51=LINE('',#1003,#75);
#52=LINE('',#1004,#76);
#53=LINE('',#1006,#77);
#54=LINE('',#1008,#78);
#55=LINE('',#1034,#79);
#56=LINE('',#1035,#80);
#57=LINE('',#1061,#81);
#58=LINE('',#1062,#82);
#59=VECTOR('',#766,1.);
#60=VECTOR('',#767,1.);
#61=VECTOR('',#768,1.);
#62=VECTOR('',#769,1.);
#63=VECTOR('',#772,1.);
#64=VECTOR('',#773,1.);
#65=VECTOR('',#774,1.);
#66=VECTOR('',#775,1.);
#67=VECTOR('',#776,1.);
#68=VECTOR('',#777,1.);
#69=VECTOR('',#778,1.);
#70=VECTOR('',#803,1.);
#71=VECTOR('',#804,1.);
#72=VECTOR('',#805,1.);
#73=VECTOR('',#808,1.);
#74=VECTOR('',#809,1.);
#75=VECTOR('',#810,1.);
#76=VECTOR('',#811,1.);
#77=VECTOR('',#812,1.);
#78=VECTOR('',#813,1.);
#79=VECTOR('',#840,1.);
#80=VECTOR('',#841,1.);
#81=VECTOR('',#868,1.);
#82=VECTOR('',#869,1.);
#83=ORIENTED_EDGE('',*,*,#223,.T.);
#84=ORIENTED_EDGE('',*,*,#224,.T.);
#85=ORIENTED_EDGE('',*,*,#225,.T.);
#86=ORIENTED_EDGE('',*,*,#226,.T.);
#87=ORIENTED_EDGE('',*,*,#227,.T.);
#88=ORIENTED_EDGE('',*,*,#228,.T.);
#89=ORIENTED_EDGE('',*,*,#229,.T.);
#90=ORIENTED_EDGE('',*,*,#230,.T.);
#91=ORIENTED_EDGE('',*,*,#231,.T.);
#92=ORIENTED_EDGE('',*,*,#232,.T.);
#93=ORIENTED_EDGE('',*,*,#233,.T.);
#94=ORIENTED_EDGE('',*,*,#234,.T.);
#95=ORIENTED_EDGE('',*,*,#235,.T.);
#96=ORIENTED_EDGE('',*,*,#236,.F.);
#97=ORIENTED_EDGE('',*,*,#237,.T.);
#98=ORIENTED_EDGE('',*,*,#238,.T.);
#99=ORIENTED_EDGE('',*,*,#239,.T.);
#100=ORIENTED_EDGE('',*,*,#240,.F.);
#101=ORIENTED_EDGE('',*,*,#241,.T.);
#102=ORIENTED_EDGE('',*,*,#242,.F.);
#103=ORIENTED_EDGE('',*,*,#243,.T.);
#104=ORIENTED_EDGE('',*,*,#236,.T.);
#105=ORIENTED_EDGE('',*,*,#244,.T.);
#106=ORIENTED_EDGE('',*,*,#245,.F.);
#107=ORIENTED_EDGE('',*,*,#246,.F.);
#108=ORIENTED_EDGE('',*,*,#247,.F.);
#109=ORIENTED_EDGE('',*,*,#248,.F.);
#110=ORIENTED_EDGE('',*,*,#249,.F.);
#111=ORIENTED_EDGE('',*,*,#250,.F.);
#112=ORIENTED_EDGE('',*,*,#251,.F.);
#113=ORIENTED_EDGE('',*,*,#252,.F.);
#114=ORIENTED_EDGE('',*,*,#253,.F.);
#115=ORIENTED_EDGE('',*,*,#254,.F.);
#116=ORIENTED_EDGE('',*,*,#255,.F.);
#117=ORIENTED_EDGE('',*,*,#240,.T.);
#118=ORIENTED_EDGE('',*,*,#256,.T.);
#119=ORIENTED_EDGE('',*,*,#257,.F.);
#120=ORIENTED_EDGE('',*,*,#258,.T.);
#121=ORIENTED_EDGE('',*,*,#257,.T.);
#122=ORIENTED_EDGE('',*,*,#259,.T.);
#123=ORIENTED_EDGE('',*,*,#260,.F.);
#124=ORIENTED_EDGE('',*,*,#261,.T.);
#125=ORIENTED_EDGE('',*,*,#234,.F.);
#126=ORIENTED_EDGE('',*,*,#262,.T.);
#127=ORIENTED_EDGE('',*,*,#263,.T.);
#128=ORIENTED_EDGE('',*,*,#264,.T.);
#129=ORIENTED_EDGE('',*,*,#265,.T.);
#130=ORIENTED_EDGE('',*,*,#266,.T.);
#131=ORIENTED_EDGE('',*,*,#267,.T.);
#132=ORIENTED_EDGE('',*,*,#268,.T.);
#133=ORIENTED_EDGE('',*,*,#269,.T.);
#134=ORIENTED_EDGE('',*,*,#270,.T.);
#135=ORIENTED_EDGE('',*,*,#271,.T.);
#136=ORIENTED_EDGE('',*,*,#272,.T.);
#137=ORIENTED_EDGE('',*,*,#273,.T.);
#138=ORIENTED_EDGE('',*,*,#274,.T.);
#139=ORIENTED_EDGE('',*,*,#275,.T.);
#140=ORIENTED_EDGE('',*,*,#276,.T.);
#141=ORIENTED_EDGE('',*,*,#242,.T.);
#142=ORIENTED_EDGE('',*,*,#277,.T.);
#143=ORIENTED_EDGE('',*,*,#263,.F.);
#144=ORIENTED_EDGE('',*,*,#278,.T.);
#145=ORIENTED_EDGE('',*,*,#279,.F.);
#146=ORIENTED_EDGE('',*,*,#280,.F.);
#147=ORIENTED_EDGE('',*,*,#281,.F.);
#148=ORIENTED_EDGE('',*,*,#282,.F.);
#149=ORIENTED_EDGE('',*,*,#283,.F.);
#150=ORIENTED_EDGE('',*,*,#284,.F.);
#151=ORIENTED_EDGE('',*,*,#285,.F.);
#152=ORIENTED_EDGE('',*,*,#286,.F.);
#153=ORIENTED_EDGE('',*,*,#287,.F.);
#154=ORIENTED_EDGE('',*,*,#288,.F.);
#155=ORIENTED_EDGE('',*,*,#289,.F.);
#156=ORIENTED_EDGE('',*,*,#290,.F.);
#157=ORIENTED_EDGE('',*,*,#260,.T.);
#158=ORIENTED_EDGE('',*,*,#291,.T.);
#159=ORIENTED_EDGE('',*,*,#238,.F.);
#160=ORIENTED_EDGE('',*,*,#292,.T.);
#161=ORIENTED_EDGE('',*,*,#239,.F.);
#162=ORIENTED_EDGE('',*,*,#291,.F.);
#163=ORIENTED_EDGE('',*,*,#259,.F.);
#164=ORIENTED_EDGE('',*,*,#256,.F.);
#165=ORIENTED_EDGE('',*,*,#244,.F.);
#166=ORIENTED_EDGE('',*,*,#235,.F.);
#167=ORIENTED_EDGE('',*,*,#261,.F.);
#168=ORIENTED_EDGE('',*,*,#292,.F.);
#169=ORIENTED_EDGE('',*,*,#241,.F.);
#170=ORIENTED_EDGE('',*,*,#258,.F.);
#171=ORIENTED_EDGE('',*,*,#264,.F.);
#172=ORIENTED_EDGE('',*,*,#277,.F.);
#173=ORIENTED_EDGE('',*,*,#243,.F.);
#174=ORIENTED_EDGE('',*,*,#278,.F.);
#175=ORIENTED_EDGE('',*,*,#262,.F.);
#176=ORIENTED_EDGE('',*,*,#237,.F.);
#177=ORIENTED_EDGE('',*,*,#276,.F.);
#178=ORIENTED_EDGE('',*,*,#290,.T.);
#179=ORIENTED_EDGE('',*,*,#275,.F.);
#180=ORIENTED_EDGE('',*,*,#289,.T.);
#181=ORIENTED_EDGE('',*,*,#274,.F.);
#182=ORIENTED_EDGE('',*,*,#288,.T.);
#183=ORIENTED_EDGE('',*,*,#273,.F.);
#184=ORIENTED_EDGE('',*,*,#287,.T.);
#185=ORIENTED_EDGE('',*,*,#272,.F.);
#186=ORIENTED_EDGE('',*,*,#286,.T.);
#187=ORIENTED_EDGE('',*,*,#271,.F.);
#188=ORIENTED_EDGE('',*,*,#285,.T.);
#189=ORIENTED_EDGE('',*,*,#270,.F.);
#190=ORIENTED_EDGE('',*,*,#284,.T.);
#191=ORIENTED_EDGE('',*,*,#269,.F.);
#192=ORIENTED_EDGE('',*,*,#283,.T.);
#193=ORIENTED_EDGE('',*,*,#268,.F.);
#194=ORIENTED_EDGE('',*,*,#282,.T.);
#195=ORIENTED_EDGE('',*,*,#267,.F.);
#196=ORIENTED_EDGE('',*,*,#281,.T.);
#197=ORIENTED_EDGE('',*,*,#266,.F.);
#198=ORIENTED_EDGE('',*,*,#280,.T.);
#199=ORIENTED_EDGE('',*,*,#265,.F.);
#200=ORIENTED_EDGE('',*,*,#279,.T.);
#201=ORIENTED_EDGE('',*,*,#233,.F.);
#202=ORIENTED_EDGE('',*,*,#255,.T.);
#203=ORIENTED_EDGE('',*,*,#232,.F.);
#204=ORIENTED_EDGE('',*,*,#254,.T.);
#205=ORIENTED_EDGE('',*,*,#231,.F.);
#206=ORIENTED_EDGE('',*,*,#253,.T.);
#207=ORIENTED_EDGE('',*,*,#230,.F.);
#208=ORIENTED_EDGE('',*,*,#252,.T.);
#209=ORIENTED_EDGE('',*,*,#229,.F.);
#210=ORIENTED_EDGE('',*,*,#251,.T.);
#211=ORIENTED_EDGE('',*,*,#228,.F.);
#212=ORIENTED_EDGE('',*,*,#250,.T.);
#213=ORIENTED_EDGE('',*,*,#227,.F.);
#214=ORIENTED_EDGE('',*,*,#249,.T.);
#215=ORIENTED_EDGE('',*,*,#226,.F.);
#216=ORIENTED_EDGE('',*,*,#248,.T.);
#217=ORIENTED_EDGE('',*,*,#225,.F.);
#218=ORIENTED_EDGE('',*,*,#247,.T.);
#219=ORIENTED_EDGE('',*,*,#224,.F.);
#220=ORIENTED_EDGE('',*,*,#246,.T.);
#221=ORIENTED_EDGE('',*,*,#223,.F.);
#222=ORIENTED_EDGE('',*,*,#245,.T.);
#223=EDGE_CURVE('',#293,#293,#355,.T.);
#224=EDGE_CURVE('',#294,#294,#356,.T.);
#225=EDGE_CURVE('',#295,#295,#357,.T.);
#226=EDGE_CURVE('',#296,#296,#358,.T.);
#227=EDGE_CURVE('',#297,#297,#359,.T.);
#228=EDGE_CURVE('',#298,#298,#360,.T.);
#229=EDGE_CURVE('',#299,#299,#361,.T.);
#230=EDGE_CURVE('',#300,#300,#362,.T.);
#231=EDGE_CURVE('',#301,#301,#363,.T.);
#232=EDGE_CURVE('',#302,#302,#364,.T.);
#233=EDGE_CURVE('',#303,#303,#365,.T.);
#234=EDGE_CURVE('',#304,#305,#35,.T.);
#235=EDGE_CURVE('',#305,#306,#36,.T.);
#236=EDGE_CURVE('',#307,#306,#37,.T.);
#237=EDGE_CURVE('',#307,#304,#38,.T.);
#238=EDGE_CURVE('',#308,#309,#39,.T.);
#239=EDGE_CURVE('',#309,#310,#40,.F.);
#240=EDGE_CURVE('',#311,#310,#41,.T.);
#241=EDGE_CURVE('',#311,#312,#42,.T.);
#242=EDGE_CURVE('',#313,#312,#43,.T.);
#243=EDGE_CURVE('',#313,#307,#44,.F.);
#244=EDGE_CURVE('',#306,#308,#45,.T.);
#245=EDGE_CURVE('',#314,#314,#366,.F.);
#246=EDGE_CURVE('',#315,#315,#367,.F.);
#247=EDGE_CURVE('',#316,#316,#368,.F.);
#248=EDGE_CURVE('',#317,#317,#369,.F.);
#249=EDGE_CURVE('',#318,#318,#370,.F.);
#250=EDGE_CURVE('',#319,#319,#371,.F.);
#251=EDGE_CURVE('',#320,#320,#372,.F.);
#252=EDGE_CURVE('',#321,#321,#373,.F.);
#253=EDGE_CURVE('',#322,#322,#374,.F.);
#254=EDGE_CURVE('',#323,#323,#375,.F.);
#255=EDGE_CURVE('',#324,#324,#376,.F.);
#256=EDGE_CURVE('',#310,#325,#46,.T.);
#257=EDGE_CURVE('',#326,#325,#47,.T.);
#258=EDGE_CURVE('',#326,#311,#48,.T.);
#259=EDGE_CURVE('',#325,#327,#49,.F.);
#260=EDGE_CURVE('',#328,#327,#50,.T.);
#261=EDGE_CURVE('',#328,#305,#51,.T.);
#262=EDGE_CURVE('',#304,#329,#52,.F.);
#263=EDGE_CURVE('',#329,#330,#53,.T.);
#264=EDGE_CURVE('',#330,#326,#54,.T.);
#265=EDGE_CURVE('',#331,#331,#377,.T.);
#266=EDGE_CURVE('',#332,#332,#378,.T.);
#267=EDGE_CURVE('',#333,#333,#379,.T.);
#268=EDGE_CURVE('',#334,#334,#380,.T.);
#269=EDGE_CURVE('',#335,#335,#381,.T.);
#270=EDGE_CURVE('',#336,#336,#382,.T.);
#271=EDGE_CURVE('',#337,#337,#383,.T.);
#272=EDGE_CURVE('',#338,#338,#384,.T.);
#273=EDGE_CURVE('',#339,#339,#385,.T.);
#274=EDGE_CURVE('',#340,#340,#386,.T.);
#275=EDGE_CURVE('',#341,#341,#387,.T.);
#276=EDGE_CURVE('',#342,#342,#388,.T.);
#277=EDGE_CURVE('',#312,#330,#55,.T.);
#278=EDGE_CURVE('',#329,#313,#56,.T.);
#279=EDGE_CURVE('',#343,#343,#389,.F.);
#280=EDGE_CURVE('',#344,#344,#390,.F.);
#281=EDGE_CURVE('',#345,#345,#391,.F.);
#282=EDGE_CURVE('',#346,#346,#392,.F.);
#283=EDGE_CURVE('',#347,#347,#393,.F.);
#284=EDGE_CURVE('',#348,#348,#394,.F.);
#285=EDGE_CURVE('',#349,#349,#395,.F.);
#286=EDGE_CURVE('',#350,#350,#396,.F.);
#287=EDGE_CURVE('',#351,#351,#397,.F.);
#288=EDGE_CURVE('',#352,#352,#398,.F.);
#289=EDGE_CURVE('',#353,#353,#399,.F.);
#290=EDGE_CURVE('',#354,#354,#400,.F.);
#291=EDGE_CURVE('',#327,#309,#57,.T.);
#292=EDGE_CURVE('',#308,#328,#58,.T.);
#293=VERTEX_POINT('',#927);
#294=VERTEX_POINT('',#929);
#295=VERTEX_POINT('',#931);
#296=VERTEX_POINT('',#933);
#297=VERTEX_POINT('',#935);
#298=VERTEX_POINT('',#937);
#299=VERTEX_POINT('',#939);
#300=VERTEX_POINT('',#941);
#301=VERTEX_POINT('',#943);
#302=VERTEX_POINT('',#945);
#303=VERTEX_POINT('',#947);
#304=VERTEX_POINT('',#949);
#305=VERTEX_POINT('',#950);
#306=VERTEX_POINT('',#952);
#307=VERTEX_POINT('',#954);
#308=VERTEX_POINT('',#958);
#309=VERTEX_POINT('',#959);
#310=VERTEX_POINT('',#961);
#311=VERTEX_POINT('',#963);
#312=VERTEX_POINT('',#965);
#313=VERTEX_POINT('',#967);
#314=VERTEX_POINT('',#972);
#315=VERTEX_POINT('',#974);
#316=VERTEX_POINT('',#976);
#317=VERTEX_POINT('',#978);
#318=VERTEX_POINT('',#980);
#319=VERTEX_POINT('',#982);
#320=VERTEX_POINT('',#984);
#321=VERTEX_POINT('',#986);
#322=VERTEX_POINT('',#988);
#323=VERTEX_POINT('',#990);
#324=VERTEX_POINT('',#992);
#325=VERTEX_POINT('',#994);
#326=VERTEX_POINT('',#996);
#327=VERTEX_POINT('',#1000);
#328=VERTEX_POINT('',#1002);
#329=VERTEX_POINT('',#1005);
#330=VERTEX_POINT('',#1007);
#331=VERTEX_POINT('',#1011);
#332=VERTEX_POINT('',#1013);
#333=VERTEX_POINT('',#1015);
#334=VERTEX_POINT('',#1017);
#335=VERTEX_POINT('',#1019);
#336=VERTEX_POINT('',#1021);
#337=VERTEX_POINT('',#1023);
#338=VERTEX_POINT('',#1025);
#339=VERTEX_POINT('',#1027);
#340=VERTEX_POINT('',#1029);
#341=VERTEX_POINT('',#1031);
#342=VERTEX_POINT('',#1033);
#343=VERTEX_POINT('',#1038);
#344=VERTEX_POINT('',#1040);
#345=VERTEX_POINT('',#1042);
#346=VERTEX_POINT('',#1044);
#347=VERTEX_POINT('',#1046);
#348=VERTEX_POINT('',#1048);
#349=VERTEX_POINT('',#1050);
#350=VERTEX_POINT('',#1052);
#351=VERTEX_POINT('',#1054);
#352=VERTEX_POINT('',#1056);
#353=VERTEX_POINT('',#1058);
#354=VERTEX_POINT('',#1060);
#355=CIRCLE('',#662,0.0017272);
#356=CIRCLE('',#663,0.0017272);
#357=CIRCLE('',#664,0.0017272);
#358=CIRCLE('',#665,0.0017272);
#359=CIRCLE('',#666,0.0017272);
#360=CIRCLE('',#667,0.0017272);
#361=CIRCLE('',#668,0.0017272);
#362=CIRCLE('',#669,0.0017272);
#363=CIRCLE('',#670,0.0017272);
#364=CIRCLE('',#671,0.0017272);
#365=CIRCLE('',#672,0.0017272);
#366=CIRCLE('',#675,0.0017272);
#367=CIRCLE('',#676,0.0017272);
#368=CIRCLE('',#677,0.0017272);
#369=CIRCLE('',#678,0.0017272);
#370=CIRCLE('',#679,0.0017272);
#371=CIRCLE('',#680,0.0017272);
#372=CIRCLE('',#681,0.0017272);
#373=CIRCLE('',#682,0.0017272);
#374=CIRCLE('',#683,0.0017272);
#375=CIRCLE('',#684,0.0017272);
#376=CIRCLE('',#685,0.0017272);
#377=CIRCLE('',#688,0.0017272);
#378=CIRCLE('',#689,0.0017272);
#379=CIRCLE('',#690,0.0017272);
#380=CIRCLE('',#691,0.0017272);
#381=CIRCLE('',#692,0.0017272);
#382=CIRCLE('',#693,0.0017272);
#383=CIRCLE('',#694,0.0017272);
#384=CIRCLE('',#695,0.0017272);
#385=CIRCLE('',#696,0.0017272);
#386=CIRCLE('',#697,0.0017272);
#387=CIRCLE('',#698,0.0017272);
#388=CIRCLE('',#699,0.0017272);
#389=CIRCLE('',#701,0.0017272);
#390=CIRCLE('',#702,0.0017272);
#391=CIRCLE('',#703,0.0017272);
#392=CIRCLE('',#704,0.0017272);
#393=CIRCLE('',#705,0.0017272);
#394=CIRCLE('',#706,0.0017272);
#395=CIRCLE('',#707,0.0017272);
#396=CIRCLE('',#708,0.0017272);
#397=CIRCLE('',#709,0.0017272);
#398=CIRCLE('',#710,0.0017272);
#399=CIRCLE('',#711,0.0017272);
#400=CIRCLE('',#712,0.0017272);
#401=EDGE_LOOP('',(#83));
#402=EDGE_LOOP('',(#84));
#403=EDGE_LOOP('',(#85));
#404=EDGE_LOOP('',(#86));
#405=EDGE_LOOP('',(#87));
#406=EDGE_LOOP('',(#88));
#407=EDGE_LOOP('',(#89));
#408=EDGE_LOOP('',(#90));
#409=EDGE_LOOP('',(#91));
#410=EDGE_LOOP('',(#92));
#411=EDGE_LOOP('',(#93));
#412=EDGE_LOOP('',(#94,#95,#96,#97));
#413=EDGE_LOOP('',(#98,#99,#100,#101,#102,#103,#104,#105));
#414=EDGE_LOOP('',(#106));
#415=EDGE_LOOP('',(#107));
#416=EDGE_LOOP('',(#108));
#417=EDGE_LOOP('',(#109));
#418=EDGE_LOOP('',(#110));
#419=EDGE_LOOP('',(#111));
#420=EDGE_LOOP('',(#112));
#421=EDGE_LOOP('',(#113));
#422=EDGE_LOOP('',(#114));
#423=EDGE_LOOP('',(#115));
#424=EDGE_LOOP('',(#116));
#425=EDGE_LOOP('',(#117,#118,#119,#120));
#426=EDGE_LOOP('',(#121,#122,#123,#124,#125,#126,#127,#128));
#427=EDGE_LOOP('',(#129));
#428=EDGE_LOOP('',(#130));
#429=EDGE_LOOP('',(#131));
#430=EDGE_LOOP('',(#132));
#431=EDGE_LOOP('',(#133));
#432=EDGE_LOOP('',(#134));
#433=EDGE_LOOP('',(#135));
#434=EDGE_LOOP('',(#136));
#435=EDGE_LOOP('',(#137));
#436=EDGE_LOOP('',(#138));
#437=EDGE_LOOP('',(#139));
#438=EDGE_LOOP('',(#140));
#439=EDGE_LOOP('',(#141,#142,#143,#144));
#440=EDGE_LOOP('',(#145));
#441=EDGE_LOOP('',(#146));
#442=EDGE_LOOP('',(#147));
#443=EDGE_LOOP('',(#148));
#444=EDGE_LOOP('',(#149));
#445=EDGE_LOOP('',(#150));
#446=EDGE_LOOP('',(#151));
#447=EDGE_LOOP('',(#152));
#448=EDGE_LOOP('',(#153));
#449=EDGE_LOOP('',(#154));
#450=EDGE_LOOP('',(#155));
#451=EDGE_LOOP('',(#156));
#452=EDGE_LOOP('',(#157,#158,#159,#160));
#453=EDGE_LOOP('',(#161,#162,#163,#164));
#454=EDGE_LOOP('',(#165,#166,#167,#168));
#455=EDGE_LOOP('',(#169,#170,#171,#172));
#456=EDGE_LOOP('',(#173,#174,#175,#176));
#457=EDGE_LOOP('',(#177));
#458=EDGE_LOOP('',(#178));
#459=EDGE_LOOP('',(#179));
#460=EDGE_LOOP('',(#180));
#461=EDGE_LOOP('',(#181));
#462=EDGE_LOOP('',(#182));
#463=EDGE_LOOP('',(#183));
#464=EDGE_LOOP('',(#184));
#465=EDGE_LOOP('',(#185));
#466=EDGE_LOOP('',(#186));
#467=EDGE_LOOP('',(#187));
#468=EDGE_LOOP('',(#188));
#469=EDGE_LOOP('',(#189));
#470=EDGE_LOOP('',(#190));
#471=EDGE_LOOP('',(#191));
#472=EDGE_LOOP('',(#192));
#473=EDGE_LOOP('',(#193));
#474=EDGE_LOOP('',(#194));
#475=EDGE_LOOP('',(#195));
#476=EDGE_LOOP('',(#196));
#477=EDGE_LOOP('',(#197));
#478=EDGE_LOOP('',(#198));
#479=EDGE_LOOP('',(#199));
#480=EDGE_LOOP('',(#200));
#481=EDGE_LOOP('',(#201));
#482=EDGE_LOOP('',(#202));
#483=EDGE_LOOP('',(#203));
#484=EDGE_LOOP('',(#204));
#485=EDGE_LOOP('',(#205));
#486=EDGE_LOOP('',(#206));
#487=EDGE_LOOP('',(#207));
#488=EDGE_LOOP('',(#208));
#489=EDGE_LOOP('',(#209));
#490=EDGE_LOOP('',(#210));
#491=EDGE_LOOP('',(#211));
#492=EDGE_LOOP('',(#212));
#493=EDGE_LOOP('',(#213));
#494=EDGE_LOOP('',(#214));
#495=EDGE_LOOP('',(#215));
#496=EDGE_LOOP('',(#216));
#497=EDGE_LOOP('',(#217));
#498=EDGE_LOOP('',(#218));
#499=EDGE_LOOP('',(#219));
#500=EDGE_LOOP('',(#220));
#501=EDGE_LOOP('',(#221));
#502=EDGE_LOOP('',(#222));
#503=FACE_BOUND('',#401,.T.);
#504=FACE_BOUND('',#402,.T.);
#505=FACE_BOUND('',#403,.T.);
#506=FACE_BOUND('',#404,.T.);
#507=FACE_BOUND('',#405,.T.);
#508=FACE_BOUND('',#406,.T.);
#509=FACE_BOUND('',#407,.T.);
#510=FACE_BOUND('',#408,.T.);
#511=FACE_BOUND('',#409,.T.);
#512=FACE_BOUND('',#410,.T.);
#513=FACE_BOUND('',#411,.T.);
#514=FACE_BOUND('',#412,.T.);
#515=FACE_BOUND('',#413,.T.);
#516=FACE_BOUND('',#414,.T.);
#517=FACE_BOUND('',#415,.T.);
#518=FACE_BOUND('',#416,.T.);
#519=FACE_BOUND('',#417,.T.);
#520=FACE_BOUND('',#418,.T.);
#521=FACE_BOUND('',#419,.T.);
#522=FACE_BOUND('',#420,.T.);
#523=FACE_BOUND('',#421,.T.);
#524=FACE_BOUND('',#422,.T.);
#525=FACE_BOUND('',#423,.T.);
#526=FACE_BOUND('',#424,.T.);
#527=FACE_BOUND('',#425,.T.);
#528=FACE_BOUND('',#426,.T.);
#529=FACE_BOUND('',#427,.T.);
#530=FACE_BOUND('',#428,.T.);
#531=FACE_BOUND('',#429,.T.);
#532=FACE_BOUND('',#430,.T.);
#533=FACE_BOUND('',#431,.T.);
#534=FACE_BOUND('',#432,.T.);
#535=FACE_BOUND('',#433,.T.);
#536=FACE_BOUND('',#434,.T.);
#537=FACE_BOUND('',#435,.T.);
#538=FACE_BOUND('',#436,.T.);
#539=FACE_BOUND('',#437,.T.);
#540=FACE_BOUND('',#438,.T.);
#541=FACE_BOUND('',#439,.T.);
#542=FACE_BOUND('',#440,.T.);
#543=FACE_BOUND('',#441,.T.);
#544=FACE_BOUND('',#442,.T.);
#545=FACE_BOUND('',#443,.T.);
#546=FACE_BOUND('',#444,.T.);
#547=FACE_BOUND('',#445,.T.);
#548=FACE_BOUND('',#446,.T.);
#549=FACE_BOUND('',#447,.T.);
#550=FACE_BOUND('',#448,.T.);
#551=FACE_BOUND('',#449,.T.);
#552=FACE_BOUND('',#450,.T.);
#553=FACE_BOUND('',#451,.T.);
#554=FACE_BOUND('',#452,.T.);
#555=FACE_BOUND('',#453,.T.);
#556=FACE_BOUND('',#454,.T.);
#557=FACE_BOUND('',#455,.T.);
#558=FACE_BOUND('',#456,.T.);
#559=FACE_BOUND('',#457,.T.);
#560=FACE_BOUND('',#458,.T.);
#561=FACE_BOUND('',#459,.T.);
#562=FACE_BOUND('',#460,.T.);
#563=FACE_BOUND('',#461,.T.);
#564=FACE_BOUND('',#462,.T.);
#565=FACE_BOUND('',#463,.T.);
#566=FACE_BOUND('',#464,.T.);
#567=FACE_BOUND('',#465,.T.);
#568=FACE_BOUND('',#466,.T.);
#569=FACE_BOUND('',#467,.T.);
#570=FACE_BOUND('',#468,.T.);
#571=FACE_BOUND('',#469,.T.);
#572=FACE_BOUND('',#470,.T.);
#573=FACE_BOUND('',#471,.T.);
#574=FACE_BOUND('',#472,.T.);
#575=FACE_BOUND('',#473,.T.);
#576=FACE_BOUND('',#474,.T.);
#577=FACE_BOUND('',#475,.T.);
#578=FACE_BOUND('',#476,.T.);
#579=FACE_BOUND('',#477,.T.);
#580=FACE_BOUND('',#478,.T.);
#581=FACE_BOUND('',#479,.T.);
#582=FACE_BOUND('',#480,.T.);
#583=FACE_BOUND('',#481,.T.);
#584=FACE_BOUND('',#482,.T.);
#585=FACE_BOUND('',#483,.T.);
#586=FACE_BOUND('',#484,.T.);
#587=FACE_BOUND('',#485,.T.);
#588=FACE_BOUND('',#486,.T.);
#589=FACE_BOUND('',#487,.T.);
#590=FACE_BOUND('',#488,.T.);
#591=FACE_BOUND('',#489,.T.);
#592=FACE_BOUND('',#490,.T.);
#593=FACE_BOUND('',#491,.T.);
#594=FACE_BOUND('',#492,.T.);
#595=FACE_BOUND('',#493,.T.);
#596=FACE_BOUND('',#494,.T.);
#597=FACE_BOUND('',#495,.T.);
#598=FACE_BOUND('',#496,.T.);
#599=FACE_BOUND('',#497,.T.);
#600=FACE_BOUND('',#498,.T.);
#601=FACE_BOUND('',#499,.T.);
#602=FACE_BOUND('',#500,.T.);
#603=FACE_BOUND('',#501,.T.);
#604=FACE_BOUND('',#502,.T.);
#605=PLANE('',#661);
#606=PLANE('',#673);
#607=PLANE('',#674);
#608=PLANE('',#686);
#609=PLANE('',#687);
#610=PLANE('',#700);
#611=PLANE('',#713);
#612=PLANE('',#714);
#613=PLANE('',#715);
#614=PLANE('',#716);
#615=ADVANCED_FACE('',(#503,#504,#505,#506,#507,#508,#509,#510,#511,#512,
#513,#514),#605,.T.);
#616=ADVANCED_FACE('',(#515),#606,.F.);
#617=ADVANCED_FACE('',(#516,#517,#518,#519,#520,#521,#522,#523,#524,#525,
#526,#527),#607,.F.);
#618=ADVANCED_FACE('',(#528),#608,.T.);
#619=ADVANCED_FACE('',(#529,#530,#531,#532,#533,#534,#535,#536,#537,#538,
#539,#540,#541),#609,.T.);
#620=ADVANCED_FACE('',(#542,#543,#544,#545,#546,#547,#548,#549,#550,#551,
#552,#553,#554),#610,.F.);
#621=ADVANCED_FACE('',(#555),#611,.F.);
#622=ADVANCED_FACE('',(#556),#612,.T.);
#623=ADVANCED_FACE('',(#557),#613,.T.);
#624=ADVANCED_FACE('',(#558),#614,.F.);
#625=ADVANCED_FACE('',(#559,#560),#12,.F.);
#626=ADVANCED_FACE('',(#561,#562),#13,.F.);
#627=ADVANCED_FACE('',(#563,#564),#14,.F.);
#628=ADVANCED_FACE('',(#565,#566),#15,.F.);
#629=ADVANCED_FACE('',(#567,#568),#16,.F.);
#630=ADVANCED_FACE('',(#569,#570),#17,.F.);
#631=ADVANCED_FACE('',(#571,#572),#18,.F.);
#632=ADVANCED_FACE('',(#573,#574),#19,.F.);
#633=ADVANCED_FACE('',(#575,#576),#20,.F.);
#634=ADVANCED_FACE('',(#577,#578),#21,.F.);
#635=ADVANCED_FACE('',(#579,#580),#22,.F.);
#636=ADVANCED_FACE('',(#581,#582),#23,.F.);
#637=ADVANCED_FACE('',(#583,#584),#24,.F.);
#638=ADVANCED_FACE('',(#585,#586),#25,.F.);
#639=ADVANCED_FACE('',(#587,#588),#26,.F.);
#640=ADVANCED_FACE('',(#589,#590),#27,.F.);
#641=ADVANCED_FACE('',(#591,#592),#28,.F.);
#642=ADVANCED_FACE('',(#593,#594),#29,.F.);
#643=ADVANCED_FACE('',(#595,#596),#30,.F.);
#644=ADVANCED_FACE('',(#597,#598),#31,.F.);
#645=ADVANCED_FACE('',(#599,#600),#32,.F.);
#646=ADVANCED_FACE('',(#601,#602),#33,.F.);
#647=ADVANCED_FACE('',(#603,#604),#34,.F.);
#648=CLOSED_SHELL('',(#615,#616,#617,#618,#619,#620,#621,#622,#623,#624,
#625,#626,#627,#628,#629,#630,#631,#632,#633,#634,#635,#636,#637,#638,#639,
#640,#641,#642,#643,#644,#645,#646,#647));
#649=STYLED_ITEM('',(#650),#657);
#650=PRESENTATION_STYLE_ASSIGNMENT((#651));
#651=SURFACE_STYLE_USAGE(.BOTH.,#652);
#652=SURFACE_SIDE_STYLE('',(#653));
#653=SURFACE_STYLE_FILL_AREA(#654);
#654=FILL_AREA_STYLE('',(#655));
#655=FILL_AREA_STYLE_COLOUR('',#656);
#656=COLOUR_RGB('',0.615686274509804,0.811764705882353,0.929411764705882);
#657=MANIFOLD_SOLID_BREP('8-32NutStrip',#648);
#658=SHAPE_DEFINITION_REPRESENTATION(#1096,#659);
#659=SHAPE_REPRESENTATION('8-32NutStrip',(#660),#1091);
#660=AXIS2_PLACEMENT_3D('',#924,#740,#741);
#661=AXIS2_PLACEMENT_3D('',#925,#742,#743);
#662=AXIS2_PLACEMENT_3D('',#926,#744,#745);
#663=AXIS2_PLACEMENT_3D('',#928,#746,#747);
#664=AXIS2_PLACEMENT_3D('',#930,#748,#749);
#665=AXIS2_PLACEMENT_3D('',#932,#750,#751);
#666=AXIS2_PLACEMENT_3D('',#934,#752,#753);
#667=AXIS2_PLACEMENT_3D('',#936,#754,#755);
#668=AXIS2_PLACEMENT_3D('',#938,#756,#757);
#669=AXIS2_PLACEMENT_3D('',#940,#758,#759);
#670=AXIS2_PLACEMENT_3D('',#942,#760,#761);
#671=AXIS2_PLACEMENT_3D('',#944,#762,#763);
#672=AXIS2_PLACEMENT_3D('',#946,#764,#765);
#673=AXIS2_PLACEMENT_3D('',#956,#770,#771);
#674=AXIS2_PLACEMENT_3D('',#970,#779,#780);
#675=AXIS2_PLACEMENT_3D('',#971,#781,#782);
#676=AXIS2_PLACEMENT_3D('',#973,#783,#784);
#677=AXIS2_PLACEMENT_3D('',#975,#785,#786);
#678=AXIS2_PLACEMENT_3D('',#977,#787,#788);
#679=AXIS2_PLACEMENT_3D('',#979,#789,#790);
#680=AXIS2_PLACEMENT_3D('',#981,#791,#792);
#681=AXIS2_PLACEMENT_3D('',#983,#793,#794);
#682=AXIS2_PLACEMENT_3D('',#985,#795,#796);
#683=AXIS2_PLACEMENT_3D('',#987,#797,#798);
#684=AXIS2_PLACEMENT_3D('',#989,#799,#800);
#685=AXIS2_PLACEMENT_3D('',#991,#801,#802);
#686=AXIS2_PLACEMENT_3D('',#998,#806,#807);
#687=AXIS2_PLACEMENT_3D('',#1009,#814,#815);
#688=AXIS2_PLACEMENT_3D('',#1010,#816,#817);
#689=AXIS2_PLACEMENT_3D('',#1012,#818,#819);
#690=AXIS2_PLACEMENT_3D('',#1014,#820,#821);
#691=AXIS2_PLACEMENT_3D('',#1016,#822,#823);
#692=AXIS2_PLACEMENT_3D('',#1018,#824,#825);
#693=AXIS2_PLACEMENT_3D('',#1020,#826,#827);
#694=AXIS2_PLACEMENT_3D('',#1022,#828,#829);
#695=AXIS2_PLACEMENT_3D('',#1024,#830,#831);
#696=AXIS2_PLACEMENT_3D('',#1026,#832,#833);
#697=AXIS2_PLACEMENT_3D('',#1028,#834,#835);
#698=AXIS2_PLACEMENT_3D('',#1030,#836,#837);
#699=AXIS2_PLACEMENT_3D('',#1032,#838,#839);
#700=AXIS2_PLACEMENT_3D('',#1036,#842,#843);
#701=AXIS2_PLACEMENT_3D('',#1037,#844,#845);
#702=AXIS2_PLACEMENT_3D('',#1039,#846,#847);
#703=AXIS2_PLACEMENT_3D('',#1041,#848,#849);
#704=AXIS2_PLACEMENT_3D('',#1043,#850,#851);
#705=AXIS2_PLACEMENT_3D('',#1045,#852,#853);
#706=AXIS2_PLACEMENT_3D('',#1047,#854,#855);
#707=AXIS2_PLACEMENT_3D('',#1049,#856,#857);
#708=AXIS2_PLACEMENT_3D('',#1051,#858,#859);
#709=AXIS2_PLACEMENT_3D('',#1053,#860,#861);
#710=AXIS2_PLACEMENT_3D('',#1055,#862,#863);
#711=AXIS2_PLACEMENT_3D('',#1057,#864,#865);
#712=AXIS2_PLACEMENT_3D('',#1059,#866,#867);
#713=AXIS2_PLACEMENT_3D('',#1063,#870,#871);
#714=AXIS2_PLACEMENT_3D('',#1064,#872,#873);
#715=AXIS2_PLACEMENT_3D('',#1065,#874,#875);
#716=AXIS2_PLACEMENT_3D('',#1066,#876,#877);
#717=AXIS2_PLACEMENT_3D('',#1067,#878,#879);
#718=AXIS2_PLACEMENT_3D('',#1068,#880,#881);
#719=AXIS2_PLACEMENT_3D('',#1069,#882,#883);
#720=AXIS2_PLACEMENT_3D('',#1070,#884,#885);
#721=AXIS2_PLACEMENT_3D('',#1071,#886,#887);
#722=AXIS2_PLACEMENT_3D('',#1072,#888,#889);
#723=AXIS2_PLACEMENT_3D('',#1073,#890,#891);
#724=AXIS2_PLACEMENT_3D('',#1074,#892,#893);
#725=AXIS2_PLACEMENT_3D('',#1075,#894,#895);
#726=AXIS2_PLACEMENT_3D('',#1076,#896,#897);
#727=AXIS2_PLACEMENT_3D('',#1077,#898,#899);
#728=AXIS2_PLACEMENT_3D('',#1078,#900,#901);
#729=AXIS2_PLACEMENT_3D('',#1079,#902,#903);
#730=AXIS2_PLACEMENT_3D('',#1080,#904,#905);
#731=AXIS2_PLACEMENT_3D('',#1081,#906,#907);
#732=AXIS2_PLACEMENT_3D('',#1082,#908,#909);
#733=AXIS2_PLACEMENT_3D('',#1083,#910,#911);
#734=AXIS2_PLACEMENT_3D('',#1084,#912,#913);
#735=AXIS2_PLACEMENT_3D('',#1085,#914,#915);
#736=AXIS2_PLACEMENT_3D('',#1086,#916,#917);
#737=AXIS2_PLACEMENT_3D('',#1087,#918,#919);
#738=AXIS2_PLACEMENT_3D('',#1088,#920,#921);
#739=AXIS2_PLACEMENT_3D('',#1089,#922,#923);
#740=DIRECTION('',(0.,0.,1.));
#741=DIRECTION('',(1.,0.,0.));
#742=DIRECTION('',(1.25209699709612E-16,-1.,0.));
#743=DIRECTION('',(1.,1.25209699709612E-16,0.));
#744=DIRECTION('',(-1.25209699709612E-16,1.,0.));
#745=DIRECTION('',(-1.,-1.25209699709612E-16,0.));
#746=DIRECTION('',(-1.25209699709612E-16,1.,0.));
#747=DIRECTION('',(-1.,-1.25209699709612E-16,0.));
#748=DIRECTION('',(-1.25209699709612E-16,1.,0.));
#749=DIRECTION('',(-1.,-1.25209699709612E-16,0.));
#750=DIRECTION('',(-1.25209699709612E-16,1.,0.));
#751=DIRECTION('',(-1.,-1.25209699709612E-16,0.));
#752=DIRECTION('',(-1.25209699709612E-16,1.,0.));
#753=DIRECTION('',(-1.,-1.25209699709612E-16,0.));
#754=DIRECTION('',(-1.25209699709612E-16,1.,0.));
#755=DIRECTION('',(-1.,-1.25209699709612E-16,0.));
#756=DIRECTION('',(-1.25209699709612E-16,1.,0.));
#757=DIRECTION('',(-1.,-1.25209699709612E-16,0.));
#758=DIRECTION('',(-1.25209699709612E-16,1.,0.));
#759=DIRECTION('',(-1.,-1.25209699709612E-16,0.));
#760=DIRECTION('',(-1.25209699709612E-16,1.,0.));
#761=DIRECTION('',(-1.,-1.25209699709612E-16,0.));
#762=DIRECTION('',(-1.25209699709612E-16,1.,0.));
#763=DIRECTION('',(-1.,-1.25209699709612E-16,0.));
#764=DIRECTION('',(-1.25209699709612E-16,1.,0.));
#765=DIRECTION('',(-1.,-1.25209699709612E-16,0.));
#766=DIRECTION('',(0.,0.,-1.));
#767=DIRECTION('',(1.,1.25209699709612E-16,0.));
#768=DIRECTION('',(0.,0.,-1.));
#769=DIRECTION('',(-1.,-1.25209699709612E-16,0.));
#770=DIRECTION('',(-1.,0.,0.));
#771=DIRECTION('',(0.,0.,1.));
#772=DIRECTION('',(0.,1.,0.));
#773=DIRECTION('',(0.,-0.707106781186548,-0.707106781186548));
#774=DIRECTION('',(0.,0.,-1.));
#775=DIRECTION('',(0.,-0.707106781186548,0.707106781186548));
#776=DIRECTION('',(0.,1.,0.));
#777=DIRECTION('',(0.,0.707106781186547,0.707106781186548));
#778=DIRECTION('',(0.,0.707106781186547,-0.707106781186548));
#779=DIRECTION('',(1.25209699709612E-16,-1.,0.));
#780=DIRECTION('',(1.,1.25209699709612E-16,0.));
#781=DIRECTION('',(1.25209699709612E-16,-1.,0.));
#782=DIRECTION('',(1.,1.25209699709612E-16,0.));
#783=DIRECTION('',(1.25209699709612E-16,-1.,0.));
#784=DIRECTION('',(1.,1.25209699709612E-16,0.));
#785=DIRECTION('',(1.25209699709612E-16,-1.,0.));
#786=DIRECTION('',(1.,1.25209699709612E-16,0.));
#787=DIRECTION('',(1.25209699709612E-16,-1.,0.));
#788=DIRECTION('',(1.,1.25209699709612E-16,0.));
#789=DIRECTION('',(1.25209699709612E-16,-1.,0.));
#790=DIRECTION('',(1.,1.25209699709612E-16,0.));
#791=DIRECTION('',(1.25209699709612E-16,-1.,0.));
#792=DIRECTION('',(1.,1.25209699709612E-16,0.));
#793=DIRECTION('',(1.25209699709612E-16,-1.,0.));
#794=DIRECTION('',(1.,1.25209699709612E-16,0.));
#795=DIRECTION('',(1.25209699709612E-16,-1.,0.));
#796=DIRECTION('',(1.,1.25209699709612E-16,0.));
#797=DIRECTION('',(1.25209699709612E-16,-1.,0.));
#798=DIRECTION('',(1.,1.25209699709612E-16,0.));
#799=DIRECTION('',(1.25209699709612E-16,-1.,0.));
#800=DIRECTION('',(1.,1.25209699709612E-16,0.));
#801=DIRECTION('',(1.25209699709612E-16,-1.,0.));
#802=DIRECTION('',(1.,1.25209699709612E-16,0.));
#803=DIRECTION('',(-1.,-1.25209699709612E-16,0.));
#804=DIRECTION('',(0.,0.,-1.));
#805=DIRECTION('',(1.,1.25209699709612E-16,0.));
#806=DIRECTION('',(-1.,0.,0.));
#807=DIRECTION('',(0.,0.,1.));
#808=DIRECTION('',(0.,0.707106781186548,0.707106781186548));
#809=DIRECTION('',(0.,1.,0.));
#810=DIRECTION('',(0.,-0.707106781186547,0.707106781186548));
#811=DIRECTION('',(0.,-0.707106781186547,-0.707106781186548));
#812=DIRECTION('',(0.,1.,0.));
#813=DIRECTION('',(0.,0.707106781186548,-0.707106781186548));
#814=DIRECTION('',(0.,0.,1.));
#815=DIRECTION('',(1.,0.,0.));
#816=DIRECTION('',(0.,0.,-1.));
#817=DIRECTION('',(-1.,0.,0.));
#818=DIRECTION('',(0.,0.,-1.));
#819=DIRECTION('',(-1.,0.,0.));
#820=DIRECTION('',(0.,0.,-1.));
#821=DIRECTION('',(-1.,0.,0.));
#822=DIRECTION('',(0.,0.,-1.));
#823=DIRECTION('',(-1.,0.,0.));
#824=DIRECTION('',(0.,0.,-1.));
#825=DIRECTION('',(-1.,0.,0.));
#826=DIRECTION('',(0.,0.,-1.));
#827=DIRECTION('',(-1.,0.,0.));
#828=DIRECTION('',(0.,0.,-1.));
#829=DIRECTION('',(-1.,0.,0.));
#830=DIRECTION('',(0.,0.,-1.));
#831=DIRECTION('',(-1.,0.,0.));
#832=DIRECTION('',(0.,0.,-1.));
#833=DIRECTION('',(-1.,0.,0.));
#834=DIRECTION('',(0.,0.,-1.));
#835=DIRECTION('',(-1.,0.,0.));
#836=DIRECTION('',(0.,0.,-1.));
#837=DIRECTION('',(-1.,0.,0.));
#838=DIRECTION('',(0.,0.,-1.));
#839=DIRECTION('',(-1.,0.,0.));
#840=DIRECTION('',(-1.,-1.25209699709612E-16,0.));
#841=DIRECTION('',(1.,1.25209699709612E-16,0.));
#842=DIRECTION('',(0.,0.,1.));
#843=DIRECTION('',(1.,0.,0.));
#844=DIRECTION('',(0.,0.,1.));
#845=DIRECTION('',(1.,0.,0.));
#846=DIRECTION('',(0.,0.,1.));
#847=DIRECTION('',(1.,0.,0.));
#848=DIRECTION('',(0.,0.,1.));
#849=DIRECTION('',(1.,0.,0.));
#850=DIRECTION('',(0.,0.,1.));
#851=DIRECTION('',(1.,0.,0.));
#852=DIRECTION('',(0.,0.,1.));
#853=DIRECTION('',(1.,0.,0.));
#854=DIRECTION('',(0.,0.,1.));
#855=DIRECTION('',(1.,0.,0.));
#856=DIRECTION('',(0.,0.,1.));
#857=DIRECTION('',(1.,0.,0.));
#858=DIRECTION('',(0.,0.,1.));
#859=DIRECTION('',(1.,0.,0.));
#860=DIRECTION('',(0.,0.,1.));
#861=DIRECTION('',(1.,0.,0.));
#862=DIRECTION('',(0.,0.,1.));
#863=DIRECTION('',(1.,0.,0.));
#864=DIRECTION('',(0.,0.,1.));
#865=DIRECTION('',(1.,0.,0.));
#866=DIRECTION('',(0.,0.,1.));
#867=DIRECTION('',(1.,0.,0.));
#868=DIRECTION('',(1.,1.25209699709612E-16,0.));
#869=DIRECTION('',(-1.,-1.25209699709612E-16,0.));
#870=DIRECTION('',(8.8536627734998E-17,-0.707106781186548,0.707106781186548));
#871=DIRECTION('',(-1.,-1.25209699709612E-16,0.));
#872=DIRECTION('',(8.8536627734998E-17,-0.707106781186548,-0.707106781186547));
#873=DIRECTION('',(1.,1.25209699709612E-16,0.));
#874=DIRECTION('',(-8.8536627734998E-17,0.707106781186548,0.707106781186548));
#875=DIRECTION('',(1.,1.25209699709612E-16,0.));
#876=DIRECTION('',(-8.8536627734998E-17,0.707106781186548,-0.707106781186547));
#877=DIRECTION('',(-1.,-1.25209699709612E-16,0.));
#878=DIRECTION('',(0.,0.,-1.));
#879=DIRECTION('',(-1.,0.,0.));
#880=DIRECTION('',(0.,0.,-1.));
#881=DIRECTION('',(-1.,0.,0.));
#882=DIRECTION('',(0.,0.,-1.));
#883=DIRECTION('',(-1.,0.,0.));
#884=DIRECTION('',(0.,0.,-1.));
#885=DIRECTION('',(-1.,0.,0.));
#886=DIRECTION('',(0.,0.,-1.));
#887=DIRECTION('',(-1.,0.,0.));
#888=DIRECTION('',(0.,0.,-1.));
#889=DIRECTION('',(-1.,0.,0.));
#890=DIRECTION('',(0.,0.,-1.));
#891=DIRECTION('',(-1.,0.,0.));
#892=DIRECTION('',(0.,0.,-1.));
#893=DIRECTION('',(-1.,0.,0.));
#894=DIRECTION('',(0.,0.,-1.));
#895=DIRECTION('',(-1.,0.,0.));
#896=DIRECTION('',(0.,0.,-1.));
#897=DIRECTION('',(-1.,0.,0.));
#898=DIRECTION('',(0.,0.,-1.));
#899=DIRECTION('',(-1.,0.,0.));
#900=DIRECTION('',(0.,0.,-1.));
#901=DIRECTION('',(-1.,0.,0.));
#902=DIRECTION('',(-1.25209699709612E-16,1.,0.));
#903=DIRECTION('',(-1.,-1.25209699709612E-16,0.));
#904=DIRECTION('',(-1.25209699709612E-16,1.,0.));
#905=DIRECTION('',(-1.,-1.25209699709612E-16,0.));
#906=DIRECTION('',(-1.25209699709612E-16,1.,0.));
#907=DIRECTION('',(-1.,-1.25209699709612E-16,0.));
#908=DIRECTION('',(-1.25209699709612E-16,1.,0.));
#909=DIRECTION('',(-1.,-1.25209699709612E-16,0.));
#910=DIRECTION('',(-1.25209699709612E-16,1.,0.));
#911=DIRECTION('',(-1.,-1.25209699709612E-16,0.));
#912=DIRECTION('',(-1.25209699709612E-16,1.,0.));
#913=DIRECTION('',(-1.,-1.25209699709612E-16,0.));
#914=DIRECTION('',(-1.25209699709612E-16,1.,0.));
#915=DIRECTION('',(-1.,-1.25209699709612E-16,0.));
#916=DIRECTION('',(-1.25209699709612E-16,1.,0.));
#917=DIRECTION('',(-1.,-1.25209699709612E-16,0.));
#918=DIRECTION('',(-1.25209699709612E-16,1.,0.));
#919=DIRECTION('',(-1.,-1.25209699709612E-16,0.));
#920=DIRECTION('',(-1.25209699709612E-16,1.,0.));
#921=DIRECTION('',(-1.,-1.25209699709612E-16,0.));
#922=DIRECTION('',(-1.25209699709612E-16,1.,0.));
#923=DIRECTION('',(-1.,-1.25209699709612E-16,0.));
#924=CARTESIAN_POINT('',(0.,0.,0.));
#925=CARTESIAN_POINT('',(0.,-0.00635,0.00635));
#926=CARTESIAN_POINT('',(0.0508,-0.00635,0.));
#927=CARTESIAN_POINT('',(0.0490728,-0.00635,0.));
#928=CARTESIAN_POINT('',(0.0635,-0.00635,0.));
#929=CARTESIAN_POINT('',(0.0617728,-0.00635,0.));
#930=CARTESIAN_POINT('',(0.0381,-0.00635,0.));
#931=CARTESIAN_POINT('',(0.0363728,-0.00635,0.));
#932=CARTESIAN_POINT('',(0.0254,-0.00635,0.));
#933=CARTESIAN_POINT('',(0.0236728,-0.00635,0.));
#934=CARTESIAN_POINT('',(0.0127,-0.00635,0.));
#935=CARTESIAN_POINT('',(0.0109728,-0.00635,0.));
#936=CARTESIAN_POINT('',(1.38777878078145E-17,-0.00635,0.));
#937=CARTESIAN_POINT('',(-0.00172719999999999,-0.00635,0.));
#938=CARTESIAN_POINT('',(-0.0127,-0.00635,0.));
#939=CARTESIAN_POINT('',(-0.0144272,-0.00635,0.));
#940=CARTESIAN_POINT('',(-0.0254,-0.00635,0.));
#941=CARTESIAN_POINT('',(-0.0271272,-0.00635,0.));
#942=CARTESIAN_POINT('',(-0.0381,-0.00635,0.));
#943=CARTESIAN_POINT('',(-0.0398272,-0.00635,0.));
#944=CARTESIAN_POINT('',(-0.0508,-0.00635,0.));
#945=CARTESIAN_POINT('',(-0.0525272,-0.00635,0.));
#946=CARTESIAN_POINT('',(-0.0635,-0.00635,0.));
#947=CARTESIAN_POINT('',(-0.0652272,-0.00635,0.));
#948=CARTESIAN_POINT('',(-0.0762,-0.00635,0.00635));
#949=CARTESIAN_POINT('',(-0.0762,-0.00635,0.0047625));
#950=CARTESIAN_POINT('',(-0.0762,-0.00635,-0.0047625));
#951=CARTESIAN_POINT('',(0.0762,-0.00635,-0.0047625));
#952=CARTESIAN_POINT('',(0.0762,-0.00635,-0.0047625));
#953=CARTESIAN_POINT('',(0.0762,-0.00635,0.00635));
#954=CARTESIAN_POINT('',(0.0762,-0.00635,0.0047625));
#955=CARTESIAN_POINT('',(0.,-0.00635,0.0047625));
#956=CARTESIAN_POINT('',(0.0762,1.04083408558608E-17,0.00635));
#957=CARTESIAN_POINT('',(0.0762,1.04083408558608E-17,-0.00635));
#958=CARTESIAN_POINT('',(0.0762,-0.0047625,-0.00635));
#959=CARTESIAN_POINT('',(0.0762,0.0047625,-0.00635));
#960=CARTESIAN_POINT('',(0.0762,0.00635,-0.0047625));
#961=CARTESIAN_POINT('',(0.0762,0.00635,-0.0047625));
#962=CARTESIAN_POINT('',(0.0762,0.00635,0.00635));
#963=CARTESIAN_POINT('',(0.0762,0.00635,0.0047625));
#964=CARTESIAN_POINT('',(0.0762,0.0047625,0.00635));
#965=CARTESIAN_POINT('',(0.0762,0.0047625,0.00635));
#966=CARTESIAN_POINT('',(0.0762,1.04083408558608E-17,0.00635));
#967=CARTESIAN_POINT('',(0.0762,-0.0047625,0.00635));
#968=CARTESIAN_POINT('',(0.0762,-0.00635,0.0047625));
#969=CARTESIAN_POINT('',(0.0762,-0.0047625,-0.00635));
#970=CARTESIAN_POINT('',(0.,0.00635,0.00635));
#971=CARTESIAN_POINT('',(0.0508,0.00635,0.));
#972=CARTESIAN_POINT('',(0.0525272,0.00635,0.));
#973=CARTESIAN_POINT('',(0.0635,0.00635,0.));
#974=CARTESIAN_POINT('',(0.0652272,0.00635,0.));
#975=CARTESIAN_POINT('',(0.0381,0.00635,0.));
#976=CARTESIAN_POINT('',(0.0398272,0.00635,0.));
#977=CARTESIAN_POINT('',(0.0254,0.00635,0.));
#978=CARTESIAN_POINT('',(0.0271272,0.00635,0.));
#979=CARTESIAN_POINT('',(0.0127,0.00635,0.));
#980=CARTESIAN_POINT('',(0.0144272,0.00635,0.));
#981=CARTESIAN_POINT('',(1.22876246215024E-17,0.00635,0.));
#982=CARTESIAN_POINT('',(0.00172720000000001,0.00635,0.));
#983=CARTESIAN_POINT('',(-0.0127,0.00635,0.));
#984=CARTESIAN_POINT('',(-0.0109728,0.00635,0.));
#985=CARTESIAN_POINT('',(-0.0254,0.00635,0.));
#986=CARTESIAN_POINT('',(-0.0236728,0.00635,0.));
#987=CARTESIAN_POINT('',(-0.0381,0.00635,0.));
#988=CARTESIAN_POINT('',(-0.0363728,0.00635,0.));
#989=CARTESIAN_POINT('',(-0.0508,0.00635,0.));
#990=CARTESIAN_POINT('',(-0.0490728,0.00635,0.));
#991=CARTESIAN_POINT('',(-0.0635,0.00635,0.));
#992=CARTESIAN_POINT('',(-0.0617728,0.00635,0.));
#993=CARTESIAN_POINT('',(0.,0.00635,-0.0047625));
#994=CARTESIAN_POINT('',(-0.0762,0.00635,-0.0047625));
#995=CARTESIAN_POINT('',(-0.0762,0.00635,0.00635));
#996=CARTESIAN_POINT('',(-0.0762,0.00635,0.0047625));
#997=CARTESIAN_POINT('',(0.0762,0.00635,0.0047625));
#998=CARTESIAN_POINT('',(-0.0762,-7.80625564189563E-18,0.00635));
#999=CARTESIAN_POINT('',(-0.0762,0.00873125,-0.00238125));
#1000=CARTESIAN_POINT('',(-0.0762,0.0047625,-0.00635));
#1001=CARTESIAN_POINT('',(-0.0762,-7.80625564189563E-18,-0.00635));
#1002=CARTESIAN_POINT('',(-0.0762,-0.0047625,-0.00635));
#1003=CARTESIAN_POINT('',(-0.0762,-0.00873125,-0.00238125));
#1004=CARTESIAN_POINT('',(-0.0762,-0.00238125,0.00873125));
#1005=CARTESIAN_POINT('',(-0.0762,-0.0047625,0.00635));
#1006=CARTESIAN_POINT('',(-0.0762,-7.80625564189563E-18,0.00635));
#1007=CARTESIAN_POINT('',(-0.0762,0.0047625,0.00635));
#1008=CARTESIAN_POINT('',(-0.0762,0.00238125,0.00873125));
#1009=CARTESIAN_POINT('',(0.,0.,0.00635));
#1010=CARTESIAN_POINT('',(-0.06985,0.,0.00635));
#1011=CARTESIAN_POINT('',(-0.0715772,0.,0.00635));
#1012=CARTESIAN_POINT('',(-0.05715,0.,0.00635));
#1013=CARTESIAN_POINT('',(-0.0588772,0.,0.00635));
#1014=CARTESIAN_POINT('',(-0.04445,0.,0.00635));
#1015=CARTESIAN_POINT('',(-0.0461772,0.,0.00635));
#1016=CARTESIAN_POINT('',(-0.03175,0.,0.00635));
#1017=CARTESIAN_POINT('',(-0.0334772,0.,0.00635));
#1018=CARTESIAN_POINT('',(-0.01905,0.,0.00635));
#1019=CARTESIAN_POINT('',(-0.0207772,0.,0.00635));
#1020=CARTESIAN_POINT('',(-0.00635,0.,0.00635));
#1021=CARTESIAN_POINT('',(-0.0080772,0.,0.00635));
#1022=CARTESIAN_POINT('',(0.00635,0.,0.00635));
#1023=CARTESIAN_POINT('',(0.0046228,0.,0.00635));
#1024=CARTESIAN_POINT('',(0.01905,0.,0.00635));
#1025=CARTESIAN_POINT('',(0.0173228,0.,0.00635));
#1026=CARTESIAN_POINT('',(0.03175,0.,0.00635));
#1027=CARTESIAN_POINT('',(0.0300228,0.,0.00635));
#1028=CARTESIAN_POINT('',(0.04445,0.,0.00635));
#1029=CARTESIAN_POINT('',(0.0427228,0.,0.00635));
#1030=CARTESIAN_POINT('',(0.05715,0.,0.00635));
#1031=CARTESIAN_POINT('',(0.0554228,0.,0.00635));
#1032=CARTESIAN_POINT('',(0.06985,0.,0.00635));
#1033=CARTESIAN_POINT('',(0.0681228,0.,0.00635));
#1034=CARTESIAN_POINT('',(-0.0762,0.0047625,0.00635));
#1035=CARTESIAN_POINT('',(5.96311194867028E-19,-0.0047625,0.00635));
#1036=CARTESIAN_POINT('',(0.,0.,-0.00635));
#1037=CARTESIAN_POINT('',(-0.06985,0.,-0.00635));
#1038=CARTESIAN_POINT('',(-0.0681228,0.,-0.00635));
#1039=CARTESIAN_POINT('',(-0.05715,0.,-0.00635));
#1040=CARTESIAN_POINT('',(-0.0554228,0.,-0.00635));
#1041=CARTESIAN_POINT('',(-0.04445,0.,-0.00635));
#1042=CARTESIAN_POINT('',(-0.0427228,0.,-0.00635));
#1043=CARTESIAN_POINT('',(-0.03175,0.,-0.00635));
#1044=CARTESIAN_POINT('',(-0.0300228,0.,-0.00635));
#1045=CARTESIAN_POINT('',(-0.01905,0.,-0.00635));
#1046=CARTESIAN_POINT('',(-0.0173228,0.,-0.00635));
#1047=CARTESIAN_POINT('',(-0.00635,0.,-0.00635));
#1048=CARTESIAN_POINT('',(-0.0046228,0.,-0.00635));
#1049=CARTESIAN_POINT('',(0.00635,0.,-0.00635));
#1050=CARTESIAN_POINT('',(0.0080772,0.,-0.00635));
#1051=CARTESIAN_POINT('',(0.01905,0.,-0.00635));
#1052=CARTESIAN_POINT('',(0.0207772,0.,-0.00635));
#1053=CARTESIAN_POINT('',(0.03175,0.,-0.00635));
#1054=CARTESIAN_POINT('',(0.0334772,0.,-0.00635));
#1055=CARTESIAN_POINT('',(0.04445,0.,-0.00635));
#1056=CARTESIAN_POINT('',(0.0461772,0.,-0.00635));
#1057=CARTESIAN_POINT('',(0.05715,0.,-0.00635));
#1058=CARTESIAN_POINT('',(0.0588772,0.,-0.00635));
#1059=CARTESIAN_POINT('',(0.06985,0.,-0.00635));
#1060=CARTESIAN_POINT('',(0.0715772,0.,-0.00635));
#1061=CARTESIAN_POINT('',(-5.96311194867028E-19,0.0047625,-0.00635));
#1062=CARTESIAN_POINT('',(-0.0762,-0.0047625,-0.00635));
#1063=CARTESIAN_POINT('',(0.,0.00635,-0.0047625));
#1064=CARTESIAN_POINT('',(5.96311194867028E-19,-0.0047625,-0.00635));
#1065=CARTESIAN_POINT('',(-5.96311194867028E-19,0.0047625,0.00635));
#1066=CARTESIAN_POINT('',(0.,-0.00635,0.0047625));
#1067=CARTESIAN_POINT('',(0.06985,0.,0.00635));
#1068=CARTESIAN_POINT('',(0.05715,0.,0.00635));
#1069=CARTESIAN_POINT('',(0.04445,0.,0.00635));
#1070=CARTESIAN_POINT('',(0.03175,0.,0.00635));
#1071=CARTESIAN_POINT('',(0.01905,0.,0.00635));
#1072=CARTESIAN_POINT('',(0.00635,0.,0.00635));
#1073=CARTESIAN_POINT('',(-0.00635,0.,0.00635));
#1074=CARTESIAN_POINT('',(-0.01905,0.,0.00635));
#1075=CARTESIAN_POINT('',(-0.03175,0.,0.00635));
#1076=CARTESIAN_POINT('',(-0.04445,0.,0.00635));
#1077=CARTESIAN_POINT('',(-0.05715,0.,0.00635));
#1078=CARTESIAN_POINT('',(-0.06985,0.,0.00635));
#1079=CARTESIAN_POINT('',(-0.0635,-0.00635,0.));
#1080=CARTESIAN_POINT('',(-0.0508,-0.00635,0.));
#1081=CARTESIAN_POINT('',(-0.0381,-0.00635,0.));
#1082=CARTESIAN_POINT('',(-0.0254,-0.00635,0.));
#1083=CARTESIAN_POINT('',(-0.0127,-0.00635,0.));
#1084=CARTESIAN_POINT('',(1.38777878078145E-17,-0.00635,0.));
#1085=CARTESIAN_POINT('',(0.0127,-0.00635,0.));
#1086=CARTESIAN_POINT('',(0.0254,-0.00635,0.));
#1087=CARTESIAN_POINT('',(0.0381,-0.00635,0.));
#1088=CARTESIAN_POINT('',(0.0635,-0.00635,0.));
#1089=CARTESIAN_POINT('',(0.0508,-0.00635,0.));
#1090=MECHANICAL_DESIGN_GEOMETRIC_PRESENTATION_REPRESENTATION('',(#649),
#1091);
#1091=(
GEOMETRIC_REPRESENTATION_CONTEXT(3)
GLOBAL_UNCERTAINTY_ASSIGNED_CONTEXT((#1092))
GLOBAL_UNIT_ASSIGNED_CONTEXT((#1095,#1094,#1093))
REPRESENTATION_CONTEXT('8-32NutStrip','TOP_LEVEL_ASSEMBLY_PART')
);
#1092=UNCERTAINTY_MEASURE_WITH_UNIT(LENGTH_MEASURE(5.E-6),#1095,
'DISTANCE_ACCURACY_VALUE','Maximum Tolerance applied to model');
#1093=(
NAMED_UNIT(*)
SI_UNIT($,.STERADIAN.)
SOLID_ANGLE_UNIT()
);
#1094=(
NAMED_UNIT(*)
PLANE_ANGLE_UNIT()
SI_UNIT($,.RADIAN.)
);
#1095=(
LENGTH_UNIT()
NAMED_UNIT(*)
SI_UNIT($,.METRE.)
);
#1096=PRODUCT_DEFINITION_SHAPE('','',#1097);
#1097=PRODUCT_DEFINITION('','',#1099,#1098);
#1098=PRODUCT_DEFINITION_CONTEXT('',#1105,'design');
#1099=PRODUCT_DEFINITION_FORMATION_WITH_SPECIFIED_SOURCE('','',#1101,
 .NOT_KNOWN.);
#1100=PRODUCT_RELATED_PRODUCT_CATEGORY('','',(#1101));
#1101=PRODUCT('8-32NutStrip','8-32NutStrip','8-32NutStrip',(#1103));
#1102=PRODUCT_CATEGORY('','');
#1103=PRODUCT_CONTEXT('',#1105,'mechanical');
#1104=APPLICATION_PROTOCOL_DEFINITION('international standard',
'ap242_managed_model_based_3d_engineering',2011,#1105);
#1105=APPLICATION_CONTEXT('managed model based 3d engineering');
ENDSEC;
END-ISO-10303-21;
