<svg version="1.1" id="Layer_1" xmlns="http://www.w3.org/2000/svg" xmlns:xlink="http://www.w3.org/1999/xlink" x="0px" y="0px"
	 width="100%" viewBox="0 0 418 418" enable-background="new 0 0 418 418" xml:space="preserve">
<path fill="#E6E6E6" opacity="1.000000" stroke="none" 
	d="
M419.000000,111.000000 
	C419.000000,213.999985 419.000000,316.499969 419.000000,419.000000 
	C279.666687,419.000000 140.333389,419.000000 1.000065,419.000000 
	C1.000043,279.666718 1.000043,140.333420 1.000022,1.000102 
	C140.333267,1.000068 279.666534,1.000068 418.999908,1.000034 
	C419.000000,37.500000 419.000000,74.000000 419.000000,111.000000 
M374.500000,416.017883 
	C386.332245,416.017883 398.164490,416.019318 409.996735,416.017334 
	C417.013794,416.016174 417.017303,416.013733 417.017365,408.988556 
	C417.018066,276.331177 417.018066,143.673767 417.017365,11.016376 
	C417.017334,4.005870 417.013794,4.002452 409.989075,4.002415 
	C277.331696,4.001729 144.674301,4.001726 12.016912,4.002433 
	C5.006517,4.002470 5.003104,4.005986 5.003067,11.024368 
	C5.002378,143.681763 5.002381,276.339172 5.003071,408.996552 
	C5.003108,416.013733 5.006562,416.017303 12.025275,416.017365 
	C132.516846,416.018127 253.008423,416.017914 374.500000,416.017883 
z"/>
<path fill="#FEFEFE" opacity="1.000000" stroke="none" 
	d="
M374.000000,416.017914 
	C253.008423,416.017914 132.516846,416.018127 12.025275,416.017365 
	C5.006562,416.017303 5.003108,416.013733 5.003071,408.996552 
	C5.002381,276.339172 5.002378,143.681763 5.003067,11.024368 
	C5.003104,4.005986 5.006517,4.002470 12.016912,4.002433 
	C144.674301,4.001726 277.331696,4.001729 409.989075,4.002415 
	C417.013794,4.002452 417.017334,4.005870 417.017365,11.016376 
	C417.018066,143.673767 417.018066,276.331177 417.017365,408.988556 
	C417.017303,416.013733 417.013794,416.016174 409.996735,416.017334 
	C398.164490,416.019318 386.332245,416.017883 374.000000,416.017914 
M275.433685,367.945465 
	C316.827026,361.639282 358.220367,355.333099 399.705902,349.012878 
	C395.385162,320.475311 391.178589,292.691986 386.922668,264.582733 
	C395.766205,263.208618 404.261261,261.888672 413.452545,260.460541 
	C410.073242,238.151794 406.731995,216.094376 403.349701,193.765793 
	C394.181183,195.101517 385.695587,196.337738 376.777527,197.636978 
	C372.450134,169.249481 368.196228,141.344070 363.912933,113.245956 
	C310.694763,121.309303 257.959503,129.299484 205.118790,137.305634 
	C202.615479,126.661568 200.263428,116.660683 197.859604,106.439568 
	C204.692032,105.316406 211.155807,104.253845 217.774872,103.165756 
	C216.812637,97.138870 215.960403,91.800995 215.090271,86.351013 
	C207.708603,87.403358 200.999695,88.359795 193.915756,89.369690 
	C193.097168,85.984848 192.627380,82.857391 191.566193,79.945450 
	C190.146698,76.050323 190.972794,74.030800 194.775681,71.687988 
	C208.735519,63.087875 212.170837,43.736862 202.598343,30.476856 
	C192.986053,17.161766 174.271286,14.202702 161.431549,23.967831 
	C147.917038,34.246155 145.671539,53.072197 156.293594,65.996773 
	C161.150085,71.905998 167.608170,74.935486 174.766022,76.594688 
	C175.139053,81.950188 175.483566,86.896011 175.845673,92.094597 
	C168.741669,93.247055 161.942596,94.350044 154.957809,95.483162 
	C155.896484,101.349098 156.749420,106.679276 157.647202,112.289757 
	C164.352783,111.364029 170.522110,110.512329 177.045776,109.611710 
	C177.793228,120.436638 178.500275,130.676239 179.229584,141.238159 
	C126.823837,149.200439 74.906685,157.088470 22.729883,165.015945 
	C27.026722,193.488052 31.234528,221.370193 35.476322,249.477585 
	C26.230444,250.909515 17.726208,252.226578 8.698903,253.624664 
	C12.077923,275.910767 15.408977,297.880493 18.808233,320.300049 
	C27.928701,318.979492 36.595997,317.724579 45.649479,316.413696 
	C49.953606,344.668274 54.204056,372.570496 58.507812,400.822632 
	C130.794800,389.848145 202.677032,378.935150 275.433685,367.945465 
M68.646202,87.871658 
	C73.278473,100.776268 80.001869,112.425537 89.075966,122.918732 
	C91.150032,121.171730 92.809326,119.786400 94.454643,118.384659 
	C96.052505,117.023346 97.636017,115.645203 99.319550,114.193642 
	C76.403214,85.038322 69.955048,52.847427 79.339058,17.355572 
	C74.764030,16.007713 70.705460,14.812009 66.359444,13.531619 
	C59.153553,38.708481 59.818722,63.034706 68.646202,87.871658 
M278.631927,109.122864 
	C296.678772,79.215683 300.558167,47.507492 291.268005,13.466879 
	C286.528809,14.893541 282.455566,16.119736 278.211090,17.397469 
	C287.550476,53.101727 281.089355,85.396477 258.236908,114.284203 
	C261.948181,117.392250 265.201569,120.116852 268.845123,123.168213 
	C272.157104,118.416443 275.187347,114.068924 278.631927,109.122864 
M111.485321,82.938660 
	C102.036934,64.653481 100.493706,45.552994 105.823830,25.395823 
	C101.505768,24.094940 97.303780,22.829027 92.627106,21.420107 
	C84.483421,52.621918 90.157730,80.145576 109.976486,105.339851 
	C113.655334,102.197289 116.983833,99.354004 120.191742,96.613724 
	C117.220474,91.966484 114.539528,87.773338 111.485321,82.938660 
M252.102814,67.497139 
	C247.616653,77.363762 243.130493,87.230392 238.417877,97.595070 
	C240.758774,99.555527 244.054352,102.315514 247.340652,105.067726 
	C268.500580,81.797440 273.423767,44.496197 264.187561,21.620398 
	C260.132629,22.857489 256.054932,24.101526 251.692795,25.432346 
	C255.594772,39.400211 256.084686,53.038376 252.102814,67.497139 
M233.382141,30.927835 
	C230.592499,31.774733 227.802872,32.621628 225.091507,33.444759 
	C228.694778,52.710999 227.070328,60.590569 215.863525,78.584167 
	C219.181259,81.373840 222.544708,84.201958 225.894608,87.018684 
	C238.451477,73.198868 243.711395,50.868210 239.024963,33.098297 
	C238.202332,29.979073 236.877899,29.290384 233.382141,30.927835 
M129.587631,84.825439 
	C130.834885,85.116058 132.549362,86.072289 133.248260,85.581711 
	C136.223297,83.493431 138.897690,80.976822 141.950165,78.389130 
	C131.075424,64.936943 128.666351,49.711472 132.498520,33.329590 
	C127.838814,32.023293 123.783119,30.886328 119.761864,29.759016 
	C113.905731,48.456707 117.352249,67.785698 129.587631,84.825439 
z"/>
<path fill="#343434" opacity="1.000000" stroke="none" 
	d="
M274.996460,367.983795 
	C202.677032,378.935150 130.794800,389.848145 58.507812,400.822632 
	C54.204056,372.570496 49.953606,344.668274 45.649479,316.413696 
	C36.595997,317.724579 27.928701,318.979492 18.808233,320.300049 
	C15.408977,297.880493 12.077923,275.910767 8.698903,253.624664 
	C17.726208,252.226578 26.230444,250.909515 35.476322,249.477585 
	C31.234528,221.370193 27.026722,193.488052 22.729883,165.015945 
	C74.906685,157.088470 126.823837,149.200439 179.229584,141.238159 
	C178.500275,130.676239 177.793228,120.436638 177.045776,109.611710 
	C170.522110,110.512329 164.352783,111.364029 157.647202,112.289757 
	C156.749420,106.679276 155.896484,101.349098 154.957809,95.483162 
	C161.942596,94.350044 168.741669,93.247055 175.845673,92.094597 
	C175.483566,86.896011 175.139053,81.950188 174.766022,76.594688 
	C167.608170,74.935486 161.150085,71.905998 156.293594,65.996773 
	C145.671539,53.072197 147.917038,34.246155 161.431549,23.967831 
	C174.271286,14.202702 192.986053,17.161766 202.598343,30.476856 
	C212.170837,43.736862 208.735519,63.087875 194.775681,71.687988 
	C190.972794,74.030800 190.146698,76.050323 191.566193,79.945450 
	C192.627380,82.857391 193.097168,85.984848 193.915756,89.369690 
	C200.999695,88.359795 207.708603,87.403358 215.090271,86.351013 
	C215.960403,91.800995 216.812637,97.138870 217.774872,103.165756 
	C211.155807,104.253845 204.692032,105.316406 197.859604,106.439568 
	C200.263428,116.660683 202.615479,126.661568 205.118790,137.305634 
	C257.959503,129.299484 310.694763,121.309303 363.912933,113.245956 
	C368.196228,141.344070 372.450134,169.249481 376.777527,197.636978 
	C385.695587,196.337738 394.181183,195.101517 403.349701,193.765793 
	C406.731995,216.094376 410.073242,238.151794 413.452545,260.460541 
	C404.261261,261.888672 395.766205,263.208618 386.922668,264.582733 
	C391.178589,292.691986 395.385162,320.475311 399.705902,349.012878 
	C358.220367,355.333099 316.827026,361.639282 274.996460,367.983795 
M200.811554,256.040009 
	C200.885300,255.546051 200.942429,255.048935 201.035141,254.558563 
	C209.658066,208.955658 171.738907,171.093277 126.409805,180.047211 
	C95.857979,186.082169 74.158676,215.770599 77.140793,247.455826 
	C80.070091,278.579834 106.692490,303.600769 137.400513,304.090637 
	C167.892868,304.577057 191.552155,286.885834 200.811554,256.040009 
M263.132996,171.554047 
	C228.571365,189.374802 222.611038,232.949203 251.201431,258.782684 
	C267.736298,273.723114 292.610504,276.299255 312.040009,265.083557 
	C331.767059,253.696091 342.188568,230.257278 337.602386,208.438965 
	C331.049438,177.264008 296.344330,156.604294 263.132996,171.554047 
M251.116348,321.653259 
	C236.900421,333.370758 221.319336,335.097656 204.420547,327.549622 
	C200.861603,334.258911 197.472260,340.648468 194.083282,347.037292 
	C216.921661,359.083374 244.331833,356.594635 263.619843,340.540924 
	C281.869263,325.351593 289.165833,305.726074 286.569977,281.777679 
	C280.789185,282.604370 275.546478,283.326233 270.314148,284.116882 
	C268.375549,284.409790 266.461304,284.863983 264.607086,285.230560 
	C263.475647,305.717682 261.972839,309.853973 251.116348,321.653259 
z"/>
<path fill="#2C53AC" opacity="1.000000" stroke="none" 
	d="
M68.473160,87.519188 
	C59.818722,63.034706 59.153553,38.708481 66.359444,13.531619 
	C70.705460,14.812009 74.764030,16.007713 79.339058,17.355572 
	C69.955048,52.847427 76.403214,85.038322 99.319550,114.193642 
	C97.636017,115.645203 96.052505,117.023346 94.454643,118.384659 
	C92.809326,119.786400 91.150032,121.171730 89.075966,122.918732 
	C80.001869,112.425537 73.278473,100.776268 68.473160,87.519188 
z"/>
<path fill="#2C53AC" opacity="1.000000" stroke="none" 
	d="
M278.424744,109.422134 
	C275.187347,114.068924 272.157104,118.416443 268.845123,123.168213 
	C265.201569,120.116852 261.948181,117.392250 258.236908,114.284203 
	C281.089355,85.396477 287.550476,53.101727 278.211090,17.397469 
	C282.455566,16.119736 286.528809,14.893541 291.268005,13.466879 
	C300.558167,47.507492 296.678772,79.215683 278.424744,109.422134 
z"/>
<path fill="#2D54AC" opacity="1.000000" stroke="none" 
	d="
M111.671951,83.259430 
	C114.539528,87.773338 117.220474,91.966484 120.191742,96.613724 
	C116.983833,99.354004 113.655334,102.197289 109.976486,105.339851 
	C90.157730,80.145576 84.483421,52.621918 92.627106,21.420107 
	C97.303780,22.829027 101.505768,24.094940 105.823830,25.395823 
	C100.493706,45.552994 102.036934,64.653481 111.671951,83.259430 
z"/>
<path fill="#2C53AC" opacity="1.000000" stroke="none" 
	d="
M252.203674,67.096878 
	C256.084686,53.038376 255.594772,39.400211 251.692795,25.432346 
	C256.054932,24.101526 260.132629,22.857489 264.187561,21.620398 
	C273.423767,44.496197 268.500580,81.797440 247.340652,105.067726 
	C244.054352,102.315514 240.758774,99.555527 238.417877,97.595070 
	C243.130493,87.230392 247.616653,77.363762 252.203674,67.096878 
z"/>
<path fill="#2D54AC" opacity="1.000000" stroke="none" 
	d="
M233.774048,30.821003 
	C236.877899,29.290384 238.202332,29.979073 239.024963,33.098297 
	C243.711395,50.868210 238.451477,73.198868 225.894608,87.018684 
	C222.544708,84.201958 219.181259,81.373840 215.863525,78.584167 
	C227.070328,60.590569 228.694778,52.710999 225.091507,33.444759 
	C227.802872,32.621628 230.592499,31.774733 233.774048,30.821003 
z"/>
<path fill="#2D54AC" opacity="1.000000" stroke="none" 
	d="
M129.370087,84.547150 
	C117.352249,67.785698 113.905731,48.456707 119.761864,29.759016 
	C123.783119,30.886328 127.838814,32.023293 132.498520,33.329590 
	C128.666351,49.711472 131.075424,64.936943 141.950165,78.389130 
	C138.897690,80.976822 136.223297,83.493431 133.248260,85.581711 
	C132.549362,86.072289 130.834885,85.116058 129.370087,84.547150 
z"/>
<path fill="#9DCBEB" opacity="1.000000" stroke="none" 
	d="
M200.699829,256.441040 
	C191.552155,286.885834 167.892868,304.577057 137.400513,304.090637 
	C106.692490,303.600769 80.070091,278.579834 77.140793,247.455826 
	C74.158676,215.770599 95.857979,186.082169 126.409805,180.047211 
	C171.738907,171.093277 209.658066,208.955658 201.035141,254.558563 
	C200.942429,255.048935 200.885300,255.546051 200.699829,256.441040 
M104.995674,204.467331 
	C82.549255,226.021515 84.548401,259.427582 105.114227,278.347961 
	C129.794205,301.053314 166.912216,295.054810 183.886276,266.112091 
	C197.022522,243.713287 188.824753,212.563370 167.084106,198.791214 
	C149.189560,187.455475 123.084862,187.912003 104.995674,204.467331 
z"/>
<path fill="#9CCAEB" opacity="1.000000" stroke="none" 
	d="
M263.466736,171.373917 
	C296.344330,156.604294 331.049438,177.264008 337.602386,208.438965 
	C342.188568,230.257278 331.767059,253.696091 312.040009,265.083557 
	C292.610504,276.299255 267.736298,273.723114 251.201431,258.782684 
	C222.611038,232.949203 228.571365,189.374802 263.466736,171.373917 
M244.210007,213.050705 
	C240.265259,245.585602 271.206085,267.135193 297.776306,259.214813 
	C320.860046,252.333786 334.653687,224.999786 324.953247,202.932480 
	C316.908325,184.631271 299.349823,174.548096 279.877869,177.047440 
	C262.256805,179.309204 247.933456,193.513412 244.210007,213.050705 
z"/>
<path fill="#FCFCFC" opacity="1.000000" stroke="none" 
	d="
M251.377075,321.406555 
	C261.972839,309.853973 263.475647,305.717682 264.607086,285.230560 
	C266.461304,284.863983 268.375549,284.409790 270.314148,284.116882 
	C275.546478,283.326233 280.789185,282.604370 286.569977,281.777679 
	C289.165833,305.726074 281.869263,325.351593 263.619843,340.540924 
	C244.331833,356.594635 216.921661,359.083374 194.083282,347.037292 
	C197.472260,340.648468 200.861603,334.258911 204.420547,327.549622 
	C221.319336,335.097656 236.900421,333.370758 251.377075,321.406555 
z"/>
<path fill="#FDFDFE" opacity="1.000000" stroke="none" 
	d="
M105.249283,204.218567 
	C123.084862,187.912003 149.189560,187.455475 167.084106,198.791214 
	C188.824753,212.563370 197.022522,243.713287 183.886276,266.112091 
	C166.912216,295.054810 129.794205,301.053314 105.114227,278.347961 
	C84.548401,259.427582 82.549255,226.021515 105.249283,204.218567 
M102.877007,239.633148 
	C102.891174,240.298660 102.900360,240.964325 102.920235,241.629669 
	C103.482529,260.456940 116.534187,275.507141 134.362534,277.887939 
	C152.908554,280.364532 169.549103,269.765137 175.016251,251.620056 
	C177.840942,242.245163 176.934982,233.092010 172.037567,224.157166 
	C164.562607,232.539612 150.464828,231.455978 140.821793,226.771423 
	C132.837784,222.892807 125.634529,218.016113 126.860023,206.832489 
	C112.449310,213.014679 104.552658,223.487778 102.877007,239.633148 
z"/>
<path fill="#FDFDFE" opacity="1.000000" stroke="none" 
	d="
M244.321915,212.623688 
	C247.933456,193.513412 262.256805,179.309204 279.877869,177.047440 
	C299.349823,174.548096 316.908325,184.631271 324.953247,202.932480 
	C334.653687,224.999786 320.860046,252.333786 297.776306,259.214813 
	C271.206085,267.135193 240.265259,245.585602 244.321915,212.623688 
M292.747833,209.064270 
	C289.926117,207.686630 286.858490,206.655121 284.332916,204.860718 
	C278.737183,200.884979 277.869965,197.119812 280.619232,191.415863 
	C269.505829,192.866730 259.921692,202.301483 258.103271,213.580917 
	C256.021301,226.495087 262.259949,238.740662 273.724365,244.242859 
	C285.109375,249.706970 298.427521,247.014847 306.993225,237.517929 
	C314.923218,228.725815 316.512665,215.499588 310.671570,205.937973 
	C305.689941,210.749496 299.772186,210.804916 292.747833,209.064270 
z"/>
<path fill="#2A51AB" opacity="1.000000" stroke="none" 
	d="
M102.904846,239.175385 
	C104.552658,223.487778 112.449310,213.014679 126.860023,206.832489 
	C125.634529,218.016113 132.837784,222.892807 140.821793,226.771423 
	C150.464828,231.455978 164.562607,232.539612 172.037567,224.157166 
	C176.934982,233.092010 177.840942,242.245163 175.016251,251.620056 
	C169.549103,269.765137 152.908554,280.364532 134.362534,277.887939 
	C116.534187,275.507141 103.482529,260.456940 102.920235,241.629669 
	C102.900360,240.964325 102.891174,240.298660 102.904846,239.175385 
z"/>
<path fill="#2A52AB" opacity="1.000000" stroke="none" 
	d="
M293.153076,209.150940 
	C299.772186,210.804916 305.689941,210.749496 310.671570,205.937973 
	C316.512665,215.499588 314.923218,228.725815 306.993225,237.517929 
	C298.427521,247.014847 285.109375,249.706970 273.724365,244.242859 
	C262.259949,238.740662 256.021301,226.495087 258.103271,213.580917 
	C259.921692,202.301483 269.505829,192.866730 280.619232,191.415863 
	C277.869965,197.119812 278.737183,200.884979 284.332916,204.860718 
	C286.858490,206.655121 289.926117,207.686630 293.153076,209.150940 
z"/>
</svg>